<svg xmlns="http://www.w3.org/2000/svg" version="1.1" xmlns:xlink="http://www.w3.org/1999/xlink" width="512" height="512" x="0" y="0" viewBox="0 0 512 512" style="enable-background:new 0 0 512 512" xml:space="preserve" class=""><g><path d="M227.62 205.008c8.849-3.242 18.408-5.011 28.38-5.011 45.563 0 82.5 36.937 82.5 82.5s-36.937 82.5-82.5 82.5-82.5-36.936-82.5-82.5c0-25.619 11.677-48.511 30-63.643" style="stroke-width:15;stroke-linecap:round;stroke-linejoin:round;stroke-miterlimit:10;" fill="none" stroke="#b996f2" stroke-width="15" stroke-linecap="round" stroke-linejoin="round" stroke-miterlimit="10" data-original="#000000" opacity="1"></path><circle cx="256" cy="282.497" r="52.5" style="stroke-width:15;stroke-linecap:round;stroke-linejoin:round;stroke-miterlimit:10;" fill="none" stroke="#b996f2" stroke-width="15" stroke-linecap="round" stroke-linejoin="round" stroke-miterlimit="10" data-original="#000000" opacity="1"></circle><path d="M117.5 404.997c-16.569 0-30-13.431-30-30V231.803a29.998 29.998 0 0 1 15.049-26.011c12.725-7.315 34.323-17.82 67.772-28.641l20.594-25.643a29.928 29.928 0 0 1 19.308-10.936c10.403-1.408 26.727-3.072 45.775-3.072s35.372 1.664 45.775 3.072a29.928 29.928 0 0 1 19.308 10.936l20.594 25.643c33.449 10.822 55.047 21.327 67.772 28.642a29.995 29.995 0 0 1 15.05 26.011v30.588M424.5 292.391v82.606c0 16.569-13.431 30-30 30h-247M140.469 27.654C142.726 16.166 152.851 7.5 165 7.5c13.807 0 25 11.193 25 25s-11.193 25-25 25c13.807 0 25 11.193 25 25s-11.193 25-25 25c-12.624 0-23.062-9.357-24.759-21.513A25.232 25.232 0 0 1 140 82.5M254.048 7.5s-30.966 23.032-35.96 66.525" style="stroke-width:15;stroke-linecap:round;stroke-linejoin:round;stroke-miterlimit:10;" fill="none" stroke="#b996f2" stroke-width="15" stroke-linecap="round" stroke-linejoin="round" stroke-miterlimit="10" data-original="#000000" opacity="1"></path><circle cx="247" cy="78.269" r="29.231" style="stroke-width:15;stroke-linecap:round;stroke-linejoin:round;stroke-miterlimit:10;" fill="none" stroke="#b996f2" stroke-width="15" stroke-linecap="round" stroke-linejoin="round" stroke-miterlimit="10" data-original="#000000" opacity="1"></circle><path d="M358.784 79.716c0 15.345-12.439 27.784-27.784 27.784-15.344 0-27.784-12.439-27.784-27.784V35.284C303.216 19.939 315.656 7.5 331 7.5c15.345 0 27.784 12.439 27.784 27.784v44.432zM426.643 310.88c47.942 16.98 77.857 41.036 77.857 67.71 0 45.74-87.964 83.78-203.945 91.65M256 471.733c-137.243 0-248.5-41.701-248.5-93.142 0-26.673 29.912-50.727 77.848-67.707" style="stroke-width:15;stroke-linecap:round;stroke-linejoin:round;stroke-miterlimit:10;" fill="none" stroke="#b996f2" stroke-width="15" stroke-linecap="round" stroke-linejoin="round" stroke-miterlimit="10" data-original="#000000" opacity="1"></path><path d="m227.463 504.5 32.767-32.767-32.767-32.768" style="stroke-width:15;stroke-linecap:round;stroke-linejoin:round;stroke-miterlimit:10;" fill="none" stroke="#b996f2" stroke-width="15" stroke-linecap="round" stroke-linejoin="round" stroke-miterlimit="10" data-original="#000000" opacity="1"></path><circle cx="400.784" cy="22.5" r="15" style="stroke-width:15;stroke-linecap:round;stroke-linejoin:round;stroke-miterlimit:10;" fill="none" stroke="#b996f2" stroke-width="15" stroke-linecap="round" stroke-linejoin="round" stroke-miterlimit="10" data-original="#000000" opacity="1"></circle></g></svg>