<svg xmlns="http://www.w3.org/2000/svg" version="1.1" xmlns:xlink="http://www.w3.org/1999/xlink" width="512" height="512" x="0" y="0" viewBox="0 0 480 480" style="enable-background:new 0 0 512 512" xml:space="preserve"><g><path d="M360 0H120C97.92.026 80.026 17.92 80 40v368c.024 19.001 13.389 35.373 32 39.2V480h48v-32h160v32h48v-32.8c18.611-3.827 31.976-20.199 32-39.2V40c-.026-22.08-17.92-39.974-40-40zM144 464h-16v-16h16v16zm208 0h-16v-16h16v16zm32-56c0 13.255-10.745 24-24 24H120c-13.255 0-24-10.745-24-24V40c0-13.255 10.745-24 24-24h240c13.255 0 24 10.745 24 24v368z" fill="#b996f2" opacity="1" data-original="#000000"></path><path d="M240 160c-70.692 0-128 57.308-128 128 .084 70.658 57.342 127.916 128 128 70.692 0 128-57.308 128-128s-57.308-128-128-128zm0 240c-61.856 0-112-50.144-112-112 .066-61.828 50.172-111.934 112-112 61.856 0 112 50.144 112 112s-50.144 112-112 112z" fill="#b996f2" opacity="1" data-original="#000000"></path><path d="M240 192c-53.019 0-96 42.981-96 96 .057 52.996 43.004 95.943 96 96 53.019 0 96-42.981 96-96s-42.981-96-96-96zm0 176c-44.183 0-80-35.817-80-80 .049-44.163 35.837-79.952 80-80 44.183 0 80 35.817 80 80s-35.817 80-80 80zM240 32c-30.928 0-56 25.072-56 56 .035 30.913 25.087 55.965 56 56 30.928 0 56-25.072 56-56s-25.072-56-56-56zm0 96c-22.091 0-40-17.909-40-40 .026-22.08 17.92-39.974 40-40 22.091 0 40 17.909 40 40s-17.909 40-40 40z" fill="#b996f2" opacity="1" data-original="#000000"></path><path d="M240 64c-13.255 0-24 10.745-24 24s10.745 24 24 24 24-10.745 24-24-10.745-24-24-24zm0 32a8 8 0 1 1 0-16 8 8 0 0 1 0 16zM112 32h16v16h-16zM352 32h16v16h-16zM112 400h16v16h-16zM352 400h16v16h-16zM240 248c-22.091 0-40 17.909-40 40 .026 22.08 17.92 39.974 40 40 22.091 0 40-17.909 40-40s-17.909-40-40-40zm0 64c-13.255 0-24-10.745-24-24s10.745-24 24-24 24 10.745 24 24-10.745 24-24 24zM48 280H16a8 8 0 0 0 0 16h32a8 8 0 0 0 0-16zM53.656 226.344l-24-24a8 8 0 0 0-11.312 11.312l24 24a8 8 0 0 0 11.312-11.312zM53.46 338.344a8 8 0 0 0-11.116 0l-24 24a8 8 0 0 0-.196 11.312 8 8 0 0 0 11.508 0l24-24a8 8 0 0 0-.196-11.312zM464 280h-32a8 8 0 0 0 0 16h32a8 8 0 0 0 0-16zM461.46 202.344a8.001 8.001 0 0 0-11.116 0l-24 24a8 8 0 0 0 11.312 11.312l24-24a8 8 0 0 0-.196-11.312zM461.656 362.344l-24-24a8 8 0 0 0-11.312.196 8 8 0 0 0 0 11.116l24 24a8 8 0 0 0 11.312-.196 8 8 0 0 0 0-11.116z" fill="#b996f2" opacity="1" data-original="#000000"></path></g></svg>