<svg xmlns="http://www.w3.org/2000/svg" version="1.1" xmlns:xlink="http://www.w3.org/1999/xlink" width="512" height="512" x="0" y="0" viewBox="0 0 64 64" style="enable-background:new 0 0 512 512" xml:space="preserve" class=""><g><path d="M60 13h-1a1 1 0 0 0-.758-.97l-3.149-.787a41.778 41.778 0 0 0-20.186 0L32.3 11.9A24.727 24.727 0 0 0 15.1 5H13a1 1 0 0 0-1 1v1H6a1 1 0 0 0-1 1v5H4a3 3 0 0 0-3 3v37a3 3 0 0 0 3 3h24.127a4 4 0 0 0 7.746 0H60a3 3 0 0 0 3-3V16a3 3 0 0 0-3-3Zm-24.608.183a39.788 39.788 0 0 1 19.216 0l2.392.6V49.72l-1.907-.477a41.778 41.778 0 0 0-20.186 0L33 49.72V13.781ZM14 7h1.1A22.736 22.736 0 0 1 31 13.441v35.691A38.373 38.373 0 0 0 16.679 43.6L14 43.153ZM7 9h5v35a1 1 0 0 0 .836.986l3.515.586a36.333 36.333 0 0 1 10.07 3.253A115.534 115.534 0 0 0 7 47Zm54 44a1 1 0 0 1-1 1H35a1 1 0 0 0-1 1 2 2 0 0 1-4 0 1 1 0 0 0-1-1H4a1 1 0 0 1-1-1V16a1 1 0 0 1 1-1h1v33a1 1 0 0 0 1 1 113.319 113.319 0 0 1 25.441 2.9l.333.078a1.014 1.014 0 0 0 .468-.005l3.15-.787a39.812 39.812 0 0 1 19.216 0l3.15.787A1 1 0 0 0 59 51V15h1a1 1 0 0 1 1 1Z" fill="#b996f2" opacity="1" data-original="#000000" class=""></path><path d="M17 23a13.393 13.393 0 0 1 9.535 3.95l.758.758A1 1 0 0 0 29 27V16a1 1 0 0 0-.219-.625A14.252 14.252 0 0 0 17.6 10H17a1 1 0 0 0-1 1v11a1 1 0 0 0 1 1Zm1-10.994a12.262 12.262 0 0 1 9 4.352v8.3a15.332 15.332 0 0 0-9-3.629ZM26.535 43.949l.758.758A1 1 0 0 0 28 45a.987.987 0 0 0 .383-.076A1 1 0 0 0 29 44V33a1 1 0 0 0-.219-.625A14.252 14.252 0 0 0 17.6 27H17a1 1 0 0 0-1 1v11a1 1 0 0 0 1 1 13.4 13.4 0 0 1 9.535 3.949ZM18 29.006a12.262 12.262 0 0 1 9 4.352v8.3a15.345 15.345 0 0 0-9-3.629ZM36 30h18a1 1 0 0 0 1-1V17a1 1 0 0 0-1-1H36a1 1 0 0 0-1 1v12a1 1 0 0 0 1 1Zm1-3.465 3.666-2.443A7.028 7.028 0 0 1 38.2 27.6l-.533.4H37Zm9.131-1.252 2.51-2.511a11.055 11.055 0 0 1-1.626 3.542ZM45.826 28h-5.139a9.059 9.059 0 0 0 1.992-3.672Zm2.634 0-.11-.128a13.055 13.055 0 0 0 2.5-5.985L53 23.5V28ZM37 18h16v3l-2.4-1.8a1 1 0 0 0-1.307.093l-4.468 4.467-2.066-2.411a1 1 0 0 0-1.314-.181L37 24.132V18ZM36 46h7a1 1 0 0 0 1-1V33a1 1 0 0 0-1-1h-7a1 1 0 0 0-1 1v12a1 1 0 0 0 1 1Zm1-12h5v10h-5ZM54 32h-7a1 1 0 0 0-1 1v12a1 1 0 0 0 1 1h7a1 1 0 0 0 1-1V33a1 1 0 0 0-1-1Zm-1 12h-5V34h5Z" fill="#b996f2" opacity="1" data-original="#000000" class=""></path><circle cx="39" cy="20" r="2" fill="#b996f2" opacity="1" data-original="#000000" class=""></circle></g></svg>