<svg xmlns="http://www.w3.org/2000/svg" version="1.1" xmlns:xlink="http://www.w3.org/1999/xlink" width="512" height="512" x="0" y="0" viewBox="0 0 96 96" style="enable-background:new 0 0 512 512" xml:space="preserve" class=""><g><path d="M48.786 65.994a2.399 2.399 0 0 0-2.399-2.399H19.223c-3.842 0-6.424-2.732-6.424-6.797V20.81c0-3.683 2.252-7.598 6.424-7.598h55.182c4.097 0 7.971 3.693 7.971 7.598V49.2a2.399 2.399 0 1 0 4.798 0V20.81c0-6.488-6.086-12.397-12.769-12.397H19.223C12.93 8.413 8 13.858 8 20.81v35.988c0 6.718 4.72 11.595 11.223 11.595h27.164a2.399 2.399 0 0 0 2.399-2.399z" fill="#b996f2" opacity="1" data-original="#000000"></path><path d="M59.75 38.939a5.072 5.072 0 0 0-2.061-4.051l-12.801-9.395a4.905 4.905 0 0 0-2.957-.966c-2.835 0-5.142 2.186-5.142 4.873v18.809c0 2.687 2.307 4.873 5.142 4.873a4.888 4.888 0 0 0 2.933-.949l12.999-9.422a4.653 4.653 0 0 0 1.887-3.772zm-17.724 9.327c-.338.218-.416.172-.428-.061 0-.005-.008.001-.009.004l-.021-18.736c.034-.05.151-.317.47-.122l12.987 9.491zM83.425 60.22l-2.516 5.416-2.516-5.416a2.398 2.398 0 1 0-4.35 2.02l4.222 9.088-4.222 9.088a2.397 2.397 0 0 0 2.174 3.411 2.4 2.4 0 0 0 2.177-1.389l2.516-5.417 2.516 5.417a2.4 2.4 0 0 0 3.187 1.164 2.397 2.397 0 0 0 1.164-3.186l-4.222-9.088 4.222-9.088a2.398 2.398 0 1 0-4.352-2.02zM58.395 77.605a2 2 0 0 1 1.997-2.012c1.526-.002 3.365-.002 3.365-.002 3.218 0 6.622-3.493 6.622-6.797v-8.547c0-3.462-3.623-6.249-6.622-6.249h-7.636c-1.255 0-2.399.903-2.524 2.152a2.4 2.4 0 0 0 2.387 2.647h7.773c.742 0 1.808 1.007 1.824 1.45v8.547c-.011.619-1.228 1.945-1.824 1.999h-5.098c-4.414 0-5.074 3.069-5.074 4.899v6.448c0 3.36 1.945 5.447 5.074 5.447h9.185c1.255 0 2.399-.903 2.524-2.152a2.4 2.4 0 0 0-2.387-2.647l-7.568-.004a1.994 1.994 0 0 1-1.995-1.979c-.009-.996-.017-2.2-.023-3.2z" fill="#b996f2" opacity="1" data-original="#000000"></path></g></svg>