<svg xmlns="http://www.w3.org/2000/svg" version="1.1" xmlns:xlink="http://www.w3.org/1999/xlink" width="512" height="512" x="0" y="0" viewBox="0 0 64 64" style="enable-background:new 0 0 512 512" xml:space="preserve" class=""><g><path d="m61.067 38.085-.369-.269a55.968 55.968 0 0 0-19.937-9.192c.154-.2.306-.409.447-.624H45a4 4 0 0 0 4-4v-4a3.987 3.987 0 0 0-2-3.444V16a14.991 14.991 0 0 0-29.971-.568 2.884 2.884 0 0 0-4.335 1.835l-1.622 7.3L2.6 35.58A7.716 7.716 0 0 0 8.716 48H9a1 1 0 0 0 1 1h8v8H8a1 1 0 0 0-1 1v4a1 1 0 0 0 1 1h48a1 1 0 0 0 1-1v-4a1 1 0 0 0-1-1h-7l.458-.611a25.672 25.672 0 0 0 2.268-3.613l1.066-.457a21.429 21.429 0 0 0 9.42-7.836 4.692 4.692 0 0 0-1.145-6.4ZM21.43 18a19.44 19.44 0 0 0-.43 4 10.927 10.927 0 0 0 .764 4H19a2 2 0 0 1-2-2v-4a2 2 0 0 1 2-2Zm-3.9 10.881a4.966 4.966 0 0 0 .734-.955A4.021 4.021 0 0 0 19 28h3.792a11.072 11.072 0 0 0 1.914 2.211 86.348 86.348 0 0 0-8.81 3.28 15.288 15.288 0 0 0 .535-1.823l.292-1.311a3 3 0 0 1 .81-1.476ZM32 31a9.011 9.011 0 0 1-9-9 17.467 17.467 0 0 1 .9-5.53l.611-1.831A.933.933 0 0 1 25.4 14a4.286 4.286 0 0 1 2.386.723 7.728 7.728 0 0 0 8.438 0A4.286 4.286 0 0 1 38.6 14a.933.933 0 0 1 .887.639l.613 1.831A17.467 17.467 0 0 1 41 22a9.011 9.011 0 0 1-9 9Zm2.94 1.589a3 3 0 0 1-5.88 0 10.721 10.721 0 0 0 5.88 0ZM23.692 12.544a9 9 0 0 1 16.616 0A2.928 2.928 0 0 0 38.6 12a6.281 6.281 0 0 0-3.5 1.059 5.7 5.7 0 0 1-6.218 0A6.281 6.281 0 0 0 25.4 12a2.934 2.934 0 0 0-1.708.544ZM47 24a2 2 0 0 1-2 2h-2.764A10.927 10.927 0 0 0 43 22a19.44 19.44 0 0 0-.43-4H45a2 2 0 0 1 2 2ZM32 3a13.015 13.015 0 0 1 13 13h-2a11 11 0 0 0-22 0h-2A13.015 13.015 0 0 1 32 3ZM8.716 46a5.716 5.716 0 0 1-4.531-9.2l8.607-11.19a.993.993 0 0 0 .184-.393l1.67-7.516a.891.891 0 0 1 .875-.7.864.864 0 0 1 .594.243A3.977 3.977 0 0 0 15 20v4a3.976 3.976 0 0 0 1.45 3.056 3.023 3.023 0 0 1-.331.411 5 5 0 0 0-1.348 2.456l-.292 1.312A13.037 13.037 0 0 1 7.553 40.1l.894 1.79c.192-.1.367-.213.553-.316V46ZM19 47h-8v-6.735a14.986 14.986 0 0 0 3.573-3.989 84.322 84.322 0 0 1 12.186-4.607c.078.043.162.076.241.117V32a5 5 0 0 0 10 0v-.214a11.1 11.1 0 0 0 2.2-1.486l.6.14a53.953 53.953 0 0 1 16.369 6.76 42.7 42.7 0 0 0-7.053 8.8H46a1 1 0 0 0-1 1v3.055a4.822 4.822 0 0 0-1.7 2.613L42.219 57h-8.351l4.964-7.445a1 1 0 0 0-.589-1.525L35 47.219V40a1 1 0 0 0-1.79-.614l-7 9a1 1 0 0 0 .418 1.543l4.049 1.619L28.341 57H20v-9a1 1 0 0 0-1-1Zm28.968 1-.577 1.038c-.134.017-.261.052-.392.08V48Zm-15.044 2.617a1 1 0 0 0-.552-.546l-3.767-1.506L33 42.914V48a1 1 0 0 0 .757.97l2.624.656L31.465 57h-.949l2.4-5.606a1 1 0 0 0 .008-.777ZM55 61H9v-2h46Zm5.548-17.626a19.45 19.45 0 0 1-8.543 7.107l-1.4.6a1 1 0 0 0-.5.473 23.786 23.786 0 0 1-2.245 3.634L46.5 57h-2.219l.962-3.848A2.838 2.838 0 0 1 48 51a1 1 0 0 0 .874-.515l1.207-2.173a40.775 40.775 0 0 1 7.82-10c.543.367 1.088.731 1.62 1.119l.37.268a2.694 2.694 0 0 1 .657 3.672Z" fill="#b996f2" opacity="1" data-original="#000000"></path></g></svg>