<svg xmlns="http://www.w3.org/2000/svg" version="1.1" xmlns:xlink="http://www.w3.org/1999/xlink" width="512" height="512" x="0" y="0" viewBox="0 0 512 512" style="enable-background:new 0 0 512 512" xml:space="preserve" class=""><g><path d="M328.73 229.511a7.5 7.5 0 0 0-7.5 7.5v8.996a7.5 7.5 0 0 0 15 0v-8.996a7.5 7.5 0 0 0-7.5-7.5zM306.552 240.944a7.5 7.5 0 0 0-12.99 7.5l4.498 7.791a7.497 7.497 0 0 0 10.245 2.745 7.5 7.5 0 0 0 2.745-10.245zM361.153 238.199a7.497 7.497 0 0 0-10.245 2.745l-4.498 7.791a7.5 7.5 0 0 0 12.99 7.5l4.498-7.791a7.498 7.498 0 0 0-2.745-10.245zM186.263 111.645c7.333 5.938 16.163 8.866 24.964 8.866 10.2 0 20.362-3.934 28.104-11.676 14.422-14.422 15.63-37.236 2.81-53.068a10.609 10.609 0 0 0-7.678-3.914 10.549 10.549 0 0 0-8.021 3.078l-41.015 41.015a10.577 10.577 0 0 0-3.078 8.02 10.61 10.61 0 0 0 3.914 7.679zm46.953-42.277c4.893 9.391 3.286 21.083-4.492 28.86-7.778 7.776-19.47 9.385-28.86 4.492zM451.607 107.022a10.579 10.579 0 0 0 8.02 3.078 10.61 10.61 0 0 0 7.68-3.915c12.82-15.832 11.612-38.646-2.81-53.068s-37.236-15.63-53.068-2.809a10.613 10.613 0 0 0-3.914 7.679 10.573 10.573 0 0 0 3.078 8.02zm2.284-43.298c7.777 7.777 9.385 19.47 4.492 28.86l-33.352-33.352c9.39-4.894 21.083-3.285 28.86 4.492z" fill="#b996f2" opacity="1" data-original="#000000"></path><path d="M499.395 275.519h-15.381c8.886-19.185 11.742-40.218 7.45-59.77a7.498 7.498 0 0 0-5.717-5.717c-7.494-1.645-15.206-2.231-22.949-1.84a62.252 62.252 0 0 0-4.889-12.866c-7.531-14.689-20.332-25.567-36.044-30.629a61.59 61.59 0 0 0-24.566-2.695c-.051-.203-.096-.408-.15-.611a94.555 94.555 0 0 0 27.755-17.057 12.738 12.738 0 0 0 4.286-9.113 12.631 12.631 0 0 0-3.68-9.287L308.716 9.142a12.627 12.627 0 0 0-9.286-3.68 12.728 12.728 0 0 0-9.113 4.286c-32.094 36.322-31.545 90.966.463 126.689-.738.846-1.46 1.71-2.154 2.599-12.354-7.473-27.076-10.457-41.475-8.229-14.163 2.191-26.642 9.072-35.871 19.024-9.285-3.002-20.093-.684-30.848 6.425-.94-38.744-18.75-68.637-41.318-68.637-17.105 0-31.597 16.905-37.944 42.702-.472-.487-.948-.97-1.427-1.45-28.495-28.495-63.662-37.972-80.061-21.572-16.399 16.398-6.923 51.565 21.572 80.061.479.479.963.956 1.45 1.427C16.905 195.135 0 209.626 0 226.732c0 22.568 29.893 40.378 68.637 41.319a54.166 54.166 0 0 0-4.159 7.468H25.624c-6.951 0-12.605 5.655-12.605 12.605v18.379c0 6.951 5.655 12.605 12.605 12.605h8.553c3.826 36.117 16.123 70.727 36.132 101.263 23.854 36.403 57.331 65.188 96.813 83.242a32.535 32.535 0 0 0 13.437 2.93H283.5a7.5 7.5 0 0 0 0-15H180.558c-2.461 0-4.951-.543-7.199-1.571-36.907-16.876-68.203-43.787-90.504-77.822-18.402-28.083-29.808-59.862-33.572-93.042h426.453c-3.764 33.18-15.17 64.958-33.572 93.042-22.302 34.035-53.598 60.945-90.504 77.822a17.437 17.437 0 0 1-7.199 1.571H318.5a7.5 7.5 0 0 0 0 15h25.96c4.599 0 9.245-1.013 13.437-2.93 39.481-18.054 72.958-46.839 96.812-83.242 20.009-30.536 32.306-65.146 36.132-101.263h8.553c6.951 0 12.605-5.654 12.605-12.605v-18.379c.001-6.95-5.654-12.605-12.604-12.605zm-20.978-41.835c.103 14.13-3.816 28.612-11.214 41.835h-30.621zm-10.588-10.624-47.883 47.883a93.623 93.623 0 0 0-10.474-24.992c16.974-14.882 38.037-23.046 58.357-22.891zm-54.751-88.343a79.508 79.508 0 0 1-21.481 12.734 62.26 62.26 0 0 0-8.902-12.376 65.156 65.156 0 0 0 19.947-10.794zm-70.436-70.436 27.733 27.733a20.984 20.984 0 0 1-8.565 1.808c-5.616 0-10.887-2.179-14.844-6.135-6.318-6.318-7.759-15.693-4.324-23.406zm-42.707-42.707 10.447 10.447a65.541 65.541 0 0 0-12.044 24.077 7.501 7.501 0 0 0 14.51 3.804 50.53 50.53 0 0 1 8.226-17.19l10.543 10.543c-9.049 13.943-7.471 32.823 4.744 45.037 6.789 6.79 15.828 10.529 25.45 10.529 7.066 0 13.813-2.023 19.589-5.783l10.546 10.546c-7.28 5.392-15.689 8.573-24.304 9.563a61.457 61.457 0 0 0-23.595-7.568 61.507 61.507 0 0 0-9.872-.274 50.634 50.634 0 0 1-8.194-6.633 50.106 50.106 0 0 1-11.679-18.261 7.5 7.5 0 0 0-9.628-4.45 7.5 7.5 0 0 0-4.45 9.628 65.005 65.005 0 0 0 15.15 23.69l.011.011a62.128 62.128 0 0 0-13.444 7.128c-26.409-29.489-27.391-74.264-2.006-104.844zm-50.491 124.058c12.925-1.996 26.2 1.548 36.42 9.733a7.498 7.498 0 0 0 11.152-2.051c9.326-15.85 27.156-24.81 45.409-22.823 19.82 2.155 35.424 16.46 40.213 34.684a61.857 61.857 0 0 0-19.792 11.302c-10.589-9.814-24.408-15.71-38.958-16.437-24.306-1.206-46.613 11.741-57.718 32.818a61.565 61.565 0 0 0-16.987-3.259 61.51 61.51 0 0 0-16.912 1.51c.451-13.387-2.453-24.879-8.558-32.556a46.722 46.722 0 0 1 25.731-12.921zm-19.201 61.672a46.38 46.38 0 0 1 18.191-2.722 46.48 46.48 0 0 1 18.271 4.713 7.5 7.5 0 0 0 10.321-4.082c7.206-19.075 25.743-31.211 46.112-30.191 13.063.652 25.348 6.808 33.705 16.889a7.498 7.498 0 0 0 5.612 2.711 7.448 7.448 0 0 0 5.724-2.467c12.334-13.64 31.602-18.813 49.083-13.182 11.898 3.833 21.592 12.071 27.295 23.195a47.287 47.287 0 0 1 3.215 8.003c-16.765 3.576-33.097 11.631-47.059 23.545-17.289-20.494-43.137-33.542-71.986-33.542-45.48 0-83.51 32.411-92.264 75.344h-18.829l-5.61-20.937a7.174 7.174 0 0 1 .921-5.738 127.613 127.613 0 0 0 8.412-15.253c4.155-8.904 7.099-17.791 8.886-26.286zm154.646 54.63a7.501 7.501 0 0 0-10.245-2.745l-7.791 4.498a7.5 7.5 0 0 0-1.521 11.831h-73.204a7.5 7.5 0 0 0-1.521-11.831l-7.791-4.498a7.5 7.5 0 0 0-7.5 12.99l5.784 3.339h-29.264c8.476-34.594 39.725-60.344 76.894-60.344s68.419 25.75 76.894 60.344H376.36l5.784-3.339a7.5 7.5 0 0 0 2.745-10.245zM89.134 139.48a112.16 112.16 0 0 1 10.705 12.379 7.5 7.5 0 0 0 13.484-3.725c2.852-28.489 15.352-45.514 25.789-45.514 12.467 0 26.357 23.354 26.357 56.866 0 4.28-.243 8.59-.723 12.811a7.5 7.5 0 0 0 12.923 5.977c11.02-11.75 22.89-17.128 30.24-13.701 11.299 5.269 14.019 32.305-.144 62.677a112.384 112.384 0 0 1-7.417 13.453c-3.401 5.263-4.425 11.736-2.812 17.76l4.57 17.055h-3.602l-27.569-27.569 7.555-47.698a7.5 7.5 0 0 0-6.234-8.581c-4.088-.645-7.933 2.144-8.581 6.234l-5.85 36.935-21.952-21.952 7.555-47.698a7.5 7.5 0 0 0-14.815-2.347l-5.85 36.935-85.27-85.27c12.009-2.063 32.667 5.998 51.641 24.973zM497 304.108H28.019v-13.589H126a7.5 7.5 0 0 0 0-15H81.74c2.33-3.387 5.307-6.846 8.914-10.23a7.5 7.5 0 0 0-5.979-12.923c-4.219.48-8.529.724-12.811.724-33.51 0-56.864-13.891-56.864-26.358 0-10.438 17.024-22.938 45.514-25.789a7.5 7.5 0 0 0 3.726-13.483 112.17 112.17 0 0 1-12.38-10.705c-11.312-11.312-19.591-24.139-23.312-36.116-1.856-5.976-2.394-11.29-1.666-15.531l85.276 85.276-36.935 5.85a7.5 7.5 0 0 0 2.347 14.816l47.698-7.555 21.952 21.952-36.935 5.85a7.5 7.5 0 0 0 2.347 14.816l47.698-7.555 16.962 16.962H161a7.5 7.5 0 0 0 0 15h336z" fill="#b996f2" opacity="1" data-original="#000000"></path></g></svg>