<svg xmlns="http://www.w3.org/2000/svg" version="1.1" xmlns:xlink="http://www.w3.org/1999/xlink" width="512" height="512" x="0" y="0" viewBox="0 0 60 60" style="enable-background:new 0 0 512 512" xml:space="preserve" class=""><g><path d="M57.114 41.336c-1.524-2.065-1.562-5.432-1.6-9-.035-3.064-.078-6.216-1.049-8.951a3.5 3.5 0 0 0 1.519-3.243A3.606 3.606 0 0 0 52.361 17h-3.639a12.682 12.682 0 0 0-3.933-1.289L27.15 13.052a4.488 4.488 0 0 0-5.121 3.777c-.008.057-.006.114-.012.171H19a5.005 5.005 0 0 0-3.915-4.88 4.988 4.988 0 0 0-8.141-.03A4.936 4.936 0 0 0 6 12a5.006 5.006 0 0 0-5 5c0 .09.012.179.017.269A1.994 1.994 0 0 0 0 19a9.01 9.01 0 0 0 9 9h2a8.982 8.982 0 0 0 6.367-2.633A8.6 8.6 0 0 0 18.482 24h3.126a4.494 4.494 0 0 0 .03 2.526A4.486 4.486 0 0 0 24.3 34.47a4.489 4.489 0 0 0 4.39 5.63 4.585 4.585 0 0 0 1.317-.194 17.826 17.826 0 0 0 4.337 7.945 23.6 23.6 0 0 0 7.087 5l6.274 6.274a2.978 2.978 0 0 0 2.123.875H57a3 3 0 0 0 3-3V45.752a3 3 0 0 0-.744-1.977ZM24.983 15.491a2.5 2.5 0 0 1 1.868-.462L39.921 17H24.037a2.456 2.456 0 0 1 .946-1.509ZM6 14a2.88 2.88 0 0 1 1.05.192 1 1 0 0 0 1.262-.5 2.99 2.99 0 0 1 5.3-.164 1 1 0 0 0 .748.5A3 3 0 0 1 17 17H3a3 3 0 0 1 3-3Zm11.92 8a1 1 0 0 0-.874.514 6.492 6.492 0 0 1-1.09 1.436A7 7 0 0 1 11 26H9a7.009 7.009 0 0 1-7-7h50.361a1.592 1.592 0 0 1 1.631 1.342 1.509 1.509 0 0 1-1.093 1.6 1.351 1.351 0 0 1-.4.054H29.077a4.451 4.451 0 0 0-5.82-.427 4.872 4.872 0 0 0-.446.427Zm18.159 9.362L30.648 24h4.5c1.034 1.78 2.152 4.629.931 7.362Zm-13.592.1a2.5 2.5 0 0 1 .154-3.156l2.909 3.94a2.506 2.506 0 0 1-3.063-.785Zm4.157 5.632a2.506 2.506 0 0 1 .154-3.158l2.777 3.764.031.227a2.593 2.593 0 0 1-2.962-.834ZM58 57a1 1 0 0 1-1 1h-7.172a1 1 0 0 1-.707-.293l-6.414-6.414a1.021 1.021 0 0 0-.341-.224 21.472 21.472 0 0 1-6.592-4.618 16.7 16.7 0 0 1-4.237-9.213 1.015 1.015 0 0 0-.192-.511l-7.421-10.052a2.5 2.5 0 0 1 .049-3.04 2.866 2.866 0 0 1 .483-.462 2.473 2.473 0 0 1 3.422.45c.151.189.258.339 7.487 10.141a1 1 0 0 0 .8.406 1 1 0 0 0 .8-.405c2.611-3.526 1.575-7.37.428-9.765h15.16c.882 2.44.926 5.445.959 8.366.044 3.9.085 7.578 2.046 10.227l2.2 2.506a1 1 0 0 1 .247.657ZM11 1a3.78 3.78 0 0 1-.832 2.445A5.744 5.744 0 0 0 9 7a1 1 0 0 0 2 0 3.78 3.78 0 0 1 .832-2.445A5.744 5.744 0 0 0 13 1a1 1 0 0 0-2 0ZM5 3a3.78 3.78 0 0 1-.832 2.445A5.744 5.744 0 0 0 3 9a1 1 0 0 0 2 0 3.78 3.78 0 0 1 .832-2.445A5.744 5.744 0 0 0 7 3a1 1 0 0 0-2 0ZM17 3a3.78 3.78 0 0 1-.832 2.445A5.744 5.744 0 0 0 15 9a1 1 0 0 0 2 0 3.78 3.78 0 0 1 .832-2.445A5.744 5.744 0 0 0 19 3a1 1 0 0 0-2 0Z" fill="#b996f2" opacity="1" data-original="#000000"></path></g></svg>