<svg xmlns="http://www.w3.org/2000/svg" version="1.1" xmlns:xlink="http://www.w3.org/1999/xlink" width="512" height="512" x="0" y="0" viewBox="0 0 60 60" style="enable-background:new 0 0 512 512" xml:space="preserve" class=""><g><path d="M10 9h15a1 1 0 0 0 0-2H10a1 1 0 0 0 0 2Z" fill="#b996f2" opacity="1" data-original="#000000"></path><path d="M57 6h-1V5a3 3 0 0 0-3-3H34a5 5 0 0 0-4 2 5 5 0 0 0-4-2H7a3 3 0 0 0-3 3v1H3a3 3 0 0 0-3 3v42a3 3 0 0 0 3 3h19.1a5.008 5.008 0 0 0 4.9 4h6a4.993 4.993 0 0 0 4.9-4H57a3 3 0 0 0 3-3V9a3 3 0 0 0-3-3ZM31 7a3 3 0 0 1 3-3h19a1 1 0 0 1 1 1v42a1 1 0 0 1-1 1H34a4.961 4.961 0 0 0-3 1.013v-4.2l1.658.865A3 3 0 0 0 37 43V21a3 3 0 0 0-4.357-2.675L31 19.179Zm2.553 13.1A1 1 0 0 1 35 21v22a1 1 0 0 1-1.432.9L23 38.391V25.6ZM6 5a1 1 0 0 1 1-1h19a3 3 0 0 1 3 3v13.221L21.755 24H17a3 3 0 0 0-3 3v10a3 3 0 0 0 3 3h4.755L29 43.774v5.239A4.961 4.961 0 0 0 26 48H7a1 1 0 0 1-1-1Zm15 21v12h-4a1 1 0 0 1-1-1V27a1 1 0 0 1 1-1Zm37 25a1 1 0 0 1-1 1H37a1 1 0 0 0-1 1 2.994 2.994 0 0 1-3 3h-6a3 3 0 0 1-3-3 1 1 0 0 0-1-1H3a1 1 0 0 1-1-1V9a1 1 0 0 1 1-1h1v39a3 3 0 0 0 3 3h19a3 3 0 0 1 3 3 1 1 0 0 0 2 0 3 3 0 0 1 3-3h19a3 3 0 0 0 3-3V8h1a1 1 0 0 1 1 1Z" fill="#b996f2" opacity="1" data-original="#000000"></path><path d="M45 31h-5a1 1 0 0 0 0 2h5a1 1 0 0 0 0-2ZM40.6 28.8l4-3a1 1 0 1 0-1.2-1.6l-4 3a1 1 0 1 0 1.2 1.6ZM40.6 35.2a1 1 0 0 0-1.2 1.6l4 3a1 1 0 1 0 1.2-1.6ZM10 14h4a1 1 0 0 0 0-2h-4a1 1 0 0 0 0 2ZM25 12h-7a1 1 0 0 0 0 2h7a1 1 0 0 0 0-2ZM10 19h9a1 1 0 0 0 0-2h-9a1 1 0 0 0 0 2ZM35 9h15a1 1 0 0 0 0-2H35a1 1 0 0 0 0 2ZM50 12h-4a1 1 0 0 0 0 2h4a1 1 0 0 0 0-2ZM35 14h7a1 1 0 0 0 0-2h-7a1 1 0 0 0 0 2ZM50 17h-9a1 1 0 0 0 0 2h9a1 1 0 0 0 0-2Z" fill="#b996f2" opacity="1" data-original="#000000"></path></g></svg>