<svg xmlns="http://www.w3.org/2000/svg" version="1.1" xmlns:xlink="http://www.w3.org/1999/xlink" width="512" height="512" x="0" y="0" viewBox="0 0 32 32" style="enable-background:new 0 0 512 512" xml:space="preserve" class=""><g><path d="M17.6 31.75H3.4A2.653 2.653 0 0 1 .75 29.1V2.9C.75 1.439 1.939.25 3.4.25h14.2c1.461 0 2.65 1.189 2.65 2.65V7a.75.75 0 0 1-1.5 0V2.9a1.15 1.15 0 0 0-1.15-1.15H3.4A1.15 1.15 0 0 0 2.25 2.9v26.2c0 .634.516 1.15 1.15 1.15h14.2a1.15 1.15 0 0 0 1.15-1.15V25a.75.75 0 0 1 1.5 0v4.1c0 1.461-1.189 2.65-2.65 2.65z" fill="#b996f2" opacity="1" data-original="#000000"></path><path d="M13.5 4.75h-6c-.965 0-1.75-.785-1.75-1.75V1a.75.75 0 0 1 1.5 0v2c0 .136.114.25.25.25h6c.136 0 .25-.114.25-.25V1a.75.75 0 0 1 1.5 0v2c0 .965-.785 1.75-1.75 1.75zM24.3 22.75h-9.6a1.953 1.953 0 0 1-1.95-1.95v-9.6c0-1.075.875-1.95 1.95-1.95h9.6c1.075 0 1.95.875 1.95 1.95v9.6c0 1.075-.875 1.95-1.95 1.95zm-9.6-12a.451.451 0 0 0-.45.45v9.6c0 .248.202.45.45.45h9.6c.248 0 .45-.202.45-.45v-9.6a.451.451 0 0 0-.45-.45z" fill="#b996f2" opacity="1" data-original="#000000"></path><path d="M30.5 21.55a.751.751 0 0 1-.325-.074l-5-2.4a.75.75 0 0 1-.425-.676v-4.8a.75.75 0 0 1 .425-.676l5-2.4a.753.753 0 0 1 1.075.676v9.6a.75.75 0 0 1-.75.75zm-4.25-3.622 3.5 1.68v-7.216l-3.5 1.68v3.856zM12.5 27.75h-4a.75.75 0 0 1 0-1.5h4a.75.75 0 0 1 0 1.5z" fill="#b996f2" opacity="1" data-original="#000000"></path></g></svg>