<svg xmlns="http://www.w3.org/2000/svg" version="1.1" xmlns:xlink="http://www.w3.org/1999/xlink" width="512" height="512" x="0" y="0" viewBox="0 0 512 512" style="enable-background:new 0 0 512 512" xml:space="preserve" class=""><g><path d="m57.474 207.555 80.129 20.056a7.5 7.5 0 0 0 9.097-5.455 7.5 7.5 0 0 0-5.454-9.096l-51.061-12.78 51.061-12.78a7.499 7.499 0 0 0 3.394-12.666l-37.83-36.598 50.61 14.462a7.5 7.5 0 0 0 9.271-9.272l-14.462-50.609 36.598 37.83a7.499 7.499 0 0 0 12.666-3.394l12.779-51.06 12.78 51.06a7.499 7.499 0 0 0 12.666 3.394l36.598-37.83-14.462 50.609a7.498 7.498 0 0 0 9.271 9.272l50.609-14.462-37.829 36.598a7.5 7.5 0 0 0 3.394 12.666l51.061 12.78-51.061 12.78a7.499 7.499 0 0 0-5.454 9.096 7.503 7.503 0 0 0 7.27 5.681c.603 0 1.216-.073 1.827-.227l80.129-20.056a7.499 7.499 0 0 0 0-14.55l-67.032-16.777 49.662-48.045a7.499 7.499 0 0 0-7.276-12.601l-66.439 18.986 18.986-66.439a7.502 7.502 0 0 0-12.602-7.276l-48.046 49.662-16.777-67.031a7.5 7.5 0 0 0-14.55 0l-16.776 67.031-48.046-49.662a7.501 7.501 0 0 0-12.602 7.276l18.986 66.439-66.44-18.986a7.5 7.5 0 0 0-7.276 12.601l49.662 48.045-67.031 16.777a7.499 7.499 0 0 0 0 14.551z" fill="#b996f2" opacity="1" data-original="#000000" class=""></path><path d="M206.771 152.999v35c0 4.142 3.357 7.5 7.5 7.5s7.5-3.358 7.5-7.5v-35c0-4.142-3.357-7.5-7.5-7.5s-7.5 3.358-7.5 7.5zM363.483 108.063c11.052 3.64 14.224 6.812 17.863 17.862a9.503 9.503 0 0 0 9.044 6.539h.002a9.506 9.506 0 0 0 9.047-6.538c3.639-11.051 6.811-14.223 17.862-17.863a9.502 9.502 0 0 0 6.538-9.044 9.503 9.503 0 0 0-6.538-9.047c-11.052-3.64-14.224-6.812-17.863-17.866a9.504 9.504 0 0 0-9.046-6.535h-.002a9.502 9.502 0 0 0-9.044 6.538c-3.64 11.051-6.812 14.223-17.864 17.864a9.504 9.504 0 0 0-6.536 9.046 9.504 9.504 0 0 0 6.537 9.044zm26.91-19.488c2.709 4.416 6.026 7.733 10.441 10.442-4.415 2.708-7.733 6.026-10.441 10.441-2.708-4.415-6.026-7.733-10.441-10.441 4.415-2.709 7.732-6.026 10.441-10.442zM47.058 270.256h4.603v4.603c0 4.142 3.357 7.5 7.5 7.5s7.5-3.358 7.5-7.5v-4.603h4.604c4.143 0 7.5-3.358 7.5-7.5s-3.357-7.5-7.5-7.5H66.66v-4.603c0-4.142-3.357-7.5-7.5-7.5s-7.5 3.358-7.5 7.5v4.603h-4.603a7.5 7.5 0 1 0 .001 15zM435 174.906h4.604v4.603c0 4.142 3.357 7.5 7.5 7.5s7.5-3.358 7.5-7.5v-4.603h4.603c4.143 0 7.5-3.358 7.5-7.5s-3.357-7.5-7.5-7.5h-4.603v-4.603c0-4.142-3.357-7.5-7.5-7.5s-7.5 3.358-7.5 7.5v4.603H435c-4.143 0-7.5 3.358-7.5 7.5s3.357 7.5 7.5 7.5zM69 73.906h4.604v4.603c0 4.142 3.357 7.5 7.5 7.5s7.5-3.358 7.5-7.5v-4.603h4.603c4.143 0 7.5-3.358 7.5-7.5s-3.357-7.5-7.5-7.5h-4.603v-4.603c0-4.142-3.357-7.5-7.5-7.5s-7.5 3.358-7.5 7.5v4.603H69c-4.143 0-7.5 3.358-7.5 7.5s3.357 7.5 7.5 7.5zM54.955 459.195C32.924 459.195 15 441.271 15 419.24s17.924-39.955 39.955-39.955c4.156 0 8.265.642 12.213 1.908 2.431.78 5.09.27 7.057-1.351a7.503 7.503 0 0 0 2.682-6.667 51.636 51.636 0 0 1-.371-6.083c0-28.357 23.07-51.428 51.428-51.428a51.127 51.127 0 0 1 19.426 3.808 7.5 7.5 0 0 0 5.672-13.887 66.072 66.072 0 0 0-25.098-4.921c-35.821 0-65.111 28.503-66.385 64.02a55.162 55.162 0 0 0-6.623-.398C24.652 364.285 0 388.938 0 419.24s24.652 54.955 54.955 54.955c4.143 0 7.5-3.358 7.5-7.5s-3.357-7.5-7.5-7.5z" fill="#b996f2" opacity="1" data-original="#000000" class=""></path><path d="M131.394 408.947a9.503 9.503 0 0 0-6.538-9.047c-11.052-3.64-14.224-6.812-17.863-17.866a9.504 9.504 0 0 0-9.046-6.535h-.002a9.502 9.502 0 0 0-9.044 6.538c-3.64 11.051-6.812 14.223-17.864 17.864a9.504 9.504 0 0 0-6.536 9.046 9.502 9.502 0 0 0 6.537 9.044c11.052 3.64 14.224 6.812 17.863 17.862a9.503 9.503 0 0 0 9.044 6.539h.002a9.506 9.506 0 0 0 9.047-6.538c3.639-11.051 6.811-14.223 17.862-17.863a9.502 9.502 0 0 0 6.538-9.044zm-33.448 10.44c-2.708-4.415-6.026-7.733-10.441-10.441 4.416-2.709 7.732-6.026 10.441-10.442 2.709 4.416 6.026 7.733 10.441 10.442-4.414 2.708-7.733 6.026-10.441 10.441zM452.778 247.155a7.498 7.498 0 0 0-3.461-8.556 7.504 7.504 0 0 0-9.141 1.28l-34.293 35.446-11.975-47.843a7.5 7.5 0 0 0-14.55 0l-11.975 47.843-34.292-35.446a7.501 7.501 0 0 0-12.602 7.276l13.551 47.421-47.422-13.551a7.5 7.5 0 0 0-7.276 12.601l35.446 34.292-47.844 11.975a7.499 7.499 0 0 0 0 14.55l60.941 15.253a7.5 7.5 0 0 0 9.097-5.455 7.5 7.5 0 0 0-5.454-9.096l-31.873-7.978 31.873-7.978a7.497 7.497 0 0 0 3.394-12.665l-23.614-22.845 31.592 9.027a7.498 7.498 0 0 0 9.271-9.272l-9.027-31.591 22.845 23.614a7.499 7.499 0 0 0 12.666-3.394l7.978-31.872 7.978 31.872a7.499 7.499 0 0 0 12.666 3.394l22.845-23.614-9.027 31.591a7.498 7.498 0 0 0 9.271 9.272l31.592-9.027-23.614 22.845a7.498 7.498 0 0 0 3.394 12.665l31.873 7.978-31.873 7.978a7.499 7.499 0 0 0-5.454 9.096 7.503 7.503 0 0 0 7.27 5.681c.603 0 1.216-.073 1.827-.227l60.941-15.253a7.499 7.499 0 0 0 0-14.55l-47.844-11.975 35.446-34.292a7.499 7.499 0 0 0-7.276-12.601l-47.422 13.551z" fill="#b996f2" opacity="1" data-original="#000000" class=""></path><path d="M504.5 459.195h-62.694v-25.971c0-6.932-5.64-12.572-12.571-12.572h-9.601v-44.02c0-6.932-5.64-12.571-12.572-12.571h-12.928v-50.759c0-4.142-3.357-7.5-7.5-7.5s-7.5 3.358-7.5 7.5v50.759h-12.928c-6.932 0-12.571 5.64-12.571 12.571v44.02h-9.601c-6.932 0-12.571 5.64-12.571 12.572v25.971h-25.728c5.927-7.154 9.494-16.329 9.494-26.323 0-22.786-18.537-41.323-41.323-41.323a41.257 41.257 0 0 0-18.891 4.564c-6.499-14.079-18.63-24.647-33.243-29.265V222.999c0-4.142-3.357-7.5-7.5-7.5s-7.5 3.358-7.5 7.5v141.316a55.125 55.125 0 0 0-1.629-.03c-3.651 0-7.25.354-10.774 1.057a66.143 66.143 0 0 0-10.763-34.519 7.5 7.5 0 0 0-12.559 8.201 51.209 51.209 0 0 1 8.344 28.067 52.06 52.06 0 0 1-.554 7.521 7.5 7.5 0 0 0 10.409 7.966 39.653 39.653 0 0 1 15.896-3.295c18.413 0 34.359 12.468 38.778 30.32a7.5 7.5 0 0 0 12.317 3.755 26.26 26.26 0 0 1 17.668-6.811c14.515 0 26.323 11.809 26.323 26.323s-11.809 26.323-26.323 26.323h-39.889a41.957 41.957 0 0 0 1.484-11c0-23.159-18.841-42-42-42-15.919 0-30.206 8.985-37.302 22.685A31.42 31.42 0 0 0 146 427.193c-17.369 0-31.5 14.131-31.5 31.5 0 3.589.605 7.122 1.8 10.5a7.503 7.503 0 0 0 7.071 5.002 7.5 7.5 0 0 0 7.071-10.002 16.461 16.461 0 0 1-.942-5.5c0-9.098 7.402-16.5 16.5-16.5 3.525 0 6.889 1.099 9.729 3.177a7.498 7.498 0 0 0 11.679-4.126c3.135-11.805 13.864-20.05 26.093-20.05 14.888 0 27 12.112 27 27a26.885 26.885 0 0 1-4.212 14.471 7.5 7.5 0 0 0 2.298 10.355 7.45 7.45 0 0 0 4.028 1.168l158.385.007c4.143 0 7.5-3.358 7.5-7.5s-3.357-7.5-7.5-7.5h-34.537v-23.543h80.343v23.543H416c-4.143 0-7.5 3.358-7.5 7.5s3.357 7.5 7.5 7.5h88.5c4.143 0 7.5-3.358 7.5-7.5s-3.357-7.5-7.5-7.5zm-99.866-38.543h-35.999v-41.591h35.999z" fill="#b996f2" opacity="1" data-original="#000000" class=""></path></g></svg>