<svg xmlns="http://www.w3.org/2000/svg" version="1.1" xmlns:xlink="http://www.w3.org/1999/xlink" width="512" height="512" x="0" y="0" viewBox="0 0 48 48" style="enable-background:new 0 0 512 512" xml:space="preserve" class=""><g><path d="M20 33a1 1 0 0 0 1-1V20a.999.999 0 0 0-1.752-.659l-7 8a1 1 0 0 0 .753 1.658h6v3a1 1 0 0 0 1 1zm-4.796-6L19 22.662V27zM44.237 6.526a1.379 1.379 0 0 0-1.446.13l-1.872 1.405A2.686 2.686 0 0 0 38.314 6h-6.628A2.69 2.69 0 0 0 29 8.686v4.628A2.69 2.69 0 0 0 31.686 16h6.628a2.686 2.686 0 0 0 2.605-2.061l1.873 1.405a1.371 1.371 0 0 0 1.445.13c.471-.235.763-.708.763-1.234V7.761c0-.526-.292-.999-.763-1.234zM39 13.314a.687.687 0 0 1-.686.686h-6.628a.687.687 0 0 1-.686-.686V8.686c0-.378.308-.686.686-.686h6.628c.378 0 .686.308.686.686zM43 13l-2-1.5v-1L43 9z" fill="#b996f2" opacity="1" data-original="#000000"></path><path d="M40 18a1 1 0 0 0-1 1v18.461A1.54 1.54 0 0 1 37.461 39H6.539A1.54 1.54 0 0 1 5 37.461V14.539C5 13.69 5.69 13 6.539 13H26a1 1 0 0 0 0-2H6.539A3.542 3.542 0 0 0 3 14.539v22.922A3.543 3.543 0 0 0 6.539 41h30.922A3.543 3.543 0 0 0 41 37.461V19a1 1 0 0 0-1-1z" fill="#b996f2" opacity="1" data-original="#000000"></path><path d="M31.759 19.349a1 1 0 0 0-1.41-.108L25 23.826V20a1 1 0 0 0-2 0v12a1 1 0 1 0 2 0v-3.826l5.349 4.585a.995.995 0 0 0 1.41-.109 1 1 0 0 0-.108-1.409L25.537 26l6.114-5.241a1 1 0 0 0 .108-1.41z" fill="#b996f2" opacity="1" data-original="#000000"></path></g></svg>