<svg xmlns="http://www.w3.org/2000/svg" version="1.1" xmlns:xlink="http://www.w3.org/1999/xlink" width="512" height="512" x="0" y="0" viewBox="0 0 512 512.001" style="enable-background:new 0 0 512 512" xml:space="preserve" class=""><g><path d="M135.746 380.71c-.988 1.798-2.52 2.337-3.957 2.337s-2.875-.54-3.863-2.336l-10.34-19.418v39.371c0 2.43-2.965 3.688-5.84 3.688-2.969 0-5.844-1.258-5.844-3.688V344.48c0-4.312 2.875-5.84 5.844-5.84 4.223 0 6.113.9 9.078 6.2l11.059 20.137 11.054-20.137c2.97-5.3 4.946-6.2 9.172-6.2 2.965 0 5.84 1.528 5.84 5.84v56.184c0 2.43-2.965 3.688-5.84 3.688-2.968 0-5.843-1.258-5.843-3.688v-38.652zM190.484 366.863h13.664c2.336 0 3.684 2.25 3.684 4.676 0 2.066-1.168 4.496-3.684 4.496h-13.664v18.067h25.438c2.34 0 3.687 2.425 3.687 5.214 0 2.426-1.168 5.036-3.687 5.036h-32c-2.606 0-5.125-1.262-5.125-3.688v-58.34c0-2.426 2.516-3.687 5.125-3.687h32c2.52 0 3.687 2.61 3.687 5.035 0 2.789-1.347 5.215-3.687 5.215h-25.438zM267.52 400.664l-19.329-36.137v36.137c0 2.43-2.964 3.688-5.843 3.688-2.965 0-5.844-1.258-5.844-3.688v-58.34c0-2.515 2.879-3.683 5.844-3.683 4.226 0 5.933.898 8.722 6.199l17.348 33.531v-36.137c0-2.515 2.875-3.597 5.844-3.597 2.875 0 5.84 1.078 5.84 3.597v58.43c0 2.426-2.965 3.688-5.84 3.688-2.79 0-5.215-.899-6.742-3.688zM332.148 342.234c0-2.515 2.875-3.593 5.84-3.593 2.88 0 5.844 1.078 5.844 3.593v42.07c0 15.012-9.527 20.587-21.574 20.587-12.137 0-21.574-5.575-21.574-20.586v-42.07c0-2.516 2.875-3.594 5.843-3.594 2.875 0 5.84 1.078 5.84 3.593v42.07c0 7.012 3.688 10.34 9.89 10.34 6.204 0 9.888-3.328 9.888-10.34v-42.07zM355.258 422.148h-42.73a7.591 7.591 0 0 0-7.594 7.59 7.589 7.589 0 0 0 7.593 7.59h42.73a7.585 7.585 0 0 0 7.59-7.59 7.588 7.588 0 0 0-7.59-7.59zM277.207 422.148H104.266a7.59 7.59 0 0 0 0 15.18h172.941a7.585 7.585 0 0 0 7.59-7.59 7.588 7.588 0 0 0-7.59-7.59zM355.258 306.242H104.266a7.59 7.59 0 0 0 0 15.18h250.992a7.588 7.588 0 0 0 7.59-7.59 7.588 7.588 0 0 0-7.59-7.59zM351.035 212.129h-7.367c-2.844-52.3-41.074-95.34-91.11-105.527l1.465-14.004a16.25 16.25 0 0 0-4.086-12.559 16.261 16.261 0 0 0-12.066-5.371h-16.215c-4.597 0-8.992 1.96-12.07 5.371a16.256 16.256 0 0 0-4.082 12.559l1.465 14.004c-50.035 10.187-88.266 53.222-91.11 105.523h-7.367c-6.515 0-11.816 5.3-11.816 11.816v15.664c0 6.516 5.3 11.817 11.816 11.817h242.54c6.515 0 11.816-5.3 11.816-11.817v-15.664c0-6.511-5.297-11.812-11.813-11.812zM220.867 90.199c.211-.23.473-.347.79-.347h16.214c.313 0 .578.117.79.347.21.235.3.512.265.82l-1.418 13.563c-2.559-.172-5.14-.27-7.742-.27-2.606 0-5.184.098-7.743.27l-1.421-13.562a1.04 1.04 0 0 1 .265-.82zm126.801 146.043H111.859v-8.933h31.989c4.195 0 7.593-3.399 7.593-7.59s-3.398-7.59-7.593-7.59H131.07c3.242-51.625 46.266-92.633 98.692-92.633 52.43 0 95.453 41.008 98.695 92.633H179.168c-4.195 0-7.59 3.398-7.59 7.59s3.395 7.59 7.59 7.59h168.5zm0 0" fill="#b996f2" opacity="1" data-original="#000000"></path><path d="M409.484 0H50.043C39.387 0 30.715 8.672 30.715 19.328V33.04h-7.082C10.602 33.04 0 43.645 0 56.676s10.602 23.636 23.633 23.636h7.082v32.458h-7.082C10.602 112.77 0 123.37 0 136.406c0 13.031 10.602 23.633 23.633 23.633h7.082V192.5h-7.082C10.602 192.5 0 203.102 0 216.137c0 13.031 10.602 23.633 23.633 23.633h7.082v32.46h-7.082C10.602 272.23 0 282.832 0 295.863 0 308.898 10.602 319.5 23.633 319.5h7.082v32.46h-7.082C10.602 351.96 0 362.564 0 375.595c0 13.035 10.602 23.636 23.633 23.636h7.082v32.461h-7.082C10.602 431.691 0 442.293 0 455.324s10.602 23.637 23.633 23.637h7.082v13.71c0 10.657 8.672 19.329 19.328 19.329h359.441c10.657 0 19.332-8.672 19.332-19.328V19.328C428.816 8.672 420.141 0 409.484 0zM30.711 65.133h-7.078c-4.66 0-8.453-3.793-8.453-8.457 0-4.66 3.793-8.453 8.453-8.453h7.078zm0 79.726h-7.078c-4.66 0-8.453-3.793-8.453-8.453 0-4.664 3.793-8.453 8.453-8.453h7.078zm0 79.73h-7.078c-4.66 0-8.453-3.792-8.453-8.452 0-4.664 3.793-8.457 8.453-8.457h7.078zm0 79.731h-7.078c-4.66 0-8.453-3.793-8.453-8.457 0-4.66 3.793-8.453 8.453-8.453h7.078zm0 79.727h-7.078c-4.66 0-8.453-3.79-8.453-8.453 0-4.66 3.793-8.453 8.453-8.453h7.078zm0 79.73h-7.078c-4.66 0-8.453-3.793-8.453-8.453 0-4.664 3.793-8.453 8.453-8.453h7.078zm382.922 28.891c0 2.289-1.86 4.152-4.149 4.152H50.043a4.154 4.154 0 0 1-4.148-4.152V19.328a4.154 4.154 0 0 1 4.148-4.148h359.441a4.154 4.154 0 0 1 4.149 4.148zm0 0" fill="#b996f2" opacity="1" data-original="#000000"></path></g></svg>