<svg xmlns="http://www.w3.org/2000/svg" version="1.1" xmlns:xlink="http://www.w3.org/1999/xlink" width="512" height="512" x="0" y="0" viewBox="0 0 64 64" style="enable-background:new 0 0 512 512" xml:space="preserve" class=""><g><path d="M57 33.586V30c0-2.757-2.243-5-5-5H12c-2.757 0-5 2.243-5 5v3.586l-2.761 2.761A10.986 10.986 0 0 0 1 44.167c0 .606.051 1.218.15 1.818l1.556 9.332a18.316 18.316 0 0 0 1.061 3.792L5.323 63h13.354l.801-2h25.045l.801 2h13.354l1.557-3.891a18.378 18.378 0 0 0 1.061-3.792l1.556-9.332c.1-.601.15-1.212.15-1.818 0-2.954-1.15-5.731-3.239-7.82zM9 30c0-1.654 1.346-3 3-3h40c1.654 0 3 1.346 3 3v20.146c0 .47-.384.854-.854.854a.85.85 0 0 1-.764-.473 29.368 29.368 0 0 1-2.219-5.997l-.085-.339A7.94 7.94 0 0 0 53 39c0-4.411-3.589-8-8-8s-8 3.589-8 8c0 3.861 2.772 7.126 6.471 7.846l-.417 5.414a18.23 18.23 0 0 0 .747 6.74H20.199a18.23 18.23 0 0 0 .747-6.74l-.417-5.414C24.228 46.126 27 42.861 27 39c0-4.411-3.589-8-8-8s-8 3.589-8 8c0 1.925.682 3.744 1.922 5.191l-.085.34a29.381 29.381 0 0 1-2.219 5.996.848.848 0 0 1-.764.473.856.856 0 0 1-.854-.854zm35.197 10.829A1.996 1.996 0 0 1 43 39c0-1.103.897-2 2-2s2 .897 2 2l-.002.017a3.352 3.352 0 0 0-2.801 1.812zM45 35c-2.206 0-4 1.794-4 4a3.983 3.983 0 0 0 2.782 3.795l-.157 2.041C40.966 44.21 39 41.817 39 39c0-3.309 2.691-6 6-6s6 2.691 6 6c0 .901-.204 1.77-.58 2.562l-.007-.029a3.33 3.33 0 0 0-1.461-2.008c.023-.173.048-.347.048-.525 0-2.206-1.794-4-4-4zm-31.413 6.532-.008.031A5.974 5.974 0 0 1 13 39c0-3.309 2.691-6 6-6s6 2.691 6 6c0 2.817-1.967 5.211-4.625 5.836l-.157-2.041A3.983 3.983 0 0 0 23 39c0-2.206-1.794-4-4-4s-4 1.794-4 4c0 .178.025.351.048.525a3.33 3.33 0 0 0-1.461 2.007zm3.415-2.515L17 39c0-1.103.897-2 2-2s2 .897 2 2c0 .818-.491 1.52-1.198 1.829a3.349 3.349 0 0 0-2.8-1.812zm.831 20.709L17.323 61H6.677l-1.053-2.633a16.28 16.28 0 0 1-.945-3.378l-1.556-9.332A9.087 9.087 0 0 1 3 44.167a9 9 0 0 1 2.653-6.406L7 36.414v13.731A2.857 2.857 0 0 0 9.854 53a2.84 2.84 0 0 0 2.553-1.578 31.33 31.33 0 0 0 2.369-6.405l.75-2.999A1.344 1.344 0 0 1 16.83 41a1.35 1.35 0 0 1 1.339 1.241l.783 10.173a16.305 16.305 0 0 1-1.119 7.312zm43.044-14.069-1.556 9.332a16.343 16.343 0 0 1-.945 3.378L57.323 61H46.677l-.51-1.274a16.255 16.255 0 0 1-1.119-7.312l.783-10.174A1.35 1.35 0 0 1 47.17 41c.617 0 1.153.419 1.304 1.019l.75 2.997a31.375 31.375 0 0 0 2.369 6.406A2.838 2.838 0 0 0 54.146 53 2.857 2.857 0 0 0 57 50.146V36.414l1.347 1.347A9 9 0 0 1 61 44.167c0 .497-.041.998-.123 1.49z" fill="#b996f2" opacity="1" data-original="#000000" class=""></path><path d="M23 57h8v-8h-8zm2-6h4v4h-4zM33 57h8v-8h-8zm2-6h4v4h-4zM37 29H27v6h10zm-2 4h-6v-2h6zM29 37h2v2h-2zM33 37h2v2h-2zM33 41h2v2h-2zM29 41h2v2h-2zM29 45h2v2h-2zM33 45h2v2h-2zM63 3V1H53v2h4v6h-1a2.996 2.996 0 0 0-2.816 2h-8.566l-2-4H21.382l-2 4h-8.566A2.996 2.996 0 0 0 8 9H7V3h4V1H1v2h4v6H4c-1.654 0-3 1.346-3 3v4c0 1.654 1.346 3 3 3h4a2.996 2.996 0 0 0 2.816-2H25v4c0 1.103.897 2 2 2h10c1.103 0 2-.897 2-2v-4h14.184A2.996 2.996 0 0 0 56 19h4c1.654 0 3-1.346 3-3v-4c0-1.654-1.346-3-3-3h-1V3zM9 16a1 1 0 0 1-1 1H4a1 1 0 0 1-1-1v-4a1 1 0 0 1 1-1h4a1 1 0 0 1 1 1zm18 1h2.78c-.48.532-.78 1.229-.78 2s.301 1.468.78 2H27zm5 3a1 1 0 1 1 0-2 1 1 0 0 1 0 2zm5.002 1H34.22c.48-.532.78-1.229.78-2s-.301-1.468-.78-2H37zM37 15H11v-2h9.618l2-4h18.764l2 4H53v2zm24-3v4a1 1 0 0 1-1 1h-4a1 1 0 0 1-1-1v-4a1 1 0 0 1 1-1h4a1 1 0 0 1 1 1z" fill="#b996f2" opacity="1" data-original="#000000" class=""></path><path d="M25 11h2v2h-2zM37 11h2v2h-2zM33 11h2v2h-2zM29 11h2v2h-2z" fill="#b996f2" opacity="1" data-original="#000000" class=""></path></g></svg>