<svg xmlns="http://www.w3.org/2000/svg" version="1.1" xmlns:xlink="http://www.w3.org/1999/xlink" width="512" height="512" x="0" y="0" viewBox="0 0 4335 4335" style="enable-background:new 0 0 512 512" xml:space="preserve" fill-rule="evenodd" class=""><g><path fill="#b996f2" d="M2523 2478c-33 0-59-27-59-60v-191h-150c-65 0-117-49-117-109v-201c0-33 26-60 59-60s59 27 59 60v191h149v-191c0-33 26-60 59-60s59 27 59 60v501c0 33-26 60-59 60zm-356 1857C972 4335 0 3363 0 2167 0 972 972 0 2167 0c1196 0 2168 972 2168 2167 0 1196-972 2168-2168 2168zm0-4216c-1129 0-2048 919-2048 2048 0 1130 919 2049 2048 2049 1130 0 2049-919 2049-2049 0-1129-919-2048-2049-2048zm0 3905c-335 0-650-89-922-246l-6-3c-2-1-4-2-6-4-135-79-259-174-370-284-3-2-6-4-8-7-3-2-5-5-7-8-110-111-205-235-284-370-2-2-3-4-4-6-2-2-3-4-4-7-156-271-245-586-245-922 0-335 89-650 246-922l3-6c1-2 2-4 4-6 79-135 174-259 284-370 2-3 4-6 7-8 2-3 5-5 8-7 111-110 235-205 370-284 2-2 4-3 6-4 2-2 4-3 6-3 272-157 587-246 922-246 336 0 651 89 923 246l6 3c2 1 4 2 6 4 135 79 259 174 370 284 3 2 6 4 8 7 3 2 5 5 7 8 110 111 205 235 284 370 2 2 3 4 4 6l3 6c156 271 245 585 246 919v6c-1 335-90 649-246 920 0 2-1 4-3 6-1 2-2 4-4 6-79 135-175 259-284 370-2 3-4 6-7 8-2 3-5 5-8 7-111 109-235 205-370 284-2 2-4 3-6 4l-6 3c-272 157-587 246-923 246zm-59-3593c-114 3-225 18-333 43l28 103c8 32-11 65-42 73-5 1-10 2-15 2-27 0-51-17-58-44l-27-103c-109 33-212 76-311 129l137 237c17 28 7 64-21 81-10 5-20 8-30 8-21 0-40-11-51-30l-137-237c-95 60-184 129-266 205l75 75c23 23 23 60 0 84-12 11-27 17-42 17s-31-6-42-17l-75-75c-76 82-145 171-205 266l237 137c28 16 38 52 22 81-11 19-31 29-52 29-10 0-20-2-29-8l-237-137c-53 99-96 202-129 311l103 27c32 9 51 41 42 73-7 26-31 44-57 44-5 0-10-1-16-2l-103-28c-25 108-40 219-43 333h273c33 0 60 27 60 59 0 33-27 60-60 60H431c3 114 18 225 43 333l103-28c32-8 65 10 73 42 9 32-10 64-42 73l-103 27c33 109 76 212 129 310l237-136c28-17 64-7 81 21 16 29 6 65-22 81l-237 137c60 95 129 184 205 266l75-75c23-23 60-23 84 0 23 23 23 61 0 84l-75 75c82 76 171 145 266 205l137-237c16-28 52-38 81-22 28 17 38 53 21 81l-137 237c99 53 202 96 311 129l27-103c9-32 41-51 73-42 31 8 50 41 42 72l-28 104c108 25 219 40 333 43v-273c0-33 27-60 59-60 33 0 60 27 60 60v273c114-3 225-18 333-43l-28-104c-8-31 10-64 42-72 32-9 64 10 73 42l27 103c109-33 212-76 311-129l-137-237c-17-28-7-64 21-81 29-16 65-6 81 22l137 237c95-60 184-129 266-205l-75-75c-23-23-23-61 0-84s61-23 84 0l75 75c76-82 145-171 205-266l-237-137c-28-16-38-52-22-81 17-28 53-38 81-21l237 136c53-98 96-201 129-310l-103-27c-32-9-51-41-42-73 8-32 41-50 72-42l104 28c25-108 40-219 43-333h-273c-33 0-60-27-60-60 0-32 27-59 60-59h273c-3-114-18-225-43-333l-104 28c-5 1-10 2-15 2-26 0-50-18-57-44-9-32 10-64 42-73l103-27c-33-109-76-212-129-311l-237 137c-9 6-19 8-29 8-21 0-41-10-52-29-16-29-6-65 22-81l237-137c-60-95-129-185-205-266l-75 75c-11 11-27 17-42 17s-30-6-42-17c-23-24-23-61 0-84l75-75c-82-76-171-145-266-205l-137 237c-11 19-31 30-51 30-10 0-20-3-30-8-28-17-38-53-21-81l137-237c-99-53-202-96-311-129l-27 103c-7 27-31 44-58 44-5 0-10-1-15-2-32-8-50-41-42-73l28-103c-108-25-219-40-333-43v273c0 33-27 60-60 60-32 0-59-27-59-60zm59 2419c-356 0-649-275-679-623h-446c-33 0-60-27-60-60 0-32 27-59 60-59h446c28-329 291-592 620-620v-446c0-33 27-60 59-60 33 0 60 27 60 60v446c348 30 623 323 623 679 0 377-306 683-683 683zm0-1246c-310 0-563 253-563 563 0 311 253 564 563 564 311 0 564-253 564-564 0-310-253-563-564-563zm-91 874h-194c-71 0-129-58-129-129v-112c0-71 58-129 129-129h124c6 0 11-5 11-10v-112c0-5-5-10-11-10h-194c-33 0-59-27-59-59 0-33 26-60 59-60h194c71 0 129 58 129 129v112c0 71-58 129-129 129h-124c-6 0-11 4-11 10v112c0 5 5 10 11 10h194c33 0 59 27 59 59 0 33-26 60-59 60z" opacity="1" data-original="#000002" class=""></path></g></svg>