<svg xmlns="http://www.w3.org/2000/svg" version="1.1" xmlns:xlink="http://www.w3.org/1999/xlink" width="512" height="512" x="0" y="0" viewBox="0 0 36 36" style="enable-background:new 0 0 512 512" xml:space="preserve" class=""><g><path d="M18 2a16 16 0 1 0 16 16A16 16 0 0 0 18 2Zm0 1.52a14.38 14.38 0 0 1 9.67 3.74l-6.15 6.14-.25.08a4.82 4.82 0 0 0-1-5.43l-1.73-1.76a.76.76 0 0 0-1.08 0l-1.77 1.77a4.82 4.82 0 0 0-.95 5.43 5.85 5.85 0 0 0-1.82-.32h-1.49a.77.77 0 0 0-.76.77v1.48A5.78 5.78 0 0 0 12 19.14h-.61a.76.76 0 0 0-.76.76v1.49a5.75 5.75 0 0 0 .51 2.36l-3.88 3.92A14.45 14.45 0 0 1 18 3.52Zm1.23 10.28L18 15l-1.23-1.2a3.3 3.3 0 0 1 0-4.67L18 7.9l1.23 1.23a3.3 3.3 0 0 1 0 4.67ZM16 16a4.29 4.29 0 0 1 1.24 3v.72h-.73a4.32 4.32 0 0 1-4.32-4.32v-.7h.73A4.3 4.3 0 0 1 16 16Zm-3.78 4.71h.73A4.3 4.3 0 0 1 16 21.93 4.34 4.34 0 0 1 17.24 25v.73h-.73a4.32 4.32 0 0 1-4.32-4.32Zm.19 4.85a5.77 5.77 0 0 0 4.13 1.71h.73v5.21a14.37 14.37 0 0 1-8.91-3.7L12 25.07a5.19 5.19 0 0 0 .38.45Zm6.35-.56a4.32 4.32 0 0 1 4.32-4.31h.73v.72a4.32 4.32 0 0 1-4.32 4.32h-.73Zm5-9.56a4.32 4.32 0 0 1-4.32 4.32h-.73V19a4.32 4.32 0 0 1 4.32-4.32h.73Zm-5 17v-5.21h.73a5.84 5.84 0 0 0 5.84-5.84V19.9a.76.76 0 0 0-.76-.76H24a5.78 5.78 0 0 0 1.37-3.72v-1.48a.77.77 0 0 0-.76-.77h-.71l4.84-4.84a14.43 14.43 0 0 1-10 24.11Z" fill="#b996f2" opacity="1" data-original="#000000"></path></g></svg>