<svg xmlns="http://www.w3.org/2000/svg" version="1.1" xmlns:xlink="http://www.w3.org/1999/xlink" width="512" height="512" x="0" y="0" viewBox="0 0 96 96" style="enable-background:new 0 0 512 512" xml:space="preserve" class=""><g><path d="M13.429 67.674h1.653l.483 18.045a2.359 2.359 0 0 0 2.366 2.279h12.452a2.363 2.363 0 0 0 2.365-2.296l.26-10.002h2.944c1.023 3.155 3.955 5.457 7.445 5.457 4.335 0 7.861-3.526 7.861-7.861s-3.525-7.861-7.861-7.861c-4.128 0-7.485 3.209-7.799 7.258h-2.512l.13-5.02h2.434a5.019 5.019 0 0 0 5.013-5.013v-2.745h23.691c.99 0 1.893-.499 2.414-1.335a2.856 2.856 0 0 0 .132-2.788l-1.992-3.961a2.804 2.804 0 0 0-2.559-1.597H40.662v-2.661H58.6a20.388 20.388 0 0 0 7.3 1.493l3.559 7.064a5.09 5.09 0 0 0 3.35 2.702l10.167 2.546a2.106 2.106 0 0 1 1.602 2.048v7.175a2.116 2.116 0 0 1-2.124 2.104H80.26c-.307-4.056-3.668-7.272-7.802-7.272-4.128 0-7.485 3.209-7.799 7.258H54.115a1.503 1.503 0 0 0 0 3.006h10.899c1.023 3.155 3.955 5.457 7.445 5.457 3.486 0 6.414-2.295 7.441-5.442h2.555c2.828 0 5.13-2.293 5.13-5.111v-7.175a5.104 5.104 0 0 0-3.883-4.966L73.54 55.915a2.1 2.1 0 0 1-1.386-1.12l-2.977-5.934c9.971-1.403 17.675-9.968 17.675-20.32 0-11.328-9.216-20.544-20.544-20.544s-20.544 9.216-20.544 20.544c0 6.478 3.021 12.255 7.72 16.023H40.309c-1.004-3.55-4.237-6.173-8.103-6.173H17.059c-4.766 0-8.643 3.877-8.643 8.642v15.624a5.018 5.018 0 0 0 5.013 5.017zm29.967.769a4.859 4.859 0 0 1 4.854 4.854 4.859 4.859 0 0 1-4.854 4.854c-2.676 0-4.854-2.177-4.854-4.854s2.179-4.854 4.854-4.854zm29.062 9.708c-2.676 0-4.854-2.177-4.854-4.854s2.178-4.854 4.854-4.854a4.859 4.859 0 0 1 4.854 4.854 4.858 4.858 0 0 1-4.854 4.854zM48.77 28.545c0-9.67 7.867-17.537 17.537-17.537s17.537 7.867 17.537 17.537-7.867 17.537-17.537 17.537S48.77 38.215 48.77 28.545zm13.438 24.611 1.887 3.754H40.662v-3.674zm-50.786-6.119a5.643 5.643 0 0 1 5.637-5.636h15.147a5.457 5.457 0 0 1 5.45 5.451v15.809c0 1.106-.9 2.006-2.006 2.006h-2.417V53.049a1.502 1.502 0 1 0-3.006 0l-.465 31.943h-4.1V69.1a1.503 1.503 0 0 0-3.006 0v15.892h-4.101l-.466-31.943a1.502 1.502 0 1 0-3.006 0v11.619H13.43c-1.107 0-2.007-.9-2.007-2.006V47.037z" fill="#b996f2" opacity="1" data-original="#000000" class=""></path><path d="M12.311 19.776c.051.301.662 1.005.778 1.106-.053.43-.083 3.158-.083 3.158.418 5.358 2.908 9.71 6.601 11.611 1.393.767 3.226 1.267 4.907 1.213 1.189-.038 2.315-.178 3.317-.522 4.591-1.485 7.725-6.201 8.184-12.418 0 0-.033-2.607-.088-3.027.069-.061.64-.597.74-.894 0 0 .806-2.407 1.366-4.309.669-1.998-.16-4.227-2.147-5.384-2.107-.903-5.788-2.043-11.36-1.98-6.776.076-11.489 1.973-11.562 2.016a4.543 4.543 0 0 0-1.989 5.326zm20.703 4.036c-.285 3.811-2.02 8.41-6.133 9.678-3.518 1.084-5.501-.289-5.839-.481-2.777-1.43-4.707-4.956-5.034-9.086v-1.546c.485.111.98.182 1.482.182h14.04c.506 0 .998-.071 1.481-.18zM14.422 12.981c2.838-1.091 6.236-1.644 10.104-1.644 5.062 0 8.327.944 10.004 1.65.601.354.875 1.09.637 1.804a144.724 144.724 0 0 1-1.223 3.873 3.748 3.748 0 0 1-2.414.89H17.49c-.665 0-2.223-.731-2.364-.848l-1.29-3.964a1.55 1.55 0 0 1 .586-1.761zM61.653 34.601c.408.408.944.613 1.481.613s1.073-.205 1.482-.613l10.16-10.159a1.503 1.503 0 0 0-2.126-2.126l-9.516 9.514-3.168-3.168a1.503 1.503 0 0 0-2.126 2.126z" fill="#b996f2" opacity="1" data-original="#000000" class=""></path></g></svg>