<svg xmlns="http://www.w3.org/2000/svg" version="1.1" xmlns:xlink="http://www.w3.org/1999/xlink" width="512" height="512" x="0" y="0" viewBox="0 0 18062 18062" style="enable-background:new 0 0 512 512" xml:space="preserve" fill-rule="evenodd" class=""><g><path d="M10862 1727V567c0-169 137-306 307-306 169 0 306 137 306 306v1193c160 47 314 123 461 229 532 384 758 877 671 1466-71 481-333 963-610 1474-617 1135-1199 2207 189 3318 1213 980 2134 3842 2462 4988 338 1183 401 2169 1182 3243 102 141 67 338-76 435-1390 939-4537 1143-6266 1143-1728 0-4876-204-6265-1143-144-97-179-294-77-434 781-1075 845-2061 1183-3244 411-1440 1307-4055 2471-4996 1376-1108 795-2178 180-3310-278-511-540-993-611-1474-87-589 139-1082 671-1466 147-106 301-183 461-229V567c0-169 137-306 307-306 169 0 306 137 306 306v1160c452 76 912 369 1374 876 462-507 923-800 1374-876zM2564 4796l-660-1372-1372-660c-230-111-230-442 0-553l1372-660 660-1372c111-230 442-230 553 0l660 1372 1372 660c230 111 230 442 0 553l-1372 660-660 1372c-111 230-442 230-553 0zM1372 2488l895 430c62 30 113 81 143 143l430 895 431-895c30-62 81-113 143-143l895-431-895-430c-62-30-113-81-143-143l-431-895-430 895c-30 62-81 113-143 143zm14151 5748-539-1120-1119-539c-231-111-231-441 0-553l1119-539 539-1119c111-231 442-231 553 0l539 1119 1120 539c230 112 230 442 0 553l-1120 539-539 1120c-111 230-442 230-553 0zm-819-1935 643 309c63 30 113 81 143 143l310 643 309-643c30-62 81-113 143-143l643-309-643-310c-62-30-113-80-143-143l-309-643-310 643c-30 63-80 113-143 143zM1986 13088l-539-1120-1119-539c-231-111-231-441 0-553l1119-539 539-1119c112-231 442-231 553 0l539 1119 1120 539c231 112 231 442 0 553l-1120 539-539 1120c-111 230-442 230-553 0zm-819-1935 643 309c63 30 113 81 143 143l310 643 309-643c30-62 81-113 143-143l643-309-643-310c-62-30-113-80-143-143l-309-643-310 643c-30 63-80 113-143 143zm2666 5407c595 303 1532 544 2670 697 121-2375 1103-5578 1146-5720 50-161 222-252 384-202 161 50 252 222 202 383-10 35-1013 3308-1121 5611 1511 152 3238 152 4749 0-109-2305-1111-5576-1122-5611-50-161 41-333 203-383s333 41 383 202c44 142 1025 3345 1146 5720 1138-153 2075-394 2671-697-684-1072-767-2039-1086-3156-247-866-1141-3759-2257-4680-795-636-1146-1343-1076-2161 59-687 417-1346 733-1927 573-1056 839-1631 120-2150-153-110-315-166-481-166-401 0-875 327-1369 947-123 154-357 154-480 0-494-620-967-947-1369-947-166 0-327 56-480 166-720 519-454 1094 119 2150 316 581 674 1240 733 1927 71 818-281 1525-1075 2161-1117 921-2010 3815-2258 4680-319 1117-402 2085-1085 3156z" fill="#b996f2" opacity="1" data-original="#000000"></path></g></svg>