<svg xmlns="http://www.w3.org/2000/svg" version="1.1" xmlns:xlink="http://www.w3.org/1999/xlink" width="512" height="512" x="0" y="0" viewBox="0 0 2048 2048" style="enable-background:new 0 0 512 512" xml:space="preserve" class=""><g><g fill="#212121"><path d="M1365.519 1205.621H682.481c-33.553 0-66.148-6.835-96.879-20.314l-117.793-51.686c-12.138-5.326-17.66-19.483-12.334-31.621 5.326-12.137 19.482-17.66 31.621-12.334l117.79 51.685c24.612 10.796 50.72 16.271 77.595 16.271h683.037c26.875 0 52.982-5.475 77.598-16.271l117.787-51.684c12.14-5.328 26.296.197 31.621 12.334 5.326 12.138-.196 26.295-12.334 31.621l-117.79 51.685c-30.733 13.479-63.328 20.314-96.881 20.314z" fill="#b996f2" opacity="1" data-original="#212121" class=""></path><path d="M1599.65 1597.092H448.35c-51.473 0-93.35-41.876-93.35-93.35v-224.521c0-28.476 9.398-56.702 26.462-79.479l76.781-102.492 103.679-138.381c.105-.147.212-.292.32-.438l40-53.39c22.34-29.821 51.762-54.398 85.085-71.072 33.324-16.675 70.632-25.488 107.892-25.488h52.28c13.255 0 24 10.745 24 24s-10.745 24-24 24h-52.28c-60.503 0-118.284 28.912-154.562 77.339l-39.678 52.96c-.106.148-.214.295-.323.441L459.817 1175.2l-39.939 53.319c-10.885 14.528-16.879 32.534-16.879 50.701v224.521c0 25.006 20.344 45.35 45.35 45.35h1151.3c25.006 0 45.35-20.344 45.35-45.35V1279.22c0-18.168-5.994-36.173-16.877-50.699L1407.341 933.82c-36.278-48.428-94.059-77.34-154.562-77.34h-52.28c-13.255 0-24-10.745-24-24s10.745-24 24-24h52.28c37.26 0 74.568 8.813 107.892 25.488 33.323 16.674 62.745 41.25 85.086 71.073l220.781 294.7c17.063 22.775 26.461 51.002 26.461 79.479v224.521c.001 51.475-41.876 93.351-93.349 93.351z" fill="#b996f2" opacity="1" data-original="#212121" class=""></path><path d="M1205.802 1459.853H842.198c-24.902 0-47.082-16.72-53.936-40.659l-15.115-52.779c-4.893-17.087-1.563-35.026 9.136-49.219 10.699-14.191 27.028-22.331 44.8-22.331h393.833c17.773 0 34.103 8.14 44.802 22.332 10.698 14.191 14.028 32.131 9.135 49.217l-15.115 52.781c-6.856 23.938-29.035 40.658-53.936 40.658zm-378.719-116.989c-3.515 0-5.563 2.021-6.471 3.226s-2.287 3.73-1.319 7.11l15.115 52.779a8.138 8.138 0 0 0 7.791 5.873h363.604a8.139 8.139 0 0 0 7.791-5.873l15.115-52.78c.968-3.379-.412-5.904-1.32-7.109-.907-1.204-2.956-3.226-6.472-3.226zM1517.613 1450.787c-1.13 0-2.262-.028-3.394-.084h-.001l-83.617-4.163c-36.91-1.837-65.823-32.226-65.823-69.182s28.913-67.345 65.823-69.182l83.617-4.163c18.851-.921 37.514 5.988 51.19 19.001s21.521 31.304 21.521 50.182v8.324c0 18.878-7.844 37.169-21.521 50.182-12.854 12.232-30.111 19.085-47.795 19.085zm-1.009-48.025c5.879.299 11.456-1.779 15.718-5.834 4.261-4.054 6.607-9.525 6.607-15.407v-8.324c0-5.882-2.347-11.354-6.607-15.407-4.262-4.055-9.847-6.13-15.718-5.834l-83.616 4.163c-11.333.563-20.21 9.894-20.21 21.24s8.877 20.677 20.21 21.24zM530.387 1450.787c-17.686 0-34.94-6.853-47.796-19.085-13.677-13.013-21.521-31.304-21.521-50.182v-8.324c0-18.878 7.844-37.169 21.521-50.182 13.676-13.013 32.334-19.927 51.189-19.001l83.618 4.163c36.91 1.837 65.823 32.226 65.823 69.182s-28.913 67.345-65.823 69.182l-83.617 4.163h-.001a68.66 68.66 0 0 1-3.393.084zm2.201-24.055h.01zm-2.284-74.804c-5.471 0-10.629 2.059-14.626 5.861-4.261 4.054-6.607 9.525-6.607 15.407v8.324c0 5.882 2.347 11.354 6.607 15.407 4.26 4.055 9.836 6.129 15.718 5.834l83.616-4.163c11.333-.563 20.209-9.894 20.209-21.24s-8.877-20.677-20.209-21.24l-83.618-4.163a22.056 22.056 0 0 0-1.09-.027zM585.578 1731.038h-48.533c-46.318 0-84-37.683-84-84v-73.942c0-13.255 10.745-24 24-24h168.533c13.255 0 24 10.745 24 24v73.942c0 46.317-37.682 84-84 84zm-84.533-133.942v49.942c0 19.851 16.149 36 36 36h48.533c19.851 0 36-16.149 36-36v-49.942zM1510.955 1731.038h-48.533c-46.317 0-84-37.683-84-84v-73.942c0-13.255 10.745-24 24-24h168.533c13.255 0 24 10.745 24 24v73.942c0 46.317-37.683 84-84 84zm-84.533-133.942v49.942c0 19.851 16.149 36 36 36h48.533c19.851 0 36-16.149 36-36v-49.942zM440.609 1184.813H306.008c-27.575 0-50.008-22.434-50.008-50.009v-46.32c0-27.574 22.434-50.008 50.008-50.008h92.667c19.159 0 36.872 11.17 45.125 28.457l31.548 66.08c5.674 11.884.708 26.103-11.087 31.886-1.938 11.309-11.79 19.914-23.652 19.914zm-134.601-98.336a2.01 2.01 0 0 0-2.008 2.008v46.32c0 1.107.901 2.009 2.008 2.009h117.966l-23.489-49.199a2.017 2.017 0 0 0-1.81-1.138zM1741.992 1184.813H1607.39c-11.861 0-21.714-8.605-23.653-19.914-11.796-5.783-16.761-20.002-11.087-31.886l31.548-66.079c8.255-17.288 25.968-28.458 45.126-28.458h92.668c27.574 0 50.008 22.434 50.008 50.008v46.32c0 27.576-22.434 50.009-50.008 50.009zm-117.966-48h117.966a2.01 2.01 0 0 0 2.008-2.009v-46.32a2.01 2.01 0 0 0-2.008-2.008h-92.668c-.77 0-1.479.447-1.81 1.139z" fill="#b996f2" opacity="1" data-original="#212121" class=""></path></g><path fill="#b996f2" d="M1024 1016.796c-3.358 0-6.717-.705-9.849-2.114-39.801-17.911-77.425-43.692-111.826-76.627-32.153-30.783-60.064-66.369-82.959-105.77-17.91-30.822-29.404-59.07-35.138-86.359-7.334-34.906-5.215-68.872 6.129-98.224 13.024-33.701 39.065-62.223 71.444-78.254 52.476-25.98 117.065-17.272 162.2 19.612 45.136-36.884 109.724-45.591 162.2-19.612 32.378 16.03 58.418 44.553 71.443 78.253 11.345 29.353 13.464 63.319 6.129 98.225-5.735 27.289-17.229 55.537-35.139 86.358-22.895 39.4-50.807 74.986-82.959 105.769-34.401 32.936-72.024 58.717-111.826 76.628a23.987 23.987 0 0 1-9.849 2.115zm-97.689-414.162c-14.939 0-29.787 3.183-43.214 9.831-21.739 10.763-39.223 29.914-47.968 52.541-7.991 20.677-9.349 45.246-3.927 71.05 4.665 22.199 14.369 45.788 29.666 72.113C901.249 877.66 960.265 934.72 1024 966.257c63.735-31.538 122.752-88.597 163.132-158.088 15.297-26.325 25.001-49.914 29.666-72.113 5.423-25.804 4.065-50.373-3.927-71.05-8.745-22.627-26.229-41.778-47.968-52.541-40.086-19.845-92.867-8.82-122.777 25.645a23.998 23.998 0 0 1-36.252 0c-19.892-22.922-49.902-35.476-79.563-35.476zM1477.549 724.497c-3.358 0-6.717-.705-9.849-2.114-34.871-15.692-67.822-38.268-97.938-67.101-28.117-26.92-52.524-58.037-72.543-92.487-15.716-27.046-25.809-51.868-30.855-75.886-6.491-30.895-4.603-60.992 5.465-87.037 11.584-29.977 34.748-55.349 63.551-69.61 45.881-22.714 102.162-15.615 142.17 15.801 40.009-31.417 96.292-38.516 142.168-15.801 28.804 14.26 51.967 39.632 63.553 69.611 10.066 26.045 11.955 56.142 5.464 87.037-5.047 24.018-15.14 48.84-30.855 75.886-20.019 34.45-44.426 65.567-72.543 92.487-30.116 28.833-63.066 51.409-97.938 67.101a24.025 24.025 0 0 1-9.85 2.113zm-84.738-359.438c-12.494 0-24.907 2.661-36.134 8.219-18.163 8.993-32.771 24.993-40.076 43.897-6.714 17.371-7.842 38.071-3.263 59.863 3.978 18.929 12.28 39.091 25.383 61.641 34.439 59.268 84.604 108.007 138.828 135.243 54.224-27.236 104.388-75.975 138.827-135.243 13.103-22.549 21.405-42.712 25.383-61.64 4.579-21.792 3.451-42.493-3.262-59.863-7.307-18.905-21.914-34.905-40.077-43.898-33.536-16.603-77.705-7.363-102.745 21.491a23.998 23.998 0 0 1-36.252 0c-16.658-19.194-41.786-29.71-66.612-29.71z" opacity="1" data-original="#212121" class=""></path><path fill="#b996f2" d="M1485.281 1021.807c-1.753 0-3.531-.193-5.313-.596-12.929-2.922-21.04-15.772-18.117-28.701 1.448-6.409 2.93-14.969 2.93-29.868 0-18.809-2.252-27.571-4.859-37.716-2.986-11.619-6.371-24.789-6.371-49.674 0-24.88 3.385-38.047 6.371-49.665 2.607-10.144 4.859-18.905 4.859-37.715s-2.252-27.571-4.859-37.715c-2.986-11.618-6.371-24.785-6.371-49.666 0-13.255 10.745-24 24-24s24 10.745 24 24c0 18.81 2.252 27.571 4.859 37.716 2.986 11.617 6.371 24.784 6.371 49.665s-3.385 38.048-6.371 49.665c-2.607 10.144-4.859 18.905-4.859 37.715 0 18.816 2.252 27.579 4.86 37.726 2.985 11.618 6.37 24.785 6.37 49.664 0 19.62-2.078 31.459-4.111 40.452-2.521 11.147-12.421 18.713-23.389 18.713zM570.452 724.497c-3.358 0-6.717-.705-9.849-2.114-34.871-15.692-67.821-38.268-97.937-67.101-28.118-26.92-52.525-58.037-72.543-92.487-15.716-27.045-25.809-51.868-30.856-75.886-6.491-30.894-4.602-60.99 5.464-87.037 11.585-29.978 34.749-55.35 63.552-69.61 45.878-22.714 102.162-15.615 142.17 15.801 40.008-31.415 96.291-38.516 142.168-15.801 28.803 14.261 51.967 39.633 63.552 69.61 10.066 26.047 11.956 56.144 5.464 87.038-5.048 24.02-15.141 48.842-30.856 75.886-20.019 34.45-44.425 65.567-72.543 92.487-30.116 28.833-63.066 51.409-97.937 67.101a24.017 24.017 0 0 1-9.849 2.113zm-84.739-359.438c-12.494 0-24.907 2.661-36.134 8.219-18.163 8.993-32.771 24.993-40.077 43.897-6.713 17.371-7.842 38.071-3.263 59.863 3.978 18.929 12.281 39.092 25.384 61.641 34.439 59.268 84.604 108.007 138.828 135.243 54.224-27.236 104.388-75.975 138.828-135.243 13.103-22.548 21.405-42.71 25.384-61.641 4.579-21.792 3.451-42.492-3.263-59.863-7.306-18.905-21.914-34.905-40.077-43.897-33.535-16.603-77.706-7.363-102.745 21.492a23.998 23.998 0 0 1-36.252 0c-16.658-19.195-41.786-29.711-66.613-29.711z" opacity="1" data-original="#212121" class=""></path><path fill="#b996f2" d="M581.469 996.833c-.389 0-.778-.009-1.171-.028-13.239-.636-23.457-11.884-22.82-25.124.134-2.794.202-5.835.202-9.038 0-18.809-2.252-27.571-4.859-37.716-2.986-11.619-6.371-24.789-6.371-49.674 0-24.88 3.384-38.047 6.371-49.665 2.607-10.145 4.859-18.905 4.859-37.715s-2.252-27.571-4.859-37.715c-2.986-11.617-6.371-24.785-6.371-49.665 0-13.255 10.745-24 24-24s24 10.745 24 24c0 18.81 2.252 27.571 4.859 37.716 2.986 11.617 6.371 24.785 6.371 49.665s-3.384 38.047-6.371 49.665c-2.607 10.145-4.859 18.905-4.859 37.715 0 18.816 2.252 27.579 4.86 37.726 2.986 11.618 6.37 24.785 6.37 49.664 0 3.968-.086 7.783-.258 11.342-.617 12.845-11.228 22.847-23.953 22.847z" opacity="1" data-original="#212121" class=""></path></g></svg>