<svg xmlns="http://www.w3.org/2000/svg" version="1.1" xmlns:xlink="http://www.w3.org/1999/xlink" width="512" height="512" x="0" y="0" viewBox="0 0 682.667 682.667" style="enable-background:new 0 0 512 512" xml:space="preserve" class=""><g><defs><clipPath id="a" clipPathUnits="userSpaceOnUse"><path d="M0 512h512V0H0Z" fill="#b996f2" opacity="1" data-original="#000000"></path></clipPath></defs><g clip-path="url(#a)" transform="matrix(1.33333 0 0 -1.33333 0 682.667)"><path d="M0 0v0l-22.909 59.499L-45.818 0a24.568 24.568 0 0 1-1.739-9.092c0-13.613 11.035-24.648 24.648-24.648S1.739-22.705 1.739-9.092C1.739-5.88 1.118-2.814 0 0Z" style="stroke-width:20;stroke-linecap:round;stroke-linejoin:round;stroke-miterlimit:10;stroke-dasharray:none;stroke-opacity:1" transform="translate(142.22 387.7)" fill="none" stroke="#b996f2" stroke-width="20" stroke-linecap="round" stroke-linejoin="round" stroke-miterlimit="10" stroke-dasharray="none" stroke-opacity="" data-original="#000000" opacity="1"></path><path d="M0 0v0l-22.909 59.499L-45.818 0a24.568 24.568 0 0 1-1.739-9.092c0-13.613 11.036-24.648 24.648-24.648 13.613 0 24.648 11.035 24.648 24.648C1.739-5.88 1.118-2.814 0 0Z" style="stroke-width:20;stroke-linecap:round;stroke-linejoin:round;stroke-miterlimit:10;stroke-dasharray:none;stroke-opacity:1" transform="translate(382.312 233.745)" fill="none" stroke="#b996f2" stroke-width="20" stroke-linecap="round" stroke-linejoin="round" stroke-miterlimit="10" stroke-dasharray="none" stroke-opacity="" data-original="#000000" opacity="1"></path><path d="M0 0v0l-22.909 59.499L-45.818 0a24.544 24.544 0 0 1-1.74-9.092c0-13.613 11.036-24.648 24.649-24.648 13.612 0 24.647 11.035 24.647 24.648C1.738-5.88 1.117-2.813 0 0Z" style="stroke-width:20;stroke-linecap:round;stroke-linejoin:round;stroke-miterlimit:10;stroke-dasharray:none;stroke-opacity:1" transform="translate(436.772 442.501)" fill="none" stroke="#b996f2" stroke-width="20" stroke-linecap="round" stroke-linejoin="round" stroke-miterlimit="10" stroke-dasharray="none" stroke-opacity="" data-original="#000000" opacity="1"></path><path d="M0 0a243.316 243.316 0 0 0 31.228-8.165l3.494 1.12a243.806 243.806 0 0 0 150.965-1.12l3.484 1.12.402.123 22.282 57.898 18.769-48.749A243.589 243.589 0 0 0 340.126-8.165c-20.854 76.952-67.794 121.436-114.015 147.142-71.34 39.653-158.242 40.557-230.292 2.703.391-1.716.597-3.505.597-5.345 0-13.608-11.039-24.647-24.647-24.647a24.44 24.44 0 0 0-14.646 4.832c-33.959-26.971-64.588-66.573-80.334-124.685l3.494 1.12A243.806 243.806 0 0 0-87.607.79" style="stroke-width:20;stroke-linecap:round;stroke-linejoin:round;stroke-miterlimit:10;stroke-dasharray:none;stroke-opacity:1" transform="translate(147.542 242.273)" fill="none" stroke="#b996f2" stroke-width="20" stroke-linecap="round" stroke-linejoin="round" stroke-miterlimit="10" stroke-dasharray="none" stroke-opacity="" data-original="#000000" opacity="1"></path><path d="M0 0s6.526 176.158 73.73 176.158C143.167 176.158 154.443 0 154.443 0" style="stroke-width:20;stroke-linecap:round;stroke-linejoin:round;stroke-miterlimit:10;stroke-dasharray:none;stroke-opacity:1" transform="translate(182.27 235.224)" fill="none" stroke="#b996f2" stroke-width="20" stroke-linecap="round" stroke-linejoin="round" stroke-miterlimit="10" stroke-dasharray="none" stroke-opacity="" data-original="#000000" opacity="1"></path><path d="M0 0h-40.029v20.807c0 11.053 8.961 20.014 20.015 20.014C-8.961 40.821 0 31.86 0 20.807Z" style="stroke-width:20;stroke-linecap:round;stroke-linejoin:round;stroke-miterlimit:10;stroke-dasharray:none;stroke-opacity:1" transform="translate(276.015 411.382)" fill="none" stroke="#b996f2" stroke-width="20" stroke-linecap="round" stroke-linejoin="round" stroke-miterlimit="10" stroke-dasharray="none" stroke-opacity="" data-original="#000000" opacity="1"></path><path d="M0 0v-206.757c0-16.495-13.372-29.867-29.867-29.867s-29.866 13.372-29.866 29.867" style="stroke-width:20;stroke-linecap:round;stroke-linejoin:round;stroke-miterlimit:10;stroke-dasharray:none;stroke-opacity:1" transform="translate(259.491 246.624)" fill="none" stroke="#b996f2" stroke-width="20" stroke-linecap="round" stroke-linejoin="round" stroke-miterlimit="10" stroke-dasharray="none" stroke-opacity="" data-original="#000000" opacity="1"></path><path d="M0 0v0" style="stroke-width:20;stroke-linecap:round;stroke-linejoin:round;stroke-miterlimit:10;stroke-dasharray:none;stroke-opacity:1" transform="translate(105.249 246.624)" fill="none" stroke="#b996f2" stroke-width="20" stroke-linecap="round" stroke-linejoin="round" stroke-miterlimit="10" stroke-dasharray="none" stroke-opacity="" data-original="#000000" opacity="1"></path></g></g></svg>