<svg xmlns="http://www.w3.org/2000/svg" version="1.1" xmlns:xlink="http://www.w3.org/1999/xlink" width="512" height="512" x="0" y="0" viewBox="0 0 64 64" style="enable-background:new 0 0 512 512" xml:space="preserve" class=""><g><path d="M36 44h2v20h-2zM31 50h2v14h-2zM32 25a6.006 6.006 0 0 1-6-6v-1a6 6 0 0 1 12 0v1a6.006 6.006 0 0 1-6 6zm0-11a4 4 0 0 0-4 4v1a4 4 0 0 0 8 0v-1a4 4 0 0 0-4-4z" fill="#b996f2" opacity="1" data-original="#000000" class=""></path><path d="M39.5 48a3.5 3.5 0 0 1-3.5-3.5V35h2v9.5a1.5 1.5 0 0 0 3 0V31a3 3 0 0 0-3-3H26a3 3 0 0 0-3 3v13.5a1.5 1.5 0 0 0 3 0V35h2v9.5a3.5 3.5 0 0 1-7 0V31a5.006 5.006 0 0 1 5-5h12a5.006 5.006 0 0 1 5 5v13.5a3.5 3.5 0 0 1-3.5 3.5z" fill="#b996f2" opacity="1" data-original="#000000" class=""></path><path d="M26 44h2v20h-2zM55 41h2v20h-2zM50 47h2v14h-2zM51 22a6.006 6.006 0 0 1-6-6v-1a6 6 0 0 1 12 0v1a6.006 6.006 0 0 1-6 6zm0-11a4 4 0 0 0-4 4v1a4 4 0 0 0 8 0v-1a4 4 0 0 0-4-4z" fill="#b996f2" opacity="1" data-original="#000000" class=""></path><path d="M58.5 45a3.5 3.5 0 0 1-3.5-3.5V32h2v9.5a1.5 1.5 0 0 0 3 0V28a3 3 0 0 0-3-3H45a2.989 2.989 0 0 0-1.983.75l-1.325-1.5A5 5 0 0 1 45 23h12a5.006 5.006 0 0 1 5 5v13.5a3.5 3.5 0 0 1-3.5 3.5zM45 32h2v29h-2zM12 47h2v14h-2zM13 22a6.006 6.006 0 0 1-6-6v-1a6 6 0 0 1 12 0v1a6.006 6.006 0 0 1-6 6zm0-11a4 4 0 0 0-4 4v1a4 4 0 0 0 8 0v-1a4 4 0 0 0-4-4zM24 13a6.006 6.006 0 0 1-6-6V6a6 6 0 0 1 12 0v1a6.006 6.006 0 0 1-6 6zm0-11a4 4 0 0 0-4 4v1a4 4 0 0 0 8 0V6a4 4 0 0 0-4-4zM40 13a6.006 6.006 0 0 1-6-6V6a6 6 0 0 1 12 0v1a6.006 6.006 0 0 1-6 6zm0-11a4 4 0 0 0-4 4v1a4 4 0 0 0 8 0V6a4 4 0 0 0-4-4zM5.5 45A3.5 3.5 0 0 1 2 41.5V28a5.006 5.006 0 0 1 5-5h12a5 5 0 0 1 3.308 1.25l-1.325 1.5A2.989 2.989 0 0 0 19 25H7a3 3 0 0 0-3 3v13.5a1.5 1.5 0 0 0 3 0V32h2v9.5A3.5 3.5 0 0 1 5.5 45z" fill="#b996f2" opacity="1" data-original="#000000" class=""></path><path d="M7 41h2v20H7zM17 32h2v29h-2z" fill="#b996f2" opacity="1" data-original="#000000" class=""></path></g></svg>