<svg xmlns="http://www.w3.org/2000/svg" version="1.1" xmlns:xlink="http://www.w3.org/1999/xlink" width="512" height="512" x="0" y="0" viewBox="0 0 30 30" style="enable-background:new 0 0 512 512" xml:space="preserve" class=""><g><path d="M29.5 7H.5a.5.5 0 0 0-.5.5V10c0 1.892 2.764 2.727 4.125 1.227.935 1.031 2.69 1.031 3.625 0 .935 1.031 2.69 1.031 3.625 0 .424.467 1.017.711 1.625.755v4.81a3.484 3.484 0 0 1-2.2 3.25l-1.558.623A1.967 1.967 0 0 0 8 22.5a.5.5 0 0 0 .5.5h13a.5.5 0 0 0 .5-.5c0-.813-.488-1.534-1.243-1.836l-1.557-.622a3.484 3.484 0 0 1-2.2-3.25v-4.81c.608-.044 1.201-.288 1.625-.755.935 1.031 2.69 1.031 3.625 0 .935 1.031 2.69 1.031 3.625 0C27.237 12.728 30 11.888 30 10V7.5a.5.5 0 0 0-.5-.5zM18.829 20.97l1.557.623a.972.972 0 0 1 .478.407H9.137a.967.967 0 0 1 .478-.407l1.557-.623A4.478 4.478 0 0 0 14 16.792v-4.934a2.324 2.324 0 0 0 1-.631c.275.303.625.506 1 .631v4.934a4.477 4.477 0 0 0 2.829 4.178zM29 10c0 1.324-2.625 1.322-2.625 0 0-.662-1-.661-1 0 0 1.324-2.625 1.322-2.625 0 0-.662-1-.661-1 0 0 1.324-2.625 1.322-2.625 0 0-.662-1-.661-1 0 0 1.324-2.625 1.322-2.625 0 0-.662-1-.661-1 0 0 1.324-2.625 1.322-2.625 0 0-.662-1-.661-1 0 0 1.324-2.625 1.322-2.625 0 0-.662-1-.661-1 0 0 1.324-2.625 1.322-2.625 0 0-.662-1-.661-1 0C3.625 11.324 1 11.322 1 10V8h28z" fill="#b996f2" opacity="1" data-original="#000000" class=""></path></g></svg>