<svg xmlns="http://www.w3.org/2000/svg" version="1.1" xmlns:xlink="http://www.w3.org/1999/xlink" width="512" height="512" x="0" y="0" viewBox="0 0 64 64" style="enable-background:new 0 0 512 512" xml:space="preserve" class=""><g><g data-name="Outline copy"><path d="M33.27 27.69a1 1 0 0 0-1.11.89L32 30.11a1 1 0 0 1-.66.83l-6.66 2.32a1 1 0 0 0-.67 1v8.93a1 1 0 0 0 .29.71l5.42 5.44A1 1 0 0 1 30 50v9a1 1 0 0 1-2 0v-8.17a1 1 0 0 0-.29-.71l-5.79-5.83a1 1 0 0 0-.71-.29H19a1 1 0 0 0-1 1v8a1 1 0 0 1-.45.83l-9 6a1 1 0 0 1-1.38-.28 1 1 0 0 1 .28-1.38l8.1-5.41a1 1 0 0 0 .45-.83V45a1 1 0 0 0-2 0v6.39L6.34 56.5A3 3 0 0 0 8 62a3 3 0 0 0 1.66-.5l9-6A3 3 0 0 0 20 53v-7h.79L26 51.24V59a3 3 0 0 0 6 0v-9a3 3 0 0 0-.87-2.12L26 42.73v-7.81l6-2.09a3 3 0 0 0 2-2.5l.17-1.53a1 1 0 0 0-.9-1.11Z" fill="#b996f2" opacity="1" data-original="#000000" class=""></path><path d="m12.88 40 1.12-.9V41a1 1 0 0 0 2 0v-4a1 1 0 0 0-.57-.9 1 1 0 0 0-1 .11l-2.74 2.18a1 1 0 0 1-.77.21l-6-.91h-.16A1 1 0 0 1 4 36.58a1 1 0 0 1 .4-.65 1 1 0 0 1 .74-.19l5.15.78a1 1 0 0 0 .77-.2l5.14-4.09A3.47 3.47 0 0 1 17 32h1a1 1 0 0 0 1-1v-.42a1 1 0 0 0-.6-.92 4 4 0 1 1 3.2 0 1 1 0 0 0-.6.92V31a1 1 0 0 0 1 1h.62a1 1 0 0 0 .69-.28 1 1 0 0 1 .36-.23l5.81-2a1 1 0 0 0 .67-.83l.85-7.77a1 1 0 0 1 1.1-.88 1 1 0 0 0 1.1-.89 1 1 0 0 0-.88-1.1A3 3 0 0 0 29 20.67l-.79 7.12-2.93 1a6 6 0 1 0-9.52 1.45l-.49.19-.22.13-4.9 3.9-4.72-.71a3 3 0 0 0-1.38 5.81 3.74 3.74 0 0 0 .48.12l6 .91a3 3 0 0 0 2.35-.59ZM60.94 10.71A3 3 0 0 0 58.5 10a3.09 3.09 0 0 0-2.5 3.11V26h-2.53a6.05 6.05 0 0 0 1.44-5 6 6 0 0 0-4.63-4.82 6.07 6.07 0 0 0-5.06 1.21 6 6 0 0 0-1.52 7.47l-2.93-1-.78-7A3.09 3.09 0 0 0 37 14a3 3 0 0 0-2.22 1 3 3 0 0 0-.78 2.33l1 9a3 3 0 0 0 2 2.5l6 2.09v7.81l-5.13 5.15A3 3 0 0 0 37 46v8.89A3.09 3.09 0 0 0 39.5 58a3 3 0 0 0 3.5-3v-7.76L48.21 42H49v16.89A3.09 3.09 0 0 0 51.5 62a2.81 2.81 0 0 0 .5 0 3 3 0 0 0 3-3V35a1 1 0 0 0-2 0v24a1 1 0 0 1-1.17 1 1.09 1.09 0 0 1-.83-1.1V41a1 1 0 0 0-1-1h-2.21a1 1 0 0 0-.71.29l-5.79 5.83a1 1 0 0 0-.29.71V55a1 1 0 0 1-1.17 1 1.09 1.09 0 0 1-.83-1.1V46a1 1 0 0 1 .29-.71l5.42-5.44a1 1 0 0 0 .29-.71v-8.93a1 1 0 0 0-.67-.95l-6.66-2.32a1 1 0 0 1-.66-.83l-1-9a1 1 0 0 1 .24-.77A1 1 0 0 1 37 16a1.11 1.11 0 0 1 1 1l.84 7.64a1 1 0 0 0 .67.83l5.81 2a1 1 0 0 1 .36.23 1 1 0 0 0 .69.28H47a1 1 0 0 0 1-1v-.42a1 1 0 0 0-.6-.92 4 4 0 1 1 3.2 0 1 1 0 0 0-.6.92V27a1 1 0 0 0 1 1h5a2 2 0 0 0 2-2V13.11a1.09 1.09 0 0 1 .82-1.1 1 1 0 0 1 .83.23A1 1 0 0 1 60 13v13a4 4 0 0 1-4 4h-2a1 1 0 0 0 0 2h2a6 6 0 0 0 6-6V13a3 3 0 0 0-1.06-2.29ZM5 14a3 3 0 0 0 3-3V8h6v2.18A3 3 0 1 0 16 13V3a1 1 0 0 0-1-1H7a1 1 0 0 0-1 1v5.18A3 3 0 1 0 5 14Zm8 0a1 1 0 1 1 1-1 1 1 0 0 1-1 1ZM8 4h6v2H8Zm-3 6a1 1 0 1 1-1 1 1 1 0 0 1 1-1Z" fill="#b996f2" opacity="1" data-original="#000000" class=""></path><path d="M41.26 12.88a2.94 2.94 0 0 0 1.61.48A3.09 3.09 0 0 0 45.41 12l2.68-4.22 4.22 2.69a1 1 0 0 0 .54.16 1 1 0 0 0 .84-.46l2.15-3.38A1 1 0 0 0 56 6a1.05 1.05 0 0 0-.44-.63l-5.08-3.21a1 1 0 0 0-1.38.3L47 5.83l-1.76 2.69a2.9 2.9 0 0 0-.75-.69 3 3 0 0 0-3.23 5.05Zm9-8.5 3.37 2.15-1.09 1.69-3.37-2.15ZM42 9.82a1 1 0 0 1 .85-.46 1.08 1.08 0 0 1 .54.15 1 1 0 0 1 .43.63 1 1 0 0 1-.13.75 1 1 0 0 1-1.38.31A1 1 0 0 1 42 9.82ZM22 11.33a3 3 0 0 0 2.92 2.36 3.59 3.59 0 0 0 .65-.07 3 3 0 0 0 1.88-1.31l3.23-5.06a1 1 0 0 0-.3-1.38 1 1 0 0 0-1.38.3l-1.72 2.68a2.88 2.88 0 0 0-.74-.69 3 3 0 0 0-4.14.91 2.91 2.91 0 0 0-.4 2.26Zm2.08-1.18a1 1 0 0 1 .63-.44.78.78 0 0 1 .22 0 1 1 0 0 1 .84 1.53 1 1 0 0 1-.63.44 1 1 0 0 1-1.06-1.51ZM36 10a1 1 0 0 0 1-1V5a1 1 0 0 0-2 0v4a1 1 0 0 0 1 1ZM5 22v3a1 1 0 0 0 2 0v-3a1 1 0 0 0-2 0Z" fill="#b996f2" opacity="1" data-original="#000000" class=""></path><circle cx="26" cy="18" r="1" fill="#b996f2" opacity="1" data-original="#000000" class=""></circle><circle cx="21" cy="4" r="1" fill="#b996f2" opacity="1" data-original="#000000" class=""></circle></g></g></svg>