<svg xmlns="http://www.w3.org/2000/svg" version="1.1" xmlns:xlink="http://www.w3.org/1999/xlink" width="512" height="512" x="0" y="0" viewBox="0 0 50 50" style="enable-background:new 0 0 512 512" xml:space="preserve" class=""><g><path d="M19.7 40.5h12.9c1.6 0 2.6-1.6 2-3.1L33 34c-.4-.8-1.1-1.2-2-1.2h-9.8c-.8 0-1.6.5-2 1.2l-1.6 3.4c-.5 1.5.5 3.1 2.1 3.1zm1.4-5.6c0-.1.1-.1.1-.1H31c.1 0 .1 0 .1.1l1.6 3.4v.1l-.1.1H19.7c-.1 0-.1 0-.1-.1v-.1z" fill="#b996f2" opacity="1" data-original="#000000" class=""></path><path d="M49 27.9V27c0-.8-.5-1.5-1.3-1.7l-3.9-1c-.3-.1-.6 0-.9.2l-1.5 1.3c0-.1-3.3-8.5-3.1-8-.5-1.3-1.8-2.2-3.2-2.4-6-.5-12.1-.5-18.1 0-1.4.1-2.7 1-3.2 2.4l-1.1 2.7c-.1.3-.1.7.1 1s.6.4.9.4c7.8-.8 15.8-.8 24-.1l2.3 6 .3.8H39c-.5-2.8-2.9-4.9-5.8-4.9s-5.3 2.1-5.8 4.9H14.5c-.6 0-1 .4-1 1s.4 1 1 1h26.8l.6.8.5.8c.2.4.4.9.4 1.4h-5.5c-.3 0-.7.2-.8.5-.2.3-.2.7-.1 1l2.2 4.5c.2.3.5.6.9.6h3.3v2H9.3v-2h3.3c.4 0 .7-.2.9-.6l2.2-4.5c.1-.3.1-.7-.1-1s-.5-.5-.8-.5H9.3c0-.5-.3-1-.8-1.1s-1.1.2-1.2.8v12.5c0 1.8 1.4 3.2 3.2 3.2H13c1.8 0 3.2-1.4 3.2-3.2v-1.7h19.7v1.7c0 1.8 1.4 3.2 3.2 3.2h2.5c1.8 0 3.2-1.4 3.2-3.2v-12c0-.8-.2-1.7-.6-2.5l3.4-1.4c.9-.3 1.4-1.1 1.4-2zM17.2 17.4c5.9-.5 11.9-.5 17.8 0 .7.1 1.2.5 1.5 1.1l.5 1.2c-7.4-.6-14.8-.6-21.7 0l.5-1.2c.1-.6.7-1 1.4-1.1zm16 8.3c1.8 0 3.3 1.2 3.8 2.9h-7.5c.4-1.7 1.9-2.9 3.7-2.9zm9.6 12.4h-2.7l-1.2-2.5h3.9zM9.3 35.6h3.9L12 38.1H9.3zm4.9 10.2c0 .7-.5 1.2-1.2 1.2h-2.5c-.7 0-1.2-.5-1.2-1.2v-1.7h4.9zm28.6 0c0 .7-.5 1.2-1.2 1.2h-2.5c-.7 0-1.2-.5-1.2-1.2v-1.7h4.9zM47 27.9c0 .1-.1.2-.1.2L43 29.6l-.3-.5-.5-1.4 1.6-1.4 3.2.8z" fill="#b996f2" opacity="1" data-original="#000000" class=""></path><path d="M7.1 31.7c3.3 0 6.1-2.7 6.1-6.1 0-1.8-.8-3.5-2.1-4.6V4.9C11 2.8 9.2 1 7.1 1c-2.2 0-4 1.8-4 3.9V21C1.8 22.2 1 23.9 1 25.6c0 3.4 2.7 6.1 6.1 6.1zm-2.4-9.4c.3-.2.4-.5.4-.8V4.9c0-1 .9-1.9 2-1.9 1 0 1.9.9 1.9 1.9v.7h-.1c-.6 0-1 .4-1 1s.4 1 1 1H9v1.1H8c-.6 0-1 .4-1 1s.4 1 1 1h1v1.1h-.1c-.6 0-1 .4-1 1s.4 1 1 1H9v1.1H8c-.6 0-1 .4-1 1s.4 1 1 1h1V18h-.1c-.6 0-1 .4-1 1s.4 1 1 1H9v1.5c0 .3.2.6.4.8 1.1.8 1.7 2 1.7 3.3 0 2.2-1.8 4.1-4.1 4.1s-4-1.8-4-4.1c0-1.3.6-2.5 1.7-3.3z" fill="#b996f2" opacity="1" data-original="#000000" class=""></path><path d="M7.1 28.4c1.5 0 2.7-1.2 2.7-2.7 0-1.3-.8-2-1.1-2.2-.9-.7-2.2-.7-3.1 0-.3.2-1.1.9-1.1 2.2-.2 1.4 1 2.7 2.6 2.7zm-.5-3.2c.4-.3 1.1 0 1.1.6 0 .4-.4.8-.9.7-.3-.1-.6-.4-.5-.7.1-.4.2-.5.3-.6zM13.2 12.9c0 .6.4 1 1 1 .5 0 .9-.4 1-.9.1-.1.4-.2.5-.3.6-.3 1.6-.8 1.6-2s-1-1.7-1.6-2c-.1-.1-.3-.1-.4-.2.1-.1.3-.1.4-.2.6-.3 1.6-.8 1.6-2s-1-1.7-1.6-2c-.1-.1-.3-.1-.4-.2.2 0 .4-.1.5-.1.6-.3 1.6-.8 1.6-2 0-.6-.4-1-1-1-.5 0-.9.4-1 .9l-.6.3c-.6.3-1.6.8-1.6 2s1 1.7 1.6 2c.1.1.3.1.4.2-.1.1-.3.1-.4.2-.6.3-1.6.8-1.6 2s1 1.7 1.6 2c.1.1.3.1.4.2-.1.1-.3.1-.4.2-.6.2-1.6.8-1.6 1.9zM18 12.9c0 .6.4 1 1 1 .5 0 .9-.4 1-.9.1-.1.4-.2.5-.3.6-.3 1.6-.8 1.6-2s-1-1.7-1.6-2c-.1-.1-.3-.1-.4-.2.1-.1.3-.1.4-.2.6-.3 1.6-.8 1.6-2s-1-1.7-1.6-2c-.1-.1-.3-.1-.4-.2.2 0 .3-.1.4-.1.6-.3 1.6-.8 1.6-2 0-.6-.4-1-1-1-.5 0-.9.4-1 .9-.1.1-.3.2-.5.3-.6.3-1.6.8-1.6 2s1 1.7 1.6 2c.1.1.3.1.4.2-.1.1-.3.1-.4.2-.6.3-1.6.8-1.6 1.9s1 1.7 1.6 2c.1.1.3.1.4.2-.1.1-.3.1-.4.2-.6.3-1.6.9-1.6 2z" fill="#b996f2" opacity="1" data-original="#000000" class=""></path></g></svg>