<svg xmlns="http://www.w3.org/2000/svg" version="1.1" xmlns:xlink="http://www.w3.org/1999/xlink" width="512" height="512" x="0" y="0" viewBox="0 0 511.98 511.98" style="enable-background:new 0 0 512 512" xml:space="preserve" class=""><g><path d="M24.48 113.564C2.721 158.943 2.869 220.361 43.066 289.985c52.751 91.367 159.142 175.135 212.915 189.544 53.773-14.409 160.164-98.177 212.915-189.544C583.514 91.461 372.741-40.469 255.981 76.291 205.596 25.905 137.718 21.86 86.021 49.463" style="fill-rule:evenodd;clip-rule:evenodd;stroke-width:20.0001;stroke-linecap:round;stroke-linejoin:round;stroke-miterlimit:22.9256;" fill-rule="evenodd" clip-rule="evenodd" fill="none" stroke="#b996f2" stroke-width="20.0001" stroke-linecap="round" stroke-linejoin="round" stroke-miterlimit="22.9256" data-original="#000000" opacity="1"></path><path d="M255.981 356.062c-13.187 0-24.079 13.088-43.125 13.088-26.406 0-47.812-21.406-47.812-47.812 0-17.431 9.329-32.683 23.265-41.036 12.197-7.311 17.728-13.697 24.278-27.814 7.592-16.363 24.168-27.712 43.395-27.712 19.227 0 35.803 11.348 43.395 27.712 6.549 14.117 12.08 20.503 24.278 27.814 13.936 8.354 23.265 23.605 23.265 41.036 0 26.406-21.406 47.812-47.812 47.812-19.048.001-29.94-13.088-43.127-13.088zM201.393 123.156c14.883-2.66 29.813 11.215 33.348 30.991 3.534 19.776-5.665 37.964-20.548 40.624-14.883 2.66-29.813-11.215-33.348-30.991-3.535-19.777 5.665-37.965 20.548-40.624zM125.636 197.219c12.707-6.01 29.482 2.805 37.468 19.69 7.986 16.885 4.159 35.445-8.548 41.455-12.707 6.01-29.482-2.805-37.468-19.69-7.986-16.885-4.159-35.445 8.548-41.455zM310.569 123.156c-14.883-2.66-29.813 11.215-33.348 30.991-3.534 19.776 5.665 37.964 20.548 40.624 14.883 2.66 29.813-11.215 33.348-30.991 3.535-19.777-5.665-37.965-20.548-40.624zM386.326 197.219c-12.707-6.01-29.482 2.805-37.468 19.69-7.986 16.885-4.159 35.445 8.548 41.455 12.707 6.01 29.482-2.805 37.468-19.69 7.986-16.885 4.159-35.445-8.548-41.455z" style="fill-rule:evenodd;clip-rule:evenodd;stroke-width:20.0001;stroke-linecap:round;stroke-linejoin:round;stroke-miterlimit:22.9256;" fill-rule="evenodd" clip-rule="evenodd" fill="none" stroke="#b996f2" stroke-width="20.0001" stroke-linecap="round" stroke-linejoin="round" stroke-miterlimit="22.9256" data-original="#000000" opacity="1"></path><path d="M50.097 76.569h.008" style="fill-rule:evenodd;clip-rule:evenodd;stroke-width:19.9998;stroke-linecap:round;stroke-linejoin:round;stroke-miterlimit:2.6131;" fill-rule="evenodd" clip-rule="evenodd" fill="none" stroke="#b996f2" stroke-width="19.9998" stroke-linecap="round" stroke-linejoin="round" stroke-miterlimit="2.6131" data-original="#000000" opacity="1"></path></g></svg>