<svg xmlns="http://www.w3.org/2000/svg" version="1.1" xmlns:xlink="http://www.w3.org/1999/xlink" width="512" height="512" x="0" y="0" viewBox="0 0 510.101 510.101" style="enable-background:new 0 0 512 512" xml:space="preserve" class=""><g><path d="M309.282 441.991a7.501 7.501 0 0 0-9.726 4.233l-21.101 53.628a7.5 7.5 0 0 0 13.958 5.492l21.101-53.628a7.499 7.499 0 0 0-4.232-9.725z" fill="#b996f2" opacity="1" data-original="#000000" class=""></path><path d="M505.856 453.683 365.16 320.459l54.992-139.765 10.642 7.156h-.001a13.898 13.898 0 0 0 11.586 1.836 13.894 13.894 0 0 0 8.877-7.667l8.875-19.683 17.705-26.332c17.233-25.628 10.403-60.498-15.225-77.731l-14.3-9.615h25.406c11.389 0 20.654-9.266 20.654-20.654V15h4.788c4.143 0 7.5-3.358 7.5-7.5s-3.357-7.5-7.5-7.5H365.112c-4.143 0-7.5 3.358-7.5 7.5s3.357 7.5 7.5 7.5h4.904v13.003c0 6.179 2.736 11.722 7.052 15.507a55.66 55.66 0 0 0-14.695 14.854l-17.706 26.332-14.882 15.645c-2.831 2.978-4.198 7.029-3.75 11.114s2.66 7.743 6.071 10.036l13.425 9.028-28.905 27.37a7.501 7.501 0 0 0 10.314 10.892l31.348-29.684 49.115 33.026-53.989 137.216-87.458-82.813 37.765-35.76a7.5 7.5 0 1 0-10.313-10.892l-38.36 36.323-90.482-85.677 13.426-9.028c3.41-2.293 5.623-5.951 6.071-10.036s-.919-8.137-3.752-11.115l-14.88-15.644-17.707-26.332a55.937 55.937 0 0 0-14.677-14.881c4.305-3.782 7.035-9.311 7.035-15.48V15h4.905a7.5 7.5 0 0 0 0-15H10.941a7.5 7.5 0 0 0 0 15h4.788v13.003c0 11.389 9.265 20.654 20.654 20.654H61.79l-14.3 9.615c-9.479 6.375-16.693 15.356-20.861 25.973a7.5 7.5 0 0 0 4.241 9.722 7.5 7.5 0 0 0 9.722-4.241 40.755 40.755 0 0 1 15.269-19.007l22.507-15.134c9.09-6.112 20.017-8.318 30.765-6.213 10.75 2.106 20.036 8.271 26.148 17.361l13.317 19.803-90.568 60.9-13.316-19.803a41.042 41.042 0 0 1-5.157-10.786 7.5 7.5 0 0 0-14.331 4.429 56.033 56.033 0 0 0 7.04 14.726l17.706 26.332 8.874 19.682a13.895 13.895 0 0 0 8.877 7.668 13.897 13.897 0 0 0 11.587-1.836l10.642-7.156 54.991 139.764L4.244 453.683a7.5 7.5 0 0 0 10.313 10.892l136.305-129.067 13.695 34.807a7.503 7.503 0 0 0 6.981 4.756 7.5 7.5 0 0 0 6.977-10.248l-15.91-40.435 92.444-87.535 92.444 87.535-36.219 92.053a7.5 7.5 0 0 0 13.958 5.492l34.005-86.425 136.305 129.066a7.469 7.469 0 0 0 5.155 2.054 7.483 7.483 0 0 0 5.447-2.343 7.497 7.497 0 0 0-.288-10.602zM479.372 15v13.003a5.66 5.66 0 0 1-5.654 5.654h-83.047a5.66 5.66 0 0 1-5.654-5.654V15zM374.821 66.734c12.616-18.764 38.147-23.766 56.914-11.148l22.506 15.134c18.765 12.618 23.765 38.149 11.147 56.914l-13.316 19.804-90.568-60.9zm-22.514 31.694 92.223 62.013-6.425 14.25-96.571-64.937zM30.729 28.003V15h94.355v13.003a5.66 5.66 0 0 1-5.654 5.654H36.383a5.66 5.66 0 0 1-5.654-5.654zm41.267 146.688-6.425-14.25 92.223-62.013 10.773 11.326zm84.689 134.647-53.989-137.215 49.115-33.026 92.331 87.428z" fill="#b996f2" opacity="1" data-original="#000000" class=""></path><path d="M215.033 457.633a7.5 7.5 0 0 0-13.958 5.492l16.611 42.219a7.503 7.503 0 0 0 6.981 4.756 7.5 7.5 0 0 0 6.977-10.248zM460.88 283.211c-4.462-2.794-8.069-6.28-11.027-10.658-2.44-3.61-6.485-5.643-10.837-5.412-4.373.223-8.225 2.667-10.301 6.537-2.153 4.012-5.523 7.157-10.305 9.615-3.951 2.031-6.449 5.892-6.684 10.327-.235 4.438 1.845 8.543 5.563 10.982 4.398 2.885 7.926 6.518 10.782 11.105a12.256 12.256 0 0 0 10.428 5.818h.034c4.29 0 8.22-2.174 10.518-5.821 2.914-4.627 6.782-8.396 11.826-11.522a12.24 12.24 0 0 0 5.826-10.436 12.325 12.325 0 0 0-5.823-10.535zm-22.303 21.271a50.42 50.42 0 0 0-9.625-9.958c4.435-2.827 8.071-6.274 10.868-10.303a51.474 51.474 0 0 0 9.8 9.459c-4.295 3.107-7.991 6.722-11.043 10.802zM212.247 425.041a12.774 12.774 0 0 0 6.079-10.891c.01-4.496-2.263-8.607-6.08-10.998a41.75 41.75 0 0 1-12.504-12.084c-2.546-3.768-6.769-5.882-11.309-5.649-4.566.232-8.587 2.784-10.755 6.826-2.475 4.612-6.337 8.221-11.806 11.034-4.124 2.12-6.732 6.149-6.977 10.778-.245 4.632 1.926 8.917 5.807 11.463 4.991 3.273 8.993 7.395 12.234 12.6 2.36 3.79 6.429 6.06 10.884 6.071h.034c4.479 0 8.583-2.271 10.981-6.08 3.264-5.179 7.775-9.577 13.412-13.07zm-24.351 2.468c-3.409-4.855-7.482-9.064-12.16-12.565 5.653-3.409 10.175-7.697 13.499-12.802a56.452 56.452 0 0 0 12.376 11.943c-5.439 3.778-10.034 8.275-13.715 13.424zM59.636 323.944a11.763 11.763 0 0 0 10.008 5.581h.031c4.115 0 7.883-2.085 10.086-5.582 2.55-4.048 5.938-7.348 10.358-10.087a11.746 11.746 0 0 0 5.591-10.016 11.821 11.821 0 0 0-5.586-10.106c-3.908-2.447-7.067-5.5-9.657-9.333a11.755 11.755 0 0 0-10.398-5.195c-4.196.213-7.89 2.557-9.882 6.27-1.854 3.455-4.77 6.169-8.914 8.3-3.791 1.95-6.188 5.654-6.413 9.909-.225 4.258 1.771 8.197 5.337 10.536 3.849 2.524 6.936 5.704 9.439 9.723zm11.23-27.374a46.878 46.878 0 0 0 7.458 7.202c-3.276 2.475-6.152 5.288-8.603 8.412a45.966 45.966 0 0 0-7.324-7.587c3.359-2.272 6.19-4.955 8.469-8.027z" fill="#b996f2" opacity="1" data-original="#000000" class=""></path></g></svg>