<svg xmlns="http://www.w3.org/2000/svg" version="1.1" xmlns:xlink="http://www.w3.org/1999/xlink" width="512" height="512" x="0" y="0" viewBox="0 0 512 511" style="enable-background:new 0 0 512 512" xml:space="preserve" class=""><g><path d="M504.5.5H96.238c-4.144 0-7.5 3.355-7.5 7.5s3.356 7.5 7.5 7.5H497v395H15v-395h48.309c4.144 0 7.5-3.355 7.5-7.5S67.453.5 63.309.5H7.5A7.497 7.497 0 0 0 0 8v410c0 4.145 3.355 7.5 7.5 7.5h497c4.145 0 7.5-3.355 7.5-7.5V8c0-4.145-3.355-7.5-7.5-7.5zm0 0" fill="#b996f2" opacity="1" data-original="#000000" class=""></path><path d="M416.238 380.5c-4.144 0-7.5 3.355-7.5 7.5s3.356 7.5 7.5 7.5H474.5c4.145 0 7.5-3.355 7.5-7.5V38c0-4.145-3.355-7.5-7.5-7.5h-437A7.497 7.497 0 0 0 30 38v350c0 4.145 3.355 7.5 7.5 7.5h346.18c4.144 0 7.5-3.355 7.5-7.5s-3.356-7.5-7.5-7.5H79.91l6.27-58.117h339.64l6.27 58.117zm-107.16-103.121-16.992-23.488 33.457-46.871c.61-.852 1.8-.86 2.41 0l50.23 70.359zm87.535.004L340.164 198.3c-6.586-9.215-20.242-9.219-26.828.004l-30.527 42.761-56.95-78.718c-3.156-4.36-8.242-6.965-13.609-6.965-5.363 0-10.453 2.605-13.605 6.965l-41.805 57.78a7.499 7.499 0 0 0 1.68 10.474 7.498 7.498 0 0 0 10.472-1.68l41.809-57.785a1.739 1.739 0 0 1 1.453-.754c.41 0 1 .133 1.453.758 9.473 13.093 69.754 96.414 76.86 106.238l-156.633.004 16.304-22.54a7.5 7.5 0 0 0-1.68-10.472 7.5 7.5 0 0 0-10.472 1.68l-22.664 31.332h-24.39L116.042 45.5h279.914l25.012 231.883zM45 380.5v-335h22.098L58.55 147.113a7.505 7.505 0 0 0 6.844 8.106c.214.015.43.023.64.023a7.5 7.5 0 0 0 7.465-6.87L82.152 45.5h18.801l-36.129 335zm42.797-73.117 1.617-15h333.172l1.617 15zM411.047 45.5h18.8l8.653 102.871a7.5 7.5 0 0 0 7.465 6.871c.21 0 .426-.008.64-.023a7.505 7.505 0 0 0 6.844-8.106L444.902 45.5H467v335h-19.824zm0 0" fill="#b996f2" opacity="1" data-original="#000000" class=""></path><path d="M98.785 332.86c-4.144 0-7.5 3.355-7.5 7.5s3.356 7.5 7.5 7.5h33.742c4.145 0 7.5-3.356 7.5-7.5s-3.355-7.5-7.5-7.5zM362.414 336.676a7.497 7.497 0 0 0-7.5 7.5 7.5 7.5 0 0 0 7.5 7.5h33.742a7.5 7.5 0 0 0 7.5-7.5c0-4.145-3.355-7.5-7.5-7.5zM185.203 354.14a7.5 7.5 0 1 0 0 15h125.442a7.5 7.5 0 0 0 7.5-7.5c0-4.144-3.356-7.5-7.5-7.5zM296.684 90.094c-15.715 0-28.5 12.785-28.5 28.5s12.785 28.5 28.5 28.5 28.5-12.785 28.5-28.5-12.786-28.5-28.5-28.5zm0 42c-7.442 0-13.5-6.059-13.5-13.5 0-7.446 6.058-13.5 13.5-13.5 7.445 0 13.5 6.054 13.5 13.5 0 7.441-6.055 13.5-13.5 13.5zm0 0" fill="#b996f2" opacity="1" data-original="#000000" class=""></path></g></svg>