<svg xmlns="http://www.w3.org/2000/svg" version="1.1" xmlns:xlink="http://www.w3.org/1999/xlink" width="512" height="512" x="0" y="0" viewBox="0 0 60 60" style="enable-background:new 0 0 512 512" xml:space="preserve" class=""><g><path d="M3 53c0 5.136 16.147 7 27 7s27-1.864 27-7V39.617A3.954 3.954 0 0 0 58 37V21c0-3.045-5.793-4.752-11-5.673V11a2.982 2.982 0 0 0-1.051-2.262A3.669 3.669 0 0 0 47 6.2a7.068 7.068 0 0 0-1.118-3.269 8.471 8.471 0 0 1-.817-1.829A1.459 1.459 0 0 0 42.727.33c-1.827 1.489-4.689 4.427-3.42 7.37a3.645 3.645 0 0 0 .732 1.052A2.982 2.982 0 0 0 39 11v3.349c-1.955-.151-3.96-.251-6-.3V12a2.982 2.982 0 0 0-1.051-2.262A3.669 3.669 0 0 0 33 7.2a7.068 7.068 0 0 0-1.118-3.269 8.471 8.471 0 0 1-.817-1.829 1.458 1.458 0 0 0-2.338-.775c-1.827 1.492-4.689 4.43-3.42 7.373a3.6 3.6 0 0 0 .732 1.053A2.982 2.982 0 0 0 25 12v2.11c-2.062.083-4.07.219-6 .406V11a2.982 2.982 0 0 0-1.051-2.262A3.669 3.669 0 0 0 19 6.2a7.07 7.07 0 0 0-1.119-3.269 8.456 8.456 0 0 1-.815-1.829A1.459 1.459 0 0 0 14.727.33c-1.827 1.489-4.689 4.427-3.42 7.37a3.6 3.6 0 0 0 .732 1.053A2.982 2.982 0 0 0 11 11v4.718C5.032 17 2 18.776 2 21v11a3.966 3.966 0 0 0 1 2.618Zm11-16.292a35.54 35.54 0 0 1-5.682-1.46A3.993 3.993 0 0 0 10 32a1.984 1.984 0 0 1 .587-1.413 2.042 2.042 0 0 1 2.826 0A1.984 1.984 0 0 1 14 32ZM30 58c-16.414 0-25-3.255-25-5v-8.148C9.651 47.845 21.461 49 30 49s20.349-1.155 25-4.148V53c0 1.745-8.586 5-25 5Zm0-11c-16.414 0-25-3.255-25-5v-6.132c2.23 1.429 5.953 2.335 9 2.874V40a4 4 0 0 0 8 0v-.3c1.735.127 3.519.221 5.341.266a3.936 3.936 0 0 0 5.314 0c2.226-.053 4.358-.167 6.355-.339a3.959 3.959 0 0 0 6.535-.818 48.529 48.529 0 0 0 4.548-.972A3.936 3.936 0 0 0 55 40.858V42c0 1.745-8.586 5-25 5Zm-3.883-9.08c-1.4-.051-2.776-.124-4.117-.224V34a2 2 0 0 1 4 0v3a3.99 3.99 0 0 0 .117.92Zm11.954-.22c-1.343.1-2.743.182-4.192.233A4 4 0 0 0 34 37v-2a2 2 0 0 1 4 0v2a3.957 3.957 0 0 0 .071.7ZM50 35.786q-1.785.51-4 .918V35a2 2 0 0 1 4 0ZM44 10a1 1 0 0 1 1 1v9.546A3.7 3.7 0 0 1 43 21a3.74 3.74 0 0 1-2-.449V11a1 1 0 0 1 1-1Zm-.608-7.6a15.158 15.158 0 0 0 .727 1.481A5.653 5.653 0 0 1 45 6.2a1.725 1.725 0 0 1-.681 1.349 2.185 2.185 0 0 1-1.874.382 1.891 1.891 0 0 1-1.3-1.032c-.661-1.522 1.117-3.468 2.247-4.499ZM30 11a1 1 0 0 1 1 1v9.546A3.7 3.7 0 0 1 29 22a3.743 3.743 0 0 1-2-.449V12a1 1 0 0 1 1-1Zm-.608-7.6a15.158 15.158 0 0 0 .727 1.481A5.653 5.653 0 0 1 31 7.2a1.727 1.727 0 0 1-.68 1.349 2.19 2.19 0 0 1-1.874.382 1.89 1.89 0 0 1-1.3-1.032c-.662-1.522 1.115-3.467 2.246-4.499ZM16 10a1 1 0 0 1 1 1v9.546A3.7 3.7 0 0 1 15 21a3.743 3.743 0 0 1-2-.449V11a1 1 0 0 1 1-1Zm-.608-7.6a15.158 15.158 0 0 0 .727 1.481A5.653 5.653 0 0 1 17 6.2a1.727 1.727 0 0 1-.68 1.349 2.188 2.188 0 0 1-1.874.382 1.89 1.89 0 0 1-1.3-1.032c-.662-1.522 1.115-3.467 2.246-4.499ZM4 21c0-.485 1.3-1.953 7-3.236V21a1 1 0 0 0 .2.6c.108.143 1.127 1.4 3.8 1.4s3.692-1.257 3.8-1.4a1 1 0 0 0 .2-.6v-4.474c1.926-.191 3.935-.33 6-.415V22a1 1 0 0 0 .2.6c.108.143 1.127 1.4 3.8 1.4s3.692-1.257 3.8-1.4a1 1 0 0 0 .2-.6v-5.948c2.041.048 4.049.148 6 .3V21a1 1 0 0 0 .2.6c.108.143 1.127 1.4 3.8 1.4s3.692-1.257 3.8-1.4a1 1 0 0 0 .2-.6v-3.64c7.336 1.34 9 3.063 9 3.64v16a2 2 0 0 1-4 0v-2a4 4 0 0 0-8 0v2a2 2 0 0 1-4 0v-2a4 4 0 0 0-8 0v2a2 2 0 0 1-4 0v-3a4 4 0 0 0-8 0v6a2 2 0 0 1-4 0v-8a3.973 3.973 0 0 0-1.173-2.827 4.089 4.089 0 0 0-5.654 0A3.973 3.973 0 0 0 8 32a2 2 0 0 1-4 0Z" fill="#b996f2" opacity="1" data-original="#000000" class=""></path><path d="M7.7 25.435C12.871 27.041 21.206 28 30 28s17.13-.959 22.3-2.565a1 1 0 1 0-.594-1.91C46.718 25.075 38.6 26 30 26s-16.717-.925-21.7-2.475a1 1 0 0 0-.594 1.91Z" fill="#b996f2" opacity="1" data-original="#000000" class=""></path></g></svg>