<svg xmlns="http://www.w3.org/2000/svg" version="1.1" xmlns:xlink="http://www.w3.org/1999/xlink" width="512" height="512" x="0" y="0" viewBox="0 0 512 512" style="enable-background:new 0 0 512 512" xml:space="preserve" class=""><g><path d="M16 120V24a8 8 0 0 1 8-8h96a8 8 0 0 1 0 16H32v88a8 8 0 0 1-16 0zm104 360H32v-87a8 8 0 0 0-16 0v95a8 8 0 0 0 8 8h96a8 8 0 0 0 0-16zm368-95a8 8 0 0 0-8 8v87h-87a8 8 0 0 0 0 16h95a8 8 0 0 0 8-8v-95a8 8 0 0 0-8-8zm0-369h-95a8 8 0 0 0 0 16h87v88a8 8 0 0 0 16 0V24a8 8 0 0 0-8-8zM160 56v96a8 8 0 0 1-8 8H56a8 8 0 0 1-8-8V56a8 8 0 0 1 8-8h96a8 8 0 0 1 8 8zm-16 8H64v80h80zm-64.173 56V88a8 8 0 0 1 8-8H120a8 8 0 0 1 8 8v32a8 8 0 0 1-8 8H87.827a8 8 0 0 1-8-8zm16-8H112V96H95.827zM160 360v96a8 8 0 0 1-8 8H56a8 8 0 0 1-8-8v-96a8 8 0 0 1 8-8h96a8 8 0 0 1 8 8zm-16 8H64v80h80zm-64.173 56v-32a8 8 0 0 1 8-8H120a8 8 0 0 1 8 8v32a8 8 0 0 1-8 8H87.827a8 8 0 0 1-8-8zm16-8H112v-16H95.827zM464 152a8 8 0 0 1-8 8h-96a8 8 0 0 1-8-8V56a8 8 0 0 1 8-8h96a8 8 0 0 1 8 8zm-16-88h-80v80h80zm-64.173 56V88a8 8 0 0 1 8-8H424a8 8 0 0 1 8 8v32a8 8 0 0 1-8 8h-32.173a8 8 0 0 1-8-8zm16-8H416V96h-16.173zM464 184v56a8 8 0 0 1-8 8h-56a8 8 0 0 1-8-8v-56a8 8 0 0 1 8-8h56a8 8 0 0 1 8 8zm-16 8h-40v40h40zm8 272h-96a8 8 0 0 1-8-8v-32a8 8 0 0 1 8-8h24a8 8 0 0 1 8-8h64a8 8 0 0 1 8 8v40a8 8 0 0 1-8 8zm-8-40h-48a8 8 0 0 1-8 8h-24v16h80zM208.092 292.943C202.646 297.878 200 304.111 200 312a8 8 0 0 1-7.638 7.992c-4.269.155-7.941-3.008-8.329-7.268-.159-1.745-3.587-43.059 22.306-71.412 13.858-15.175 33.229-23.592 57.661-25.075V184a8.002 8.002 0 0 1 13.657-5.658l64 64a8 8 0 0 1 0 11.314l-64 64A8.002 8.002 0 0 1 264 312v-32.467c-15.488-.437-42.668 1.41-55.908 13.41zm36.759-28.817c5.387-.473 10.41-.628 14.669-.628 7.729 0 12.944.509 13.276.542A7.999 7.999 0 0 1 280 272v20.687L324.687 248 280 203.313V224a8 8 0 0 1-8 8c-23.502 0-41.594 6.736-53.774 20.022-6.52 7.112-10.758 15.439-13.5 23.568 10.027-6.153 23.474-10.001 40.125-11.464zM184 120V88a8 8 0 0 1-8-8V56a8 8 0 0 1 8-8h40a8 8 0 0 1 8 8h8a8 8 0 0 1 8-8h80a8 8 0 0 1 8 8v40a8 8 0 0 1-8 8h-88v16a8 8 0 0 1-8 8h-40a8 8 0 0 1-8-8zm8-48a8 8 0 0 1 8 8v32h24V96a8 8 0 0 1 8-8h88V64h-64a8 8 0 0 1-8 8h-24a8 8 0 0 1-8-8h-24zm240 288v16a8 8 0 0 0 16 0v-16a8 8 0 0 0-16 0zm-312-56a8 8 0 0 0-8 8v16a8 8 0 0 0 8 8h8a8 8 0 0 0 0-16v-8a8 8 0 0 0-8-8zm344-32v56a8 8 0 0 1-8 8h-40v40a8 8 0 0 1-8 8h-32a8 8 0 0 1-8-8v-24h-27.436c-22.569 19.904-52.178 32-84.564 32-8.202 0-16.223-.785-24-2.266V392h48a8 8 0 0 1 8 8h40a8 8 0 0 1 8 8v40a8 8 0 0 1-8 8h-32a8 8 0 0 1-8-8h-16v8a8 8 0 0 1-8 8h-32a8 8 0 0 1-8-8v-16h-40a8 8 0 0 1-8-8v-56a8 8 0 0 1 8-8h10.094C154.715 346.147 128 304.138 128 256c0-11.046 1.407-21.769 4.05-32H112v48a8 8 0 0 1-8 8h-8v48a8 8 0 0 1-8 8H56a8 8 0 0 1-8-8V184a8 8 0 0 1 8-8h88c3.68 0 6.772 2.489 7.705 5.872C174.931 149.288 213.026 128 256 128c70.579 0 128 57.421 128 128 0 2.688-.093 5.353-.257 8H456a8 8 0 0 1 8 8zM224 408a8 8 0 0 1-8-8v-16h-24v40h40a8 8 0 0 1 8 8v16h16v-8a8 8 0 0 1 8-8h32a8 8 0 0 1 8 8h16v-24h-40a8 8 0 0 1-8-8zm-88-216H64v128h16v-48a8 8 0 0 1 8-8h8v-48a8 8 0 0 1 8-8h32zm232 64c0-61.757-50.243-112-112-112s-112 50.243-112 112 50.243 112 112 112 112-50.243 112-112zm80 24h-66.266c-3.982 20.902-13.061 40.017-25.893 56H376a8 8 0 0 1 8 8v24h16v-40a8 8 0 0 1 8-8h40z" fill="#b996f2" opacity="1" data-original="#000000" class=""></path></g></svg>