<svg xmlns="http://www.w3.org/2000/svg" version="1.1" xmlns:xlink="http://www.w3.org/1999/xlink" width="512" height="512" x="0" y="0" viewBox="0 0 512 512" style="enable-background:new 0 0 512 512" xml:space="preserve" class=""><g><path d="m456.746 136.196-42.495-16.973a7.043 7.043 0 0 0-1.479-.41l-30.819-4.986-18.398-10.923V89.917a7 7 0 0 0-7-7c-4.366 0-7.919-3.552-7.919-7.919s3.553-7.919 7.919-7.919a7.91 7.91 0 0 1 6.627 3.581 6.997 6.997 0 0 0 9.693 2.006 7.002 7.002 0 0 0 2.007-9.694 21.87 21.87 0 0 0-18.327-9.893c-12.086 0-21.919 9.833-21.919 21.919 0 9.639 6.255 17.845 14.919 20.773v7.133l-18.398 10.923-30.819 4.986a6.983 6.983 0 0 0-1.479.41l-42.495 16.973a6.998 6.998 0 0 0-3.94 9.002l13.894 36.312a7 7 0 0 0 9.134 3.999l19.004-7.591v100.305a7 7 0 0 0 7 7h110.199a7 7 0 0 0 7-7V177.918l19.004 7.591a7 7 0 0 0 9.134-3.999l13.894-36.312a7 7 0 0 0-3.941-9.002zm-100.191-21.167 15.506 9.206c-1.694 6.999-7.999 12.222-15.506 12.222s-13.812-5.223-15.506-12.222zm79.701 54.845-22.005-8.789a7 7 0 0 0-9.596 6.5v103.639h-96.199V167.585a6.998 6.998 0 0 0-9.596-6.5l-22.005 8.789-8.891-23.236 35.372-14.128 24.359-3.94c3.538 12.61 15.144 21.888 28.86 21.888s25.322-9.278 28.86-21.888l24.359 3.94 35.372 14.128zM62.78 105.697c26.659 0 48.349-21.689 48.349-48.349C111.129 30.689 89.439 9 62.78 9S14.433 30.689 14.433 57.348c0 26.66 21.688 48.349 48.347 48.349zm0-82.697c18.94 0 34.349 15.408 34.349 34.348S81.721 91.697 62.78 91.697c-18.939 0-34.348-15.409-34.348-34.349S43.841 23 62.78 23zm91.075 178.087-47.991-66.356c-10.549-14.586-24.642-21.677-43.083-21.677C33.126 113.054 9 137.18 9 166.834v123.988c0 12.978 9.203 23.846 21.426 26.421v153.401c0 17.84 14.515 32.355 32.355 32.355s32.355-14.515 32.355-32.355V317.243c11.843-2.496 20.851-12.777 21.398-25.219 5.926 3.083 11.48 6.696 16.507 10.883a6.998 6.998 0 0 0 11.285-3.737l11.415-47.339c11.525-2.59 20.164-12.9 20.164-25.195.001-12.958-9.593-23.715-22.05-25.549zm-51.293 89.736c0 7.168-5.832 13-13 13h-1.425a7 7 0 0 0-7 7v159.823c0 10.121-8.234 18.355-18.355 18.355s-18.355-8.234-18.355-18.355V310.822a7 7 0 0 0-7-7H36c-7.168 0-13-5.832-13-13v-11.62c23.62-3.874 53.653-2.634 79.562 6.728zm30.632-5.203C101.39 264.627 56.617 260.079 23 265.041v-98.207c0-21.935 17.846-39.781 39.781-39.781 14.007 0 23.796 4.898 31.739 15.881l41.855 57.873H96.561v-18.144c0-14.242-11.587-25.829-25.829-25.829-14.241 0-25.828 11.587-25.828 25.829v43.972c0 14.242 11.587 25.829 25.828 25.829h70.458zm16.883-47.155H70.731c-6.522 0-11.828-5.307-11.828-11.829v-43.972c0-6.522 5.306-11.829 11.828-11.829s11.829 5.306 11.829 11.829v25.144a7 7 0 0 0 7 7h60.517c6.522 0 11.829 5.306 11.829 11.829s-5.306 11.828-11.829 11.828zM496 9H217.109a7 7 0 0 0-7 7v412.352a7 7 0 0 0 7 7H496a7 7 0 0 0 7-7V16a7 7 0 0 0-7-7zM224.109 421.352V81.999h87.526a7 7 0 1 0 0-14h-87.526V23H489v44.999h-88.694a7 7 0 1 0 0 14H489v339.353z" fill="#b996f2" opacity="1" data-original="#000000" class=""></path></g></svg>