<svg xmlns="http://www.w3.org/2000/svg" version="1.1" xmlns:xlink="http://www.w3.org/1999/xlink" width="512" height="512" x="0" y="0" viewBox="0 0 682.667 682.667" style="enable-background:new 0 0 512 512" xml:space="preserve" class=""><g><defs><clipPath id="a" clipPathUnits="userSpaceOnUse"><path d="M0 512h512V0H0Z" fill="#b996f2" opacity="1" data-original="#000000"></path></clipPath></defs><g clip-path="url(#a)" transform="matrix(1.33333 0 0 -1.33333 0 682.667)"><path d="M0 0v81.008" style="stroke-width:30;stroke-linecap:round;stroke-linejoin:round;stroke-miterlimit:10;stroke-dasharray:none;stroke-opacity:1" transform="translate(345.998 415.992)" fill="none" stroke="#b996f2" stroke-width="30" stroke-linecap="round" stroke-linejoin="round" stroke-miterlimit="10" stroke-dasharray="none" stroke-opacity="" data-original="#000000" opacity="1"></path><path d="M0 0v81.008" style="stroke-width:30;stroke-linecap:round;stroke-linejoin:round;stroke-miterlimit:10;stroke-dasharray:none;stroke-opacity:1" transform="translate(165.998 415.992)" fill="none" stroke="#b996f2" stroke-width="30" stroke-linecap="round" stroke-linejoin="round" stroke-miterlimit="10" stroke-dasharray="none" stroke-opacity="" data-original="#000000" opacity="1"></path><path d="m0 0-6.121 6.121c-16.9 16.9-44.303 16.9-61.203 0-16.902-16.901-16.902-44.304 0-61.204L0-122.408l67.324 67.325c16.901 16.9 16.901 44.303 0 61.204-16.901 16.9-44.303 16.9-61.204 0z" style="stroke-width:30;stroke-linecap:round;stroke-linejoin:round;stroke-miterlimit:10;stroke-dasharray:none;stroke-opacity:1" transform="translate(255.998 225.058)" fill="none" stroke="#b996f2" stroke-width="30" stroke-linecap="round" stroke-linejoin="round" stroke-miterlimit="10" stroke-dasharray="none" stroke-opacity="" data-original="#000000" opacity="1"></path><path d="M0 0c0 58.537-26.458 110.424-67.353 143.253-15.686 12.593-19.893 34.671-9.543 51.92l16.6 27.667c10.409 17.349 6.627 40.26-9.727 52.17C-82.728 284.261-100.426 290-120 290c-19.598 0-37.291-5.768-49.998-15.038-12.707 9.27-30.4 15.038-49.998 15.038-19.574 0-37.273-5.739-49.977-14.99-16.354-11.91-20.136-34.821-9.727-52.17l16.6-27.667c10.35-17.249 6.143-39.327-9.544-51.92C-313.538 110.424-339.996 58.537-339.996 0c0-22.123-1.065-75.139 28.666-120h282.664C1.064-75.139 0-22.123 0 0Z" style="stroke-width:30;stroke-linecap:round;stroke-linejoin:round;stroke-miterlimit:10;stroke-dasharray:none;stroke-opacity:1" transform="translate(425.998 135)" fill="none" stroke="#b996f2" stroke-width="30" stroke-linecap="round" stroke-linejoin="round" stroke-miterlimit="10" stroke-dasharray="none" stroke-opacity="" data-original="#000000" opacity="1"></path></g></g></svg>