<svg xmlns="http://www.w3.org/2000/svg" version="1.1" xmlns:xlink="http://www.w3.org/1999/xlink" width="512" height="512" x="0" y="0" viewBox="0 0 7111 7111" style="enable-background:new 0 0 512 512" xml:space="preserve" fill-rule="evenodd" class=""><g><path d="M2662 1155c-46 0-84-37-84-83V703c0-46 38-83 84-83 125 0 226-102 226-227s-101-226-226-226-227 101-227 226c0 110-167 110-167 0 0-217 177-393 394-393 216 0 393 176 393 393 0 189-133 346-310 385v294c0 46-37 83-83 83z" fill="#b996f2" opacity="1" data-original="#000000" class=""></path><path d="M4087 1398c-17 0-33-4-47-14-197-135-764-229-1378-229-615 0-1182 94-1379 229-38 26-89 16-115-22s-17-90 21-116c502-342 2443-342 2945 0 67 46 34 152-47 152z" fill="#b996f2" opacity="1" data-original="#000000" class=""></path><path d="M1917 1715c-40 0-75-29-82-70l-85-499c-18-109 146-136 165-28l84 499c9 51-31 98-82 98zM3410 1703c-51 0-91-46-82-97l82-488c19-108 183-81 165 28l-83 488c-7 41-42 69-82 69z" fill="#b996f2" opacity="1" data-original="#000000" class=""></path><path d="M3425 3041H1938c-23 0-45-10-61-26-293-309-472-889-250-1249 97-157 256-242 438-242 207 0 429 108 618 299 202-204 453-323 688-294 154 18 285 103 368 237 122 198 132 491 27 784-65 180-159 337-281 465-16 16-38 26-60 26zm-1450-167h1413c234-264 383-738 209-1021-67-108-172-162-296-162-180 0-388 115-555 309-33 38-93 38-126 0-175-202-405-330-605-306-105 13-190 68-246 159-175 283-22 763 206 1021zM5581 7111l-281-3c-624 0-1229 81-1643-605-321-2-1274-47-1501-517-139-4-493-42-756-307-208-209-312-509-310-892 0-13 3-27 9-38l765-1467c14-28 43-45 74-45l1488 3c30 0 58 16 73 43 195 357 377 759 553 1148 192 425 374 826 566 1159 205 355 739 813 1028 1019 31 22 61 43 89 63 209 146 313 220 280 323-31 99-165 116-434 116zm-281-170c161 0 376 11 512-7-65-53-181-132-263-190-312-222-855-690-1075-1071-371-641-723-1571-1098-2267l-1388-2-732 1404c2 327 90 581 262 754 240 241 587 264 689 258 38-2 72 21 84 57 140 419 1146 463 1412 459 31-1 59 15 74 42 333 588 792 571 1340 565 60-1 121-2 183-2z" fill="#b996f2" opacity="1" data-original="#000000" class=""></path><path d="M2212 5986c-48 0-86-40-83-88l160-2582c7-109 173-99 167 10l-161 2582c-2 44-39 78-83 78zM3704 6502c-39 0-74-27-81-67l-607-3097c-21-107 143-139 164-32l606 3097c10 52-30 99-82 99z" fill="#b996f2" opacity="1" data-original="#000000" class=""></path><path d="M3426 3404H1938c-46 0-83-38-83-84v-363c0-46 37-83 83-83h1488c46 0 83 37 83 83v363c0 46-37 84-83 84zm-1405-167h1321v-196H2021z" fill="#b996f2" opacity="1" data-original="#000000" class=""></path><path d="M2804 3041h-166c-110 0-110-167 0-167h166c110 0 110 167 0 167zm-666 0c-31 0-56-10-74-36-32-45-61-95-88-149-49-98 100-173 149-75 19 39 41 76 63 110 20 15 33 39 33 66 0 46-37 84-83 84zm1133-62c-64 0-105-70-71-126 25-43 49-89 71-138 18-43 67-62 109-44 43 19 62 68 44 110-25 56-52 109-82 158-15 26-43 40-71 40zm-1367-553c-41 0-76-30-82-72-9-59-14-119-15-176-2-110 165-113 167-3 1 50 5 103 13 156 7 50-33 95-83 95zm1566-77c-48 0-87-42-83-91l4-155c-6-110 161-118 166-8l-4 178c-3 43-40 76-83 76zm-1449-561c-71 0-110-84-63-138 51-58 111-97 180-114 106-28 148 133 42 161-92 24-89 91-159 91zm1266-52c-43 0-49-26-102-39-106-28-64-189 43-161 37 9 73 26 106 48 67 46 34 152-47 152zM5217 6931c-19 0-38-6-53-19-46-39-91-75-129-106-35-30-40-82-11-118 29-35 82-40 117-11 38 31 83 68 129 106 60 50 24 148-53 148zm-732-681c-23 0-46-9-62-28-39-43-76-87-111-129-29-35-24-88 11-117 36-29 89-24 118 11 33 41 69 82 106 124 48 54 9 139-62 139zm-531-841c-32 0-62-19-76-50-21-48-44-100-67-154-18-43 2-91 45-109 42-18 91 1 109 44 22 53 44 104 65 152 25 55-17 117-76 117zm-376-927c-34 0-65-20-78-53-20-51-41-103-61-155-17-43 4-91 47-108s91 4 108 47c20 52 41 104 61 155 22 55-20 114-77 114zm-382-925c-31 0-62-18-76-49-23-51-46-102-69-149-20-42-2-92 39-111 42-20 92-3 111 39 24 49 47 100 71 153 25 55-17 117-76 117z" fill="#b996f2" opacity="1" data-original="#000000" class=""></path><path d="M3357 2503c-81 0-115-106-46-152l769-520c38-25 90-15 116 23 25 38 15 90-23 116l-769 519c-15 9-31 14-47 14z" fill="#b996f2" opacity="1" data-original="#000000" class=""></path><path d="M4191 2009c-139 0-214-125-96-282 135-179 536-412 652-235 125 190-328 517-556 517zm394-410c-121 23-298 142-365 240 121-23 297-142 365-240zM3931 4947c-82 0-115-106-47-152l770-519c38-26 90-16 115 22 26 38 16 90-22 116l-769 519c-15 10-31 14-47 14z" fill="#b996f2" opacity="1" data-original="#000000" class=""></path><path d="M4765 4453c-140 0-215-124-96-281 134-179 536-412 652-235 125 190-328 516-556 516zm393-409c-121 22-297 142-365 240 121-23 298-142 365-240zM4281 5660c-82 0-115-107-47-153l770-519c38-26 89-16 115 22 26 39 16 90-22 116l-770 519c-14 10-30 15-46 15z" fill="#b996f2" opacity="1" data-original="#000000" class=""></path><path d="M5114 5165c-188 0-256-223 101-458 390-256 581-56 418 160-108 143-355 298-519 298zm394-409c-121 23-297 142-365 240 121-23 298-142 365-240z" fill="#b996f2" opacity="1" data-original="#000000" class=""></path></g></svg>