<svg xmlns="http://www.w3.org/2000/svg" version="1.1" xmlns:xlink="http://www.w3.org/1999/xlink" width="512" height="512" x="0" y="0" viewBox="0 0 512.002 512.002" style="enable-background:new 0 0 512 512" xml:space="preserve" class=""><g><path d="M212.731 295.59c-3.905-3.904-10.235-3.904-14.141 0-10.436 10.438-27.415 10.436-37.851 0-3.906-3.904-10.236-3.904-14.143 0-3.905 3.905-3.905 10.237 0 14.143 9.117 9.116 21.093 13.675 33.068 13.675 11.975 0 23.95-4.559 33.067-13.675 3.906-3.905 3.906-10.237 0-14.143zM365.404 295.59c-3.905-3.904-10.235-3.904-14.141 0-10.435 10.435-27.414 10.437-37.851 0-3.906-3.904-10.236-3.904-14.143 0-3.905 3.905-3.905 10.237 0 14.143 9.117 9.116 21.093 13.675 33.067 13.675 11.976 0 23.951-4.559 33.068-13.675 3.906-3.905 3.906-10.237 0-14.143z" fill="#b996f2" opacity="1" data-original="#000000"></path><path d="M469.011 286.667c-.04-22.334-17.115-40.762-38.883-42.966V228c0-58.413-28.934-110.194-73.221-141.768C349.258 36.76 306.713 0 256.129 0 205.546 0 163 36.76 155.349 86.232c-44.287 31.574-73.22 83.355-73.22 141.768v15.681c-21.888 2.086-39.096 20.565-39.137 42.985l-.046 25.33c-.021 11.571 4.47 22.455 12.645 30.645 8.176 8.189 19.051 12.7 30.622 12.7h4.845a225.824 225.824 0 0 0 162.536 156.362 10.009 10.009 0 0 0 4.831.002l.167-.042a226.52 226.52 0 0 0 52.486-20.259c4.864-2.614 6.688-8.678 4.072-13.543-2.614-4.864-8.675-6.687-13.543-4.072a206.482 206.482 0 0 1-45.589 17.891c-90.734-23.777-153.89-105.436-153.89-199.45v-12.766l4.316-.977c56.932-12.885 111.762-36.149 160.805-68.006a178.577 178.577 0 0 0 141.729 69.88h1.15v11.812c0 33.929-8.462 67.626-24.472 97.451-2.612 4.866-.785 10.929 4.081 13.54a9.996 9.996 0 0 0 13.54-4.081c7.469-13.914 13.424-28.6 17.822-43.741h4.691c11.571 0 22.446-4.511 30.622-12.7 8.175-8.189 12.665-19.073 12.645-30.646l-.046-25.329zM86.213 335.341c-6.223 0-12.07-2.426-16.467-6.829a23.11 23.11 0 0 1-6.8-16.479l.046-25.329c.021-11.397 8.292-20.895 19.137-22.85v28.376a227.6 227.6 0 0 0 4.107 43.111h-.023zM256.129 20a81.872 81.872 0 0 1 76.189 51.592C309.294 60.332 283.439 54 256.129 54s-53.166 6.332-76.189 17.593A81.872 81.872 0 0 1 256.129 20zm154 236v4.36h-1.15c-49.121 0-95.2-22.677-125.158-61.127a487.248 487.248 0 0 0 20.372-15.245c4.332-3.426 5.067-9.715 1.643-14.047-3.426-4.331-9.715-5.066-14.047-1.643-55.309 43.731-120.89 75.079-189.659 90.659V228c-.001-84.916 69.083-154 153.999-154s154 69.084 154 154v28zm32.129 72.511a23.104 23.104 0 0 1-16.32 6.825c2.762-14.194 4.191-28.659 4.191-43.165v-28.273c10.72 2.057 18.862 11.497 18.883 22.805l.046 25.328a23.105 23.105 0 0 1-6.8 16.48z" fill="#b996f2" opacity="1" data-original="#000000"></path><path d="M332.411 146.561c-3.68-4.118-10.002-4.475-14.12-.794l-.138.123c-4.118 3.681-4.474 10.002-.794 14.12a9.975 9.975 0 0 0 7.461 3.337 9.964 9.964 0 0 0 6.659-2.543l.138-.123c4.118-3.681 4.474-10.002.794-14.12zM435.471 469.198l-55.246-55.244-21.245-55.543c-3.281-8.575-12.211-13.605-21.251-11.953-37.702 6.885-67.658 36.841-74.536 74.512l-.043.235c-1.604 8.783 3.219 17.64 11.469 21.057l54.514 22.583 44.228 44.228c1.953 1.952 4.512 2.929 7.071 2.929s5.118-.977 7.071-2.929c3.905-3.905 3.905-10.237 0-14.143l-38.562-38.562 22.707-22.707 49.68 49.68c3.906 3.904 10.236 3.904 14.143 0 3.905-3.905 3.905-10.237 0-14.143zm-103.019-24.627-49.493-20.503c5.533-29.071 28.574-52.174 57.615-57.796l19.416 50.761-27.538 27.538zM461.202 494.93c-1.86-1.861-4.44-2.93-7.07-2.93s-5.21 1.069-7.08 2.93c-1.86 1.86-2.92 4.44-2.92 7.07s1.06 5.21 2.92 7.069a10.118 10.118 0 0 0 7.08 2.931c2.63 0 5.21-1.07 7.07-2.931 1.859-1.859 2.93-4.439 2.93-7.069s-1.07-5.21-2.93-7.07z" fill="#b996f2" opacity="1" data-original="#000000"></path></g></svg>