<svg xmlns="http://www.w3.org/2000/svg" version="1.1" xmlns:xlink="http://www.w3.org/1999/xlink" width="512" height="512" x="0" y="0" viewBox="0 0 512 512" style="enable-background:new 0 0 512 512" xml:space="preserve" class=""><g><path d="m58.878 456.276-8.267 41.502c-.693 3.477 1.954 6.722 5.484 6.722h19.428a8.63 8.63 0 0 0 8.261-6.176l44.49-149.075M80.27 348.887l-14.563 73.104M244.73 348.887l29.659 148.891c.693 3.477-1.954 6.722-5.484 6.722h-19.428a8.63 8.63 0 0 1-8.261-6.176l-44.598-149.437M251.807 347.5H73.193a5.693 5.693 0 0 1-5.693-5.693v-20.615a5.693 5.693 0 0 1 5.693-5.693h178.615a5.693 5.693 0 0 1 5.693 5.693v20.615a5.695 5.695 0 0 1-5.694 5.693z" style="stroke-width:15;stroke-linecap:round;stroke-linejoin:round;stroke-miterlimit:10;" fill="none" stroke="#b996f2" stroke-width="15" stroke-linecap="round" stroke-linejoin="round" stroke-miterlimit="10" data-original="#000000" opacity="1" class=""></path><path d="M255.66 315.5H69.34c-6.539 0-11.84-5.301-11.84-11.84v-.098c0-24.335 19.727-44.062 44.062-44.062h121.876c24.335 0 44.062 19.727 44.062 44.062v.098c0 6.539-5.301 11.84-11.84 11.84zM138.396 222.222v37.244h-30v-42.577M216.604 217.444v42.022h-30v-37.688" style="stroke-width:15;stroke-linecap:round;stroke-linejoin:round;stroke-miterlimit:10;" fill="none" stroke="#b996f2" stroke-width="15" stroke-linecap="round" stroke-linejoin="round" stroke-miterlimit="10" data-original="#000000" opacity="1" class=""></path><path d="M267.5 138.417v4.844c0 42.658-34.581 77.239-77.239 77.239h-55.522c-42.658 0-77.239-34.581-77.239-77.239V106.5c0-34.794 28.206-63 63-63h84a62.8 62.8 0 0 1 24.522 4.951" style="stroke-width:15;stroke-linecap:round;stroke-linejoin:round;stroke-miterlimit:10;" fill="none" stroke="#b996f2" stroke-width="15" stroke-linecap="round" stroke-linejoin="round" stroke-miterlimit="10" data-original="#000000" opacity="1" class=""></path><path d="M425 7.5h28.974c4.157 0 7.526 3.358 7.526 7.5v117c0 4.142-3.37 7.5-7.526 7.5H275.971c-3.825 0-7.491-1.52-10.188-4.223l-30.107-30.182a14.289 14.289 0 0 1-4.177-10.091V51.932c0-3.787 1.506-7.419 4.188-10.102L265.8 11.711A14.388 14.388 0 0 1 275.976 7.5h114.246" style="stroke-width:15;stroke-linecap:round;stroke-linejoin:round;stroke-miterlimit:10;" fill="none" stroke="#b996f2" stroke-width="15" stroke-linecap="round" stroke-linejoin="round" stroke-miterlimit="10" data-original="#000000" opacity="1" class=""></path><path d="M326.333 50.81s-9.375-5.222-16.206-5.222c-17.461 0-19.306 17.789-10.606 22.93 5.5 3.25 9.355 3.736 17.893 6.366 14.774 4.551 13.249 26.799-7.287 26.902-8.014.041-18.8-5.532-18.8-5.873M310.127 101.786v10.07M310.127 35.144v9.359M360.556 44.833h43.555M360.556 73.5h59.333M360.556 102.167h43.555" style="stroke-width:15;stroke-linecap:round;stroke-linejoin:round;stroke-miterlimit:10;" fill="none" stroke="#b996f2" stroke-width="15" stroke-linecap="round" stroke-linejoin="round" stroke-miterlimit="10" data-original="#000000" opacity="1" class=""></path></g></svg>