<svg xmlns="http://www.w3.org/2000/svg" version="1.1" xmlns:xlink="http://www.w3.org/1999/xlink" width="512" height="512" x="0" y="0" viewBox="0 0 512 512" style="enable-background:new 0 0 512 512" xml:space="preserve" class=""><g><path d="M454.683 282.98V163.501c0-19.758-16.017-35.775-35.776-35.775h-249c-.453.311-.834.72-1.099 1.206l-10.817 19.777c-1.334 2.439-4.837 2.439-6.17 0l-10.817-19.777a3.522 3.522 0 0 0-1.099-1.206H93.093c-19.758 0-35.776 16.017-35.776 35.775V190.5M57.317 225.5v57.48M25.083 425.088h46.561v49.231H25.083zM440.356 425.088h46.561v49.231h-46.561z" style="stroke-width:15;stroke-linecap:round;stroke-linejoin:round;stroke-miterlimit:10;" fill="none" stroke="#b996f2" stroke-width="15" stroke-linecap="round" stroke-linejoin="round" stroke-miterlimit="10" data-original="#000000" opacity="1"></path><path d="M419.459 282.083a22.767 22.767 0 0 0 1.817-8.922v-52.384c0-12.643-10.344-22.988-22.988-22.988H298.41c-12.643 0-22.988 10.345-22.988 22.988v52.384c0 3.16.65 6.175 1.817 8.922M234.761 282.083a22.767 22.767 0 0 0 1.817-8.922v-52.384c0-12.643-10.344-22.988-22.988-22.988h-99.878c-12.643 0-22.988 10.345-22.988 22.988v52.384c0 3.16.65 6.175 1.817 8.922h142.22zM336 282.083H65.828c-22.503 0-40.746 18.242-40.746 40.746v21.379h461.835v-21.379c0-22.503-18.242-40.746-40.746-40.746H371M172 425.088h317.5c8.284 0 15-6.716 15-15v-50.88c0-8.284-6.716-15-15-15h-467c-8.284 0-15 6.716-15 15v50.88c0 8.284 6.716 15 15 15H137M504.5 386.947H7.5M157.991 78.555l10.817 19.777c.323.59.808 1.075 1.398 1.398l19.777 10.817c2.439 1.334 2.439 4.837 0 6.17l-19.777 10.817a3.521 3.521 0 0 0-1.398 1.398l-10.817 19.777c-1.334 2.439-4.837 2.439-6.17 0l-10.817-19.777a3.521 3.521 0 0 0-1.398-1.398l-19.777-10.817c-2.439-1.334-2.439-4.837 0-6.17l19.777-10.817a3.521 3.521 0 0 0 1.398-1.398l10.817-19.777c1.334-2.439 4.836-2.439 6.17 0zM220.248 42.071v31.504M204.496 57.823H236M284.248 81.071v21.504M273.496 91.823H295M362.16 39.51l8.401 15.361c.323.59.808 1.075 1.398 1.398l15.361 8.401c2.439 1.334 2.439 4.837 0 6.17l-15.361 8.401a3.521 3.521 0 0 0-1.398 1.398L362.16 96c-1.334 2.439-4.837 2.439-6.17 0l-8.401-15.361a3.521 3.521 0 0 0-1.398-1.398L330.83 70.84c-2.439-1.334-2.439-4.837 0-6.17l15.361-8.401a3.521 3.521 0 0 0 1.398-1.398l8.401-15.361c1.334-2.438 4.836-2.438 6.17 0zM7.5 474.319h497" style="stroke-width:15;stroke-linecap:round;stroke-linejoin:round;stroke-miterlimit:10;" fill="none" stroke="#b996f2" stroke-width="15" stroke-linecap="round" stroke-linejoin="round" stroke-miterlimit="10" data-original="#000000" opacity="1"></path></g></svg>