<svg xmlns="http://www.w3.org/2000/svg" version="1.1" xmlns:xlink="http://www.w3.org/1999/xlink" width="512" height="512" x="0" y="0" viewBox="0 0 66 66" style="enable-background:new 0 0 512 512" xml:space="preserve" class=""><g><path d="M16.5 15.5c1-.5 1.7-1.4 2-2.5 1-3.5-2.8-6.5-5.9-4.7-4.8 2.6-.9 9.9 3.9 7.2zm-4-4.1c.5-1.8 2.9-2.1 3.9-.4.9 1.6-.6 3.5-2.4 3-1.2-.4-1.8-1.5-1.5-2.6z" fill="#b996f2" opacity="1" data-original="#000000" class=""></path><path d="M64 34.2h-1.8v-3.6c0-.6-.4-1-1-1h-4.9c-.6 0-1 .4-1 1v3.6h-2.6L51 28.7c-.1-.4-.5-.7-1-.7h-4.3l4.1-14.4c.2-.5-.2-1.1-.7-1.2L10 1.1c-.3-.1-.6-.1-.8.1-.2.1-.4.3-.5.6L1 28.6c-.1.3 0 .5.1.8.1.2.3.4.6.5L17 34.2h-.7c-.6 0-1 .4-1 1V64c0 .6.4 1 1 1H64c.6 0 1-.4 1-1V35.2c0-.6-.4-1-1-1zM63 46H49.6c-1.4-3.8-5.1-6.6-9.5-6.6-4.3 0-8 2.7-9.5 6.6H17.3v-9.8H63zm-12.9 2H63v3.1H50.1c.1-.5.1-1 .1-1.5.1-.6 0-1.1-.1-1.6zm-1.8 1.6c0 4.5-3.6 8.1-8.1 8.1s-8.1-3.6-8.1-8.1 3.6-8.1 8.1-8.1c4.4-.1 8.1 3.6 8.1 8.1zm-18.2 1.5H17.3V48h12.9c-.1.5-.1 1-.1 1.6-.1.5 0 1 0 1.5zm.1-23.1c-.4 0-.8.3-1 .7l-1.6 5.5h-2.3l-2.5-9.6 8-7.6 2.8 11zm-7.1 5.9L7.7 29.4l11.5-10.9zm34.2-2.3h2.9v2.6h-2.9zm-6.7 2.6H29.7l1.2-4.2h18.4zM10.4 3.3 47.7 14l-4 14h-8l-3.4-13c-.1-.3-.4-.6-.7-.7s-.7 0-1 .2l-8.4 8-1.5-6c-.1-.3-.4-.6-.7-.7s-.7 0-1 .2L5.5 28.8l-2.2-.6zM17.3 63v-9.8h13.4c1.4 3.8 5.1 6.6 9.5 6.6 4.3 0 8-2.7 9.5-6.6H63V63z" fill="#b996f2" opacity="1" data-original="#000000" class=""></path><path d="M40.1 43.2c-3.5 0-6.4 2.9-6.4 6.4s2.9 6.4 6.4 6.4 6.4-2.9 6.4-6.4c0-3.6-2.8-6.4-6.4-6.4zm0 10.8c-2.4 0-4.4-2-4.4-4.4s2-4.4 4.4-4.4 4.4 2 4.4 4.4-1.9 4.4-4.4 4.4z" fill="#b996f2" opacity="1" data-original="#000000" class=""></path><path d="M40.1 46.9c-.6 0-1 .4-1 1s.4 1 1 1c.4 0 .7.3.7.7 0 .6.4 1 1 1s1-.4 1-1c0-1.5-1.2-2.7-2.7-2.7zM22.3 37.7c-1.7 0-3 1.4-3 3 0 1.7 1.4 3 3 3 1.7 0 3-1.4 3-3s-1.4-3-3-3zm0 4c-.6 0-1-.5-1-1s.5-1 1-1c.6 0 1 .5 1 1s-.5 1-1 1z" fill="#b996f2" opacity="1" data-original="#000000" class=""></path></g></svg>