<svg xmlns="http://www.w3.org/2000/svg" version="1.1" xmlns:xlink="http://www.w3.org/1999/xlink" width="512" height="512" x="0" y="0" viewBox="0 0 512 512" style="enable-background:new 0 0 512 512" xml:space="preserve" class=""><g><path d="M481 200c12.406 0 22.5-10.094 22.5-22.5S493.406 155 481 155h-7.5v-31.29c8.729-3.096 15-11.433 15-21.21v-50c0-4.143-3.357-7.5-7.5-7.5h-30a7.499 7.499 0 0 0-7.5 7.5v50c0 9.777 6.271 18.114 15 21.21V155H451c-4.143 0-7.5 3.357-7.5 7.5s3.357 7.5 7.5 7.5h30c4.136 0 7.5 3.364 7.5 7.5s-3.364 7.5-7.5 7.5h-53.548c-3.274-11.528-13.889-20-26.452-20h-50c-12.563 0-23.178 8.472-26.452 20h-17.096c-3.274-11.528-13.889-20-26.452-20h-50c-12.563 0-23.178 8.472-26.452 20h-17.096c-3.274-11.528-13.889-20-26.452-20h-50c-12.563 0-23.178 8.472-26.452 20H31c-4.136 0-7.5-3.364-7.5-7.5s3.364-7.5 7.5-7.5h30c4.143 0 7.5-3.357 7.5-7.5S65.143 155 61 155h-7.5v-31.29c8.729-3.096 15-11.433 15-21.21v-50c0-4.143-3.357-7.5-7.5-7.5H31a7.499 7.499 0 0 0-7.5 7.5v50c0 9.777 6.271 18.114 15 21.21V155H31c-12.406 0-22.5 10.094-22.5 22.5S18.594 200 31 200h52.5v59.759a67.413 67.413 0 0 0-15 42.406V352.5c0 4.143 3.357 7.5 7.5 7.5h22.5v42.145l-77.937 26.768a7.501 7.501 0 0 0-5.063 7.094v30c0 4.143 3.357 7.5 7.5 7.5s7.5-3.357 7.5-7.5V441.36l77.937-26.768a7.501 7.501 0 0 0 5.063-7.094V360h45v134.5a7.497 7.497 0 0 0 5.128 7.115l30 10a7.495 7.495 0 0 0 4.744 0l30-10a7.5 7.5 0 0 0 5.128-7.115V339.924A52.175 52.175 0 0 0 256 345a52.175 52.175 0 0 0 22.5-5.076V494.5a7.497 7.497 0 0 0 5.128 7.115l30 10a7.495 7.495 0 0 0 4.744 0l30-10a7.5 7.5 0 0 0 5.128-7.115V360h45v47.499a7.501 7.501 0 0 0 5.063 7.094L481.5 441.36v24.646c0 4.143 3.357 7.5 7.5 7.5s7.5-3.357 7.5-7.5v-30a7.501 7.501 0 0 0-5.063-7.094L413.5 402.145V360H436c4.143 0 7.5-3.357 7.5-7.5v-50.335a67.411 67.411 0 0 0-15-42.406V200H481zm-15-90c-4.136 0-7.5-3.364-7.5-7.5V60h15v42.5c0 4.136-3.364 7.5-7.5 7.5zM38.5 60h15v42.5c0 4.136-3.364 7.5-7.5 7.5s-7.5-3.364-7.5-7.5V60zm300 132.5c0-6.893 5.607-12.5 12.5-12.5h50c6.893 0 12.5 5.607 12.5 12.5v5.904a34.928 34.928 0 0 0-15-3.404 35.039 35.039 0 0 0-22.5 8.203A35.035 35.035 0 0 0 353.5 195c-5.26 0-10.37 1.203-15 3.404V192.5zM281 180c6.893 0 12.5 5.607 12.5 12.5v48.619L244.605 180H281zM98.5 192.5c0-6.893 5.607-12.5 12.5-12.5h50c6.893 0 12.5 5.607 12.5 12.5v5.904a34.928 34.928 0 0 0-15-3.404c-8.31 0-16.262 2.97-22.5 8.203A35.039 35.039 0 0 0 113.5 195c-5.26 0-10.37 1.203-15 3.404V192.5zM83.5 345v-42.835a52.427 52.427 0 0 1 13.124-34.703A7.5 7.5 0 0 0 98.5 262.5v-45.709c3.779-4.284 9.239-6.791 15-6.791a20.042 20.042 0 0 1 16.366 8.514 7.501 7.501 0 0 0 12.268-.001A20.041 20.041 0 0 1 158.5 210c5.761 0 11.221 2.507 15 6.791V345h-90zm135 144.095-22.5 7.5-22.5-7.5V360h7.5c4.143 0 7.5-3.357 7.5-7.5V200h15v92.5c0 14.269 5.73 27.219 15 36.692v159.903zM256 330c-20.678 0-37.5-16.822-37.5-37.5v-64.236l68.846 84.784C280.637 323.248 269.095 330 256 330zm-37.5-125.531V192.5c0-5.182 3.17-9.636 7.672-11.528l67.328 84.159V292.5c0 1.371-.079 2.723-.223 4.057L218.5 204.469zm120 284.626-22.5 7.5-22.5-7.5V329.192a52.734 52.734 0 0 0 9.384-13.112c.139-.238.265-.482.375-.731A52.187 52.187 0 0 0 308.5 292.5V200h15v152.5c0 4.143 3.357 7.5 7.5 7.5h7.5v129.095zM428.5 345h-90V216.791c3.779-4.284 9.239-6.791 15-6.791a20.041 20.041 0 0 1 16.366 8.513 7.5 7.5 0 0 0 12.268.001A20.042 20.042 0 0 1 398.5 210c5.761 0 11.221 2.507 15 6.791V262.5a7.5 7.5 0 0 0 1.876 4.962 52.427 52.427 0 0 1 13.124 34.703V345z" fill="#b996f2" opacity="1" data-original="#000000" class=""></path><path d="M406.772 55.003c6.08-4.565 10.021-11.832 10.021-20.003 0-12.258-8.868-22.483-20.526-24.599C391.617 3.972 384.065 0 376 0s-15.617 3.972-20.267 10.401C344.075 12.517 335.207 22.742 335.207 35c0 8.171 3.941 15.438 10.021 20.003C332.076 64.553 323.5 80.04 323.5 97.5c0 28.948 23.552 52.5 52.5 52.5s52.5-23.552 52.5-52.5c0-17.46-8.576-32.947-21.728-42.497zM360.207 25a7.5 7.5 0 0 0 6.772-4.277C368.659 17.192 372.115 15 376 15s7.341 2.192 9.021 5.723A7.5 7.5 0 0 0 391.793 25c5.514 0 10 4.486 10 10s-4.486 10-10 10h-31.586c-5.514 0-10-4.486-10-10s4.486-10 10-10zm38.815 42.931c-13.838 9.42-32.205 9.42-46.044 0C359.337 62.968 367.326 60 376 60s16.662 2.968 23.022 7.931zM376 135c-20.678 0-37.5-16.822-37.5-37.5a37.264 37.264 0 0 1 4.68-18.116c9.751 7.073 21.284 10.615 32.82 10.615 11.537 0 23.07-3.543 32.82-10.615A37.264 37.264 0 0 1 413.5 97.5c0 20.678-16.822 37.5-37.5 37.5zM294.389 61.74l8.844-32.257A7.501 7.501 0 0 0 296 20h-16.894L261.304 2.196a7.502 7.502 0 0 0-10.607 0L232.894 20H216a7.505 7.505 0 0 0-5.964 2.951 7.505 7.505 0 0 0-1.27 6.532l8.844 32.257c-8.744 9.382-14.11 21.953-14.11 35.76 0 28.948 23.552 52.5 52.5 52.5s52.5-23.552 52.5-52.5c0-13.807-5.366-26.378-14.111-35.76zM236 35c1.989 0 3.896-.79 5.304-2.196L256 18.106l14.696 14.697A7.503 7.503 0 0 0 276 35h10.167l-4.575 16.685A52.157 52.157 0 0 0 256 45a52.157 52.157 0 0 0-25.592 6.685L225.833 35H236zm56.651 54.58c-20.154-2-38.58-11.212-52.297-26.147A37.272 37.272 0 0 1 256 60c17.96 0 33.005 12.694 36.651 29.58zM256 135c-20.678 0-37.5-16.822-37.5-37.5 0-9.663 3.675-18.483 9.699-25.139 16.692 18.803 39.576 30.244 64.607 32.299C289.454 121.924 274.229 135 256 135zM166.772 55.003c6.08-4.565 10.021-11.832 10.021-20.003 0-12.258-8.868-22.483-20.526-24.599C151.617 3.972 144.065 0 136 0s-15.617 3.972-20.267 10.401C104.075 12.517 95.207 22.742 95.207 35c0 8.171 3.941 15.438 10.021 20.003C92.076 64.553 83.5 80.04 83.5 97.5c0 28.948 23.552 52.5 52.5 52.5s52.5-23.552 52.5-52.5c0-17.46-8.576-32.947-21.728-42.497zM120.207 25a7.5 7.5 0 0 0 6.772-4.277C128.659 17.192 132.115 15 136 15s7.341 2.192 9.021 5.723A7.5 7.5 0 0 0 151.793 25c5.514 0 10 4.486 10 10s-4.486 10-10 10h-31.586c-5.514 0-10-4.486-10-10s4.486-10 10-10zM136 135c-20.678 0-37.5-16.822-37.5-37.5S115.322 60 136 60s37.5 16.822 37.5 37.5S156.678 135 136 135z" fill="#b996f2" opacity="1" data-original="#000000" class=""></path></g></svg>