<svg xmlns="http://www.w3.org/2000/svg" version="1.1" xmlns:xlink="http://www.w3.org/1999/xlink" width="512" height="512" x="0" y="0" viewBox="0 0 64 64" style="enable-background:new 0 0 512 512" xml:space="preserve" class=""><g><circle cx="33" cy="25" r="1" fill="#b996f2" opacity="1" data-original="#000000" class=""></circle><circle cx="39" cy="25" r="1" fill="#b996f2" opacity="1" data-original="#000000" class=""></circle><path d="M33.293 29.293a1 1 0 0 0 0 1.414 3.831 3.831 0 0 0 5.414 0 1 1 0 0 0-1.414-1.414 1.831 1.831 0 0 1-2.586 0 1 1 0 0 0-1.414 0z" fill="#b996f2" opacity="1" data-original="#000000" class=""></path><path d="M3 58h58a1 1 0 0 0 0-2h-9v-2h3a1 1 0 0 0 1-1v-4a1 1 0 0 0-1-1h-8a4 4 0 0 0-4-4c-.112 0-.228.006-.349.018a4.077 4.077 0 0 0-5.3 0A3.605 3.605 0 0 0 37 44a4 4 0 0 0-3 1.392v-.857l2.555-1.7A1 1 0 0 0 37 42v-2.1a5.016 5.016 0 0 0 3.9-3.9H43a7.008 7.008 0 0 1 7 7v2a1 1 0 0 0 2 0v-2a9.01 9.01 0 0 0-9-9h-1.726A7.976 7.976 0 0 0 44 28v-2h1a3 3 0 0 0 0-6H30v-2h13a1 1 0 0 0 .994-.89l.653-5.883A4.99 4.99 0 0 0 42 2a4.963 4.963 0 0 0-3 1.018 5.071 5.071 0 0 0-6 0 4.987 4.987 0 1 0-5.358 8.375s.191.114.223.129a5.01 5.01 0 0 0 5.67-.986 1 1 0 1 0-1.414-1.414 3.007 3.007 0 0 1-3.362.61l-.136-.08A2.992 2.992 0 0 1 30 4a2.955 2.955 0 0 1 2.247 1.038 1.034 1.034 0 0 0 1.506 0 3.017 3.017 0 0 1 4.494 0 1.034 1.034 0 0 0 1.506 0A2.955 2.955 0 0 1 42 4a3 3 0 0 1 3 3 2.971 2.971 0 0 1-1.719 2.7c-.02.01-.035.025-.054.035a3 3 0 0 1-3.348-.612 1 1 0 1 0-1.414 1.414 4.994 4.994 0 0 0 4.088 1.433L42.1 16h-2.713l.561-1.684a1 1 0 1 0-1.9-.632L37.28 16h-2.56l-.772-2.316a1 1 0 1 0-1.9.632L32.613 16H29.9l-.235-2.11a1 1 0 1 0-1.988.22L28 17.058V20h-1a3 3 0 0 0 0 6h1v2a7.976 7.976 0 0 0 2.726 6H29a9.01 9.01 0 0 0-9 9v10a1 1 0 0 0 2 0V43a7.008 7.008 0 0 1 7-7h2.1a5.016 5.016 0 0 0 3.9 3.9v1.566l-2.555 1.7A1 1 0 0 0 32 44v1a4 4 0 0 0-3.858 3H27a1 1 0 0 0-1 1v4a4.948 4.948 0 0 0 1.026 3H18v-5a1 1 0 0 0-1-1h-5v-1a1 1 0 0 0-1-1v-4a1 1 0 0 0-1-1H6a1 1 0 0 0-1 1v4a1 1 0 0 0-1 1v7H3a1 1 0 0 0 0 2zm43-35a1 1 0 0 1-1 1h-1v-2h1a1 1 0 0 1 1 1zm-19 1a1 1 0 0 1 0-2h1v2zm3 4v-6h12v6a6 6 0 0 1-12 0zm3.043 7.427a7.916 7.916 0 0 0 5.914 0 2.986 2.986 0 0 1-5.914 0zM6 50h4v2H6zm44 6h-3.026a4.954 4.954 0 0 0 .925-2H50zm4-4h-6v-2h6zm-26 1v-3h10.015a1 1 0 0 0 0-2h-7.737a1.972 1.972 0 0 1 3.175-.355 1 1 0 0 0 1.674-.325A1.994 1.994 0 0 1 37 46a2.207 2.207 0 0 1 .479.065 1 1 0 0 0 .99-.335 2.032 2.032 0 0 1 3.062 0 1 1 0 0 0 .99.335A2.207 2.207 0 0 1 43 46a2 2 0 0 1 2 2h-3.238a1 1 0 0 0 0 2H46v3a3 3 0 0 1-3 3H31a3 3 0 0 1-3-3zm-12-1v4h-4v-4zm-9-7h2v3H7zm-1 9h4v2H6zM61 60H3a1 1 0 0 0 0 2h58a1 1 0 0 0 0-2z" fill="#b996f2" opacity="1" data-original="#000000" class=""></path></g></svg>