<svg xmlns="http://www.w3.org/2000/svg" version="1.1" xmlns:xlink="http://www.w3.org/1999/xlink" width="512" height="512" x="0" y="0" viewBox="0 0 512 512" style="enable-background:new 0 0 512 512" xml:space="preserve" class=""><g><path d="M135.235 467.524a7.516 7.516 0 0 0 7.515-7.515v-15.046a7.516 7.516 0 0 0-15.03 0v15.046a7.516 7.516 0 0 0 7.515 7.515z" fill="#b996f2" opacity="1" data-original="#000000" class=""></path><path d="M510.852 321.228a7.515 7.515 0 0 0-6.367-3.523H398.243l24.489-169.51c.383.007.767.021 1.148.021 33.383 0 60.542-27.15 60.542-60.522s-27.159-60.521-60.542-60.521c-30.836 0-56.343 23.171-60.058 53.007h-54.16l-8.125-66.04C300.543 6.079 293.669 0 285.545 0h-12.129a16.121 16.121 0 0 0-12.069 5.437 16.117 16.117 0 0 0-3.921 12.637l7.642 62.105H229.02a7.516 7.516 0 0 0-7.437 8.589l33.074 228.936h-33.154a7.516 7.516 0 0 0 0 15.03h270.012c-16.329 24.213-44.088 39.314-73.727 39.314H235.112c-29.638 0-57.398-15.1-73.727-39.314h30.057a7.515 7.515 0 1 0 0-15.03h-43.029a7.515 7.515 0 0 0-6.764 10.789 103.686 103.686 0 0 0 38.305 42.727c.453.284.916.551 1.373.827H7.515A7.516 7.516 0 0 0 0 379.562v124.922A7.516 7.516 0 0 0 7.515 512h99.95a7.516 7.516 0 0 0 7.515-7.515v-5.547h48.027a7.516 7.516 0 0 0 7.515-7.515v-17.085l103.609 20.868a106.465 106.465 0 0 0 21.036 2.106c19.998 0 39.63-5.69 56.819-16.682l22.347-14.289a7.517 7.517 0 0 0 2.283-10.38 7.517 7.517 0 0 0-10.38-2.283l-22.347 14.289c-19.906 12.729-43.627 17.172-66.791 12.505l-106.576-21.465v-71.916l160.657-.013a13.01 13.01 0 0 1 9.26 3.835 13.005 13.005 0 0 1 3.836 9.259c.423 7.618-6.084 14.521-13.731 14.361l-80.157-.005h-.001a7.515 7.515 0 0 0-.001 15.029l80.156.005h.005c5.58 0 10.911-1.586 15.492-4.531l63.92-34.052c4.99-2.664 10.292-3.981 15.735-4.21 8.596-.282 17.184 2.536 24.116 8.311 1.81 2.029 1.713 3.588-.338 5.375l-57.902 37.025a7.515 7.515 0 1 0 8.097 12.663l57.901-37.024c10.348-6.196 11.35-22.141 1.861-29.585a51.434 51.434 0 0 0-4.504-3.333 103.992 103.992 0 0 0 18.021-8.978 103.693 103.693 0 0 0 38.305-42.727 7.52 7.52 0 0 0-.398-7.268zM423.879 42.202c25.095 0 45.512 20.408 45.512 45.492 0 24.741-19.865 44.919-44.488 45.467l6.413-44.392a7.516 7.516 0 0 0-7.437-8.589h-44.88c3.595-21.52 22.346-37.978 44.88-37.978zM272.342 16.239a1.035 1.035 0 0 1 .262-.844c.214-.243.487-.365.812-.365h12.129c.546 0 1.007.408 1.074.947l7.9 64.203H280.21zm30.346 130.34h-14.309l-6.321-51.369h14.309zm-35.772-51.37 6.321 51.369h-28.118l-7.421-51.369zm2.925 222.497L247.29 161.608h100.203a7.515 7.515 0 1 0 0-15.03h-29.661l-6.32-51.369h103.691l-7.421 51.369h-30.229a7.515 7.515 0 1 0 0 15.03h28.058L383.06 317.705H269.841zM99.95 496.971H15.03V387.078h84.92zm55.541-13.062h-40.512v-96.831h40.512zm203.806-82.97c.001-.078.006-.155.006-.233v-.533c0-4.639-1.119-9.105-3.223-13.094h29.235z" fill="#b996f2" opacity="1" data-original="#000000" class=""></path></g></svg>