<svg xmlns="http://www.w3.org/2000/svg" version="1.1" xmlns:xlink="http://www.w3.org/1999/xlink" width="512" height="512" x="0" y="0" viewBox="0 0 500 500" style="enable-background:new 0 0 512 512" xml:space="preserve" class=""><g><path fill-rule="evenodd" d="M99.184 78.879V47.4a6.332 6.332 0 0 1 6.328-6.332h31.48a6.335 6.335 0 0 1 6.332 6.332 6.336 6.336 0 0 1-6.332 6.33h-25.148v25.149a6.336 6.336 0 0 1-6.332 6.33 6.33 6.33 0 0 1-6.328-6.33zm0 257.495v-31.479c0-3.493 2.834-6.329 6.328-6.329s6.332 2.837 6.332 6.329v25.15h25.148a6.335 6.335 0 0 1 6.332 6.33 6.336 6.336 0 0 1-6.332 6.332h-31.48a6.333 6.333 0 0 1-6.328-6.333zm257.492 0a6.336 6.336 0 0 1 6.332-6.33h25.148v-25.15a6.33 6.33 0 0 1 6.332-6.329 6.336 6.336 0 0 1 6.333 6.329v31.479a6.336 6.336 0 0 1-6.333 6.332h-31.48a6.334 6.334 0 0 1-6.332-6.331zm0-288.974a6.336 6.336 0 0 1 6.332-6.332h31.48a6.336 6.336 0 0 1 6.333 6.332v31.479a6.336 6.336 0 0 1-6.333 6.33 6.332 6.332 0 0 1-6.332-6.33V53.73h-25.148a6.335 6.335 0 0 1-6.332-6.33zM243.67 210.848v-5.033a6.325 6.325 0 0 1 6.327-6.33 6.326 6.326 0 0 1 6.333 6.33v5.033a6.331 6.331 0 0 1-12.66 0zm0 30.709v-5.03a6.332 6.332 0 0 1 6.327-6.332 6.333 6.333 0 0 1 6.333 6.332v5.03a6.328 6.328 0 0 1-6.333 6.332 6.326 6.326 0 0 1-6.327-6.332zm-9.379-33.226a6.336 6.336 0 0 1-6.333 6.332h-5.028a6.333 6.333 0 0 1-6.333-6.332 6.326 6.326 0 0 1 6.333-6.33h5.028a6.33 6.33 0 0 1 6.333 6.33zm15.706 100.997a6.331 6.331 0 0 1-6.327-6.332v-5.03a6.332 6.332 0 0 1 6.327-6.332 6.333 6.333 0 0 1 6.333 6.332v5.03a6.332 6.332 0 0 1-6.333 6.332zm-6.327-37.051v-5.03a6.332 6.332 0 0 1 6.327-6.332 6.333 6.333 0 0 1 6.333 6.332v5.03a6.332 6.332 0 0 1-6.333 6.332 6.332 6.332 0 0 1-6.327-6.332zm22.04-63.946a6.33 6.33 0 0 1 6.333-6.33h5.033a6.33 6.33 0 0 1 6.333 6.33 6.336 6.336 0 0 1-6.333 6.332h-5.033a6.336 6.336 0 0 1-6.333-6.332zm-22.04-28.202v-5.033a6.33 6.33 0 1 1 12.66 0v5.033a6.331 6.331 0 0 1-12.66 0zm0-92.159v-5.03a6.332 6.332 0 0 1 6.327-6.332 6.333 6.333 0 0 1 6.333 6.332v5.031a6.326 6.326 0 0 1-6.333 6.33 6.326 6.326 0 0 1-6.327-6.331zm0 30.72v-5.033a6.331 6.331 0 0 1 12.66 0v5.033a6.331 6.331 0 0 1-12.66 0zm0 30.719v-5.033a6.331 6.331 0 0 1 12.66 0v5.033a6.33 6.33 0 0 1-12.66 0zm183.873 275.798a5.897 5.897 0 0 1-5.891 5.892H393.28v-7.919a6.331 6.331 0 0 0-6.333-6.33 6.334 6.334 0 0 0-6.333 6.33v7.919h-34.263V411.26a6.333 6.333 0 0 0-6.333-6.33 6.324 6.324 0 0 0-6.327 6.33v19.839h-34.273v-7.919a6.328 6.328 0 0 0-6.333-6.33 6.334 6.334 0 0 0-6.333 6.33v7.919h-34.263V411.26a6.336 6.336 0 0 0-6.332-6.33 6.336 6.336 0 0 0-6.333 6.33v19.839h-34.263v-7.919a6.33 6.33 0 1 0-12.66 0v7.919h-34.268V411.26c0-3.493-2.834-6.33-6.333-6.33s-6.328 2.837-6.328 6.33v19.839h-34.273v-36.071H421.65c3.25 0 5.891 2.65 5.891 5.901v24.278zM99.037 445.965c0 .153-.152.303-.305.303H72.757c-.152 0-.3-.151-.3-.303V380.17c0-.161.147-.311.3-.311h25.975c.152 0 .305.151.305.311zM199.855 214.03c-30.86 39.033-29.484 67.973 5.667 109.656h88.956c35.151-41.683 36.528-70.623 5.667-109.656-7.023-8.889-10.893-20.303-10.893-32.138 0-24.507 16.388-44.852 37.66-48.262v-30.483c-29.647-4.38-49.797-18.841-60.005-43.06h-33.816c-10.207 24.219-30.358 38.68-60.005 43.06v30.483c21.273 3.41 37.66 23.755 37.66 48.262.002 11.835-3.868 23.249-10.891 32.138zm221.797 168.335H256.33V336.35h41.068a6.327 6.327 0 0 0 4.799-2.196c40.941-47.484 43.155-83.368 7.881-127.984-5.266-6.651-8.161-15.28-8.161-24.278 0-19.907 14.046-36.105 31.328-36.105a6.332 6.332 0 0 0 6.328-6.332V97.552a6.333 6.333 0 0 0-5.698-6.298c-29.647-2.988-48.182-15.955-56.673-39.642a6.337 6.337 0 0 0-5.962-4.187h-42.48a6.326 6.326 0 0 0-5.957 4.187c-8.496 23.687-27.032 36.654-56.678 39.642a6.333 6.333 0 0 0-5.698 6.298v41.903a6.332 6.332 0 0 0 6.328 6.332c17.281 0 31.328 16.199 31.328 36.105 0 8.998-2.894 17.627-8.161 24.278-35.268 44.615-33.059 80.5 7.882 127.984a6.327 6.327 0 0 0 4.794 2.196h41.073v46.015H111.702v-2.196c0-7.157-5.82-12.973-12.97-12.973H72.757c-7.15 0-12.965 5.816-12.965 12.973v65.795c0 7.149 5.815 12.967 12.965 12.967h25.975c7.15 0 12.97-5.818 12.97-12.967v-2.204h309.951c10.233 0 18.556-8.323 18.556-18.553v-24.278c-.001-10.24-8.324-18.564-18.557-18.564z" clip-rule="evenodd" fill="#b996f2" opacity="1" data-original="#000000" class=""></path></g></svg>