<svg xmlns="http://www.w3.org/2000/svg" version="1.1" xmlns:xlink="http://www.w3.org/1999/xlink" width="512" height="512" x="0" y="0" viewBox="0 0 682.667 682.667" style="enable-background:new 0 0 512 512" xml:space="preserve" class=""><g><defs><clipPath id="a" clipPathUnits="userSpaceOnUse"><path d="M0 512h512V0H0Z" fill="#b996f2" opacity="1" data-original="#000000"></path></clipPath></defs><g clip-path="url(#a)" transform="matrix(1.33333 0 0 -1.33333 0 682.667)"><path d="M0 0c-9.583-46.359-50.722-81.318-99.878-81.318-56.239 0-101.992 45.754-101.992 101.992 0 37.1 19.912 69.637 49.609 87.485" style="stroke-width:15;stroke-linecap:round;stroke-linejoin:round;stroke-miterlimit:10;stroke-dasharray:none;stroke-opacity:1" transform="translate(273.693 225.48)" fill="none" stroke="#b996f2" stroke-width="15" stroke-linecap="round" stroke-linejoin="round" stroke-miterlimit="10" stroke-dasharray="none" stroke-opacity="" data-original="#000000" opacity="1" class=""></path><path d="M0 0c-55.197-21.557-94.402-75.307-94.402-138.045 0-81.681 66.452-148.132 148.131-148.132 56.835 0 106.292 32.175 131.122 79.267" style="stroke-width:15;stroke-linecap:round;stroke-linejoin:round;stroke-miterlimit:10;stroke-dasharray:none;stroke-opacity:1" transform="translate(120.085 384.2)" fill="none" stroke="#b996f2" stroke-width="15" stroke-linecap="round" stroke-linejoin="round" stroke-miterlimit="10" stroke-dasharray="none" stroke-opacity="" data-original="#000000" opacity="1" class=""></path><path d="M0 0h-29.62v50.56h95.994c13.356 0 24.184 10.827 24.184 24.183S79.73 98.926 66.374 98.926H-29.62v33.922c0 13.356-10.826 24.183-24.183 24.183-13.356 0-24.183-10.827-24.183-24.183V-24.184c0-13.356 10.827-24.183 24.183-24.183H78.478l59.433-99.056c4.535-7.558 12.544-11.745 20.76-11.745a24.086 24.086 0 0 1 12.42 3.45c11.452 6.871 15.165 21.726 8.295 33.179L112.907-11.741A24.186 24.186 0 0 1 92.17 0H30" style="stroke-width:15;stroke-linecap:round;stroke-linejoin:round;stroke-miterlimit:10;stroke-dasharray:none;stroke-opacity:1" transform="translate(200.846 275.457)" fill="none" stroke="#b996f2" stroke-width="15" stroke-linecap="round" stroke-linejoin="round" stroke-miterlimit="10" stroke-dasharray="none" stroke-opacity="" data-original="#000000" opacity="1" class=""></path><path d="M0 0c0-19.777-16.032-35.809-35.809-35.809-19.777 0-35.809 16.032-35.809 35.809 0 19.777 16.032 35.809 35.809 35.809C-16.032 35.809 0 19.777 0 0Z" style="stroke-width:15;stroke-linecap:round;stroke-linejoin:round;stroke-miterlimit:10;stroke-dasharray:none;stroke-opacity:1" transform="translate(182.852 468.69)" fill="none" stroke="#b996f2" stroke-width="15" stroke-linecap="round" stroke-linejoin="round" stroke-miterlimit="10" stroke-dasharray="none" stroke-opacity="" data-original="#000000" opacity="1" class=""></path><path d="M0 0h-323.354c-11.624 0-13.034 16.894-1.571 18.821l457.447 76.884V0H30" style="stroke-width:15;stroke-linecap:round;stroke-linejoin:round;stroke-miterlimit:10;stroke-dasharray:none;stroke-opacity:1" transform="translate(356.156 7.5)" fill="none" stroke="#b996f2" stroke-width="15" stroke-linecap="round" stroke-linejoin="round" stroke-miterlimit="10" stroke-dasharray="none" stroke-opacity="" data-original="#000000" opacity="1" class=""></path></g></g></svg>