<svg xmlns="http://www.w3.org/2000/svg" version="1.1" xmlns:xlink="http://www.w3.org/1999/xlink" width="512" height="512" x="0" y="0" viewBox="0 0 512 512" style="enable-background:new 0 0 512 512" xml:space="preserve" class=""><g><path d="M163.34 456.99c0 3.32-2.69 5.98-6.01 5.98-3.29 0-5.98-2.66-5.98-5.98v-55.98c0-2.38 1.39-4.42 3.4-5.41 5.67-3.23 12.36-4.59 18.82-4.17 24.41 1.64 35.04 25.91 18.28 40.08-3.26 2.78-7.2 4.76-11.42 5.92l17.43 11.82a5.977 5.977 0 0 1 1.59 8.31c-1.84 2.72-5.56 3.43-8.28 1.59l-27.84-18.85v16.69zm0-52.24v20.52c14.63 5.58 30.81-6.07 22.34-16.07-4.99-5.93-15.08-7.23-22.34-4.45zm52.13 58.22c-3.32 0-5.98-2.66-5.98-5.98v-57.51c0-3.32 2.66-6.01 5.98-6.01h32.94c3.32 0 5.98 2.69 5.98 6.01s-2.67 5.98-5.98 5.98h-26.93v16.78h28.21c3.32 0 5.98 2.66 5.98 5.98s-2.66 6.01-5.98 6.01h-28.21v16.75h27.98c3.32 0 6.01 2.69 6.01 6.01s-2.69 5.98-6.01 5.98zm61.71-5.98c0 3.32-2.69 5.98-6.01 5.98s-6.01-2.66-6.01-5.98V399.9c0-5.64 7.34-8.45 11.03-3.32l32.74 42.69v-40.42c0-3.32 2.69-6.01 6.01-6.01 3.29 0 5.98 2.69 5.98 6.01v58.08c0 5.56-7.23 8.25-10.74 3.63l-33-43zm100.4-62.93h3.4c3.29 0 5.98 2.69 5.98 6.01s-2.69 5.98-5.98 5.98h-16.02l-.28 50.94c0 3.32-2.66 5.98-5.98 5.98s-6.01-2.66-6.01-5.98v-50.94h-16.27c-3.4 0-6.01-2.61-6.01-6.29h.03c-.03-3.23 2.66-5.98 6.01-5.98zm-249.7-24.4h118.77v-30.22h-82.86v-.03c-3.09.03-5.73-2.38-5.95-5.53-.06-.71-.11-1.42-.17-2.13-30.22 31.49-80.48 32.23-111.52 1.19-30.5-30.5-30.5-79.94 0-110.44 36.85-36.82 98.42-27.81 123.51 17.43 9.98-28.97 25.74-55.84 46.49-78.94 8.65-34.3-.11-57.23-7.94-77.64-1.9-4.96-4.45-11.59-5.87-16.5-8.99-30.87 35.72-56.1 60.15-34.41 3.32 2.95 6.21 6.63 8.9 11.08 7.28-12.13 16.5-19.19 31.61-19.19 18.57 0 38.38 15.36 38.38 35.04h.03c0 9.38-6.8 24.49-10.6 33.48-8.59 20.27-17.72 41.78-9.38 67.78 21.23 23.16 37.25 50.34 47.37 79.68a230.081 230.081 0 0 1 11.71 93.34c-.11 3.2-2.75 5.78-5.98 5.78h-82.86v30.22h118.77c13.58 0 24.66 11.08 24.66 24.63v65.74c0 13.58-11.08 24.66-24.66 24.66H127.88c-13.58 0-24.66-11.08-24.66-24.66v-65.74c0-13.54 11.08-24.62 24.66-24.62zm130.76 0h21.03v-30.22h-21.03zm151.8 11.99H127.88c-6.95 0-12.64 5.7-12.64 12.64v65.74c0 6.94 5.7 12.67 12.64 12.67h282.56c6.94 0 12.64-5.73 12.64-12.67v-65.74c0-6.95-5.7-12.64-12.64-12.64zM422.37 143c17.49 0 26.33 21.26 13.92 33.65-12.39 12.39-33.65 3.54-33.65-13.95 0-10.89 8.85-19.7 19.73-19.7zm5.44 14.26c-4.85-4.85-13.15-1.42-13.15 5.44s8.31 10.29 13.15 5.44c3.01-3 3.01-7.88 0-10.88zm-45.98 8.98c-2.32 2.35-6.12 2.35-8.48 0-2.35-2.32-2.35-6.12 0-8.48l63.67-63.67c2.35-2.32 6.15-2.32 8.48 0a6.005 6.005 0 0 1 0 8.5zm18.18-94.14c17.49 0 26.33 21.26 13.92 33.65-12.39 12.42-33.65 3.57-33.65-13.92 0-10.88 8.84-19.73 19.73-19.73zm5.44 14.26c-4.85-4.82-13.15-1.39-13.15 5.47s8.31 10.29 13.15 5.44c3-3 3-7.88 0-10.91zm4.11-22.73c-35.21 0-63.72 28.52-63.72 63.72 0 35.18 28.52 63.72 63.72 63.72 35.21 0 63.72-28.54 63.72-63.72 0-35.21-28.52-63.72-63.72-63.72zM356.01 73.8c29.57-29.57 77.53-29.57 107.09 0 29.57 29.57 29.57 77.5 0 107.09-29.57 29.57-77.53 29.57-107.09 0-29.56-29.59-29.56-77.52 0-107.09zm-50 253.62c-.34-22-4.48-43.99-12.22-64.57-1.16-3.09.4-6.55 3.49-7.71s6.55.4 7.71 3.49a202.862 202.862 0 0 1 12.98 68.8h27.16c-.34-23.81-5.07-46.97-13.97-69.08-1.25-3.06.25-6.55 3.32-7.77 3.06-1.22 6.55.26 7.79 3.32 9.44 23.47 14.46 48.19 14.83 73.53h11.82c3.2-56.3-15.51-111.74-52.3-154.2l-44.02 33.45c-2.24 1.67-5.24 1.59-7.34-.08l-43.88-33.34a218.214 218.214 0 0 0-51.96 154.18h19.33c0-25.26 4.65-49.86 13.75-73.42 1.19-3.06 4.65-4.62 7.74-3.43 3.06 1.19 4.62 4.68 3.43 7.74a192.503 192.503 0 0 0-12.95 69.11h31.18c.34-23.92 4.85-47.4 13.35-69.7a5.95 5.95 0 0 1 7.71-3.46c3.12 1.16 4.65 4.62 3.49 7.74-7.97 20.89-12.25 43.09-12.59 65.42h62.15zm-37.05-133.03 40.79-30.95c-9.24-29.68.68-53.15 10.03-75.2 3.03-7.11 9.64-22.03 9.64-28.86h.03c0-12.59-14.06-23.05-26.45-23.05-14.26 0-20.04 9.18-26.16 22.76-2.07 4.59-8.76 4.79-10.91 0-6.12-13.58-11.91-22.76-26.16-22.76-13.95 0-30.39 13.41-25.91 27.3 1.56 4.96 3.54 10.12 5.58 15.45 8.39 21.97 17.8 46.57 8.5 84.16zM157.08 313.33c.11-18.94 2.61-37.64 7.26-55.73-4.22-13.24-12.5-24.66-23.39-32.8-26.25-19.67-63.1-17.01-86.31 6.21-25.8 25.8-25.8 67.63 0 93.43 29.87 29.88 79.67 24.41 102.44-11.11zM72.8 298.25c-.31-3.29 2.13-6.18 5.41-6.49a5.996 5.996 0 0 1 6.49 5.41c.96 10.54 18.71 15.9 28.89 7.57 2.75-2.24 4.45-5.24 4.45-8.48 0-21-45.35-2.98-45.35-37.08 0-12.53 10.46-21.74 22.54-23.98v-6.92c0-3.37 2.64-6.01 6.26-6.01v.03c3.37.03 6.04 2.78 5.95 6.09l-.14 6.75c12.16 2.21 22.73 11.45 22.73 24.04 0 3.32-2.69 5.98-5.98 5.98-3.32 0-6.01-2.66-6.01-5.98 0-11.08-18.43-17.06-28.94-8.48-2.72 2.24-4.42 5.24-4.42 8.48 0 21 45.35 2.98 45.35 37.08 0 12.56-10.52 21.8-22.65 24.01l-.14 6.89c0 3.32-2.69 6.01-6.01 6.01s-6.01-2.69-6.01-6.01v-6.92c-11.28-2.09-21.34-10.31-22.42-21.99z" fill="#b996f2" opacity="1" data-original="#000000"></path></g></svg>