<svg xmlns="http://www.w3.org/2000/svg" version="1.1" xmlns:xlink="http://www.w3.org/1999/xlink" width="512" height="512" x="0" y="0" viewBox="0 0 512 512" style="enable-background:new 0 0 512 512" xml:space="preserve" class=""><g><path d="M491 76.31H386.52a6 6 0 0 0-5.98 5.5c-.21 2.48-.39 4.93-.55 7.38H132.01c-.16-2.44-.34-4.9-.55-7.38a6 6 0 0 0-5.98-5.5H21c-3.31 0-6 2.69-6 6v347.38c0 3.31 2.69 6 6 6h103c1.82 0 3.55-.83 4.68-2.25a5.99 5.99 0 0 0 1.17-5.06l-1.25-5.56h254.78l-1.25 5.56c-.4 1.78.03 3.64 1.17 5.06s2.86 2.25 4.68 2.25h103c3.31 0 6-2.69 6-6V82.31c.02-3.31-2.67-6-5.98-6zm-98.93 12H485V250h-54.84c-30.44-45.78-42.61-97.37-38.09-161.69zm.27 294.61a26.32 26.32 0 0 1-8.16 1.29c-6.24 0-12.34-2.23-17.62-6.45-7.43-5.94-16.11-9.07-25.11-9.07-8.99 0-17.68 3.14-25.11 9.07-5.28 4.22-11.37 6.45-17.62 6.45s-12.34-2.23-17.62-6.45c-7.43-5.94-16.11-9.07-25.11-9.07-8.99 0-17.68 3.14-25.11 9.07-5.28 4.22-11.37 6.45-17.62 6.45s-12.34-2.23-17.62-6.45c-7.43-5.94-16.11-9.07-25.11-9.07s-17.68 3.14-25.11 9.07c-5.28 4.22-11.38 6.45-17.62 6.45-2.77 0-5.5-.43-8.16-1.29l-7.37-32.86c4.93 2.15 10.17 3.27 15.53 3.27 8.99 0 17.68-3.14 25.11-9.07 5.28-4.22 11.37-6.45 17.62-6.45s12.34 2.23 17.62 6.45c7.43 5.93 16.11 9.07 25.11 9.07 8.99 0 17.68-3.14 25.11-9.07 5.28-4.22 11.37-6.45 17.62-6.45 6.24 0 12.34 2.23 17.62 6.45 7.43 5.93 16.11 9.07 25.11 9.07 8.99 0 17.68-3.14 25.11-9.07 5.28-4.22 11.37-6.45 17.62-6.45 6.24 0 12.34 2.23 17.62 6.45 7.43 5.93 16.11 9.07 25.11 9.07 5.35 0 10.59-1.12 15.53-3.27zm11.04-49.24c-.53.39-1.06.79-1.58 1.2-5.28 4.22-11.38 6.45-17.62 6.45s-12.34-2.23-17.62-6.45c-7.43-5.93-16.11-9.07-25.11-9.07s-17.68 3.14-25.11 9.07c-5.28 4.22-11.37 6.45-17.62 6.45-6.24 0-12.34-2.23-17.62-6.45-7.43-5.93-16.11-9.07-25.11-9.07s-17.68 3.14-25.11 9.07c-5.28 4.22-11.38 6.45-17.62 6.45-6.25 0-12.34-2.23-17.62-6.45-7.43-5.93-16.11-9.07-25.11-9.07s-17.68 3.14-25.11 9.07c-5.28 4.22-11.38 6.45-17.62 6.45s-12.34-2.23-17.62-6.45c-.52-.41-1.05-.81-1.58-1.2l-7.51-33.51c.54.38 1.08.78 1.61 1.2 7.43 5.94 16.11 9.07 25.11 9.07 8.99 0 17.68-3.14 25.11-9.07 5.28-4.22 11.38-6.45 17.62-6.45s12.34 2.23 17.62 6.45c7.43 5.94 16.11 9.07 25.11 9.07s17.68-3.14 25.11-9.07c5.28-4.22 11.38-6.45 17.62-6.45s12.34 2.23 17.62 6.45c7.43 5.94 16.11 9.07 25.11 9.07s17.68-3.14 25.11-9.07c5.28-4.22 11.38-6.45 17.62-6.45s12.34 2.23 17.62 6.45c7.43 5.93 16.11 9.07 25.11 9.07s17.68-3.14 25.11-9.07c.53-.42 1.06-.82 1.6-1.2zM132.62 101.19h246.75c-2.14 61.06 11.11 111.1 41.15 156.03l-6.25 27.85c-4.43 1.53-8.62 3.84-12.48 6.93-5.28 4.22-11.37 6.45-17.62 6.45-6.24 0-12.34-2.23-17.62-6.45-7.43-5.94-16.11-9.07-25.11-9.07-8.99 0-17.68 3.14-25.11 9.07-5.28 4.22-11.37 6.45-17.62 6.45s-12.34-2.23-17.62-6.45c-7.43-5.94-16.11-9.07-25.11-9.07-8.99 0-17.68 3.14-25.11 9.07-5.28 4.22-11.37 6.45-17.62 6.45s-12.34-2.23-17.62-6.45c-7.43-5.94-16.11-9.07-25.11-9.07s-17.68 3.14-25.11 9.07c-5.28 4.22-11.38 6.45-17.62 6.45-6.25 0-12.34-2.23-17.62-6.45-3.87-3.09-8.05-5.4-12.48-6.93l-6.25-27.85c30.07-44.93 43.33-94.97 41.18-156.03zm-12.69-12.88c4.52 64.31-7.65 115.9-38.09 161.69H27V88.31zM27 423.69V262h53.24l36.26 161.69zm98.92-12.88-3.36-14.97c1.74.24 3.49.37 5.26.37 8.99 0 17.68-3.14 25.11-9.07 5.28-4.22 11.38-6.45 17.62-6.45s12.34 2.23 17.62 6.45c7.43 5.94 16.11 9.07 25.11 9.07s17.68-3.14 25.11-9.07c5.28-4.22 11.38-6.45 17.62-6.45s12.34 2.23 17.62 6.45c7.43 5.94 16.11 9.07 25.11 9.07s17.68-3.14 25.11-9.07c5.28-4.22 11.38-6.45 17.62-6.45s12.34 2.23 17.62 6.45c7.43 5.93 16.11 9.07 25.11 9.07 1.77 0 3.52-.13 5.26-.37l-3.36 14.97zm269.57 12.88L431.76 262H485v161.69zM87.9 393.57c.73 3.23-1.31 6.44-4.54 7.17-.44.1-.88.15-1.32.15-2.75 0-5.22-1.9-5.85-4.69L52.85 292.11c-.73-3.23 1.31-6.44 4.54-7.17s6.44 1.31 7.17 4.54zM65.25 218.69c14.1-30.56 21.12-63.81 21.46-101.63a6.007 6.007 0 0 1 6-5.95h.05c3.31.03 5.98 2.74 5.95 6.05-.35 39.55-7.73 74.41-22.57 106.55a6.004 6.004 0 0 1-7.96 2.94c-3-1.39-4.32-4.96-2.93-7.96zm370.6 5.02c-14.83-32.14-22.21-66.99-22.57-106.55a5.998 5.998 0 0 1 5.95-6.05h.05a6 6 0 0 1 6 5.95c.34 37.82 7.36 71.06 21.46 101.63a5.994 5.994 0 0 1-5.44 8.51c-2.26 0-4.43-1.29-5.45-3.49zm23.3 68.4L435.81 396.2a6.006 6.006 0 0 1-5.85 4.69c-.44 0-.88-.05-1.32-.15-3.23-.73-5.27-3.93-4.54-7.17l23.34-104.09c.73-3.23 3.93-5.27 7.17-4.54 3.23.73 5.27 3.94 4.54 7.17zM210.8 259.9c0-24.92 20.28-45.2 45.2-45.2s45.2 20.28 45.2 45.2c0 7.76-2 15.42-5.79 22.15a5.994 5.994 0 0 1-8.17 2.29 6.003 6.003 0 0 1-2.29-8.17 33.21 33.21 0 0 0 4.25-16.26c0-18.31-14.89-33.2-33.2-33.2s-33.2 14.89-33.2 33.2a33.2 33.2 0 0 0 4.11 16.01 5.998 5.998 0 0 1-10.5 5.8 45.313 45.313 0 0 1-5.61-21.82zm39.2-67.06V174.1c0-3.31 2.69-6 6-6s6 2.69 6 6v18.75c0 3.31-2.69 6-6 6s-6-2.69-6-6.01zm49.17 23.89c-2.34-2.34-2.34-6.14 0-8.49l13.26-13.26c2.34-2.34 6.14-2.34 8.49 0 2.34 2.34 2.34 6.14 0 8.49l-13.26 13.26a5.991 5.991 0 0 1-4.24 1.76 6.04 6.04 0 0 1-4.25-1.76zm23.88 37.17h18.75c3.31 0 6 2.69 6 6s-2.69 6-6 6h-18.75c-3.31 0-6-2.69-6-6s2.69-6 6-6zm-158.85 6c0-3.31 2.69-6 6-6h18.75c3.31 0 6 2.69 6 6s-2.69 6-6 6H170.2c-3.31 0-6-2.69-6-6zm26.89-56.43c-2.34-2.34-2.34-6.14 0-8.49 2.34-2.34 6.14-2.34 8.49 0l13.26 13.26c2.34 2.34 2.34 6.14 0 8.49a5.991 5.991 0 0 1-8.48 0z" fill="#b996f2" opacity="1" data-original="#000000" class=""></path></g></svg>