<svg xmlns="http://www.w3.org/2000/svg" version="1.1" xmlns:xlink="http://www.w3.org/1999/xlink" width="512" height="512" x="0" y="0" viewBox="0 0 512 512" style="enable-background:new 0 0 512 512" xml:space="preserve" class=""><g><path d="M78.463 331.903v31.327c0 11.046 8.954 20 20 20h37.827M414.109 183.404c0-11.046-8.954-20-20-20H133.774M414.109 340.29V202.909M474.782 224.88c16.468.361 29.718 15.447 29.718 34.005v25.508c0 33.983-22.218 62.146-51.249 67.211" style="stroke-width:15;stroke-linecap:round;stroke-linejoin:round;stroke-miterlimit:10;" fill="none" stroke="#b996f2" stroke-width="15" stroke-linecap="round" stroke-linejoin="round" stroke-miterlimit="10" data-original="#000000" opacity="1"></path><path d="m474.502 148.452.158 76.426h0c-13.004.026-23.53 9.842-23.53 21.638v1.164c-20.484-7.073-37.02-24.888-37.02-44.77v-34.134c0-30.337-25.856-55.196-58.669-57.434" style="stroke-width:15;stroke-linecap:round;stroke-linejoin:round;stroke-miterlimit:10;" fill="none" stroke="#b996f2" stroke-width="15" stroke-linecap="round" stroke-linejoin="round" stroke-miterlimit="10" data-original="#000000" opacity="1"></path><path d="M118.584 138.89v-17.726c-.188-34.488 28.797-63.16 65.059-67.76 5.425-.688 9.743-4.342 10.874-9.204 2.03-8.724 6.841-16.749 13.699-23.049C217.258 12.822 229.868 7.5 244.333 7.5h104.364c14.464 0 27.075 5.322 36.117 13.651 6.856 6.297 11.666 14.318 13.697 23.038 1.132 4.861 5.448 8.523 10.875 9.202 33.96 4.249 60.777 29.457 64.594 60.061" style="stroke-width:15;stroke-linecap:round;stroke-linejoin:round;stroke-miterlimit:10;" fill="none" stroke="#b996f2" stroke-width="15" stroke-linecap="round" stroke-linejoin="round" stroke-miterlimit="10" data-original="#000000" opacity="1"></path><path d="M373.806 95.68c-5.772 5.829-15.202 12.514-23.961 16.605-13.331 6.321-26.66 10.271-39.989 11.853M431.036 402.798c13.093-17.153 20.399-39.078 20.399-61.885l-.306-93.234M7.5 380.023l28.072-53.674M117.727 386.534 91.178 504.5M205.968 208.709h-51.484M412.585 208.709H290.548M30.459 162.865h0c0-13.241 10.734-23.975 23.974-23.975h52.945c13.241 0 23.974 10.734 23.974 23.974v0c0 13.241-10.734 23.974-23.974 23.974H54.433c-13.24.001-23.974-10.732-23.974-23.973zM113.645 330.679H51.622c-13.241 0-23.974-10.734-23.974-23.974v0c0-13.241 10.734-23.974 23.974-23.974h54.281M95.963 234.781h49.191c7.964 0 15.021 3.883 19.381 9.859M105.903 282.73h-55.13c-13.241 0-23.974-10.734-23.974-23.974v0c0-13.241 10.734-23.974 23.974-23.974h10.19M242.072 453.17l47.128 17.113a30.837 30.837 0 0 1 20.311 28.985v4.242M151.143 285.866c-5.512-12.992-19.818-20.474-34.014-16.939h0a12.255 12.255 0 0 0-9.111 14.001l9.776 55.944a46.195 46.195 0 0 0 4.284 12.9l27.571 54.509a46.204 46.204 0 0 0 25.459 22.574l34.003 12.348" style="stroke-width:15;stroke-linecap:round;stroke-linejoin:round;stroke-miterlimit:10;" fill="none" stroke="#b996f2" stroke-width="15" stroke-linecap="round" stroke-linejoin="round" stroke-miterlimit="10" data-original="#000000" opacity="1"></path><path d="M414.753 503.511v-29.455a73.769 73.769 0 0 1 3.999-23.96l6.592-19.196a94.978 94.978 0 0 0-1.782-66.471c-5.911-14.61-12.336-30.283-15.919-38.363-3.354-7.564-14.304-29.848-14.304-29.848a41.572 41.572 0 0 1-4.067-16.825l-.837-30.517a10.323 10.323 0 0 0-9.975-10.034l-3.7-.123c-14.621-.486-26.858 10.994-27.304 25.616l-.481 15.756a199.386 199.386 0 0 0 1.178 28.554l6.381 56.221c1.035 9.116-2.1 18.277-8.696 24.654a46.844 46.844 0 0 1-11.741 8.285l-8.251 4.094a52.6 52.6 0 0 1-19.473 5.335l-.251.019a54.026 54.026 0 0 1-18.62-1.851c-8.225-2.306-22.438-6.004-37.191-9.777" style="stroke-width:15;stroke-linecap:round;stroke-linejoin:round;stroke-miterlimit:10;" fill="none" stroke="#b996f2" stroke-width="15" stroke-linecap="round" stroke-linejoin="round" stroke-miterlimit="10" data-original="#000000" opacity="1"></path><ellipse cx="249.139" cy="297.575" rx="98" ry="97.593" style="stroke-width:15;stroke-linecap:round;stroke-linejoin:round;stroke-miterlimit:10;" fill="none" stroke="#b996f2" stroke-width="15" stroke-linecap="round" stroke-linejoin="round" stroke-miterlimit="10" data-original="#000000" opacity="1"></ellipse><path d="M309.692 277.204c-8.448-25.576-32.366-44.016-60.553-44.016-35.243 0-63.812 28.827-63.812 64.387s28.57 64.387 63.812 64.387c30.235 0 55.558-21.216 62.145-49.699M323.477 162.991l-15.725-39.86c-2.831-7.176-10.238-11.954-18.533-11.954h-80.658c-8.368 0-15.825 4.862-18.601 12.128l-15.159 39.685M211.933 137.385h72.41M240.292 110.863c-7.017-3.658-15.249-9.361-21.057-15.183M107.378 186.839h21.374c13.241 0 23.974 10.734 23.974 23.974v0c0 13.241-10.734 23.974-23.974 23.974M50.773 234.788c-13.241 0-23.974-10.734-23.974-23.974v0c0-13.241 10.734-23.974 23.974-23.974" style="stroke-width:15;stroke-linecap:round;stroke-linejoin:round;stroke-miterlimit:10;" fill="none" stroke="#b996f2" stroke-width="15" stroke-linecap="round" stroke-linejoin="round" stroke-miterlimit="10" data-original="#000000" opacity="1"></path></g></svg>