<svg xmlns="http://www.w3.org/2000/svg" version="1.1" xmlns:xlink="http://www.w3.org/1999/xlink" width="512" height="512" x="0" y="0" viewBox="0 0 409.6 409.6" style="enable-background:new 0 0 512 512" xml:space="preserve" class=""><g><path d="M404.48 355.3h-50.55l4.672-27.445c8.382-2.214 14.66-9.652 14.945-18.636.027-.207.039-.422.039-.645 0-12.844-10.426-23.285-23.254-23.336 1.426-2.664 2.309-5.656 2.309-8.883 0-8.015-5-14.886-12.04-17.656.446-1.594.672-3.254.672-4.933 0-8.832-6.242-16.235-14.546-18.028.007-.191.007-.394.007-.593 0-9.965-8.105-18.075-18.07-18.075-2.785 0-5.059 2.246-5.121 5.024-.027 1.09-.574 6.633-9.031 8.672-10.48 2.523-16.735 9.175-16.735 17.789 0 2.047.34 4.035.993 5.906-8.32 2.777-14.336 10.648-14.336 19.894 0 3.958 1.246 7.672 3.289 10.872l-1.008-.008c-6.184-.18-11.836 2.297-16.16 6.586-4.328 4.297-6.711 10.02-6.711 16.117 0 9.484 6.418 17.601 14.992 19.95l4.719 27.429h-53.633V199.68h121.25c27.117 0 49.18-22.059 49.18-49.18a5.121 5.121 0 0 0-5.122-5.121h-21.796l5.011-32.399c9.758-3.597 16.774-12.906 16.774-23.902 0-10.719-6.524-20.031-16.258-23.789-3.457-25.355-25.324-44.734-51.277-44.734-25.95 0-47.82 19.379-51.274 44.734-9.734 3.758-16.258 13.07-16.258 23.79 0 10.972 6.985 20.269 16.711 23.882l5.063 32.418h-52.004V64.28c15.414-2.469 27.242-15.824 27.242-31.922C237.164 14.516 222.644 0 204.801 0c-17.848 0-32.363 14.516-32.363 32.36 0 16.097 11.828 29.452 27.242 31.921v81.098h-47.32l5.277-34.363c8.996-2.274 15.75-10.192 16.035-19.762a4.95 4.95 0 0 0 .039-.64v-8.72c0-7.882-5.773-14.402-13.32-15.69-1.72-14.052-13.758-24.977-28.332-24.977h-56.02c-14.578 0-26.617 10.925-28.332 24.976-7.496 1.297-13.258 7.777-13.3 15.617l-.024 8.793c0 9.867 6.867 18.106 16.082 20.418l5.332 34.348H34.37a5.121 5.121 0 0 0-5.121 5.121c0 27.121 22.063 49.18 49.18 49.18h121.25V355.3h-48.867l5.015-35.234c8.492-2.261 14.848-9.804 15.133-18.91.027-.21.039-.426.039-.644v-.672c0-28.004-17.996-53.055-44.168-62.246-.812-11.438-10.273-20.524-21.914-20.524s-21.105 9.086-21.914 20.528c-26.137 9.187-44.168 34.332-44.168 62.28 0 9.692 6.418 17.935 15.187 20.278l5.055 35.145H5.121A5.119 5.119 0 0 0 0 360.42c0 27.118 22.063 49.18 49.184 49.18h311.234c27.121 0 49.184-22.062 49.184-49.18a5.119 5.119 0 0 0-5.122-5.12zm-130.59-.296-4.68-27.227c3.216-.879 6.2-2.457 8.665-4.847.336-.325.656-.66.96-1 3.677 4.09 9.009 6.664 14.93 6.664 5.926 0 11.258-2.578 14.934-6.668 3.676 4.09 9.012 6.668 14.938 6.668 5.922 0 11.258-2.578 14.933-6.668 2.535 2.82 5.89 4.847 9.653 5.879l-4.63 27.199zm11.512-91.379c.586 0 1.157.066 1.72.16a5.13 5.13 0 0 0 5.519-3.023 5.114 5.114 0 0 0-1.586-6.098c-1.93-1.48-3.04-3.703-3.04-6.11 0-4.952 5.575-7.034 8.891-7.835 9.668-2.328 13.797-7.969 15.563-12.418a7.838 7.838 0 0 1 4.027 6.844 7.75 7.75 0 0 1-.762 3.343 5.112 5.112 0 0 0 .563 5.32c1.172 1.528 3.105 2.247 4.996 1.919a8.083 8.083 0 0 1 1.547-.157c4.52 0 8.195 3.676 8.195 8.196 0 1.98-.73 3.898-2.055 5.41-1.37 1.558-1.421 3.773-.496 5.633.914 1.867 3.102 2.964 5.192 2.82 4.812 0 8.726 3.918 8.726 8.726 0 4.817-3.914 8.73-8.726 8.73-.254 0-.477.11-.719.145H286.57c-.242-.035-.46-.144-.718-.144-6.059 0-11.18-4.914-11.18-10.73 0-5.915 4.812-10.731 10.73-10.731zm-31.32 44.297c0-3.348 1.309-6.492 3.684-8.848 2.375-2.36 5.41-3.48 8.875-3.613l1.468.008h82.133c7.067 0 12.848 5.625 13.098 12.633-.016.16-.024.312-.024.472 0 5.395-4.402 9.781-9.812 9.781s-9.813-4.386-9.813-9.78a5.121 5.121 0 0 0-10.242 0c0 5.394-4.402 9.78-9.812 9.78-5.414 0-9.817-4.386-9.817-9.78a5.121 5.121 0 0 0-10.242 0c0 5.394-4.402 9.78-9.812 9.78s-9.813-4.386-9.813-9.78a5.121 5.121 0 0 0-10.242 0 9.698 9.698 0 0 1-2.965 7.003c-1.926 1.867-4.43 2.922-7.16 2.766-5.238-.153-9.504-4.828-9.504-10.422zM182.676 32.359c0-12.195 9.926-22.12 22.125-22.12 12.195 0 22.12 9.925 22.12 22.12 0 12.2-9.925 22.125-22.12 22.125-12.2 0-22.125-9.925-22.125-22.125zm125.008-1.562c20.253 0 37.386 14.715 40.851 34.234-4.332 1.469-7.16 4.328-9.379 6.61-2.937 3.02-4.504 4.472-8.039 4.472-3.531 0-5.101-1.453-8.039-4.472-3.105-3.2-7.36-7.586-15.379-7.586-8.023 0-12.281 4.379-15.39 7.582-2.938 3.023-4.508 4.476-8.047 4.476-3.54 0-5.11-1.453-8.047-4.476-2.219-2.285-5.047-5.14-9.383-6.606 3.469-19.52 20.602-34.234 40.852-34.234zM250.39 89.078c0-6.945 4.597-12.863 11.23-14.687 2.953.226 4.563 1.617 7.25 4.382 3.11 3.204 7.367 7.582 15.39 7.582 8.024 0 12.282-4.378 15.391-7.582 2.938-3.023 4.508-4.476 8.047-4.476 3.531 0 5.098 1.453 8.035 4.473 3.11 3.199 7.364 7.585 15.383 7.585 8.02 0 12.278-4.378 15.387-7.582 2.683-2.765 4.293-4.156 7.242-4.382 6.637 1.824 11.23 7.742 11.23 14.687 0 8.442-6.867 15.313-15.304 15.313-3.899 0-7.625-1.485-10.488-4.18-.985-.93-2.247-1.395-3.508-1.395s-2.528.465-3.512 1.395c-5.723 5.39-15.242 5.39-20.969 0a5.114 5.114 0 0 0-7.02 0c-5.726 5.39-15.245 5.39-20.972 0a5.114 5.114 0 0 0-7.02 0 15.243 15.243 0 0 1-10.484 4.18c-8.437 0-15.308-6.871-15.308-15.313zm17.074 25.422c4.379-.3 8.582-1.656 12.23-4.059 8.274 5.45 19.715 5.45 27.989 0 8.277 5.45 19.714 5.45 27.992 0 3.629 2.391 7.812 3.743 12.172 4.055l-4.774 30.883H272.29zM76.039 51.465h56.02c8.82 0 16.199 6.219 17.93 14.465h-91.88c1.73-8.246 9.11-14.465 17.93-14.465zM44.621 90.629l.024-8.766c.02-3.136 2.617-5.691 5.792-5.691h107.247c3.191 0 5.789 2.566 5.789 5.723v8.16c-.02.183-.032.37-.032.558 0 6-4.937 10.883-11.011 10.883-6.07 0-11.012-4.883-11.012-10.883 0-2.828-2.293-5.117-5.121-5.117s-5.121 2.29-5.121 5.117c0 6-4.938 10.883-11.012 10.883-6.07 0-11.012-4.883-11.012-10.883 0-2.828-2.293-5.117-5.12-5.117s-5.118 2.29-5.118 5.117c0 6-4.941 10.883-11.016 10.883-6.07 0-11.011-4.883-11.011-10.883a5.118 5.118 0 0 0-5.121-5.117 5.117 5.117 0 0 0-5.118 5.117c0 6-4.941 10.883-11.011 10.883-6.075 0-11.016-4.883-11.016-10.867zm16.211 20.414c4.313-1.082 8.125-3.434 10.934-6.691a21.266 21.266 0 0 0 16.132 7.382c6.45 0 12.235-2.863 16.133-7.382a21.266 21.266 0 0 0 16.133 7.382c6.45 0 12.234-2.863 16.133-7.382 2.82 3.265 6.644 5.625 10.973 6.707l-5.27 34.32H66.16zm-21.008 44.578h329.95c-2.512 19.059-18.868 33.82-38.602 33.82H78.43c-19.739 0-36.09-14.761-38.606-33.82zm65.094 71.688c6.523 0 11.828 5.304 11.828 11.832 0 6.523-5.305 11.828-11.828 11.828s-11.832-5.305-11.832-11.828c0-6.528 5.309-11.832 11.832-11.832zm-55.844 72.53c0-22.968 14.434-43.75 35.582-51.984 3.387 7.844 11.188 13.356 20.262 13.356 9.07 0 16.871-5.508 20.258-13.352 21.176 8.239 35.586 28.934 35.586 51.98v.11a4.484 4.484 0 0 0-.032.563c0 5.558-4.539 10.078-10.117 10.078s-10.117-4.52-10.117-10.078a5.119 5.119 0 1 0-10.238 0c0 5.558-4.54 10.078-10.117 10.078-5.582 0-10.118-4.52-10.118-10.078 0-2.832-2.293-5.121-5.12-5.121s-5.122 2.289-5.122 5.12c0 5.56-4.535 10.079-10.117 10.079-5.578 0-10.113-4.52-10.113-10.078a5.119 5.119 0 0 0-5.121-5.121 5.119 5.119 0 0 0-5.121 5.12 9.972 9.972 0 0 1-3.172 7.329c-2.051 1.93-4.715 2.879-7.582 2.73-5.227-.308-9.48-5.105-9.48-10.73zm15.281 20.22c3.247-.844 6.278-2.391 8.801-4.762.45-.422.875-.863 1.278-1.317 3.734 4.2 9.18 6.848 15.23 6.848 6.059 0 11.508-2.652 15.238-6.86 3.735 4.208 9.18 6.86 15.239 6.86s11.504-2.652 15.238-6.86c2.633 2.97 6.148 5.102 10.101 6.137l-5.011 35.196H69.426zm296.063 79.3H49.184c-19.739 0-36.094-14.757-38.61-33.82h388.45c-2.512 19.063-18.868 33.82-38.606 33.82zm0 0" fill="#b996f2" opacity="1" data-original="#000000"></path></g></svg>