<svg xmlns="http://www.w3.org/2000/svg" version="1.1" xmlns:xlink="http://www.w3.org/1999/xlink" width="512" height="512" x="0" y="0" viewBox="0 0 1000 1000" style="enable-background:new 0 0 512 512" xml:space="preserve" class=""><g><path d="M776.81 465.15a15.92 15.92 0 0 1-10.42-3.87l-328-281.62-328 281.62A16 16 0 1 1 89.58 437L428 146.44a16 16 0 0 1 20.85 0L787.24 437a16 16 0 0 1-10.43 28.14z" fill="#b996f2" opacity="1" data-original="#000000"></path><path d="M663.49 779.67H154.27a16 16 0 0 1-16-16V402.55a16 16 0 1 1 32 0v345.12h493.22a16 16 0 0 1 0 32zM722.54 575.25a16 16 0 0 1-16-16V402.54a16 16 0 1 1 32 0v156.71a16 16 0 0 1-16 16z" fill="#b996f2" opacity="1" data-original="#000000"></path><path d="M530.92 779.66a16 16 0 0 1-16-16V519.43h-153v244.23a16 16 0 0 1-32 0V503.43a16 16 0 0 1 16-16h185a16 16 0 0 1 16 16v260.23a16 16 0 0 1-16 16zM676.49 379a16 16 0 0 1-16-16V183.62H607v105.93a16 16 0 0 1-32 0V167.62a16 16 0 0 1 16-16h85.53a16 16 0 0 1 16 16V363a16 16 0 0 1-16.04 16zM438.41 442.79c-47.37 0-85.9-37.61-85.9-83.85s38.53-83.85 85.9-83.85 85.9 37.61 85.9 83.85-38.54 83.85-85.9 83.85zm0-135.7c-29.72 0-53.9 23.26-53.9 51.85s24.18 51.85 53.9 51.85 53.9-23.26 53.9-51.85-24.18-51.85-53.9-51.85zM762.43 857.43a16 16 0 0 1-4.7-.71c-71.07-21.81-119.12-78.42-139-163.69-14.57-62.6-8.87-118.23-8.62-120.57a16 16 0 0 1 22.14-13c57 24.09 117.57-43.25 118.18-43.94a16 16 0 1 1 23.97 21.18c-2.81 3.17-63.82 70.9-133.45 58.49-.42 20.55.59 55 9.16 91.38 17.46 74.13 56.83 121.09 117 139.56a16 16 0 0 1-4.69 31.3z" fill="#b996f2" opacity="1" data-original="#000000"></path><path d="M762.42 857.43a16 16 0 0 1-4.69-31.3c60.4-18.54 99.83-65.76 117.2-140.35 8.42-36.19 9.41-70.24 9-90.59-69.62 12.44-130.65-55.32-133.46-58.49a16 16 0 0 1 23.94-21.23c.73.81 61.51 67.9 118.19 43.95a16 16 0 0 1 22.13 13c.25 2.34 6 58-8.62 120.57-19.85 85.27-67.91 141.88-139 163.69a16 16 0 0 1-4.69.75z" fill="#b996f2" opacity="1" data-original="#000000"></path><path d="M747.86 727a16 16 0 0 1-11.31-4.69L711.23 697a16 16 0 1 1 22.62-22.63l14 14L791 645.22a16 16 0 0 1 22.62 22.63l-54.44 54.44a16 16 0 0 1-11.32 4.71z" fill="#b996f2" opacity="1" data-original="#000000"></path></g></svg>