<svg xmlns="http://www.w3.org/2000/svg" version="1.1" xmlns:xlink="http://www.w3.org/1999/xlink" width="512" height="512" x="0" y="0" viewBox="0 0 512 512" style="enable-background:new 0 0 512 512" xml:space="preserve" class=""><g><path d="M79.35 215.99c-4.9 5.16-6.18 12.27-5.1 19.22 4.67-4.99 6.97-12.33 5.1-19.22zM42.89 447.72h19.3a22.75 22.75 0 0 1-1.98-9.33V366c-9.64-.37-16.67-7.28-16.72-16.89l-.23-60.32h-.03c0-13.04 17.18-16.67 28.23-17.83-4.08-8.05-3.94-13.04-3.94-21.06a6.083 6.083 0 0 1-2.3-2.78c-3.49-8.53-4.37-17.94-1.98-26.33 2.15-7.51 6.83-14.15 14.57-18.68.54-.6 1.16-1.13 1.84-1.64 4.37-3.23 11.51-4.56 19.11-3.71 10.57 1.16 21.83 6.21 28.57 15.28 3.29 4.42 9.41 17.86 10.29 25.2.51 4.08-.54 7.28-3.71 8.99-2.38 1.25-4.93.91-7.26-.28 0 9.5.71 15.7-3.83 24.77 8.19 1.33 21.8 6.83 25.97 13.92l20.07 32.03 15.56 16.38 9.78-1.42 11.4-21.46c-4.54-2.41-8.9-5.05-13.27-7.97-8.73-5.87-10.18-17.23-2.89-24.72 34.75-35.72 6.94-92.04 65.4-92.04 58.42 0 30.64 56.32 65.42 92.07 7.31 7.51 5.78 18.85-2.81 24.66-4.85 3.29-9.84 6.26-14.94 8.9 0 5.75.2 52.75-.11 54.26 14.94 18.37 17.35 40.65 19.11 56.83.94 8.76 1.62 15.14 2.49 15.42 5.3 1.64 9.72 5.05 10.4 10.15h8.05c-13.83-17.18-4.99-44.76 15.73-48.25 2.55-12.25 12.33-22.22 25.03-22.59.91-23.75 0-58.48-1.05-83.99-12.9 4.79-28.18-.71-33.56-13.24-7.99-2.86-14.29-9.44-15.93-17.77-13.15-4.96-19.93-19.56-13.46-32-7.31-10.2-4.76-23.81 5.16-31.29-2.64-13.1 7.09-25.06 20.18-27.47 1.67-16.84 21.34-26.45 37.33-18.94 8.65-5.33 21.46-5.3 30.1 0 15.96-7.51 35.63 2.04 37.3 18.94 13.12 2.41 22.85 14.37 20.21 27.47 9.92 7.48 12.47 21.09 5.16 31.29 6.46 12.44-.31 27.04-13.46 32-1.64 8.33-7.91 14.91-15.93 17.77-5.1 11.85-19.13 17.52-31.66 13.86-1.02 28.09-.6 60.41.85 82.29 14.63-1.53 26.25 9.95 28.52 23.78 21.66 1.47 32.6 29.88 18.45 48.13h4.25c16.64 0 25.29 20.3 13.32 32.26a18.85 18.85 0 0 1-13.32 5.53H42.89c-16.67 0-25.29-20.3-13.35-32.23 3.43-3.43 8.17-5.56 13.35-5.56zm34.44 0h11.91c1.39-.88 2.58-2.1 3.46-3.49 1.05-1.7 1.64-3.69 1.64-5.84v-73.33l-22.11-.34v73.67c0 3.83 1.96 7.32 5.1 9.33zm34.13 0h11.93c1.36-.88 2.55-2.1 3.43-3.49 1.05-1.7 1.67-3.69 1.67-5.84v-72.77l-22.14-.37v73.13c.01 3.84 1.97 7.33 5.11 9.34zm27.05 0h37.93c.82-4.82 4.68-8.65 9.61-10.15 3.12-.94 3.69-8.11 4.45-17.74 1.64-20.64 4-49.83 37.36-71.04l3.88-2.35c-.26-3.74-2.32-8.87-4.82-14.29l-9.95 18.79c-1.79 3.37-5.58 6.63-9.16 7.23l-16.72 2.86c-1.64 1.67-3.77 2.86-6.07 3.57-3.4 1.02-9.33 1.11-12.08-1.3L147 340.42c-1.16-1.02-5.41-7.82-6.52-9.52v107.5c.01 3.31-.7 6.46-1.97 9.32zm54.11 0h125.06c-5.87-3.77-6.83-12.64-8.08-24.29-2.04-18.99-5.1-47.42-31.89-63.98l-7.65-4.08c-2.52-1.19-3.86-3.91-3.34-6.55 1.87-12.19 10.09-24.83 13.92-36.82-4.28-1.22-8.65.28-11.74 3.86l-8.19 9.47c-2.41 2.81-6.72 2.72-9.1-.06l-8.14-9.41c-3.32-3.83-8.02-5.24-12.47-3.6 4.9 12.25 14.85 27.47 12.33 39.12-.74 3.34-3.29 4.05-6.12 5.73l-2.95 1.79.03.03c-46.63 29.63-21.63 77.96-41.67 88.79zm273.06 11.99H42.89c-6.01 0-9.27 7.37-4.85 11.76 1.25 1.25 2.98 2.04 4.85 2.04h422.79c6.01 0 9.24-7.37 4.85-11.76-1.25-1.24-2.98-2.04-4.85-2.04zM291.21 48.41c23.9 0 43.26 19.39 43.26 43.26 0 23.9-19.36 43.26-43.26 43.26-23.87 0-43.26-19.36-43.26-43.26 0-23.88 19.39-43.26 43.26-43.26zm22.11 21.17c-12.22-12.22-32-12.22-44.19 0-12.22 12.19-12.22 31.97 0 44.19 12.19 12.22 31.97 12.22 44.19 0s12.22-32 0-44.19zm-81.53 305.8c.26-3.32 3.12-5.78 6.41-5.53 3.32.23 5.78 3.12 5.56 6.41-1.64 21.8-7.29 43.37-16.61 62.93-1.42 3-4.99 4.28-7.99 2.83-2.98-1.42-4.25-4.99-2.83-7.99 8.75-18.37 13.93-38.21 15.46-58.65zm35.24.88c-.23-3.29 2.24-6.18 5.56-6.41 3.29-.26 6.15 2.21 6.41 5.53 1.53 20.41 6.72 40.31 15.48 58.65 1.42 3 .14 6.58-2.83 7.99-3 1.45-6.58.17-7.99-2.83-9.37-19.59-14.99-41.1-16.63-62.93zm95.36 34.84c-13.46-.09-19.73 19.7-9.72 30.19 2.69 2.78 6.26 4.45 10.12 4.25 27.72-1.25 56.27-.28 70.58.2 4.59.14 7.68.26 8.5.2 12.93-.57 18.88-19.84 9.01-30.16-3.26-3.4-7.65-4.96-12.19-3.97l-.03-.03c-3.77.82-7.37-2.15-7.23-6.07.37-9.21-5.87-18.48-15.02-18.06-4.76.2-8.76 3.15-11.23 7.2-2.18 3.66-7.54 3.94-10.03.31-5.22-7.54-14.88-8.7-21.17-1.56-3 3.4-4.17 7.09-4.51 11.96a5.982 5.982 0 0 1-6.38 5.56c-.39-.02-.62-.02-.7-.02zm32.71-31.49 4.68 3.06c.94-.88 1.93-1.7 2.98-2.44-1.98-26.33-2.15-62.65-.68-96.46.68-15.93 2.55-32.12 4.76-41.22-6.75 2.92-5.78 12.19-7.82 16.44-1.36 2.83-4.71 4.11-7.6 2.95.62 3.2 1.3 10.6 1.96 20.38.23.85.28 1.76.14 2.61.65 10.49 1.22 23.33 1.59 36.62.53 20.38.67 42.1-.01 58.06zm-13.55-99.87c-.31-6.41-.65-10.94-.91-12.76l-24.18-17.43c-4.62-3.34-2.32-10.66 3.34-10.83l8.96-.23c.99-.03 1.96.17 2.78.57l17.91 8.67c2.41-10.54 5.9-19.36 26.73-18.26 5.22.26 7.6 6.63 3.86 10.26-2.75 2.72-4.68 19.47-5.87 41.19 7.77 4.05 18.62.51 20.64-7.57a6.014 6.014 0 0 1 4.54-4.39c5.53-1.22 10.49-5.9 10.32-11.23-.26-3 1.79-5.78 4.82-6.35 10.4-2.04 13.29-12.5 8.22-18.03a6.017 6.017 0 0 1 .45-8.48c6.35-5.73 4.28-14.63-3.34-18.23-3-1.42-4.28-4.99-2.86-7.99 4.08-8.65-4.71-16.58-13.32-16.04-4.34.26-7.23-3.46-6.41-7.2.14-.71.23-1.42.23-2.15 0-10.26-14.23-15-22.31-9.18-2.32 1.81-5.7 1.64-7.85-.51-4.54-4.51-16.13-4.54-20.69 0a5.966 5.966 0 0 1-7.65.65c-9.81-6.86-24.58.43-22.28 11.2.82 3.8-2.21 7.4-6.12 7.2-9.84-.45-17.46 7.94-13.61 16.04 1.42 3 .14 6.58-2.86 7.99-7.51 3.54-9.75 12.44-3.34 18.23v.03c2.38 2.13 2.64 5.81.57 8.28-5.73 6.77-1.39 16.33 8.11 18.2 2.81.54 4.9 3.03 4.85 5.98-.14 5.75 4.76 10.43 10.01 11.54 2.3.37 4.22 2.07 4.82 4.45 2.09 8.62 14.53 12.25 22.44 6.38zM257.82 49.79c2.35 2.35 2.35 6.15 0 8.48-2.32 2.35-6.12 2.35-8.48 0l-6.32-6.32c-2.32-2.32-2.32-6.12 0-8.48 2.35-2.32 6.15-2.32 8.48 0zm39.4-11.22c0 3.32-2.69 5.98-6.01 5.98s-5.98-2.66-5.98-5.98v-9.04c0-3.32 2.66-6.01 5.98-6.01s6.01 2.69 6.01 6.01zm35.46 20.12c-2.35 2.35-6.15 2.35-8.48 0-2.35-2.35-2.35-6.15 0-8.48l6.72-6.75a6.06 6.06 0 0 1 8.5 0c2.32 2.35 2.32 6.15 0 8.48zm11.03 38.98c-3.32 0-6.01-2.69-6.01-6.01s2.69-5.98 6.01-5.98h9.67c3.32 0 6.01 2.66 6.01 5.98s-2.69 6.01-6.01 6.01zm-19.59 35.38c-2.35-2.35-2.35-6.15 0-8.48 2.32-2.35 6.12-2.35 8.48 0l6.83 6.8a6.06 6.06 0 0 1 0 8.5 6.06 6.06 0 0 1-8.5 0zm-38.89 11.19c0-3.32 2.66-6.01 5.98-6.01s6.01 2.69 6.01 6.01v9.58c0 3.32-2.69 6.01-6.01 6.01s-5.98-2.69-5.98-6.01zm-35.52-19.55c2.35-2.32 6.15-2.32 8.48 0a6.005 6.005 0 0 1 0 8.5l-6.69 6.69c-2.32 2.32-6.12 2.32-8.48 0a6.06 6.06 0 0 1 0-8.5zM238.6 85.68c3.32 0 6.01 2.66 6.01 5.98s-2.69 6.01-6.01 6.01h-9.52c-3.32 0-6.01-2.69-6.01-6.01s2.69-5.98 6.01-5.98zM110.16 73.24c11.25 0 21.86 4.85 29.14 12.47 4.68 4.9 7.71 10.74 8.45 16.47 38.66 5.41 32.4 59.9-5.81 59.9H78.38c-38.38 0-47.14-54.82-5.81-59.92 2.13-16.2 20.1-28.92 37.59-28.92zm5.9 12.64C98 81.97 82.52 97.16 84.53 106.49c.79 3.69-2.01 7.23-5.87 7.23-13.49.03-21.63 6.58-21.4 16.87.23 10.26 8.73 19.47 21.12 19.47h63.55c16.13 0 23.36-15.42 18.54-26.28-2.49-5.58-8.45-9.89-18.43-10.06-4.39.14-7.09-3.54-6.29-7.23.85-3.97-1.62-8.82-5.13-12.53-3.59-3.77-8.67-6.81-14.56-8.08zm144.19 126.51c1.73.34 3.43.82 5.07 1.47-1.22-5.87-12.19-8.73-18.45-3.74-1.3 1.05-2.21 2.35-2.49 3.74 5.16-1.98 10.43-2.49 15.87-1.47zm17.18 9.84c16.44 17.77 13.95 49.72-5.75 63.3 8.5-.03 26.02.43 30.02 12.39 2.1-1.19 9.5-5.39 10.66-7.17.99-1.59.74-3.46-.68-4.9-32.4-33.31-17.04-75.91-42.8-86.12 5.16 3.46 8.56 8.87 8.56 15.08v7.42zm-1.33 33.08c-9.75-2.15-15.11-8.48-20.27-15-5.95 6.41-13.97 11.37-22.22 14.94 2.44 21.94 23.39 31.46 36.06 15.99 3.4-4.14 5.72-9.7 6.43-15.93zm-6.75-24.18c-2.21-2.58-4.82-4.56-7.68-5.81.65 4.85-1.05 1.79 2.75 6.6 3.15 3.97 6.26 7.97 10.66 10.23-1.13-4.08-3.06-7.88-5.73-11.02zm-34.47 10.17c2.24-1.22 4.34-2.55 6.26-3.97 3.63-2.64 6.6-5.56 8.73-8.73.2-.62-.23-2.83-.6-3.77-7.24 2.53-12.2 9.39-14.39 16.47zm24.47 49.21c-2.64.4-5.3.45-7.94.14-1.19 3.91-4.65 6.83-8.84 6.83-6.18 0-15.65-1.67-19.33 4.96l-.23.43c9.75-5.81 21.88-3.66 29.51 5.16l3.66 4.25 3.69-4.25c7.94-9.21 20.75-11.14 30.67-4.42v-.31c0-6.77-19.3-5.81-22.31-5.81-4.26 0-7.75-3.01-8.88-6.98zm-21.49-5.13c-18.74-13.07-21.97-42.97-7-61.51.45-.57.94-1.11 1.42-1.64v-7.43c0-6.24 3.43-11.65 8.62-15.14-25.91 10.15-10.43 52.81-42.86 86.14-2.1 2.15-1.45 4.82.94 6.43l12.22 7.34 1.45-2.72h.03c6.13-11.7 17.7-11.75 25.18-11.47zm-17.23 33.11c-.94-2.21-1.79-4.39-2.44-6.52l-14.8 27.92a6.018 6.018 0 0 1-4.48 3.12l.03.03-22.05 3.2c-1.28.4-2.49 3.06.2 4.73.79.48 2.07-.09 2.89-.2l25.26-4.31 1.13-1.11zm69.9 1.5c-1.56 4.03-3.4 8.11-5.22 12.13v18c1.81 1.19 3.57 2.41 5.22 3.69zm-124.87 20.92c1.25-1.98 2.95-3.71 5.05-4.93l-10.89-11.48c-1.28-1.33-18.2-29.11-21.15-33.56-.11-.17-.26-.37-.37-.57-1.36-2.55-11.34-6.46-15.08-7.4l-17.63 41.19c-.17.85.26 26.84-.06 29.14l22.96.37v-42.83c0-5.9 7.74-8.25 11-3.29l16.04 24.43zm-86.14-94.33v8.7c0 9.13 7.68 21.46 17.57 21.46s17.57-12.33 17.57-21.46v-16.44c-2.1-.77-4.28-1.19-6.49-.91-7.17.96-14.06.54-19.84-2.15-2.21 4.28-5.27 7.99-8.81 10.8zm12.33-22.54c3.8 2.61 9.44 2.75 14.71 2.04 6.41-.85 11.88.96 16.3 3.29-2.81-7.03-4.9-11.23-9.92-14.91-6.24-4.56-16.47-7.23-23.39-5.56 2.16 5.08 2.78 10.24 2.3 15.14zm-.37 64.01 8.19 19.53 9.41-22.05c-5.41 3-11.51 3.99-17.6 2.52zm2.12 36.08-17.4-41.58c-3.49.23-8.22.77-12.61 1.9-4.48 1.13-8.36 2.61-8.36 4.34h-.03l.26 60.29c0 2.58 1.56 4.45 3.94 4.88.94.17 3.34.2 5.47-.03.51-.2 2.1-1.84 2.1-3.29v-41.81c0-3.32 2.69-6.01 6.01-6.01s5.98 2.69 5.98 6.01c0 5.64.23 41.5-.17 44.05l14.85.23z" fill="#b996f2" opacity="1" data-original="#000000" class=""></path></g></svg>