<svg xmlns="http://www.w3.org/2000/svg" version="1.1" xmlns:xlink="http://www.w3.org/1999/xlink" width="512" height="512" x="0" y="0" viewBox="0 0 96 96" style="enable-background:new 0 0 512 512" xml:space="preserve" class=""><g><path d="M72.718 8.431H22.369C14.311 8.431 8 14.692 8 22.685V51.3c0 8.003 6.311 14.273 14.369 14.273h6.202a2.286 2.286 0 0 0 0-4.572h-6.202c-5.494 0-9.798-4.261-9.798-9.702V22.685c0-5.43 4.304-9.683 9.798-9.683h50.348c5.806 0 10.711 4.434 10.711 9.683v6.317a2.286 2.286 0 0 0 4.572 0v-6.317c0-7.726-6.999-14.254-15.282-14.254z" fill="#b996f2" opacity="1" data-original="#000000"></path><path d="m44.737 50.089 11.925-9.297c1.294-.962 2.067-2.472 2.067-4.04 0-1.422-.647-2.72-1.757-3.544l-12.277-9.344c-.827-.615-1.762-.94-2.704-.94-2.398 0-4.277 2.083-4.277 4.74V46.32c0 2.657 1.878 4.74 4.277 4.74.942 0 1.877-.325 2.746-.971zm-2.451-22.314 11.871 8.971c.007.058-.048.25-.263.41l-11.607 9.037V27.775zM78.959 65.808c4.602 0 8.346-3.744 8.346-8.347s-3.744-8.347-8.346-8.347-8.346 3.744-8.346 8.347c0 .442.064.867.131 1.291l-12.129 7.314-13.718-8.271a2.285 2.285 0 1 0-2.361 3.914l11.653 7.027-11.653 7.027a2.286 2.286 0 1 0 2.362 3.914l13.718-8.271 12.054 7.268c-.012.185-.056.362-.056.549 0 4.603 3.744 8.347 8.346 8.347s8.346-3.744 8.346-8.347c0-4.602-3.744-8.346-8.346-8.346-2.752 0-5.178 1.356-6.699 3.417l-9.218-5.558 9.652-5.82c1.529 1.756 3.756 2.892 6.264 2.892zm0-12.123c2.081 0 3.775 1.694 3.775 3.776s-1.693 3.776-3.775 3.776c-2.081 0-3.775-1.694-3.775-3.776s1.693-3.776 3.775-3.776zm0 21.763c2.081 0 3.775 1.693 3.775 3.775s-1.693 3.776-3.775 3.776c-2.081 0-3.775-1.694-3.775-3.776s1.693-3.775 3.775-3.775z" fill="#b996f2" opacity="1" data-original="#000000"></path></g></svg>