<svg xmlns="http://www.w3.org/2000/svg" version="1.1" xmlns:xlink="http://www.w3.org/1999/xlink" width="512" height="512" x="0" y="0" viewBox="0 0 490.667 490.667" style="enable-background:new 0 0 512 512" xml:space="preserve" class=""><g><path d="M458.667 21.333H32c-17.643 0-32 14.357-32 32V352c0 17.643 14.357 32 32 32h160v21.333h-5.632c-33.493 0-63.595 18.603-78.592 48.555a10.625 10.625 0 0 0 .469 10.368c1.941 3.136 5.397 5.077 9.088 5.077h256c3.691 0 7.125-1.92 9.067-5.056a10.625 10.625 0 0 0 .469-10.368c-14.976-29.973-45.099-48.576-78.571-48.576h-5.632V384h160c17.643 0 32-14.357 32-32V53.333c.001-17.642-14.357-32-31.999-32zM304.299 426.667c18.965 0 36.48 7.872 48.875 21.333h-215.68c12.395-13.461 29.909-21.333 48.875-21.333h117.93zm-90.966-21.334V384h64v21.333h-64zm256-53.333c0 5.867-4.779 10.667-10.667 10.667H32c-5.888 0-10.667-4.8-10.667-10.667V53.333c0-5.867 4.779-10.667 10.667-10.667h426.667c5.888 0 10.667 4.8 10.667 10.667V352z" fill="#b996f2" opacity="1" data-original="#000000" class=""></path><path d="M288 149.333c5.888 0 10.667-4.779 10.667-10.667S293.888 128 288 128h-85.333c-5.888 0-10.667 4.779-10.667 10.667v128c0 5.888 4.779 10.667 10.667 10.667H288c5.888 0 10.667-4.779 10.667-10.667S293.888 256 288 256h-74.667v-42.667h53.333c5.888 0 10.667-4.779 10.667-10.667S272.555 192 266.667 192h-53.333v-42.667H288zM160 256H85.333V138.667c0-5.888-4.779-10.667-10.667-10.667S64 132.779 64 138.667v128c0 5.888 4.779 10.667 10.667 10.667H160c5.888 0 10.667-4.779 10.667-10.667S165.888 256 160 256zM352 128h-21.333c-5.888 0-10.667 4.779-10.667 10.667v128c0 5.888 4.779 10.667 10.667 10.667H352c41.173 0 74.667-33.493 74.667-74.667S393.173 128 352 128zm0 128h-10.667V149.333H352c29.397 0 53.333 23.915 53.333 53.333S381.397 256 352 256z" fill="#b996f2" opacity="1" data-original="#000000" class=""></path></g></svg>