<svg xmlns="http://www.w3.org/2000/svg" version="1.1" xmlns:xlink="http://www.w3.org/1999/xlink" width="512" height="512" x="0" y="0" viewBox="0 0 512 512" style="enable-background:new 0 0 512 512" xml:space="preserve" class=""><g><path d="m491.943 240.428-40.024-16.652a13.055 13.055 0 0 1-6.692-6.324l-25.213-51.786c-3.576-7.384-11.202-12.157-19.421-12.157h-59.417V74.754c0-9.768-7.947-17.717-17.717-17.717H23.722c-9.77 0-17.719 7.949-17.719 17.717v257.733c0 9.768 7.949 17.717 17.719 17.717h39.654c-.556 19.141 8.74 35.892 23.126 45.967H30.433a4.902 4.902 0 0 0 0 9.804h87.066c30.109 0 55.026-24.798 54.127-55.771h188.188c-.015.526-.079 1.038-.079 1.568 0 18.36 9.197 34.59 23.204 44.4H330.29c-2.709 0-4.902 2.195-4.902 4.902s2.192 4.902 4.902 4.902h83.648c29.89 0 54.203-24.316 54.203-54.203 0-.529-.064-1.042-.079-1.568h20.041c9.866 0 17.894-8.028 17.894-17.894v-70.822c0-9.256-5.519-17.524-14.054-21.061zM117.499 396.171c-24.483 0-44.4-19.916-44.4-44.4 0-24.483 19.916-44.4 44.4-44.4s44.402 19.916 44.402 44.4-19.918 44.4-44.402 44.4zm0-98.603c-25.986 0-47.739 18.389-52.982 42.832H23.722c-4.363 0-7.915-3.55-7.915-7.913V74.754c0-4.363 3.552-7.913 7.915-7.913h299.737c4.361 0 7.913 3.55 7.913 7.913V340.4H170.483c-5.242-24.443-26.996-42.832-52.984-42.832zm296.439 98.603c-24.481 0-44.4-19.916-44.4-44.4 0-24.483 19.919-44.4 44.4-44.4s44.4 19.916 44.4 44.4-19.919 44.4-44.4 44.4zm74.166-55.771H466.92c-5.242-24.443-26.994-42.832-52.982-42.832s-47.74 18.389-52.982 42.832h-19.781V163.314h59.417c4.485 0 8.645 2.602 10.598 6.637l25.228 51.805c2.456 5.012 6.62 8.945 11.733 11.072l40.034 16.654a12.952 12.952 0 0 1 8.009 12.006v3.681h-7.913c-12.714 0-23.059 10.342-23.059 23.057 0 12.714 10.345 23.057 23.059 23.057h7.913v21.027c0 4.461-3.629 8.09-8.09 8.09zm8.09-38.921h-7.913c-7.31 0-13.255-5.945-13.255-13.253 0-7.307 5.945-13.253 13.255-13.253h7.913z" fill="#b996f2" opacity="1" data-original="#000000" class=""></path><path d="M406.868 185.98a11.632 11.632 0 0 0-10.464-6.625h-34.467c-6.381 0-11.575 5.194-11.575 11.577v56.324c0 6.386 5.194 11.58 11.575 11.58h61.102c3.988 0 7.645-2.013 9.78-5.385s2.389-7.54.685-11.142zm17.669 62.227a1.728 1.728 0 0 1-1.498.826h-61.102a1.775 1.775 0 0 1-1.771-1.776v-56.324c0-.979.795-1.774 1.771-1.774h34.467c.685 0 1.312.4 1.604 1.015l26.635 56.327a1.746 1.746 0 0 1-.106 1.706zM377.571 266.831h-19.225c-2.709 0-4.902 2.195-4.902 4.902s2.192 4.902 4.902 4.902h19.225c2.709 0 4.902-2.195 4.902-4.902s-2.192-4.902-4.902-4.902zM191.667 194.642h-11.359l10.746-10.744c1.915-1.912 1.915-5.017 0-6.932s-5.017-1.915-6.932 0l-17.678 17.676h-37.112l26.242-26.242h25c2.709 0 4.902-2.195 4.902-4.902s-2.192-4.902-4.902-4.902h-15.196l8.03-8.03c1.915-1.915 1.915-5.017 0-6.932s-5.017-1.915-6.932 0l-8.03 8.03v-15.196a4.902 4.902 0 0 0-9.804 0v25L122.4 187.71v-37.113l17.678-17.676c1.915-1.915 1.915-5.017 0-6.932s-5.017-1.915-6.932 0l-10.747 10.745v-11.356a4.902 4.902 0 0 0-9.804 0v11.355l-10.744-10.744c-1.915-1.915-5.017-1.915-6.932 0s-1.915 5.017 0 6.932l17.676 17.676v37.111l-26.24-26.24v-25a4.902 4.902 0 0 0-9.804 0v15.196l-8.03-8.03c-1.915-1.915-5.017-1.915-6.932 0s-1.915 5.017 0 6.932l8.03 8.03H54.426a4.902 4.902 0 0 0 0 9.804h25l26.242 26.242H68.554l-17.678-17.676c-1.915-1.915-5.017-1.915-6.932 0s-1.915 5.019 0 6.932l10.746 10.744H43.334a4.902 4.902 0 0 0 0 9.804H54.69L43.944 215.19c-1.915 1.912-1.915 5.017 0 6.932s5.017 1.915 6.932 0l17.678-17.676h37.112l-26.24 26.24h-25a4.902 4.902 0 0 0 0 9.804h15.196l-8.03 8.03c-1.915 1.915-1.915 5.017 0 6.932s5.017 1.915 6.932 0l8.03-8.03v15.196a4.902 4.902 0 0 0 9.804 0v-25l26.24-26.24v37.112l-17.676 17.678a4.9 4.9 0 0 0 3.466 8.368 4.89 4.89 0 0 0 3.466-1.436l10.744-10.746v11.356a4.902 4.902 0 0 0 9.804 0v-11.357l10.747 10.747c1.915 1.915 5.017 1.915 6.932 0s1.915-5.017 0-6.932l-17.678-17.678v-37.114l26.242 26.242v25a4.902 4.902 0 0 0 9.804 0v-15.196l8.03 8.03c1.915 1.915 5.017 1.915 6.932 0s1.915-5.017 0-6.932l-8.03-8.03h15.196c2.709 0 4.902-2.195 4.902-4.902s-2.192-4.902-4.902-4.902h-25l-26.24-26.24h37.109l17.678 17.676c1.915 1.915 5.017 1.915 6.932 0s1.915-5.019 0-6.932l-10.746-10.744h11.359a4.901 4.901 0 1 0-.002-9.804zM413.938 323.277c-15.711 0-28.497 12.784-28.497 28.495s12.786 28.495 28.497 28.495 28.492-12.784 28.492-28.495c.001-15.711-12.781-28.495-28.492-28.495zm0 47.186c-10.306 0-18.693-8.384-18.693-18.691s8.387-18.691 18.693-18.691 18.689 8.384 18.689 18.691-8.382 18.691-18.689 18.691zM117.499 323.277c-15.711 0-28.492 12.784-28.492 28.495s12.781 28.495 28.492 28.495 28.495-12.784 28.495-28.495-12.784-28.495-28.495-28.495zm0 47.186c-10.304 0-18.689-8.384-18.689-18.691s8.384-18.691 18.689-18.691c10.306 0 18.691 8.384 18.691 18.691s-8.384 18.691-18.691 18.691zM286.455 225.282v-92.988c0-14.632-11.905-26.534-26.534-26.534s-26.534 11.903-26.534 26.534v92.988c-12.757 8.717-20.575 23.377-20.575 38.921 0 25.96 21.135 47.08 47.109 47.08 25.979 0 47.114-21.12 47.114-47.08-.001-15.544-7.818-30.207-20.58-38.921zm-26.534 76.197c-20.57 0-37.305-16.721-37.305-37.277 0-13.059 6.97-25.333 18.186-32.032a4.904 4.904 0 0 0 2.389-4.208v-95.669c0-9.225 7.506-16.731 16.731-16.731s16.731 7.506 16.731 16.731v95.669c0 1.726.91 3.325 2.389 4.208 11.221 6.699 18.191 18.973 18.191 32.032-.002 20.556-16.738 37.277-37.312 37.277z" fill="#b996f2" opacity="1" data-original="#000000" class=""></path><path d="M264.822 239.564v-92.538a4.9 4.9 0 0 0-4.902-4.902 4.901 4.901 0 0 0-4.902 4.902v92.538c-11.509 2.288-20.216 12.452-20.216 24.624 0 13.854 11.269 25.122 25.118 25.122 13.854 0 25.122-11.269 25.122-25.122.001-12.173-8.707-22.336-20.22-24.624zm-4.901 39.943c-8.444 0-15.314-6.872-15.314-15.318 0-8.444 6.869-15.316 15.314-15.316s15.318 6.872 15.318 15.316c0 8.446-6.874 15.318-15.318 15.318zM348.801 454.963c2.709 0 4.902-2.195 4.902-4.902s-2.192-4.902-4.902-4.902H97.186a4.902 4.902 0 0 0 0 9.804z" fill="#b996f2" opacity="1" data-original="#000000" class=""></path></g></svg>