<svg xmlns="http://www.w3.org/2000/svg" version="1.1" xmlns:xlink="http://www.w3.org/1999/xlink" width="512" height="512" x="0" y="0" viewBox="0 0 512 512" style="enable-background:new 0 0 512 512" xml:space="preserve" class=""><g><path d="m286.711 83.358 54.75 54.75-25.01 25.011M153.093 326.476l-59.199 59.199c-9.638 9.638-25.264 9.638-34.903 0l-19.847-19.847c-9.638-9.638-9.638-25.264 0-34.903l75.913-75.913" style="stroke-width:15;stroke-linecap:round;stroke-linejoin:round;stroke-miterlimit:10;" fill="none" stroke="#b996f2" stroke-width="15" stroke-linecap="round" stroke-linejoin="round" stroke-miterlimit="10" data-original="#000000" opacity="1"></path><path d="m241.84 128.23 44.871-44.872 54.75 54.75-25.01 25.011" style="stroke-width:15;stroke-linecap:round;stroke-linejoin:round;stroke-miterlimit:10;" fill="none" stroke="#b996f2" stroke-width="15" stroke-linecap="round" stroke-linejoin="round" stroke-miterlimit="10" data-original="#000000" opacity="1"></path><path d="m341.461 138.108-54.75-54.75 22.96-44.852c17.609-34.398 63.635-41.644 90.96-14.319h0c27.325 27.325 20.08 73.352-14.319 90.96l-44.851 22.961zM435.955 438.422c27.369-29.21 44.129-68.482 44.129-111.669 0-7.659-.539-15.192-1.559-22.57M157.128 291.754a163.972 163.972 0 0 0-3.758 34.998c0 43.098 16.691 82.297 43.96 111.488M470.741 272.2c-22.455-63.392-82.926-108.805-154.014-108.805a163.76 163.76 0 0 0-38.275 4.509" style="stroke-width:15;stroke-linecap:round;stroke-linejoin:round;stroke-miterlimit:10;" fill="none" stroke="#b996f2" stroke-width="15" stroke-linecap="round" stroke-linejoin="round" stroke-miterlimit="10" data-original="#000000" opacity="1"></path><path d="M376.418 438.364c39.793-21.326 66.861-63.306 66.861-111.611 0-69.892-56.659-126.551-126.551-126.551a126.92 126.92 0 0 0-28.831 3.299M192.923 300.404a127.063 127.063 0 0 0-2.747 26.349c0 48.213 26.963 90.124 66.631 111.488M256.274 504.5H440.07c22.1 0 40.015-17.915 40.015-40.015v-15.124c0-5.525-4.479-10.004-10.004-10.004H163.374c-5.525 0-10.004 4.479-10.004 10.004v15.124c0 22.1 17.915 40.015 40.015 40.015h30.045" style="stroke-width:15;stroke-linecap:round;stroke-linejoin:round;stroke-miterlimit:10;" fill="none" stroke="#b996f2" stroke-width="15" stroke-linecap="round" stroke-linejoin="round" stroke-miterlimit="10" data-original="#000000" opacity="1"></path><path d="M389.695 469.645H243.76c-5.525 0-10.004-4.479-10.004-10.004v-20.284h165.943v20.284c0 5.526-4.479 10.004-10.004 10.004zM269.588 260.867c10.656-14.91 16.928-33.168 16.928-52.891 0-50.295-40.772-91.066-91.066-91.066-50.295 0-91.066 40.772-91.066 91.066 0 50.294 40.772 91.066 91.066 91.066 18.705 0 36.09-5.643 50.552-15.313" style="stroke-width:15;stroke-linecap:round;stroke-linejoin:round;stroke-miterlimit:10;" fill="none" stroke="#b996f2" stroke-width="15" stroke-linecap="round" stroke-linejoin="round" stroke-miterlimit="10" data-original="#000000" opacity="1"></path><path d="M138.285 210.994c-3.083.845-4.347 4.54-2.408 7.081 7.611 9.97 27.082 30.246 59.573 30.246s51.962-20.276 59.573-30.246c1.939-2.541.675-6.236-2.408-7.081" style="stroke-width:15;stroke-linecap:round;stroke-linejoin:round;stroke-miterlimit:10;" fill="none" stroke="#b996f2" stroke-width="15" stroke-linecap="round" stroke-linejoin="round" stroke-miterlimit="10" data-original="#000000" opacity="1"></path><path d="M195.45 172.841c-24.568-18.489-49.735 16.947-59.279 32.759-1.867 3.093.483 7.041 4.09 6.84 13.325-.744 25.627-3.189 35.218-5.69a79.119 79.119 0 0 1 39.942 0c9.592 2.501 21.894 4.946 35.218 5.69 3.608.201 5.957-3.746 4.09-6.84-9.544-15.812-34.711-51.248-59.279-32.759z" style="stroke-width:15;stroke-linecap:round;stroke-linejoin:round;stroke-miterlimit:10;" fill="none" stroke="#b996f2" stroke-width="15" stroke-linecap="round" stroke-linejoin="round" stroke-miterlimit="10" data-original="#000000" opacity="1"></path></g></svg>