<svg xmlns="http://www.w3.org/2000/svg" version="1.1" xmlns:xlink="http://www.w3.org/1999/xlink" width="512" height="512" x="0" y="0" viewBox="0 0 64 64" style="enable-background:new 0 0 512 512" xml:space="preserve" class=""><g><path d="M32 48.5c-15.513 0-32-3.154-32-9s16.487-9 32-9 32 3.154 32 9-16.487 9-32 9Zm0-16c-18.587 0-30 4.077-30 7s11.413 7 30 7 30-4.077 30-7-11.413-7-30-7ZM32 61.5c-15.513 0-32-3.154-32-9a1 1 0 0 1 2 0c0 2.923 11.413 7 30 7s30-4.077 30-7a1 1 0 0 1 2 0c0 5.846-16.487 9-32 9Z" fill="#b996f2" opacity="1" data-original="#000000" class=""></path><path d="M32 45.5c-16.077 0-26.362-3.098-28.531-5.298a1 1 0 0 1 0-1.404C5.638 36.598 15.923 33.5 32 33.5s26.362 3.098 28.531 5.298a1 1 0 0 1 0 1.404C58.362 42.402 48.077 45.5 32 45.5Zm-26.074-6c3.19 1.683 12.26 4 26.074 4s22.885-2.317 26.074-4c-3.19-1.683-12.26-4-26.074-4s-22.885 2.317-26.074 4ZM1 53.5a1 1 0 0 1-1-1v-13a1 1 0 0 1 2 0v13a1 1 0 0 1-1 1ZM63 53.5a1 1 0 0 1-1-1v-13a1 1 0 0 1 2 0v13a1 1 0 0 1-1 1ZM63 26.5H28a1 1 0 0 1-1-1v-22a1 1 0 0 1 1-1h35a1 1 0 0 1 0 2H29v20h34a1 1 0 0 1 0 2Z" fill="#b996f2" opacity="1" data-original="#000000" class=""></path><path d="M24 43.5a1 1 0 0 1-1-1v-4a1 1 0 0 1 2 0v4a1 1 0 0 1-1 1Z" fill="#b996f2" opacity="1" data-original="#000000" class=""></path><path d="M26 43.5h-2a1 1 0 0 1 0-2h2a1 1 0 0 1 0 2ZM31 41a1 1 0 0 1-1-1 .5.5 0 0 0-1 0 1 1 0 0 1-2 0 2.5 2.5 0 0 1 5 0 1 1 0 0 1-1 1Z" fill="#b996f2" opacity="1" data-original="#000000" class=""></path><path d="M29.5 43.5A2.502 2.502 0 0 1 27 41a1 1 0 0 1 2 0 .5.5 0 0 0 1 0 1 1 0 0 1 2 0 2.502 2.502 0 0 1-2.5 2.5Z" fill="#b996f2" opacity="1" data-original="#000000" class=""></path><path d="M28 42a1 1 0 0 1-1-1v-1a1 1 0 0 1 2 0v1a1 1 0 0 1-1 1ZM31 42a1 1 0 0 1-1-1v-1a1 1 0 0 1 2 0v1a1 1 0 0 1-1 1ZM34.5 43.5a1 1 0 0 1-.937-.648l-1.5-4a1 1 0 1 1 1.873-.704l1.5 4A1 1 0 0 1 34.5 43.5Z" fill="#b996f2" opacity="1" data-original="#000000" class=""></path><path d="M34.5 43.5a1 1 0 0 1-.937-1.352l1.5-4a1 1 0 1 1 1.873.704l-1.5 4a1 1 0 0 1-.936.648Z" fill="#b996f2" opacity="1" data-original="#000000" class=""></path><path d="M38 43.5a1 1 0 0 1-1-1v-4a1 1 0 0 1 2 0v4a1 1 0 0 1-1 1Z" fill="#b996f2" opacity="1" data-original="#000000" class=""></path><path d="M40 43.5h-2a1 1 0 0 1 0-2h2a1 1 0 0 1 0 2ZM40 39.5h-2a1 1 0 0 1 0-2h2a1 1 0 0 1 0 2ZM39 41.5h-1a1 1 0 0 1 0-2h1a1 1 0 0 1 0 2ZM36 26.5a1 1 0 0 1-1-1v-22a1 1 0 0 1 2 0v22a1 1 0 0 1-1 1ZM27.999 26.5a.996.996 0 0 1-.514-.143l-10-6a1 1 0 1 1 1.03-1.714l10 6a1 1 0 0 1-.516 1.857ZM18.001 10.5a1 1 0 0 1-.516-1.857l10-6a1 1 0 0 1 1.03 1.714l-10 6A.996.996 0 0 1 18 10.5Z" fill="#b996f2" opacity="1" data-original="#000000" class=""></path><path d="M18 20.5a1 1 0 0 1-1-1v-10a1 1 0 0 1 2 0v10a1 1 0 0 1-1 1Z" fill="#b996f2" opacity="1" data-original="#000000" class=""></path><path d="M18 15.5H1a1 1 0 0 1 0-2h17a1 1 0 0 1 0 2ZM17.999 13.5a1 1 0 0 1-.195-1.98l5-1a1 1 0 1 1 .392 1.96l-5 1a1.016 1.016 0 0 1-.197.02Z" fill="#b996f2" opacity="1" data-original="#000000" class=""></path><path d="M23.001 18.5a1.008 1.008 0 0 1-.197-.02l-5-1a1 1 0 0 1 .392-1.96l5 1a1 1 0 0 1-.195 1.98ZM32 10.5a1 1 0 0 1-1-1v-6a1 1 0 0 1 2 0v6a1 1 0 0 1-1 1ZM32 26.5a1 1 0 0 1-1-1v-6a1 1 0 0 1 2 0v6a1 1 0 0 1-1 1ZM41 9.5a6.007 6.007 0 0 1-6-6 1 1 0 0 1 2 0 4.004 4.004 0 0 0 4 4 1 1 0 0 1 0 2Z" fill="#b996f2" opacity="1" data-original="#000000" class=""></path><path d="M63 9.5H41a1 1 0 0 1 0-2h22a1 1 0 0 1 0 2ZM36 26.5a1 1 0 0 1-1-1 6.007 6.007 0 0 1 6-6 1 1 0 0 1 0 2 4.004 4.004 0 0 0-4 4 1 1 0 0 1-1 1Z" fill="#b996f2" opacity="1" data-original="#000000" class=""></path><path d="M63 21.5H41a1 1 0 0 1 0-2h22a1 1 0 0 1 0 2ZM63 15.5H41a1 1 0 0 1 0-2h22a1 1 0 0 1 0 2Z" fill="#b996f2" opacity="1" data-original="#000000" class=""></path></g></svg>