<svg xmlns="http://www.w3.org/2000/svg" version="1.1" xmlns:xlink="http://www.w3.org/1999/xlink" width="512" height="512" x="0" y="0" viewBox="0 0 32 32" style="enable-background:new 0 0 512 512" xml:space="preserve" class=""><g><path d="M16.815 22.732h-1.54a.998.998 0 0 1-.458-.11l-.524-.271a1 1 0 0 1 .458-1.89h2.596a1 1 0 0 1 .454 1.893l-.532.27c-.14.071-.296.108-.454.108zM11.769 22.8a.996.996 0 0 1-.26-.034l-1.408-.38a1 1 0 0 1 .519-1.931l1.408.379a1 1 0 0 1-.259 1.966zM20.328 22.787a1 1 0 0 1-.247-1.969l1.486-.38a1 1 0 0 1 .495 1.938l-1.486.38a.988.988 0 0 1-.248.031z" fill="#b996f2" opacity="1" data-original="#000000" class=""></path><path d="M27.95 8.89c0-.88-1.043-1.147-1.61-.58-.512.512-1.19.69-1.93.69-1.73 0-3.13-1.4-3.14-3.12 0-.2.01-.412.06-.6.254-.962-.789-1.464-1.44-1.16-1.97.92-3.22 2.94-3.22 5.11 0 1 .26 1.95.74 2.79h-4.59c-1.4 0-2.65.86-3.11 2.11l-.94 2.41-.5-.28a.988.988 0 0 0-1.36.37.988.988 0 0 0 .37 1.36l.59.34-.62.59c-.47.45-.74 1.08-.74 1.71v2.04c0 1.16.62 2.18 1.55 2.78v.43c0 1.17.94 2.12 2.11 2.12h.77c1.13 0 2.05-.89 2.11-2h5.99c.06 1.11.98 2 2.11 2h.77c1.16 0 2.11-.95 2.11-2.12v-.45c.92-.6 1.52-1.61 1.52-2.76v-2.03c0-.65-.27-1.28-.76-1.73l-.64-.59.58-.32a1 1 0 0 0 .4-1.35.993.993 0 0 0-1.36-.4l-.52.28-.64-1.66c2.99-.14 5.34-2.917 5.34-5.98zm-16.37 5.94c.18-.48.67-.81 1.24-.81h1.43c.1.43.49.75.96.75h1.67c.46 0 .86-.32.96-.75h1.37c.57 0 1.06.33 1.25.83l1.01 2.6-.5.05c-.26.03-.53.05-.79.07-.2-.18-.48-.28-.77-.25l-.96.1c-1.61.17-3.24.17-4.86 0l-.95-.1c-.29-.03-.57.07-.77.25-.27-.02-.55-.04-.82-.07l-.48-.05 1.01-2.62zm11.85 5.55c.08.07.12.17.12.26v2.03c0 .73-.65 1.33-1.45 1.33h-2.12c-.18-.28-.49-.47-.85-.47h-6.2c-.36 0-.67.19-.85.47H9.96c-.8 0-1.45-.6-1.45-1.33v-2.04c0-.09.05-.19.12-.26l1.05-1 1.16.12a49.782 49.782 0 0 0 10.34 0l1.16-.12 1.09 1.01zm-1.11-7.49a2.928 2.928 0 0 1-1.01-.13c-.35-.29-1.2-.62-1.2-.62-.92-.7-1.44-1.76-1.44-2.91 0-.8.27-1.58.74-2.2a5.129 5.129 0 0 0 5 3.97h.01c.41 0 .8-.04 1.17-.13-.6 1.2-1.844 1.915-3.27 2.02z" fill="#b996f2" opacity="1" data-original="#000000" class=""></path></g></svg>