<svg xmlns="http://www.w3.org/2000/svg" version="1.1" xmlns:xlink="http://www.w3.org/1999/xlink" width="512" height="512" x="0" y="0" viewBox="0 0 64 64" style="enable-background:new 0 0 512 512" xml:space="preserve" class=""><g><path d="M63 58h-4v-2.827c.424-.04.844-.1 1.25-.205a.999.999 0 0 0 .745-1.063l-1.708-17.952c.02-.006.038-.016.058-.023.026-.01.051-.018.076-.03.367-.148.541-.528.579-.9V24h1a1 1 0 0 0 1-1v-4a1.152 1.152 0 0 0-.473-.85l-29-18c-.323-.2-.731-.2-1.054 0l-29 18A1.153 1.153 0 0 0 2 19v4a1 1 0 0 0 1 1h1v11c.038.372.213.751.578.9.026.012.052.02.078.03.02.008.037.017.057.023L3.004 53.905a1 1 0 0 0 .746 1.063c.406.105.826.166 1.25.205V58H1a1 1 0 0 0-1 1v4a1 1 0 0 0 1 1h62a1 1 0 0 0 1-1v-4a1 1 0 0 0-1-1zm-52 0v-4.657c.217-.174.427-.356.627-.556l.08-.08a1 1 0 0 0 .292-.762l-.028-.532.633.126c.26.054.518.081.786.081a3.952 3.952 0 0 0 3.505-2.173c.095-.192.127-.41.09-.62l-2.767-15.698a16.227 16.227 0 0 0 6.21-8.248l.018-.058A5.96 5.96 0 0 0 24 26h1.942a3.641 3.641 0 0 0 2.724.775C29.214 28.086 30.506 29 32 29s2.786-.914 3.334-2.225A3.62 3.62 0 0 0 38.06 26H40a5.96 5.96 0 0 0 3.554-1.177l.02.058a16.229 16.229 0 0 0 6.208 8.248l-2.766 15.698a.995.995 0 0 0 .09.62 3.953 3.953 0 0 0 3.504 2.173c.269 0 .526-.027.776-.08l.644-.127-.028.532a.998.998 0 0 0 .29.762l.081.08c.2.201.411.383.627.557V58H11zm-5.127-4.782a6.825 6.825 0 0 1-.791-.035l1.645-17.285c.818-.087 1.62-.232 2.401-.437l.848 16.136a5.79 5.79 0 0 1-.56.44 6.4 6.4 0 0 1-3.543 1.181zm6.509-18.985 2.57 14.577c-.433.604-1.166.934-1.947.77l-1.143-.228-.765-14.54c.436-.176.867-.366 1.285-.58zM4 22v-2h14c0 .702.128 1.373.35 2zm38-3h2v1c0 2.206-1.794 4-4 4h-.68a3.632 3.632 0 0 0-.652-3c.078-.102.143-.212.209-.32a5.966 5.966 0 0 0 2.513-1.613c.2-.031.4-.067.61-.067zm-1-4c0 1.31-.638 2.486-1.645 3.223A3.566 3.566 0 0 0 38.928 17a3.598 3.598 0 0 0-2.796-1.781A3.965 3.965 0 0 1 39 14h2zm-7.388 1.535a1 1 0 0 0 1.448.837 1.621 1.621 0 0 1 2.135.628c.428.74.198 1.692-.522 2.164a1 1 0 0 0 0 1.673c.72.472.95 1.422.522 2.164a1.59 1.59 0 0 1-.222.291l-.001.002a1.625 1.625 0 0 1-1.911.335.997.997 0 0 0-1.449.837A1.621 1.621 0 0 1 32 27a1.62 1.62 0 0 1-1.612-1.535 1.001 1.001 0 0 0-1.449-.836 1.623 1.623 0 0 1-1.912-.336 1.59 1.59 0 0 1-.223-.293 1.621 1.621 0 0 1 .523-2.163 1 1 0 0 0 0-1.673A1.62 1.62 0 0 1 26.804 18a1.62 1.62 0 0 1 2.135-.628 1.002 1.002 0 0 0 1.45-.837A1.62 1.62 0 0 1 32 15c.856 0 1.564.674 1.612 1.535zm-8.54.465a3.58 3.58 0 0 0-.427 1.222A3.986 3.986 0 0 1 23 15v-1h2c1.11 0 2.13.453 2.87 1.222A3.604 3.604 0 0 0 25.072 17zm-2.461 2.067a5.968 5.968 0 0 0 2.511 1.612c.066.11.132.219.21.321a3.632 3.632 0 0 0-.652 3H24c-2.206 0-4-1.794-4-4v-1h2c.21 0 .41.036.61.067zm34.663 16.83 1.644 17.287c-.224.024-.45.036-.678.036-.037 0-.077.002-.212-.01a6.292 6.292 0 0 1-3.457-1.18 5.81 5.81 0 0 1-.548-.433l.85-16.136c.781.205 1.583.35 2.4.437zm-5.136 13.455-1.154.23c-.72.148-1.504-.17-1.935-.773l2.569-14.576c.418.213.848.403 1.285.58zM55 54.534a7.94 7.94 0 0 0 2 .576V58h-2zm3-21.52c-1.435-1.22-3.452-3.376-4.02-6.21a1 1 0 0 0-1.961.393c.552 2.76 2.185 4.93 3.672 6.41a14.24 14.24 0 0 1-10.221-9.359L45.387 24H58v9.014zM60 22H45.65a5.96 5.96 0 0 0 .35-2h14zM32 2.177 57.493 18H46a1 1 0 0 0-1-1h-2.342A6.012 6.012 0 0 0 43 15v-2a1 1 0 0 0-1-1h-3a5.95 5.95 0 0 0-4.493 2.024C33.855 13.392 32.972 13 32 13s-1.855.392-2.507 1.024A5.95 5.95 0 0 0 25 12h-3a1 1 0 0 0-1 1v2c0 .698.12 1.371.342 2H19a1 1 0 0 0-1 1H6.507zM18.612 24l-.082.248a14.237 14.237 0 0 1-10.222 9.36c1.488-1.482 3.12-3.652 3.672-6.412a1 1 0 0 0-1.96-.392c-.565 2.82-2.584 4.98-4.02 6.205v-9.01h12.612zM7 55.11a8.107 8.107 0 0 0 2-.577V58H7zM62 62H2v-2h60z" fill="#b996f2" opacity="1" data-original="#000000" class=""></path><path d="M36 36c-1.321 0-2.77.446-4 1.215C30.772 36.446 29.322 36 28 36c-3.309 0-6 2.691-6 6 0 7.713 9.384 9.887 9.783 9.976a.984.984 0 0 0 .434 0C32.617 51.887 42 49.713 42 42c0-3.309-2.691-6-6-6zm-4 13.968c-1.305-.351-8-2.43-8-7.968 0-2.206 1.794-4 4-4 1.123 0 2.391.458 3.392 1.224a1 1 0 0 0 1.216 0C33.609 38.458 34.878 38 36 38c2.206 0 4 1.794 4 4 0 5.539-6.695 7.617-8 7.968zM29 21c0 1.654 1.346 3 3 3s3-1.346 3-3-1.346-3-3-3-3 1.346-3 3zm4 0c0 .551-.449 1-1 1s-1-.449-1-1 .449-1 1-1 1 .449 1 1z" fill="#b996f2" opacity="1" data-original="#000000" class=""></path></g></svg>