<svg xmlns="http://www.w3.org/2000/svg" version="1.1" xmlns:xlink="http://www.w3.org/1999/xlink" width="512" height="512" x="0" y="0" viewBox="0 0 512 512" style="enable-background:new 0 0 512 512" xml:space="preserve" class=""><g><path d="M508.377 207.528c-.351-2.283-1.285-8.345-22.211-39.928-2.307-3.482-6.431-5.124-10.491-4.172-4.069.947-7.041 4.236-7.573 8.38-2.961 23.03-4.061 37.305-3.272 42.43 3.322 21.562 6.881 62.893-6.603 97.415-.067.172-.132.343-.202.535l-4.248 11.725-4.255-11.743a25.71 25.71 0 0 0-.186-.492c-13.494-34.548-9.935-75.879-6.613-97.441.791-5.132-.31-19.132-3.274-41.612-.541-4.105-3.493-7.379-7.52-8.337-4.028-.96-8.134.632-10.467 4.052-20.99 30.779-21.932 36.887-22.286 39.187a323.752 323.752 0 0 0-1.2 8.563c-25.222-36.864-63.653-63.2-107.274-73.085l20.107-35.962a7.51 7.51 0 0 0-13.11-7.33l-29.651 53.031a19.064 19.064 0 0 1-4.035 5.012l32.206-88.601h18.566l-1.251 2.238a7.51 7.51 0 0 0 2.89 10.22 7.508 7.508 0 0 0 10.22-2.89l7.926-14.174c2.104-3.763 2.429-8.232.893-12.26s-4.755-7.145-8.831-8.552l-.353-.122h-.001l-40.744-14.06-27.699-9.559-.004-.001-.288-.1a18.285 18.285 0 0 0-11.87 0l-.289.1-.004.001-68.445 23.619h-.001l-.353.122a14.49 14.49 0 0 0-8.83 8.552 14.484 14.484 0 0 0 .894 12.261l.182.325.006.013.243.432 43.437 77.686c-80.445 18.129-138.126 89.74-138.126 172.869 0 97.719 79.5 177.221 177.221 177.221 21.342 0 42.223-3.773 62.065-11.214a7.512 7.512 0 0 0-5.275-14.065c-18.149 6.806-37.255 10.258-56.79 10.258-89.437 0-162.2-72.762-162.2-162.2 0-77.581 54.888-144.2 130.783-159.137l1.865 3.335c4.241 7.585 10.917 13.024 18.795 15.618-35.626 2.759-69.209 19.126-93.433 45.86a7.512 7.512 0 0 0 11.131 10.087c23.809-26.275 57.727-41.345 93.058-41.345 69.246 0 125.582 56.336 125.582 125.583 0 69.246-56.336 125.582-125.582 125.582-69.247 0-125.583-56.336-125.583-125.582 0-20.661 5.148-41.155 14.886-59.267a7.511 7.511 0 0 0-13.23-7.114c-10.911 20.291-16.678 43.245-16.678 66.38 0 77.529 63.075 140.603 140.604 140.603S392.21 393.404 392.21 315.875c0-73.9-57.307-134.667-129.815-140.194 7.864-2.598 14.528-8.033 18.763-15.608l1.867-3.339c48.227 9.521 90.037 40.934 112.778 84.941-1.116 26.623 1.309 57.254 12.388 85.768l4.135 11.412a7.54 7.54 0 0 0-.341 1.358c-7.112 47.068-34.566 88.52-75.326 113.725a7.51 7.51 0 0 0 3.957 13.9 7.471 7.471 0 0 0 3.943-1.124c37.837-23.399 65.17-59.631 77.295-101.56l9.766 26.954v54.033c0 12.016 9.213 21.862 20.975 22.415.36.018.718.025 1.076.025 5.689 0 11.047-2.14 15.185-6.089a22.133 22.133 0 0 0 6.826-15.942v-53.76l23.679-65.346c16.27-41.871 13.886-88.318 9.016-119.916zm-256.698-59.812-28.557-78.561h57.114zm1.254-113.522 5.77 1.991 15.703 17.949H228.95l15.765-18.019 5.567-1.921a4.094 4.094 0 0 1 2.651 0zm-36.808 11.787-7.133 8.153H192.5zm78.24 8.153-7.071-8.082 23.42 8.082zm-59.199 98.609L188.43 69.155h18.709l32.27 88.774a19.04 19.04 0 0 1-4.243-5.186zm250.165 169.335-.063.166-24.158 66.67a7.509 7.509 0 0 0-.449 2.558v55.078a6.953 6.953 0 0 1-2.173 5.074 6.94 6.94 0 0 1-5.186 1.928c-3.673-.172-6.661-3.497-6.661-7.411v-55.352c0-.872-.152-1.738-.449-2.558l-23.91-65.986c-.021-.056-.041-.111-.063-.166-15.097-38.791-12.792-82.46-8.213-112.193.375-1.727 3.471-8.097 12.236-21.631 1.628 14.304 1.945 21.671 1.633 23.694-3.553 23.053-7.306 67.373 7.475 105.219l11.362 31.349a7.51 7.51 0 0 0 14.124 0l11.303-31.194.068-.18c14.772-37.821 11.018-82.141 7.466-105.193-.312-2.027.006-9.539 1.636-24.214 8.737 13.866 11.839 20.361 12.227 22.122 4.591 29.803 6.886 73.449-8.205 112.22z" fill="#b996f2" opacity="1" data-original="#000000" class=""></path><path d="M126.324 163.165a12.746 12.746 0 0 0 1.931-1.552l34.268-33.562c4.368-4.278 5.087-10.844 1.749-15.967-3.34-5.122-9.637-7.114-15.314-4.845l-44.542 17.81c-.775.31-1.52.697-2.196 1.139l-61.003 39.579a32.91 32.91 0 0 0-2.091-.521c-8.47-1.787-17.137-.164-24.395 4.564-7.256 4.73-12.236 12.002-14.022 20.478-1.787 8.476-.165 17.139 4.564 24.395 4.73 7.256 12.002 12.236 20.478 14.022 2.247.474 4.507.708 6.753.708 6.218 0 12.31-1.797 17.642-5.272 7.256-4.73 12.236-12.002 14.022-20.478.013-.064.022-.128.035-.191zm-16.113-24.256 33.388-13.35-25.686 25.156-54.847 35.586a32.767 32.767 0 0 0-7.424-11.989zm-60.742 61.657a17.294 17.294 0 0 1-7.527 10.991 17.291 17.291 0 0 1-13.095 2.451 17.294 17.294 0 0 1-10.991-7.527 17.293 17.293 0 0 1-2.451-13.094 17.294 17.294 0 0 1 7.527-10.992 17.28 17.28 0 0 1 9.469-2.83c1.205 0 2.418.125 3.625.379a17.294 17.294 0 0 1 10.991 7.527 17.293 17.293 0 0 1 2.452 13.095z" fill="#b996f2" opacity="1" data-original="#000000" class=""></path></g></svg>