<svg xmlns="http://www.w3.org/2000/svg" version="1.1" xmlns:xlink="http://www.w3.org/1999/xlink" width="512" height="512" x="0" y="0" viewBox="0 0 75 75" style="enable-background:new 0 0 512 512" xml:space="preserve" class=""><g><path d="M63.07 17.21c1.78 0 3.227-1.866 3.227-4.159S64.85 8.893 63.07 8.893c-1.778 0-3.225 1.865-3.225 4.158s1.447 4.159 3.225 4.159zm0-6.817c.904 0 1.727 1.267 1.727 2.658s-.823 2.659-1.726 2.659c-.814 0-1.725-1.137-1.725-2.659s.91-2.658 1.725-2.658zM63.071 23.908c-1.778 0-3.224 1.865-3.224 4.158s1.446 4.159 3.224 4.159c1.78 0 3.226-1.866 3.226-4.159s-1.447-4.158-3.226-4.158zm0 6.817c-.814 0-1.724-1.137-1.724-2.659s.91-2.658 1.724-2.658c.904 0 1.726 1.267 1.726 2.658 0 1.392-.822 2.659-1.726 2.659z" fill="#b996f2" opacity="1" data-original="#000000"></path><path d="M65.746 20.572c2.636-1.201 4.504-4.117 4.504-7.52 0-4.824-3.806-8.813-8.312-8.001L11.917 4.94H11.904c-3.945 0-7.154 3.626-7.154 8.084 0 3.301 1.763 6.143 4.28 7.396-2.565 1.27-4.279 4.151-4.279 7.4 0 4.457 3.209 8.083 7.154 8.083a.75.75 0 0 0 0-1.5c-3.118 0-5.654-2.953-5.654-6.584 0-3.02 1.756-5.646 4.27-6.384a.74.74 0 0 0 .46-.403c.024.003.048.009.071.012.26.113.098.04 4.093.071-1.028 1.696-.989 4.088-.977 4.419v33.083a.75.75 0 0 0 1.5 0V25.508c-.032-.922.19-3.676 1.542-4.388l35.37.078c-.866.942-1.684 2.426-1.684 4.69-.01 38.569 0 37.797 0 37.793-.108 2.322-.775 4.622-3.08 4.69-2.503.294-4.424-1.23-3.876-5.337a.75.75 0 0 0-.74-.85l-28.09-.138a.75.75 0 0 0-.73.575c-.034.144-.824 3.55.886 5.724.885 1.127 2.24 1.701 4.027 1.707 5.39.018 20.247.001 20.354.001l-.002-1.5c.001.001-14.608.019-20.347-.001-2.984-.01-3.945-2.044-3.557-5.004l26.626.133c-.37 5.508 4.264 6.945 5.572 6.181 3.541-.08 4.643-3.94 4.457-7.419V25.888c0-3.344 2.2-4.49 2.637-4.685l4.257.01c-2.035 1.433-3.396 3.977-3.396 6.88 0 2.758 1.226 5.195 3.092 6.662l-4.3-.01a.75.75 0 0 0-.001 1.5c7.895-.025 7.312.106 7.66-.081 4.299.491 7.905-3.354 7.905-8.07 0-3.404-1.868-6.32-4.504-7.522zm3.004-7.52c0 3.645-2.548 6.61-5.679 6.61s-5.678-2.965-5.678-6.61c0-3.647 2.547-6.612 5.678-6.612s5.679 2.965 5.679 6.611zm-62.5-.028c0-3.63 2.537-6.584 5.654-6.584l.006-.002.005.002 46.89.104c-3.968 3.33-3.853 9.999.18 13.168l-47.08-.105c-3.118 0-5.655-2.953-5.655-6.583zm56.822 21.682c-3.131 0-5.678-2.966-5.678-6.612s2.547-6.611 5.678-6.611 5.678 2.965 5.678 6.61c0 3.647-2.547 6.613-5.678 6.613z" fill="#b996f2" opacity="1" data-original="#000000"></path><path d="M47.044 51.473a.75.75 0 0 0 .75-.75V29.596a.75.75 0 0 0-.75-.75h-27.51a.75.75 0 0 0-.75.75v21.127c0 .414.337.75.75.75zm-26.76-21.127h26.01v19.627h-26.01z" fill="#b996f2" opacity="1" data-original="#000000"></path><path d="M38.215 39.104a.75.75 0 0 0-1.204-.064l-2.417 2.925-4.872-7.313a.75.75 0 0 0-1.3.09l-5.736 11.854a.75.75 0 0 0 .675 1.077h19.124a.75.75 0 0 0 .625-1.164zm-13.658 7.069 4.645-9.597 4.703 7.06a.753.753 0 0 0 1.202.062l2.415-2.922 3.568 5.397zM40.564 32.647a3.04 3.04 0 0 0-3.036 3.036 3.04 3.04 0 0 0 3.036 3.037 3.04 3.04 0 0 0 3.038-3.037 3.04 3.04 0 0 0-3.038-3.036zm0 4.573c-.847 0-1.536-.69-1.536-1.537s.69-1.536 1.536-1.536c.848 0 1.538.69 1.538 1.536 0 .848-.69 1.537-1.538 1.537zM55.377 45.04a.75.75 0 0 0 .74.76l4.363.061a.75.75 0 0 0 .01-1.5l-4.352-.06c-.395-.017-.755.326-.76.74zM54.798 49.544c3.86 2.27 3.748 2.345 4.119 2.345.755 0 1.039-1.002.386-1.393l-3.734-2.239a.749.749 0 1 0-.771 1.287zM58.713 38.214l-3.785 2.15a.75.75 0 0 0 .37 1.403c.357 0 .209-.046 4.157-2.248a.75.75 0 0 0-.742-1.305zM39.265 11.532a.75.75 0 0 0-.75-.75H8.283a.75.75 0 0 0 0 1.5h30.232a.75.75 0 0 0 .75-.75z" fill="#b996f2" opacity="1" data-original="#000000"></path></g></svg>