<svg xmlns="http://www.w3.org/2000/svg" version="1.1" xmlns:xlink="http://www.w3.org/1999/xlink" width="512" height="512" x="0" y="0" viewBox="0 0 24 24" style="enable-background:new 0 0 512 512" xml:space="preserve" class=""><g><path fill="#b996f2" fill-rule="evenodd" d="M17.293 3.293a1 1 0 0 1 1.414 0l3 3a1 1 0 0 1 0 1.414l-3 3a1 1 0 0 1-1.414-1.414L18.586 8H7a3 3 0 0 0-3 3 1 1 0 1 1-2 0 5 5 0 0 1 5-5h11.586l-1.293-1.293a1 1 0 0 1 0-1.414zm-10.586 10a1 1 0 0 1 0 1.414L5.414 16H17a3 3 0 0 0 3-3 1 1 0 1 1 2 0 5 5 0 0 1-5 5H5.414l1.293 1.293a1 1 0 1 1-1.414 1.414l-3-3a1 1 0 0 1 0-1.414l3-3a1 1 0 0 1 1.414 0z" clip-rule="evenodd" opacity="1" data-original="#000000"></path></g></svg>