<svg xmlns="http://www.w3.org/2000/svg" version="1.1" xmlns:xlink="http://www.w3.org/1999/xlink" width="512" height="512" x="0" y="0" viewBox="0 0 512 512" style="enable-background:new 0 0 512 512" xml:space="preserve" class=""><g><path d="M465 308.269c-20.456 11.81-71.426 36.654-109.394 51.018 1.68-7.155.562-14.707-3.386-21.35-5.505-9.265-15.175-14.565-25.914-14.216-46.937-.022-78.619-13.165-104.081-23.728-24.268-10.067-45.226-18.76-69.964-12.773-25.058 6.065-51.761 26.894-86.266 67.354-8.812-4.365-19.803-2.903-27.132 4.426L6.051 391.813a7 7 0 0 0 0 9.899l101.432 101.432a7.003 7.003 0 0 0 9.9 0l32.812-32.813c4.437-4.438 6.881-10.354 6.881-16.661 0-3.057-.579-6.02-1.675-8.769 21.085-8.922 44.566-9.698 74.606-7.901 6.71.401 13.752.969 21.207 1.569 17.675 1.423 35.951 2.894 53.606 2.505 37.047-.818 59.354-11.229 89.159-27.018 30.4-16.104 95.223-54.545 107.309-70.433 8.462-11.125 8.962-23.956 1.273-32.686-7.077-8.036-21.436-11.978-37.56-2.67zM140.294 460.432l-27.863 27.863-91.532-91.532L48.761 368.9c3.729-3.728 9.796-3.728 13.524 0l78.009 78.009c1.793 1.793 2.78 4.194 2.78 6.762s-.988 4.969-2.781 6.762zm349.85-125.283c-8.558 11.249-63.191 45.598-102.72 66.538-28.035 14.851-48.952 24.642-82.915 25.393-16.938.373-34.849-1.068-52.173-2.464-7.529-.606-14.64-1.179-21.495-1.589-26.504-1.586-56.824-2.143-84.181 10.449l-69.924-69.924c68.499-80.327 94.114-69.713 140.125-50.627 26.631 11.047 59.775 24.796 109.567 24.796.088 0 .176-.002.264-.005 5.584-.212 10.623 2.545 13.492 7.373s2.878 10.575.025 15.375c-5.14 8.65-23.616 13.146-49.431 12.016-24.124-1.052-48.418-6.823-57.97-11.794a7.001 7.001 0 0 0-6.463 12.419c12.854 6.689 39.695 12.309 63.822 13.362 2.699.118 5.487.186 8.329.186 12.858 0 26.729-1.412 37.637-6.024 38.241-10.781 109.576-45.056 135.865-60.234 9.215-5.321 16.855-3.833 20.054-.201 3.181 3.611 2.467 9.203-1.91 14.958zM189.232 134.323h91.518c9.925 0 18-8.075 18-18V24.805c0-9.925-8.075-18-18-18h-91.518c-9.925 0-18 8.075-18 18v91.518c0 9.925 8.075 18 18 18zm36.456-113.518h18.606v22.681h-18.606zm-40.456 4c0-2.206 1.794-4 4-4h22.456v29.681a7 7 0 0 0 7 7h32.606a7 7 0 0 0 7-7V20.805h22.456c2.206 0 4 1.794 4 4v91.518c0 2.206-1.794 4-4 4h-91.518c-2.206 0-4-1.794-4-4zm143.5 109.518h91.518c9.925 0 18-8.075 18-18V24.805c0-9.925-8.075-18-18-18h-91.518c-9.925 0-18 8.075-18 18v91.518c0 9.925 8.075 18 18 18zm36.456-113.518h18.606v22.681h-18.606zm-40.456 4c0-2.206 1.794-4 4-4h22.456v29.681a7 7 0 0 0 7 7h32.606a7 7 0 0 0 7-7V20.805h22.456c2.206 0 4 1.794 4 4v91.518c0 2.206-1.794 4-4 4h-91.518c-2.206 0-4-1.794-4-4zm-65.75 120.748c-9.925 0-18 8.075-18 18v91.518c0 9.925 8.075 18 18 18h91.519c9.925 0 18-8.075 18-18v-91.518c0-9.925-8.075-18-18-18zm36.457 14h18.606v22.681h-18.606zm59.062 4v91.518c0 2.206-1.794 4-4 4h-91.519c-2.206 0-4-1.794-4-4v-91.518c0-2.206 1.794-4 4-4h22.457v29.681a7 7 0 0 0 7 7h32.606a7 7 0 0 0 7-7v-29.681h22.456c2.206 0 4 1.794 4 4zm135.5-18h-91.519c-9.925 0-18 8.075-18 18v91.518c0 9.925 8.075 18 18 18h91.519c9.925 0 18-8.075 18-18v-91.518c0-9.925-8.075-18-18-18zm-55.062 14h18.606v22.681h-18.606zm59.062 95.518c0 2.206-1.794 4-4 4h-91.519c-2.206 0-4-1.794-4-4v-91.518c0-2.206 1.794-4 4-4h22.457v29.681a7 7 0 0 0 7 7h32.606a7 7 0 0 0 7-7v-29.681h22.456c2.206 0 4 1.794 4 4zm-374.518 18h91.519c9.925 0 18-8.075 18-18v-91.518c0-9.925-8.075-18-18-18h-91.519c-9.925 0-18 8.075-18 18v91.518c0 9.925 8.075 18 18 18zm36.457-113.518h18.606v22.681H155.94zm-40.456 4c0-2.206 1.794-4 4-4h22.457v29.681a7 7 0 0 0 7 7h32.606a7 7 0 0 0 7-7v-29.681h22.456c2.206 0 4 1.794 4 4v91.518c0 2.206-1.794 4-4 4h-91.519c-2.206 0-4-1.794-4-4z" fill="#b996f2" opacity="1" data-original="#000000" class=""></path></g></svg>