<svg xmlns="http://www.w3.org/2000/svg" version="1.1" xmlns:xlink="http://www.w3.org/1999/xlink" width="512" height="512" x="0" y="0" viewBox="0 0 500 500" style="enable-background:new 0 0 512 512" xml:space="preserve" class=""><g><path fill-rule="evenodd" d="M410.187 243.161c-4.839 0-8.794-3.955-8.794-8.819 0-4.85 3.954-8.804 8.794-8.804 4.891 0 8.846 3.954 8.846 8.804 0 4.865-3.955 8.819-8.846 8.819zm-52.449 20.392c-4.839 0-8.845-3.949-8.845-8.809s4.006-8.819 8.845-8.819 8.794 3.96 8.794 8.819c-.001 4.86-3.955 8.809-8.794 8.809zm75.136-106.772-.521-2.472c0-1.142-3.502-5.758-8.689-3.949l-54.01 19.778c-2.465 1.204-3.499 3.5-3.747 6.093v57.564c-14.765-5.755-30.647 5.179-30.647 20.948 0 12.4 10.094 22.489 22.478 22.489s22.479-10.089 22.479-22.489c0-1.816-.208-3.585-.625-5.271v-68.455l39.597-14.46v47.168c-14.872-6.426-31.48 4.445-31.48 20.616 0 12.405 10.095 22.499 22.479 22.499 12.436 0 22.478-10.095 22.478-22.499 0-.573 0-1.145-.052-1.722a6.45 6.45 0 0 0 .26-1.738zm-338.632 86.38c-5.412 0-9.834-4.423-9.834-9.855 0-5.437 4.423-9.866 9.834-9.866 5.463 0 9.886 4.428 9.886 9.866 0 5.433-4.423 9.855-9.886 9.855zm50.732-65.634-30.127-22.536c-4.458-3.365-10.927-.079-10.927 5.479v51.388c-15.509-7.02-33.197 4.36-33.197 21.448 0 12.972 10.563 23.535 23.519 23.535 13.008 0 23.519-10.563 23.519-23.535 0-.942-.052-1.873-.156-2.784v-56.399l19.2 14.351c3.018 2.264 7.285 1.644 9.574-1.374a6.872 6.872 0 0 0-1.405-9.573zm148.867 92.718c-12.696 13.607-29.867 21.24-45.061 27.968-5.748 2.55-12.688 5.648-18.16 8.664l-3.746-12.868c13.803-7.552 25.947-18.515 38.712-28.743 5.33-4.271 1.561-13.097-5.307-12.082-29.555 4.35-49.692 1.343-59.786-8.934-.729-.765-1.457-1.597-2.082-2.472a1092.646 1092.646 0 0 1-3.278-5.656c-2.758-6.593-3.59-15.043-2.393-25.293 31.543-6.815 60.012-.392 86.427 16.812 11.551 7.524 22.374 15.667 23.467 24.284.625 5.233-2.341 11.399-8.793 18.32zM260.852 413.58c15.298-40.768 28.826-86.926 19.148-115.451-10.264 5.972-18.043 9.035-27.734 13.508a270.105 270.105 0 0 0 8.534 7.831 6.794 6.794 0 0 1 1.041 9.126c-8.273 11.588-8.326 22.104-8.326 35.419 0 9.272 0 19.523-2.706 31.631zm-30.596 3.403c-.052-1.779.468-5.224 11.551-5.973l1.717-.338 10.979 19.59-1.561 4.657c-2.502 7.069-5.36 21.139-9.054 24.357-1.093.957-2.862 1.925-6.66 2.414zM140.083 91.844c-7.076-7.987-13.737-15.537-19.356-20.881a6.844 6.844 0 0 0-6.452-1.66c-6.504 1.717-10.042 1.27-11.135.369-.832-.702-1.197-2.893-.936-5.729a6.993 6.993 0 0 0-1.977-5.427c-5.307-5.307-10.094-8.887-13.58-11.499-2.55-1.92-5.464-4.095-5.828-5.13-.052-.094-.208-.687.312-2.466 36.839 11.556 75.136 38.026 113.901 78.768l.833 1.124c1.873 2.784 3.538 7.935-5.047 17.015-13.773-2.479-36.538-28.397-50.735-44.484zm104.014-22.895c9.938 0 18.055 8.086 18.055 18.035 0 9.944-8.117 18.03-18.055 18.03-.26 0-.52-.026-.781-.047a65.892 65.892 0 0 0-6.348-1.431c-6.4-2.773-10.875-9.147-10.875-16.552.001-9.949 8.066-18.035 18.004-18.035zm45.685 71.801c4.204 3.726 10.772 1.094 11.395-4.386 2.746-24.136 18.615-25.286 28.202-43.567 1.457-2.753.833-6.119-1.457-8.211-4.426-4.049-1.644-15.414 3.903-17.03 14.036-4.089 15.365 11.443 9.366 19.018a6.848 6.848 0 0 0-1.405 3.413c-3.174 24.987-15.246 50.108-33.301 69.241-14.153 3.054-28.098 2.758-38.921-.677 3.65-9.486 5.242-19.075 3.85-26.984 7.233 1.503 13.113 4.484 18.368 9.183zm-94.284 20.865c.832 10.771 1.665 22.624.052 34.758 15.974-2.737 31.636-2.425 46.882.905-.156-15.568 1.873-20.418 5.984-28.873 1.925-3.913 4.267-8.788 7.128-16.932 5.694-16.119 2.881-26.565-12.228-32.151-.78-.281-1.561-.541-2.289-.786a31.252 31.252 0 0 1-7.753-1.759c-8.013-1.176-16.443-.604-23.051 1.613 2.081 7.498.676 17.764-12.02 29.888a6.764 6.764 0 0 1-3.382 1.754c.105 3.684.417 7.566.677 11.583zm28.463 118.287c5.255-3.19 10.355-6.946 15.662-11.146-9.73.239-18.212-.557-25.549-2.378 3.226 4.658 6.504 9.174 9.887 13.524zm-6.036 35.809c.052-.021.052-.026.052-.047.26-.229.52-.463.781-.692l-4.423-15.084-2.498.182c-8.07-.214-12.664.868-13.893 2.165-1.509 1.55-1.145 7.285-.729 13.341.208 3.179.468 6.79.521 10.766l-.312 25.897c9.21-1.14 11.291-5.167 13.372-13.914 1.828-7.494 2.327-11.207 5.412-20.007zm68.683-99.539c-9.886-6.457-20.085-11.473-30.439-15.048-.572-17.99 1.262-20.008 6.088-29.924 14.989 5.041 33.308 4.732 49.327.9a7.16 7.16 0 0 0 3.33-1.878c20.397-20.948 34.238-48.823 38.192-76.744 6.452-9.392 6.973-22.114.989-30.975-5.515-8.226-15.298-11.244-26.12-8.07-13.696 4.009-20.116 23.14-12.956 35.663-7.475 10.417-19.738 15.831-25.288 33.858-9.158-5.198-18.368-6.676-25.652-7.097-.937-1.056-2.029-2.061-3.174-3.008 8.95-5.614 14.934-15.558 14.934-26.865 0-17.488-14.257-31.714-31.74-31.714-24.434 0-39.679 26.625-27.318 47.756-4.995.619-9.73 1.806-13.945 3.548C161 63.158 119.374 35.554 79.048 24.549a6.814 6.814 0 0 0-7.909 3.549c-11.265 22.54 3.338 24.911 17.275 38.073.156 7.477 3.226 11.687 5.932 13.966 4.579 3.84 10.979 4.927 19.565 3.283 19.596 19.879 44.21 53.849 67.123 63.97.104 4.886.468 9.938.832 15.22.937 12.982 1.925 26.381-1.301 39.493-.887 2.424-.605 1.768-.989 4.173-1.977 13.716-1.041 25.325 2.758 34.701 1.411 3.571 2.734 5.463 4.683 8.486 7.753 13.196 16.026 25.559 24.664 36.933-9.097-.151-19.263.679-24.664 7.524-4.579 5.807-4.058 13.612-3.434 22.556.973 13.994-.019 28.833.208 43.068.052 3.731 3.122 6.717 6.816 6.717 32.731 0 31.478-19.691 36.475-37.204l1.353-4.386c.677-.557 1.405-1.108 2.133-1.665v-.01c2.498-1.805 5.359-3.491 8.534-5.141a237.85 237.85 0 0 0 8.273 7.951c-7.493 13.149-7.545 25.356-7.545 38.198 0 9.538 0 19.356-2.914 31.033a28.247 28.247 0 0 1-.781 2.862c-1.54.251-7.388 1.657-7.388 1.977l-1.561.692c-7.879 3.627-11.157 10.661-10.511 18.149l8.013 51.185c.52 3.335 3.382 5.791 6.712 5.791 4.744 0 8.458-.399 12.956-1.561 12.384-3.622 15.194-13.253 18.732-25.543 1.816-6.276 3.557-12.011 5.932-18.092 19.46-49.806 36.996-104.873 22.686-140.11 4.267-3.174 8.325-6.738 12.124-10.807 9.47-10.157 13.529-19.741 12.332-29.305-1.768-14.893-16.181-25.403-29.554-34.103z" clip-rule="evenodd" fill="#b996f2" opacity="1" data-original="#000000"></path></g></svg>