<svg xmlns="http://www.w3.org/2000/svg" version="1.1" xmlns:xlink="http://www.w3.org/1999/xlink" width="512" height="512" x="0" y="0" viewBox="0 0 512 512" style="enable-background:new 0 0 512 512" xml:space="preserve" class=""><g><path d="M481.005 434.003a7.999 7.999 0 0 1-7.334 8.614l-50.409 4.045a7.999 7.999 0 0 1-8.613-8.615l4.044-50.408a8 8 0 1 1 15.948 1.279l-2.274 28.354C472.803 373.112 495 316.093 495 256c0-48.985-14.728-96.077-42.591-136.185a8 8 0 1 1 13.141-9.129C495.283 153.486 511 203.735 511 256c0 64.54-23.999 125.754-67.686 173.001l29.078-2.333c4.409-.359 8.26 2.932 8.613 7.335zM17 256c0-60.094 22.197-117.111 62.634-161.272l-2.275 28.354a7.999 7.999 0 1 0 15.947 1.279l4.044-50.408a8.002 8.002 0 0 0-2.317-6.297 8.038 8.038 0 0 0-6.296-2.317l-50.409 4.045a8 8 0 0 0-7.334 8.614c.354 4.404 4.218 7.694 8.614 7.335L68.687 83C25 130.246 1 191.459 1 256c0 52.266 15.717 102.515 45.451 145.315a7.99 7.99 0 0 0 6.577 3.437 8.002 8.002 0 0 0 6.564-12.566C31.728 352.079 17 304.986 17 256zM119.814 59.592C159.922 31.728 207.014 17 256 17c60.093 0 117.111 22.198 161.273 62.634l-28.354-2.275c-4.405-.357-8.261 2.931-8.614 7.335a7.999 7.999 0 0 0 7.334 8.614l50.408 4.044a7.999 7.999 0 0 0 8.613-8.615l-4.045-50.408a8 8 0 1 0-15.948 1.279L429 68.686C381.753 25 320.54 1 256 1c-52.265 0-102.514 15.717-145.314 45.451a8.001 8.001 0 0 0 9.128 13.141zm272.371 392.817C352.079 480.272 304.986 495 256 495c-60.094 0-117.112-22.198-161.273-62.633l28.355 2.275c4.399.362 8.261-2.931 8.614-7.335a7.999 7.999 0 0 0-7.334-8.614l-50.408-4.044a7.998 7.998 0 0 0-8.613 8.614l4.045 50.408A8 8 0 0 0 78 481.006a8 8 0 0 0 7.334-8.614l-2.333-29.077C130.246 487.001 191.46 511 256 511c52.266 0 102.514-15.717 145.314-45.45a8 8 0 0 0-9.129-13.141zm27.31-196.408c0 90.151-73.344 163.495-163.495 163.495S92.504 346.152 92.504 256.001 165.848 92.506 256 92.506s163.495 73.344 163.495 163.495zm-16 0c0-81.329-66.166-147.495-147.495-147.495s-147.495 66.166-147.495 147.495S174.67 403.496 256 403.496s147.495-66.166 147.495-147.495zm-53.047 78.3a8 8 0 0 1-8 8H169.551a8 8 0 0 1-8-8c0-40.836 26.052-75.698 62.408-88.849-13.728-9.953-22.682-26.107-22.682-44.322 0-30.174 24.548-54.723 54.723-54.723s54.723 24.549 54.723 54.723c0 18.215-8.954 34.369-22.682 44.322 36.355 13.151 62.407 48.013 62.407 88.849zm-94.474-94.448h.052c21.34-.014 38.698-17.379 38.698-38.723 0-21.352-17.371-38.723-38.723-38.723s-38.723 17.371-38.723 38.723c-.001 21.344 17.357 38.709 38.696 38.723zm78.069 86.448c-4.02-39.505-37.477-70.438-78.024-70.448h-.04c-40.547.01-74.004 30.942-78.024 70.448z" fill="#b996f2" opacity="1" data-original="#000000" class=""></path></g></svg>