<svg xmlns="http://www.w3.org/2000/svg" version="1.1" xmlns:xlink="http://www.w3.org/1999/xlink" width="512" height="512" x="0" y="0" viewBox="0 0 64 64" style="enable-background:new 0 0 512 512" xml:space="preserve" class=""><g><path d="M5.21 58.96C6.61 60.23 8.35 61 10.22 61h43.56c1.92 0 3.73-.75 5.1-2.12S61 55.7 61 53.78V30.54c0-.28-.12-.54-.32-.73l-6.9-6.43v-8.81c0-1.11-.45-2.2-1.24-2.99l-7.33-7.31a4.184 4.184 0 0 0-2.97-1.23l-27.75-.03c-1.13 0-2.2.44-3 1.24s-1.25 1.87-1.25 3.01v16.12l-6.9 6.43c-.2.19-.32.45-.32.73v23.24s-.14 3.05 2.21 5.18zm52.85-2.22L43.69 44.06l15.3-11.52v21.24c0 1.07-.33 2.1-.94 2.96zm.38-26.29-4.67 3.51V26.1zm-8.09-18.23h-5.8V6.44zM12.88 5.66c.42-.42.99-.66 1.59-.66l27.75.03c.11 0 .22.02.33.03v8.16c0 .55.45 1 1 1h8.19c.02.11.03.22.03.34v20.91l-9.61 7.24-3.28-2.9c.17-.62.27-1.26.27-1.94 0-2.62-1.96-4.82-4.29-4.82-1.07 0-2.09.43-2.86 1.17a4.092 4.092 0 0 0-2.86-1.17c-2.32 0-4.29 2.21-4.29 4.82 0 .74.12 1.44.32 2.11l-3.21 2.82-9.74-7.33V7.25c0-.6.23-1.17.66-1.59zm13.97 32.22c0-1.48 1.09-2.82 2.29-2.82.81 0 1.57.49 1.97 1.29.34.67 1.44.66 1.78 0 .41-.79 1.16-1.29 1.97-1.29 1.2 0 2.29 1.35 2.29 2.82 0 3.56-3.78 6.38-5.15 7.28-1.38-.9-5.15-3.71-5.15-7.28zM6.01 56.82A5.143 5.143 0 0 1 5 53.77V32.53l15.43 11.62zm4.22-22.86-4.67-3.51 4.67-4.35zm43.56 25.03H10.22c-.98 0-1.93-.28-2.76-.8L26.01 41.9c1.85 3.2 5.29 5.19 5.49 5.3.15.09.32.13.49.13s.34-.04.49-.13c.2-.11 3.75-2.16 5.58-5.44l18.56 16.38c-.84.56-1.83.85-2.85.85zM27.97 28.43V18.31c0-.55.45-1 1-1s1 .45 1 1v4.06h4.02v-4.06c0-.55.45-1 1-1s1 .45 1 1v10.12c0 .55-.45 1-1 1s-1-.45-1-1v-4.06h-4.02v4.06c0 .55-.45 1-1 1s-1-.45-1-1zm-10.7-10.12c0-.55.45-1 1-1h6.02c.55 0 1 .45 1 1s-.45 1-1 1h-2.01v9.12c0 .55-.45 1-1 1s-1-.45-1-1v-9.12h-2.01c-.55 0-1-.45-1-1zm21.47 9.6 2.76-4.54-2.76-4.54a.992.992 0 0 1 .33-1.37.992.992 0 0 1 1.37.33l2.22 3.66 2.22-3.66c.29-.47.9-.62 1.37-.33s.62.9.33 1.37l-2.76 4.54 2.76 4.54c.29.47.14 1.09-.33 1.37a.98.98 0 0 1-.52.15c-.34 0-.67-.17-.86-.48l-2.22-3.66-2.22 3.66c-.19.31-.52.48-.86.48a.98.98 0 0 1-.52-.15.994.994 0 0 1-.33-1.37z" fill="#b996f2" opacity="1" data-original="#000000"></path></g></svg>