<svg xmlns="http://www.w3.org/2000/svg" version="1.1" xmlns:xlink="http://www.w3.org/1999/xlink" width="512" height="512" x="0" y="0" viewBox="0 0 512.001 512.001" style="enable-background:new 0 0 512 512" xml:space="preserve" class=""><g><path d="M295.761 229.028c-6.041-6.044-14.076-9.372-22.622-9.372-6.165 0-12.061 1.731-17.138 4.964-5.077-3.233-10.975-4.964-17.139-4.964-8.546 0-16.58 3.328-22.621 9.371-6.044 6.042-9.373 14.077-9.373 22.623 0 8.546 3.328 16.581 9.372 22.624l34.277 34.274a7.732 7.732 0 0 0 5.485 2.272 7.737 7.737 0 0 0 5.486-2.272l34.273-34.275c12.473-12.475 12.473-32.772 0-45.245zm-10.973 34.275L256 292.092l-28.79-28.79a16.372 16.372 0 0 1-4.828-11.653 16.378 16.378 0 0 1 4.83-11.652 16.363 16.363 0 0 1 11.65-4.826c4.402 0 8.541 1.714 11.654 4.827a7.757 7.757 0 0 0 10.971-.001 16.364 16.364 0 0 1 11.651-4.826c4.401 0 8.538 1.714 11.65 4.827 6.424 6.425 6.424 16.88 0 23.305z" fill="#b996f2" opacity="1" data-original="#000000"></path><path d="M504.242 471.144H480.97V316.959l10.275 3.736a7.754 7.754 0 0 0 2.65.469 7.763 7.763 0 0 0 7.292-5.109 7.757 7.757 0 0 0-4.639-9.941l-113.773-41.373a7.758 7.758 0 0 0-5.303 14.58l87.983 31.995v159.827H356.848V239.735l7.711 7.01c.044.041.093.075.138.115a8.538 8.538 0 0 0 .593.467 8.084 8.084 0 0 0 .927.566 8.161 8.161 0 0 0 1.052.448c.104.035.207.071.312.102.134.039.27.072.406.104.103.025.205.051.31.071.155.03.309.05.464.071.09.012.178.027.269.036.247.024.497.038.745.038h.002c.812 0 1.596-.126 2.331-.358.036-.012.071-.027.105-.039.21-.069.418-.144.62-.231.085-.036.166-.081.249-.12.149-.071.299-.14.443-.22.098-.054.193-.117.289-.176.125-.077.252-.153.372-.236.096-.066.188-.139.281-.21a7.58 7.58 0 0 0 .346-.275 9.086 9.086 0 0 0 .587-.559c.037-.04.079-.074.116-.115.039-.043.073-.091.111-.135a8.493 8.493 0 0 0 .481-.612c.077-.108.148-.219.22-.33.067-.106.132-.211.193-.319.063-.11.12-.222.178-.336.056-.113.113-.227.165-.342.051-.114.096-.23.141-.347.046-.119.092-.238.131-.359.039-.118.073-.237.106-.357.034-.125.069-.25.097-.376a7.03 7.03 0 0 0 .069-.357 6.812 6.812 0 0 0 .095-.747 8.84 8.84 0 0 0 .022-.43c.001-.058.008-.114.008-.171v-41.381c0-.058-.007-.113-.008-.17a8.413 8.413 0 0 0-.114-1.161 6.712 6.712 0 0 0-.074-.38c-.026-.118-.058-.234-.09-.351-.035-.127-.07-.254-.111-.378-.038-.116-.082-.229-.126-.343a7.72 7.72 0 0 0-.142-.355 7.302 7.302 0 0 0-.167-.345c-.055-.109-.109-.217-.169-.323a7.792 7.792 0 0 0-.205-.338c-.065-.101-.129-.203-.198-.301-.074-.105-.153-.207-.232-.31a8.768 8.768 0 0 0-.242-.299 8.657 8.657 0 0 0-.542-.569c-.04-.038-.076-.081-.118-.119L263.758 92.758V62.576h12.929a7.758 7.758 0 0 0 0-15.516h-12.929V33.099a7.758 7.758 0 0 0-15.516 0v13.963h-12.929a7.758 7.758 0 0 0 0 15.516h12.929V92.76L137.005 193.884c-.042.038-.078.081-.12.121a7.664 7.664 0 0 0-1.015 1.175c-.07.099-.134.201-.199.303-.07.111-.14.222-.204.336a6.736 6.736 0 0 0-.171.326 6.653 6.653 0 0 0-.164.341c-.053.118-.099.239-.146.36-.042.112-.085.223-.123.336-.042.127-.078.256-.114.385-.031.114-.062.227-.088.342-.029.128-.052.258-.075.388a7.635 7.635 0 0 0-.092.74c-.01.137-.017.273-.02.411-.002.059-.009.116-.009.175v39.308c0 .346.03.684.074 1.018a7.743 7.743 0 0 0 1.943 6.273 7.736 7.736 0 0 0 5.742 2.539c1.862 0 3.73-.666 5.216-2.018l7.712-7.011v231.41H46.544V311.316l87.983-31.995a7.756 7.756 0 0 0 4.639-9.941 7.757 7.757 0 0 0-9.941-4.639L15.452 306.114a7.756 7.756 0 0 0-4.639 9.941 7.751 7.751 0 0 0 9.942 4.64l10.275-3.737v154.186H7.758a7.758 7.758 0 0 0 0 15.516h496.485a7.758 7.758 0 1 0-.001-15.516zM149.98 223.469v-20.413L256 106.673l106.019 96.382v20.413l-100.801-91.637-.015-.012a7.76 7.76 0 0 0-.47-.386c-.046-.036-.091-.077-.137-.112a7.096 7.096 0 0 0-.492-.326c-.053-.033-.103-.072-.157-.104-.141-.083-.288-.155-.433-.229-.083-.042-.164-.09-.248-.13-.099-.046-.202-.082-.303-.123-.133-.056-.266-.115-.402-.163-.038-.013-.078-.022-.116-.034a7.765 7.765 0 0 0-1.335-.32c-.025-.004-.052-.004-.077-.008a7.673 7.673 0 0 0-.66-.063 7.769 7.769 0 0 0-3.436.627c-.067.029-.135.052-.202.082-.102.047-.2.105-.3.157-.128.066-.257.128-.381.202-.061.036-.119.08-.18.118-.159.1-.317.2-.47.313-.05.037-.098.081-.147.12a7.401 7.401 0 0 0-.459.377l-.017.014-100.801 91.638zm98.262 247.675h-25.857v-74.99c0-15.866 11.051-29.189 25.857-32.702v107.692zm41.374 0h-25.858V363.452c14.807 3.512 25.858 16.836 25.858 32.702v74.99zm51.717 0h-36.202v-74.99c0-27.091-22.04-49.13-49.131-49.13-27.09 0-49.13 22.04-49.13 49.13v74.99h-36.202V225.63L256 148.054l85.333 77.576v245.514z" fill="#b996f2" opacity="1" data-original="#000000"></path><path d="M100.851 326.334c-15.686 0-28.445 12.76-28.445 28.444v62.059a7.758 7.758 0 0 0 7.758 7.758h41.373a7.758 7.758 0 0 0 7.758-7.758v-62.059c0-15.684-12.76-28.444-28.444-28.444zm12.928 82.746H87.921v-54.302c0-7.129 5.8-12.929 12.929-12.929 7.129 0 12.929 5.8 12.929 12.929v54.302zM411.151 326.334c-15.684 0-28.444 12.76-28.444 28.444v62.059a7.758 7.758 0 0 0 7.758 7.758h41.372a7.758 7.758 0 0 0 7.758-7.758v-62.059c0-15.684-12.76-28.444-28.444-28.444zm12.928 82.746h-25.858v-54.302c0-7.129 5.8-12.929 12.929-12.929 7.129 0 12.929 5.8 12.929 12.929v54.302z" fill="#b996f2" opacity="1" data-original="#000000"></path></g></svg>