<svg xmlns="http://www.w3.org/2000/svg" version="1.1" xmlns:xlink="http://www.w3.org/1999/xlink" width="512" height="512" x="0" y="0" viewBox="0 0 128 128" style="enable-background:new 0 0 512 512" xml:space="preserve" class=""><g><path d="m122.724 113.557-16.115-91.392a1.749 1.749 0 0 0-1.2-1.365l-23.34-7.383-5.9-7.5A1.748 1.748 0 0 0 74.8 5.25H53.2a1.748 1.748 0 0 0-1.375.668l-5.9 7.5L22.587 20.8a1.749 1.749 0 0 0-1.2 1.365L5.276 113.557a1.751 1.751 0 0 0 1.42 2.027l16.042 2.829a1.751 1.751 0 0 0 2.028-1.42l8.622-48.9a38.12 38.12 0 0 1 .263 9.76l-4.392 42.969A1.75 1.75 0 0 0 31 122.75h21.938A11.831 11.831 0 0 0 64 114.958a11.827 11.827 0 0 0 11.062 7.792H97a1.75 1.75 0 0 0 1.741-1.928l-4.392-42.969a38.12 38.12 0 0 1 .263-9.76l8.622 48.9a1.752 1.752 0 0 0 1.724 1.447 1.735 1.735 0 0 0 .3-.027l16.042-2.829a1.751 1.751 0 0 0 1.424-2.027ZM76.162 33.451a2.056 2.056 0 0 1-.391 1.519 15.686 15.686 0 0 1-6.56-3.713v-5.072a15.684 15.684 0 0 1 6.559-3.713 2.059 2.059 0 0 1 .392 1.517 5.529 5.529 0 0 0 .748 3.658 1.865 1.865 0 0 1 0 2.147 5.527 5.527 0 0 0-.748 3.657ZM51.09 29.794a1.865 1.865 0 0 1 0-2.147 5.529 5.529 0 0 0 .748-3.658 2.05 2.05 0 0 1 .391-1.517 15.7 15.7 0 0 1 6.56 3.713v5.072a15.685 15.685 0 0 1-6.559 3.713 2.066 2.066 0 0 1-.392-1.519 5.527 5.527 0 0 0-.748-3.657Zm14.621-3.008v3.869h-3.422v-3.869Zm-4.783 7.254a2.84 2.84 0 0 0 .764.115h.558v22.75l-6.276-19.6a19.673 19.673 0 0 0 4.954-3.265Zm4.822.115h.558a2.84 2.84 0 0 0 .764-.115 19.673 19.673 0 0 0 4.954 3.266l-6.276 19.6ZM77.728 19.5a4.527 4.527 0 0 0-.643-.463 1.753 1.753 0 0 0-1.222-.187 19.092 19.092 0 0 0-8.791 4.55l-.046-.014 7.966-13.308 4.089 5.195ZM64 21.629 56.291 8.75h15.418Zm-3.026 1.758-.046.014a19.092 19.092 0 0 0-8.791-4.55 1.737 1.737 0 0 0-1.222.187 4.527 4.527 0 0 0-.643.463l-1.353-4.227 4.089-5.195Zm-12.61 1.629a2.343 2.343 0 0 1-.345.954 5.305 5.305 0 0 0 0 5.5 2.17 2.17 0 0 1 .338 1.612 5.448 5.448 0 0 0 2.557 5.318 1.745 1.745 0 0 0 .861.227 1.781 1.781 0 0 0 .362-.038c.184-.039.349-.1.529-.142l7.376 23.035c-12.351-14.5-19.79-35.973-21.713-41.992l7.506-2.374Zm26.97 13.433c.18.044.345.1.529.142a1.781 1.781 0 0 0 .362.038 1.745 1.745 0 0 0 .861-.227 5.448 5.448 0 0 0 2.557-5.318 2.17 2.17 0 0 1 .338-1.612 5.305 5.305 0 0 0 0-5.5 2.343 2.343 0 0 1-.345-.954l2.529-7.9 7.506 2.374c-1.923 6.019-9.362 27.49-21.713 41.992Zm-53.711 76.213-12.6-2.222 14.451-81.934 7.86 29.076ZM61 112.751a8.3 8.3 0 0 1-8.063 6.5h-20l4.194-41.042A41.589 41.589 0 0 0 35.9 63.068L25.242 23.631l9.745-3.082a163.576 163.576 0 0 0 6.631 17.224c6.151 13.653 13.09 24.1 20.632 31.095V107Zm34.061 6.5h-20a8.3 8.3 0 0 1-8.063-6.5L65.75 107V68.868c7.542-6.993 14.481-17.442 20.632-31.095a163.576 163.576 0 0 0 6.631-17.224l9.745 3.082L92.1 63.068a41.589 41.589 0 0 0-1.229 15.14Zm11.315-4.588-9.711-55.08 7.86-29.076 14.447 81.934Z" fill="#b996f2" opacity="1" data-original="#000000" class=""></path><path d="M55.756 88.679H42.369a1.75 1.75 0 0 0 0 3.5h13.387a1.75 1.75 0 0 0 0-3.5ZM85.631 88.679H72.244a1.75 1.75 0 0 0 0 3.5h13.387a1.75 1.75 0 0 0 0-3.5Z" fill="#b996f2" opacity="1" data-original="#000000" class=""></path></g></svg>