<svg xmlns="http://www.w3.org/2000/svg" version="1.1" xmlns:xlink="http://www.w3.org/1999/xlink" width="512" height="512" x="0" y="0" viewBox="0 0 64 64" style="enable-background:new 0 0 512 512" xml:space="preserve" class=""><g><path d="M47 27.059V27a7 7 0 0 0-14 0v8a6 6 0 0 1-11.84 1.354l9.465-7.573A1 1 0 0 0 31 28V2a1 1 0 0 0-1-1H10a1 1 0 0 0-1 1v26a1 1 0 0 0 .375.781l9.788 7.831A8 8 0 0 0 35 35v-8a5 5 0 0 1 10 0v.059a9 9 0 0 0-3 17V57a1 1 0 0 0 .143.515l3 5a1 1 0 0 0 1.714 0l3-5A1 1 0 0 0 50 57v-2a1 1 0 0 0-.293-.707L48.414 53l1.293-1.293a1 1 0 0 0 0-1.414L48.414 49l1.293-1.293A1 1 0 0 0 50 47v-2.94a9 9 0 0 0-3-17Zm-28 .663a2 2 0 1 1 2 0V26h-2ZM11 3h18v24.52l-8 6.4v-4.062a4 4 0 1 0-2 0v4.062l-8-6.4Zm36 31a1 1 0 1 1-1-1 1 1 0 0 1 1 1Zm1.624 8.486a1 1 0 0 0-.624.927v3.173l-1.707 1.707a1 1 0 0 0 0 1.414L47.586 51l-1.293 1.293a1 1 0 0 0 0 1.414L48 55.414v1.309l-2 3.334-2-3.334v-13.31a1 1 0 0 0-.624-.927A6.992 6.992 0 0 1 45 29.08v2.1a3 3 0 1 0 2 0v-2.1a6.992 6.992 0 0 1 1.624 13.406Z" fill="#b996f2" opacity="1" data-original="#000000"></path><path d="M20 19a1 1 0 0 0 .707-.293l4.586-4.586A5.868 5.868 0 0 0 27 10v-.172A5.376 5.376 0 0 0 25.414 6a3.5 3.5 0 0 0-4.828 0L20 6.586 19.414 6a3.5 3.5 0 0 0-4.828 0A5.376 5.376 0 0 0 13 9.828V10a5.868 5.868 0 0 0 1.707 4.121l4.586 4.586A1 1 0 0 0 20 19Zm-5-9v-.172a3.391 3.391 0 0 1 1-2.414 1.415 1.415 0 0 1 2 0l1.293 1.293a1 1 0 0 0 1.414 0L22 7.414a1.451 1.451 0 0 1 2 0 3.391 3.391 0 0 1 1 2.414V10a3.853 3.853 0 0 1-1.121 2.707L20 16.586l-3.879-3.879A3.853 3.853 0 0 1 15 10Z" fill="#b996f2" opacity="1" data-original="#000000"></path></g></svg>