<svg xmlns="http://www.w3.org/2000/svg" version="1.1" xmlns:xlink="http://www.w3.org/1999/xlink" width="512" height="512" x="0" y="0" viewBox="0 0 64 64" style="enable-background:new 0 0 512 512" xml:space="preserve" class=""><g><path d="M4.715 20.399v10.18a1 1 0 0 0 1 1h3.493V61a1 1 0 0 0 1 1h43.584a1 1 0 0 0 1-1V31.579h3.493a1 1 0 0 0 1-1v-10.18a1 1 0 0 0-1-1H40.299C46.282 16.359 50.4 10.158 50.4 3a1 1 0 0 0-1-1c-8.068 0-14.923 5.227-17.399 12.467C29.524 7.227 22.668 2 14.601 2a1 1 0 0 0-1 1c0 7.158 4.118 13.359 10.101 16.399H5.715a1 1 0 0 0-1 1zM52.792 60H11.208V31.579h41.584zm-27.1-38.601h12.615v8.18H25.692zm31.593 8.18H40.307v-8.18h16.978zM48.367 4.032c-.513 8.222-7.112 14.822-15.335 15.335.513-8.222 7.112-14.822 15.335-15.335zm-32.734 0c8.223.513 14.822 7.113 15.335 15.335-8.223-.513-14.822-7.113-15.335-15.335zM6.715 21.399h16.978v8.18H6.715z" fill="#b996f2" opacity="1" data-original="#000000" class=""></path><path d="M33.355 38.349c-3.509-1.076-7.328-.546-10.218 1.421-2.657 1.809-5.292 5.365-2.756 12.037.114.302.285.578.49.828.011.014.02.029.032.043a3.2 3.2 0 0 0 .938.762c1.592.847 4.969 2.368 8.674 2.368 1.516 0 3.085-.254 4.61-.913 3.644-1.572 6.241-5.11 7.727-10.539l1.83-7.34a1.001 1.001 0 0 0-1.619-1.003c-.045.04-4.658 3.887-9.707 2.336zm7.561 5.502c-1.311 4.791-3.525 7.89-6.583 9.208-4.438 1.915-9.646-.397-11.382-1.296.614-.974 1.677-2.249 3.389-3.092a8.414 8.414 0 0 1 4.146-.826 1 1 0 1 0 .112-1.997 10.38 10.38 0 0 0-5.139 1.028 10.304 10.304 0 0 0-3.611 2.979c-1.115-3.789-.332-6.562 2.416-8.433 1.57-1.069 3.48-1.624 5.438-1.624 1.023 0 2.061.152 3.069.461 3.767 1.155 7.212-.079 9.351-1.239l-1.204 4.829z" fill="#b996f2" opacity="1" data-original="#000000" class=""></path></g></svg>