<svg xmlns="http://www.w3.org/2000/svg" version="1.1" xmlns:xlink="http://www.w3.org/1999/xlink" width="512" height="512" x="0" y="0" viewBox="0 0 64 64" style="enable-background:new 0 0 512 512" xml:space="preserve" class=""><g><path d="M19.5 11.36a6.48 6.48 0 0 0-4.85 2.19L5.33 24.08a1.87 1.87 0 0 0 1.4 3.1h7.63a1 1 0 0 0 .78-.38L26.19 13a1 1 0 0 0-.78-1.62Zm-5.62 13.83H7l9.12-10.32a4.48 4.48 0 0 1 3.35-1.51h3.84ZM34.43 12.53a1 1 0 0 0-.78-.38h-3.3a1 1 0 0 0-.78.38l-10.41 13a1 1 0 0 0 .78 1.62h24.12a1 1 0 0 0 .78-1.62ZM22 25.19l8.81-11h2.34l.08.09L42 25.19ZM37.8 13l11.06 13.81a1 1 0 0 0 .78.38h7.63a1.87 1.87 0 0 0 1.4-3.1l-9.31-10.54a6.48 6.48 0 0 0-4.85-2.19h-5.92A1 1 0 0 0 37.8 13ZM57 25.33Zm-12.49-12a4.48 4.48 0 0 1 3.36 1.51L57 25.19h-6.88l-9.45-11.83ZM43.14 30.22a1 1 0 0 0-.86-.48H21.72a1 1 0 0 0-.88 1.47l10.28 19.38a1 1 0 0 0 1.77 0L43.17 31.2a1 1 0 0 0-.03-.98ZM32 48l-8.62-16.27h17.24Z" fill="#b996f2" opacity="1" data-original="#000000" class=""></path><path d="M6.75 29.73a1.89 1.89 0 0 0-1.64 2.82l15.81 27.88a5.4 5.4 0 0 0 4.68 2.73h12.08a6.62 6.62 0 0 0 5.75-3.35l15.46-27.26a1.89 1.89 0 0 0-1.64-2.82h-9.82a1 1 0 0 0-.87.51L31.87 56.43 17.19 30.24a1 1 0 0 0-.87-.51ZM31 59a1 1 0 0 0 1.74 0L48 31.73h9L41.69 58.82a4.62 4.62 0 0 1-4 2.34H25.61a3.39 3.39 0 0 1-2.94-1.71L6.94 31.73h8.79ZM17.56 4.85a1.1 1.1 0 0 0 .4.75l5.13 4.23a1.14 1.14 0 0 0 1.56-.15 1.11 1.11 0 0 0-.15-1.56l-5.14-4.24a1.1 1.1 0 0 0-.7-.25h-.11a1.11 1.11 0 0 0-1 1.21ZM45.08 3.63a1.1 1.1 0 0 0-.7.25l-5.13 4.23a1.11 1.11 0 0 0-.15 1.56 1.14 1.14 0 0 0 1.56.15l5.13-4.23a1.11 1.11 0 0 0-.71-2ZM33 2a1.11 1.11 0 1 0-2.21 0v7A1.11 1.11 0 0 0 33 9Z" fill="#b996f2" opacity="1" data-original="#000000" class=""></path></g></svg>