<svg xmlns="http://www.w3.org/2000/svg" version="1.1" xmlns:xlink="http://www.w3.org/1999/xlink" width="512" height="512" x="0" y="0" viewBox="0 0 512 512" style="enable-background:new 0 0 512 512" xml:space="preserve" class=""><g><path d="M65.584 467.431a63.796 63.796 0 0 1-19.923-3.184 64.23 64.23 0 0 1-25.216-15.52l-1.641-1.641c-22.305-22.307-25.091-57.061-6.622-82.641l181.06-250.811a63.9 63.9 0 0 1 9.986-10.906l.27-.224 10.795-8.61c26.589-21.225 63.099-37.657 100.167-45.079 27.259-5.448 52.711-5.655 73.608-.599 8.632 2.096 16.458 5.09 23.27 8.902 14.865 7.823 26.3 21.426 31.388 37.344 4.09 12.768 3.996 26.178-.272 38.773l-.002.006c-2.816 8.294-7.241 15.82-13.148 22.37l-118.36 131.234a657.542 657.542 0 0 1-101.89 91.618L103.24 455.232c-11.056 8.026-24.294 12.199-37.653 12.199zm149.105-351.193a46.214 46.214 0 0 0-7.086 7.768L26.545 374.814c-13.351 18.494-11.339 43.619 4.786 59.744l1.641 1.641a46.421 46.421 0 0 0 18.224 11.22c14.073 4.624 29.628 2.195 41.607-6.502l.764-.559 105.08-76.23a639.891 639.891 0 0 0 99.139-89.145l118.361-131.235c4.286-4.751 7.491-10.202 9.529-16.202 3.041-8.975 3.101-18.548.175-27.682-3.694-11.562-12.022-21.44-22.849-27.109l-.229-.125c-5.426-3.049-11.779-5.469-18.879-7.193-18.402-4.452-41.215-4.192-65.96.752-34.386 6.885-68.136 22.032-92.592 41.556l-10.653 8.497z" fill="#b996f2" opacity="1" data-original="#000000" class=""></path><path d="M131.856 467.429a63.828 63.828 0 0 1-19.927-3.183 63.481 63.481 0 0 1-18.475-9.676l-9.537-7.213 114.73-83.231a639.983 639.983 0 0 0 99.139-89.145l118.361-131.235c4.286-4.751 7.491-10.202 9.529-16.202 3.041-8.972 3.102-18.546.175-27.682-3.694-11.562-12.022-21.44-22.849-27.109l-.229-.125c-5.426-3.049-11.779-5.47-18.879-7.193l-40.413-9.809 40.903-7.511c37.462-6.878 70.561-3.68 93.219 9.004 14.864 7.822 26.299 21.425 31.387 37.344 4.104 12.764 4.01 26.177-.274 38.777-2.814 8.292-7.238 15.82-13.147 22.371l-118.36 131.234a657.555 657.555 0 0 1-101.891 91.618l-105.843 76.79c-11.032 8.01-24.262 12.177-37.618 12.177zm-16.709-20.843a46.53 46.53 0 0 0 2.316.832c14.073 4.626 29.628 2.194 41.605-6.502l105.845-76.79a639.903 639.903 0 0 0 99.14-89.145l118.36-131.235c4.286-4.752 7.491-10.202 9.528-16.201v-.005c3.052-8.972 3.114-18.54.179-27.671-3.698-11.57-12.026-21.45-22.851-27.117l-.231-.126c-12.432-6.987-29.646-10.495-49.413-10.292 10.797 8.005 19.005 19.318 23.099 32.128 4.09 12.768 3.996 26.178-.272 38.773-2.819 8.299-7.243 15.826-13.15 22.376l-118.36 131.234a657.588 657.588 0 0 1-101.89 91.618l-93.904 68.124z" fill="#b996f2" opacity="1" data-original="#000000" class=""></path><path d="M214.37 275.64c-9.971.001-19.689-4.05-26.874-11.655-10.56-11.178-13.146-27.388-6.588-41.296l20.047-42.516a37.189 37.189 0 0 1 22.49-19.588 37.184 37.184 0 0 1 29.639 3.297l35.041 20.273c12.371 7.158 19.432 20.46 18.427 34.718-1.004 14.256-9.862 26.438-23.114 31.789l-55.088 22.244a37.277 37.277 0 0 1-13.98 2.735zm20.185-99.047c-1.945 0-3.903.299-5.827.9-5.237 1.637-9.411 5.271-11.751 10.233l-20.047 42.516c-4.158 8.82-.948 16.929 3.442 21.575 4.391 4.648 12.303 8.313 21.345 4.662l55.088-22.244c7.029-2.838 11.543-9.048 12.076-16.609s-3.066-14.342-9.627-18.137l-35.041-20.273c-3.004-1.739-6.309-2.623-9.658-2.623zM392.225 189.979a8.86 8.86 0 0 1-8.754-7.584l-7.054-48.516a34.326 34.326 0 0 0-25.577-28.408l-88.006-22.392a8.858 8.858 0 0 1-6.4-10.769c1.206-4.741 6.028-7.609 10.768-6.4l88.006 22.392c20.491 5.213 35.698 22.102 38.74 43.027l7.054 48.516a8.857 8.857 0 0 1-8.777 10.133z" fill="#b996f2" opacity="1" data-original="#000000" class=""></path></g></svg>