<svg xmlns="http://www.w3.org/2000/svg" version="1.1" xmlns:xlink="http://www.w3.org/1999/xlink" width="512" height="512" x="0" y="0" viewBox="0 0 512 512" style="enable-background:new 0 0 512 512" xml:space="preserve" class=""><g><path d="M512 256c0-68.382-26.628-132.67-74.979-181.021S324.382 0 256 0 123.33 26.628 74.979 74.979 0 187.618 0 256s26.628 132.67 74.979 181.021S187.618 512 256 512c25.856 0 51.334-3.845 75.8-11.419 16.048 7.298 33.863 11.368 52.611 11.368 70.307 0 127.507-57.2 127.507-127.507 0-18.589-4.051-36.412-11.371-52.54C508.142 307.421 512 281.908 512 256zM256 491.961c-63.029 0-122.285-24.544-166.851-69.11S20.039 319.029 20.039 256s24.544-122.285 69.11-166.851S192.971 20.039 256 20.039s122.285 24.544 166.851 69.11c44.566 44.567 69.11 103.822 69.11 166.851 0 17.547-1.92 34.893-5.709 51.806a128.55 128.55 0 0 0-16.603-18.15A218.926 218.926 0 0 0 472.263 256c0-119.248-97.015-216.262-216.262-216.262S39.738 136.752 39.738 256 136.752 472.262 256 472.262c11.3 0 22.588-.883 33.638-2.615a128.512 128.512 0 0 0 18.113 16.616A236.825 236.825 0 0 1 256 491.961zm128.411-.051c-59.258 0-107.469-48.209-107.469-107.468 0-37.3 18.908-71.392 50.58-91.196 4.692-2.933 6.117-9.115 3.183-13.807-2.932-4.691-9.115-6.118-13.807-3.183-37.567 23.489-59.995 63.932-59.995 108.186 0 24.467 6.933 47.343 18.93 66.777A198.798 198.798 0 0 1 256 452.223c-50.748 0-97.058-19.365-131.93-51.094l13.613-13.613c3.913-3.913 3.913-10.257 0-14.17-3.914-3.912-10.256-3.912-14.17 0l-13.556 13.556c-29.299-32.655-47.832-75.149-49.963-121.854h42.009c5.533 0 10.02-4.486 10.02-10.02 0-5.533-4.486-10.02-10.02-10.02H60.091c2.576-46.427 21.358-88.603 50.781-120.94l12.642 12.641c4.086 4.084 10.989 3.797 14.728-.605 3.333-3.923 3.08-9.928-.558-13.566l-12.585-12.585C157.526 80.86 199.657 62.372 245.98 60.03v41c0 5.533 4.486 10.02 10.02 10.02s10.02-4.486 10.02-10.02v-41c46.323 2.341 88.454 20.83 120.883 49.926l-12.585 12.585c-3.637 3.637-3.89 9.643-.558 13.566 3.739 4.401 10.641 4.689 14.728.605l12.641-12.641c31.728 34.872 51.094 81.181 51.094 131.93 0 6.619-.345 13.247-1.005 19.832a126.401 126.401 0 0 0-41.977-16.479c-5.43-1.064-10.699 2.46-11.771 7.888-1.072 5.43 2.46 10.699 7.888 11.771 50.134 9.899 86.521 54.239 86.521 105.43 0 59.258-48.21 107.467-107.468 107.467z" fill="#b996f2" opacity="1" data-original="#000000" class=""></path><path d="M451.928 396.045c.155-25.797.245-54.091-.072-57.895-.638-7.65-5.181-13.872-11.572-15.852-6.316-1.951-13.085.557-18.109 6.72-6.056 7.43-35.959 61.453-41.891 72.207a10.018 10.018 0 0 0 8.773 14.859h42.697c-.054 7.458-.111 14.627-.166 21.047-.046 5.475 4.5 10.083 9.977 10.106 5.444.022 10.014-4.491 10.062-9.933.033-3.873.098-11.645.168-21.219 2.71 0 5.438.214 7.95-1.018 3.402-1.668 5.613-5.213 5.613-9.001s-2.212-7.333-5.613-9.001c-2.477-1.216-5.147-1.02-7.817-1.02zm-20.043 0h-25.811c9.999-17.919 19.851-35.212 25.952-45.418.029 10.678-.037 27.74-.141 45.418z" fill="#b996f2" opacity="1" data-original="#000000" class=""></path><path d="m371.471 427.987-.129.001c-12.219.153-25.246.229-35.263.242 5.953-7.895 14.793-19.858 27.382-37.845 6.601-9.432 10.898-18.312 12.772-26.396.465-1.997.781-4.294.781-6.345 0-20.418-16.611-37.028-37.027-37.028-17.655 0-32.935 12.559-36.334 29.862-1.067 5.43 2.471 10.696 7.901 11.762 5.428 1.069 10.696-2.472 11.762-7.901 1.558-7.929 8.569-13.684 16.67-13.684 9.178 0 16.68 7.317 16.979 16.425l-.363 2.839c-1.361 5.474-4.575 11.855-9.56 18.977-16.743 23.922-26.736 37.006-32.105 44.035-6.566 8.597-9.022 11.814-7.277 17.489 1.012 3.289 3.508 5.813 6.85 6.928 1.354.452 2.834.947 23.034.947 8.015 0 18.98-.078 34.049-.268 5.533-.069 9.962-4.612 9.892-10.145-.067-5.492-4.54-9.895-10.014-9.895zM365.544 278.542c5.44-1.012 9.031-6.242 8.019-11.682s-6.242-9.031-11.682-8.019-9.031 6.242-8.019 11.682c1.011 5.441 6.242 9.031 11.682 8.019zM256 130.998c-5.522 0-10 4.478-10 10V246h-69.667c-5.522 0-10 4.478-10 10s4.478 10 10 10H256c5.522 0 10-4.478 10-10V140.998c0-5.522-4.478-10-10-10z" fill="#b996f2" opacity="1" data-original="#000000" class=""></path></g></svg>