<svg xmlns="http://www.w3.org/2000/svg" version="1.1" xmlns:xlink="http://www.w3.org/1999/xlink" width="512" height="512" x="0" y="0" viewBox="0 0 68 68" style="enable-background:new 0 0 512 512" xml:space="preserve" class=""><g><path d="M61.66 2H24.865a4.345 4.345 0 0 0-4.34 4.34v11.935H8.94a4.345 4.345 0 0 0-4.34 4.34V34.34c-1.163.804-2.836 2.024-2.57 3.308.197.957 1.242 1.383 2.57 1.908V61.66A4.345 4.345 0 0 0 8.94 66h36.794a4.345 4.345 0 0 0 4.34-4.34V49.724H61.66a4.345 4.345 0 0 0 4.34-4.34V6.34A4.345 4.345 0 0 0 61.66 2zm-1.947 6.286v16.825h-9.64v-2.496c0-.525-.108-1.022-.28-1.489l.43.43a2.293 2.293 0 0 0 1.633.68h.002c.617 0 1.197-.24 1.633-.677l3.228-3.228c.9-.9.9-2.364.001-3.266L53.5 11.84a2.313 2.313 0 0 0-3.267-.001l-3.228 3.227c-.9.9-.9 2.366-.001 3.266l.225.225a4.293 4.293 0 0 0-1.496-.282h-1.72V8.286zM15.485 34.888a4.062 4.062 0 0 1-1.199-2.892c0-3.6 4.389-5.488 6.984-2.892a4.062 4.062 0 0 1 1.196 2.888c.003 3.635-4.42 5.457-6.98 2.896zm8.209-1.245c3.384-.92 7.069-2.942 9.123-4.502h15.756v5.68H23.18c.219-.372.388-.766.515-1.178zm11.013-7.32c-.201-.97-1.271-1.393-2.626-1.928-1.236-.49-2.775-1.098-3.894-2.217-.698-.698-1.185-1.555-1.581-2.403h19.127a2.843 2.843 0 0 1 2.84 2.84v5.026H34.38c.253-.376.43-.823.327-1.318zm-3.514-9.709a1.945 1.945 0 0 1 .096-2.836c.77-.675 1.964-.6 2.712.15.1.076.253.35.661.35.408 0 .561-.275.662-.351.754-.754 1.946-.818 2.711-.149.837.734.897 2.034.096 2.836l-1.676 1.661h-3.6zm16.873-.487 3.227-3.228a.809.809 0 0 1 1.146.001l3.22 3.225a.812.812 0 0 1 0 1.145l-3.228 3.228a.803.803 0 0 1-.573.237.803.803 0 0 1-.573-.238l-3.22-3.226a.81.81 0 0 1 0-1.144zm2.007 15.311a3.928 3.928 0 0 1 1.79-.446 4.036 4.036 0 0 1 4.036 4.029 4.04 4.04 0 0 1-4.036 4.036 3.921 3.921 0 0 1-1.79-.448v-7.17zm0 8.808a5.46 5.46 0 0 0 1.79.31 5.542 5.542 0 0 0 5.536-5.535c0-3.048-2.484-5.529-5.536-5.529-.628 0-1.227.116-1.79.31v-3.191h9.64v16.827h-9.64zm-7.56-21.97H38.59l.6-.601a3.445 3.445 0 0 0-.167-5.025c-1.227-1.074-3.054-1.101-4.362-.129-1.309-.972-3.135-.945-4.361.13a3.445 3.445 0 0 0-.168 5.024l.6.6h-3.922V8.286h15.701v9.99zm-15.387 4.962c1.34 1.34 3.038 2.011 4.404 2.551.672.266 1.592.63 1.706.815 0 .001-.024.178-.436.591-1.5 1.499-5.39 3.725-8.836 4.82l.002-.024a5.553 5.553 0 0 0-1.635-3.948 5.532 5.532 0 0 0-3.992-1.636c1.09-3.452 3.318-7.352 4.82-8.853.371-.372.552-.428.553-.442.613.361 1.234 3.946 3.414 6.126zm-7.4-3.463c-1.189 2.01-2.368 4.532-3.007 6.906a5.5 5.5 0 0 0-1.196.53v-7.436zm-10.787 0h5.084v7.866H6.099v-5.026a2.843 2.843 0 0 1 2.84-2.84zm-2.84 9.366h7.493a5.495 5.495 0 0 0-.526 1.187c-.814.223-1.617.488-2.355.778a33.072 33.072 0 0 0-4.612 2.273zm-2.163 7.635c1.127-1.128 4.175-3.035 7.324-4.274.537-.211 1.04-.38 1.529-.53l-.003.024c0 1.492.582 2.896 1.639 3.952 1.786 1.787 4.053 1.656 3.953 1.636l.03-.003c-1.097 3.445-3.332 7.338-4.83 8.837-.372.371-.553.428-.554.441-.23-.134-.59-1.046-.853-1.712-.54-1.365-1.212-3.064-2.55-4.403-2.154-2.153-5.792-2.842-6.122-3.376 0-.002.024-.179.437-.592zM6.099 61.66V40.196c2.746 1.27 3.528 2.6 4.677 5.503.536 1.355.96 2.425 1.93 2.626.098.02.194.03.29.03.382 0 .725-.16 1.027-.363V64.5H8.939a2.843 2.843 0 0 1-2.84-2.84zm9.424 2.84V46.435c1.56-2.055 3.578-5.739 4.497-9.122.413-.127.809-.297 1.182-.517V64.5zm30.21 0h-23.03V36.32h25.87v25.34a2.843 2.843 0 0 1-2.84 2.84zM64.5 45.384a2.843 2.843 0 0 1-2.839 2.84H50.073v-3.287h10.39a.75.75 0 0 0 .75-.75V7.537a.75.75 0 0 0-.75-.75H26.06a.75.75 0 0 0-.75.75v9.26c-.327-.605-.708-1.032-1.28-1.15-.809-.168-1.49.403-1.933.846-.023.023-.05.054-.073.078V6.34a2.843 2.843 0 0 1 2.84-2.84H61.66a2.843 2.843 0 0 1 2.84 2.84v39.044z" fill="#b996f2" opacity="1" data-original="#000000"></path></g></svg>