<svg xmlns="http://www.w3.org/2000/svg" version="1.1" xmlns:xlink="http://www.w3.org/1999/xlink" width="512" height="512" x="0" y="0" viewBox="0 0 100 100" style="enable-background:new 0 0 512 512" xml:space="preserve" class=""><g><path d="m88.653 72.118-.045-.005-9.789.264-7.532-25.548-.604-2.051.814-.068 17.157-1.431.14-.012a1.678 1.678 0 0 0 1.535-1.813c-.078-.926-.887-1.635-1.814-1.535L68.347 41.6c-.504.041-.962.307-1.247.724s-.368.94-.225 1.426l.095.32-4.109.145-11.73-.614a1.645 1.645 0 0 0-.306.019c-1.489-.833-3.136-1.291-4.793-1.291h-.015l-14.52.766a1.662 1.662 0 0 0-.281-.776 1.685 1.685 0 0 0-1.231-.719l-18.486-1.681a1.684 1.684 0 0 0-1.826 1.521 1.68 1.68 0 0 0 1.522 1.826l.152.014 15.155 1.378 1.174.107-.441 1.591-5.611 20.239-.252.907-1.607 5.798-8.418.49-.097.006a1.681 1.681 0 1 0 .195 3.354l9.716-.565a1.68 1.68 0 0 0 1.522-1.228l1.564-5.641 5.813 2.134a5.095 5.095 0 0 0 .541 2.52 5.086 5.086 0 0 0 2.739 2.478 5.095 5.095 0 0 0 .362 3.675 5.106 5.106 0 0 0 2.686 2.453c-.335.991-.35 2.138.273 3.374.998 1.979 2.884 3.124 4.816 3.124.746 0 1.499-.171 2.211-.529l2.447-1.232a5.087 5.087 0 0 0 2.27 2.122 5.109 5.109 0 0 0 6.714-2.226 5.097 5.097 0 0 0 1.966.404c.582 0 1.164-.1 1.728-.302a5.099 5.099 0 0 0 2.792-2.421 5.09 5.09 0 0 0 1.968.405 5.118 5.118 0 0 0 4.521-2.724 5.08 5.08 0 0 0 1.967.405c.581 0 1.164-.1 1.727-.301a5.09 5.09 0 0 0 2.91-2.632 5.094 5.094 0 0 0 .19-3.93l-.936-2.556 1.878.169.13.441a1.679 1.679 0 0 0 1.611 1.204h.046l11.081-.299a1.682 1.682 0 0 0 1.635-1.727c-.025-.91-.759-1.585-1.68-1.627zm-15.301-1.589a1.626 1.626 0 0 0-.7.085c-1.199-2.143-3.804-3.179-6.192-2.325a5.08 5.08 0 0 0-2.255 1.603 5.112 5.112 0 0 0-7.466 1.782 5.09 5.09 0 0 0-3.694-.102 5.13 5.13 0 0 0-3.396 4.796 5.066 5.066 0 0 0-1.884.162 1.685 1.685 0 0 0-1.799-.194l-6.486 3.249c-.073.036-.136.082-.201.128-.069.025-.139.047-.206.081-.42.21-.9.247-1.346.098a1.755 1.755 0 0 1-1.024-.882 1.748 1.748 0 0 1-.101-1.345c.148-.448.461-.811.882-1.024.08-.041.155-.088.226-.139.058-.021.118-.035.175-.063l.206-.103 6.278-3.148.001-.001c.052-.025.095-.06.143-.09.048-.031.101-.058.146-.093.043-.034.077-.074.116-.111.041-.039.086-.075.122-.118.031-.037.054-.079.082-.118.035-.049.074-.097.103-.149.021-.037.034-.077.051-.116.028-.059.058-.117.079-.18.013-.039.017-.079.027-.118.017-.065.036-.129.045-.196.006-.042.002-.085.004-.128.003-.066.01-.131.006-.197-.003-.052-.018-.104-.026-.157-.009-.056-.013-.113-.028-.168-.015-.057-.042-.112-.064-.168-.019-.049-.033-.1-.057-.149l-.001-.001c-.023-.045-.053-.083-.079-.125-.034-.055-.064-.113-.104-.162-.022-.029-.05-.051-.074-.078-.05-.056-.099-.113-.155-.161-.015-.013-.034-.022-.049-.034a1.703 1.703 0 0 0-.218-.152l-.005-.002a1.676 1.676 0 0 0-1.255-.153c-.029.008-.056.023-.085.033-.078.026-.155.051-.23.089l-.003.002-.002.001-4.996 2.505-1.484.744c-.069.035-.13.079-.193.122-.072.025-.145.047-.214.083-.184.092-.38.144-.578.169a1.746 1.746 0 0 1-.768-.069 1.753 1.753 0 0 1-.739-.484 1.802 1.802 0 0 1-.285-.398 1.76 1.76 0 0 1-.101-1.346c.019-.057.047-.108.071-.162.164-.372.443-.676.811-.862.073-.037.138-.084.204-.13.065-.023.132-.039.195-.07l.325-.163.937-.47 3.911-1.96 1.312-.657a1.68 1.68 0 0 0 .881-1.882 1.629 1.629 0 0 0-.13-.374 1.672 1.672 0 0 0-1.028-.854 1.677 1.677 0 0 0-1.226.103l-6.485 3.249c-.071.036-.134.081-.198.125-.071.025-.142.047-.211.081-.451.228-.96.251-1.431.069a1.752 1.752 0 0 1-1.015-1.02c-.315-.818.149-1.844 1.031-2.288l15.033-7.569.43.383 1.253 1.12 1.253 1.12 4.824 4.311a5.108 5.108 0 0 0 3.59 1.466 5.114 5.114 0 0 0 3.657-1.531c1.954-1.989 1.598-5.294.098-7.062l-3.391-4.488-2.191-2.9-.034-.045-1.434-1.909 8.286.429 5.119-.177 6.858 23.265zm-8.18 10.796a1.763 1.763 0 0 1-3.256-.163l-.422-1.182-.569-1.594-.57-1.596-.756-2.117v-.002a1.752 1.752 0 0 1 .067-1.348 1.76 1.76 0 0 1 1.593-1.01c.724 0 1.406.449 1.663 1.17l.265.743.344.964.57 1.595.569 1.594.569 1.593a1.76 1.76 0 0 1-.067 1.353zm-7.49 3.223c-.441.16-.921.135-1.349-.067a1.751 1.751 0 0 1-.906-1.003l-.134-.376-.57-1.595-.57-1.595-1.043-2.922a1.766 1.766 0 0 1 1.068-2.255 1.772 1.772 0 0 1 2.255 1.067l.897 2.511.57 1.596.569 1.594.281.788a1.768 1.768 0 0 1-1.068 2.257zm-6.489 2.317c-.445.16-.922.133-1.348-.067a1.727 1.727 0 0 1-.692-.603 1.945 1.945 0 0 1-.232-.444l-.431-1.104-.614-1.573-.405-1.037a1.75 1.75 0 0 1 .074-1.329 1.752 1.752 0 0 1 1.001-.907c.916-.323 1.928.152 2.273 1.114l.221.566.614 1.572.607 1.555.005.019a1.766 1.766 0 0 1-1.073 2.238zm-11.53-2.027c-.534-1.058.899-2.017 1.054-2.117.029-.018.052-.042.08-.061.064-.023.129-.038.191-.069l3.045-1.525a5.081 5.081 0 0 0 .299 2.166l.531 1.361-2.685 1.352c-1.021.509-2.041-.166-2.515-1.107zm29.647-4.994a1.761 1.761 0 0 1-.91-1.01l-.706-1.976-.569-1.594-.57-1.595-.118-.331a1.763 1.763 0 0 1 1.154-1.884 1.767 1.767 0 0 1 2.039.666c.088.127.167.263.221.416l.42 1.145.581 1.588.876 2.391c.158.443.135.922-.068 1.347a1.764 1.764 0 0 1-2.35.837zM25.147 66.468l5.347-19.283.165-.596.024-.085 15.424-.816h.003c1.609 0 3.294.735 4.64 2.019l1.677 2.219 1.03 1.363 1.03 1.363.906 1.199 1.021 1.351 2.556 3.382c.495.585.799 1.923.128 2.606-.682.694-1.801.704-2.553-.03l-4.11-3.673-1.319-1.18-1.32-1.18-.081-.073-1.347-1.205-1.346-1.203-.212-.189a1.68 1.68 0 0 0-1.12-.428h-.016l-8.267.075a1.668 1.668 0 0 0-1.2.523 1.68 1.68 0 0 0 1.215 2.838h.016l4.057-.037-11.552 5.817c-2.239 1.13-3.401 3.656-2.826 5.946zm30.741-43.139a1.682 1.682 0 0 1 2.515 1.459v1.008h8.403a1.68 1.68 0 0 1 0 3.361H56.721a1.68 1.68 0 0 1-1.668-1.479l-6.707 3.832 6.707 3.832c.1-.832.808-1.479 1.668-1.479h10.084a1.68 1.68 0 0 1 0 3.362h-8.403v1.008c0 .599-.32 1.152-.837 1.454a1.682 1.682 0 0 1-1.678.004l-11.762-6.722a1.68 1.68 0 0 1 0-2.918zm-10.946-1.431 6.706-3.832-6.706-3.832a1.625 1.625 0 0 1-.47.991 1.66 1.66 0 0 1-1.194.487H33.195c-.925 0-1.68-.756-1.68-1.68s.756-1.681 1.68-1.681h8.403v-1.008c0-.606.319-1.161.84-1.446a1.71 1.71 0 0 1 1.68-.016l11.764 6.723c.521.302.84.856.84 1.462a1.69 1.69 0 0 1-.84 1.462L44.118 26.25c-.252.135-.554.218-.84.218s-.588-.084-.84-.236a1.639 1.639 0 0 1-.84-1.444v-1.009h-8.403c-.925 0-1.68-.755-1.68-1.68 0-.924.756-1.681 1.68-1.681h10.083c.437 0 .874.185 1.194.487.251.269.436.622.47.993zm33.628 1.21v1.68a1.68 1.68 0 1 1-3.361 0v-1.68a1.68 1.68 0 1 1 3.361 0zm-3.361-6.723v-1.681a1.68 1.68 0 1 1 3.361 0v1.681a1.68 1.68 0 0 1-3.361 0zm3.361 3.362a1.68 1.68 0 0 1 1.68-1.681h1.681a1.68 1.68 0 0 1 0 3.361H80.25a1.68 1.68 0 0 1-1.68-1.68zm-8.403 0a1.68 1.68 0 0 1 1.681-1.681h1.68a1.68 1.68 0 1 1 0 3.361h-1.68a1.68 1.68 0 0 1-1.681-1.68zM26.472 31.51v1.681a1.68 1.68 0 1 1-3.361 0V31.51a1.68 1.68 0 1 1 3.361 0zm-3.361-6.722v-1.68a1.68 1.68 0 1 1 3.361 0v1.68a1.68 1.68 0 1 1-3.361 0zm3.361 3.361c0-.928.752-1.68 1.681-1.68h1.68a1.68 1.68 0 1 1 0 3.361h-1.68a1.68 1.68 0 0 1-1.681-1.681zm-8.402 0c0-.928.752-1.68 1.681-1.68h1.68a1.68 1.68 0 1 1 0 3.361h-1.68a1.68 1.68 0 0 1-1.681-1.681z" fill="#b996f2" opacity="1" data-original="#000000" class=""></path></g></svg>