<svg xmlns="http://www.w3.org/2000/svg" version="1.1" xmlns:xlink="http://www.w3.org/1999/xlink" width="512" height="512" x="0" y="0" viewBox="0 0 512 512" style="enable-background:new 0 0 512 512" xml:space="preserve" class=""><g><path d="M239.658 107.562h85.435a8 8 0 0 1 0 16h-85.435a8 8 0 0 1 0-16zm86.051 48.698h-23.875a8 8 0 0 0 0 16h23.875a8 8 0 0 0 0-16zm-165.236 16h111.216a8 8 0 0 0 0-16H160.473a8 8 0 0 0 0 16zm52.054-48.698a8 8 0 0 0 0-16h-54.575a8 8 0 0 0 0 16zm98.937 227.492H138.988a8 8 0 0 0 0 16h172.476a8 8 0 0 0 0-16zM138.987 220.958h187.338a8 8 0 0 0 0-16H138.987a8 8 0 0 0 0 16zm48.506-142.861h83.788a8 8 0 0 0 0-16h-83.788a8 8 0 0 0 0 16zm-26.542 0a8 8 0 0 0 0-16h-21.963a8 8 0 0 0 0 16zm154.937 183.56a8 8 0 0 0-8-8H139.604a8 8 0 0 0 0 16h168.285a8 8 0 0 0 7.999-8zm-175.669 40.698a8 8 0 0 0 0 16h162.188a8 8 0 0 0 0-16zm320.437 117.481c0 44.587-36.274 80.861-80.862 80.861s-80.862-36.274-80.862-80.861c0-.667.034-1.325.05-1.988H89.867c-8.752 0-15.874-7.121-15.874-15.874v-74.197l-15.985-24.413a8.002 8.002 0 0 1-1.307-4.383V188.184c-3.118-1.093-5.357-4.053-5.357-7.544V90.743a8 8 0 0 1 8-8h2.989V73.81c0-7.301 4.947-13.454 11.661-15.323v-31.31c0-8.753 7.121-15.874 15.874-15.874h241.37c2.279 0 4.434.464 6.414 1.341.056.024.114.039.169.065.139.063.271.141.407.209.229.113.459.225.683.35.222.124.437.26.653.395.197.123.397.241.589.373.261.179.512.375.764.572.138.108.281.207.417.32.388.323.765.663 1.128 1.025l.014.015L386.67 60.16c.36.36.697.733 1.018 1.118.134.161.252.33.379.494.175.227.352.452.513.687.141.205.267.417.397.626.127.205.257.409.374.619.127.228.241.461.356.694.066.135.143.264.206.4.025.055.041.113.064.168a15.747 15.747 0 0 1 1.341 6.417v185.796h25.292a7.999 7.999 0 0 1 7.009 4.145l18.408 33.463a8 8 0 0 1-.839 8.947l-33.252 40.299c30.753 11.456 52.72 41.109 52.72 75.803zm-88.774-113.192 7.911 28.764 7.911-28.764zm12.788-16-4.877-8.865-4.877 8.865zm12.755 40.99 20.621-24.99h-13.748zm24.063-40.99-4.877-8.865-4.877 8.865zm-18.409-17.463h-9.754l4.877 8.865zm-36.817 0h-9.754l4.877 8.865zm-28.163 17.463h9.754l-4.877-8.865zm3.442 16 20.622 24.991-6.874-24.991zm.958-246.521h21.503l-21.503-21.505zM97.984 172.641V98.743h-30.64v73.897h30.64zM78.333 82.743h7.321v-8.851h-7.321zm-5.632 213.853 9.963 15.216 9.963-15.216V188.641H72.701zm228.273 105.252c6.09-26.692 25.406-48.4 50.676-57.813l-33.253-40.299a8 8 0 0 1-.839-8.948l18.409-33.462a7.999 7.999 0 0 1 7.009-4.145h32.343V76.123h-36.884c-6.582 0-11.937-5.354-11.937-11.937v-36.88l-236.504-.003v31.186c6.713 1.869 11.66 8.021 11.66 15.322v8.933h10.994c11.934 0 21.643 9.709 21.643 21.644v69.125a8 8 0 0 1-16 0v-69.125c0-2.6-1.868-4.851-4.307-5.47v81.724c0 3.49-2.24 6.451-5.357 7.544v110.797c0 1.557-.454 3.08-1.307 4.383l-17.326 26.46v72.023h210.98zm143.682 17.988c0-35.766-29.097-64.862-64.862-64.862s-64.862 29.097-64.862 64.862 29.097 64.861 64.862 64.861 64.862-29.096 64.862-64.861zm-6.377 0c0 32.248-26.236 58.484-58.485 58.484s-58.485-26.236-58.485-58.484c0-32.249 26.236-58.485 58.485-58.485s58.485 26.236 58.485 58.485zm-16 0c0-23.427-19.059-42.485-42.485-42.485s-42.485 19.059-42.485 42.485 19.059 42.484 42.485 42.484c23.427 0 42.485-19.058 42.485-42.484z" fill="#b996f2" opacity="1" data-original="#000000" class=""></path></g></svg>