<svg xmlns="http://www.w3.org/2000/svg" version="1.1" xmlns:xlink="http://www.w3.org/1999/xlink" width="512" height="512" x="0" y="0" viewBox="0 0 504.016 504" style="enable-background:new 0 0 512 512" xml:space="preserve" class=""><g><path d="M183.36 315.727a16.786 16.786 0 0 0-31.02.09l-21.766 53.972-6.406 15.414a50.462 50.462 0 0 0 3.281 45.008 46.313 46.313 0 0 0 35.235 22.773 49.968 49.968 0 0 0 10.351.004 46.309 46.309 0 0 0 35.254-22.777 50.449 50.449 0 0 0 3.281-45.008zm10.503 105.89a29.685 29.685 0 0 1-22.547 14.672 33.488 33.488 0 0 1-6.91 0 29.691 29.691 0 0 1-22.535-14.672 33.602 33.602 0 0 1-2.203-29.972l28.164-69.551 21.832 54.14 6.406 15.41a33.59 33.59 0 0 1-2.207 29.973zM50.36 285.383a8.393 8.393 0 0 0-8.391 8.394v8.395a8.393 8.393 0 0 0 16.785 0v-8.395a8.394 8.394 0 0 0-8.395-8.394zM50.36 327.352a8.393 8.393 0 0 0-8.391 8.394V444.86a8.393 8.393 0 1 0 16.785 0V335.746a8.394 8.394 0 0 0-8.395-8.394zm0 0" fill="#b996f2" opacity="1" data-original="#000000" class=""></path><path d="M456.688 272.594c-20.563-10.578-38.352-19.957-44.793-40.61l38.273-38.273a16.788 16.788 0 0 0 0-23.742l-53.41-53.418a16.77 16.77 0 0 0-14.95-4.621L308.478 7.172A16.794 16.794 0 0 0 296.187.07a16.795 16.795 0 0 0-13.335 4.856l-95.278 95.277a16.85 16.85 0 0 0-2.804 20.024l12.332 22.203-22.2-12.34a16.881 16.881 0 0 0-20.027 2.808l-24.055 24.059a16.615 16.615 0 0 0-2.652 3.574C91.648 162.535 0 170.637 0 201.45v33.574a19.18 19.18 0 0 0 8.395 15.004v213.196c.05.476.144.945.285 1.406l.02.113c.113.75.327 1.48.636 2.168 10.066 28.8 102.574 36.703 158.531 36.703 59.235 0 159.477-8.84 159.477-41.968v-145.11L357.879 286c20.648 6.441 30.031 24.227 40.61 44.793a166.549 166.549 0 0 0 20.562 33.277 40.32 40.32 0 0 0 29.383 14.02 42.5 42.5 0 0 0 31.527-12.387l11.644-11.637a42.51 42.51 0 0 0 12.383-31.527 40.3 40.3 0 0 0-14.015-29.379 166.554 166.554 0 0 0-33.285-20.566zm-18.383-90.762L307.73 312.41l-53.414-53.418 130.575-130.57zm-416.567 57.09a15.034 15.034 0 0 1-4.945-3.918l-.008.004v-13.133a89.255 89.255 0 0 0 10.211 4.242l.367.125.028.012c29.668 10.746 82.117 17.164 140.476 17.164 16.684 0 33.36-.61 49.672-1.707l20.293 14.207c-.047.242-.035.492-.07.738a681.387 681.387 0 0 1-69.895 3.547c-65.066 0-125.113-8.73-146.129-21.281zm150.348-29.031 23.144 16.199c-9.082.344-18.218.539-27.363.539a591.88 591.88 0 0 1-104.61-8.395 592.247 592.247 0 0 1 104.61-8.39c1.434.023 2.82.035 4.215.047zm-5.34-65.125 47.883 26.601a8.395 8.395 0 0 0 10.016-1.398 8.396 8.396 0 0 0 1.398-10.016l-26.598-47.883 36.504-36.504 53.465 64.16a8.39 8.39 0 0 0 7.934 3.055 8.39 8.39 0 0 0 6.53-5.441 8.39 8.39 0 0 0-1.57-8.356l-54.44-65.336 46.855-46.855 73.312 104.738-120.613 120.614-104.735-73.317zM128.25 177.37a16.81 16.81 0 0 0 4.812 5.211l15.333 10.727C99.62 194.527 56.64 200.3 30.059 209.313a33.468 33.468 0 0 1-13.274-7.618v-.043c2.559-6.687 37.738-20.25 111.465-24.28zm39.617 309.457c-88.851 0-140.027-16.43-142.687-25.277V258.988c28.945 11.098 82.34 18 142.687 18a690.36 690.36 0 0 0 76.555-4.148l51.437 51.437a16.67 16.67 0 0 0 11.871 4.918c.95-.011 1.895-.105 2.829-.277v132.613c-2.579 8.844-53.758 25.297-142.692 25.297zM479.734 342.2l-11.64 11.64a25.764 25.764 0 0 1-19.04 7.473 23.695 23.695 0 0 1-17.292-8.199 152.284 152.284 0 0 1-18.348-30c-9.719-18.898-20.527-39.914-42.441-50.207l27.824-27.828c10.293 21.918 31.305 32.723 50.207 42.445a152.284 152.284 0 0 1 30 18.348 23.705 23.705 0 0 1 8.203 17.29c.25 7.109-2.453 14-7.473 19.038zm0 0" fill="#b996f2" opacity="1" data-original="#000000" class=""></path><path d="m289.926 247.121-5.934 5.934a8.39 8.39 0 0 0-2.273 8.156 8.393 8.393 0 0 0 14.14 3.715l5.938-5.934a8.399 8.399 0 0 0-.074-11.797c-3.25-3.246-8.508-3.28-11.797-.074zM378.95 158.098l-65.282 65.285a8.39 8.39 0 0 0-2.273 8.156 8.398 8.398 0 0 0 5.988 5.988 8.398 8.398 0 0 0 8.156-2.273l65.281-65.29a8.398 8.398 0 0 0 2.274-8.155 8.387 8.387 0 0 0-5.989-5.985 8.39 8.39 0 0 0-8.156 2.274zm0 0" fill="#b996f2" opacity="1" data-original="#000000" class=""></path></g></svg>