<svg xmlns="http://www.w3.org/2000/svg" version="1.1" xmlns:xlink="http://www.w3.org/1999/xlink" width="512" height="512" x="0" y="0" viewBox="0 0 96 96" style="enable-background:new 0 0 512 512" xml:space="preserve" class=""><g><path d="M38.56 54.15c1.68 0 3.61-2.83 3.84-6.59a13.56 13.56 0 0 0 0-2c-.35-3.52-2.18-6.1-3.79-6.1s-3.43 2.58-3.79 6.1a11.3 11.3 0 0 0-.05 2c.23 3.76 2.12 6.59 3.79 6.59zm0-12.66c.68.4 1.86 2.46 1.86 5.32v.94c-.23 2.55-1.34 4.08-1.82 4.37-.47-.29-1.59-1.82-1.82-4.37-.35-3.11.96-5.75 1.78-6.26zM31.72 12.23h5.84a1 1 0 0 0 0-2h-5.84a1 1 0 0 0 0 2z" fill="#b996f2" opacity="1" data-original="#000000"></path><path d="M95.77 48.57a.92.92 0 0 0-.44-.7l-.25-.12c-20.53-5.9-19.37-5.64-19.74-5.52l-.92.27c1.19-3.64 1.46-6 2.43-11.77a4.4 4.4 0 0 0-4.35-5.14h-3.43a4.61 4.61 0 0 0-8.67-2.06 16.12 16.12 0 0 1-6.79-7.24c-1.79-3.81-1.52-6.64-1.52-10.74a3.46 3.46 0 0 0-3.45-3.45H28.48A3.46 3.46 0 0 0 25 5.55v3.92a16.06 16.06 0 0 1-8.28 14.05 4.62 4.62 0 0 0-8.68 2.07H4.62a4.4 4.4 0 0 0-4.35 5.14l1 5.9a39.8 39.8 0 0 0 11.41 21.9L10 81a1 1 0 0 0 1 1.12h48.75c3.89 5.56 9.62 8.61 13.69 10.77 2.6 1.39 1.79 1.34 4.3 0 6.31-3.3 18.06-9.44 18.06-25.45 0-12.6.01-18.62-.03-18.87zm-6.06 2.72-13.1-3.77v-3l16 4.59zM75.63 86.23c-5.48-2.93-13.32-7.42-13.32-18.78V53.14l13.3-3.83 13.3 3.83v14.31c0 11.45-8.1 16.05-13.28 18.78zm-1-41.72v3l-13.1 3.77-2.89-2.18zM63.69 23.22a2.62 2.62 0 1 1 .65 5.12 4.09 4.09 0 0 0-1.16-.34 2.61 2.61 0 0 1 .51-4.78zm-8.53 20A2.62 2.62 0 1 1 54 41a2.58 2.58 0 0 1 1.16 2.19zm.9-3.74a2.62 2.62 0 0 1 3.27-3.51 4.43 4.43 0 0 0 1.13.77 2.62 2.62 0 0 1-3 4.13 2.55 2.55 0 0 1-1.4-1.42zM61.61 35a4.43 4.43 0 0 0-1.13-.77 2.62 2.62 0 0 1 2.13-4.31c.95.45 1.06.12 1.72.77a2.62 2.62 0 0 1-1.85 4.47 2.51 2.51 0 0 1-.87-.16zM25.32 17.15c2-4.23 1.71-7.4 1.71-11.6a1.45 1.45 0 0 1 1.45-1.45h20.16a1.45 1.45 0 0 1 1.45 1.45 41.51 41.51 0 0 0 0 4.68h-6.68a1 1 0 0 0 0 2h6.92a17.94 17.94 0 0 0 9.52 13.28 4.55 4.55 0 0 0 .79 2.81A4.6 4.6 0 0 0 58 33.81a4.63 4.63 0 0 0-4.19 4.6 2.17 2.17 0 0 0 0 .36A4.61 4.61 0 0 0 48 44.16c-.57.21-1.16.4-1.75.57-.68-5.26-3.88-9.25-7.71-9.25s-7 4-7.71 9.25c-.58-.17-1.16-.35-1.72-.56a4.62 4.62 0 0 0-5.85-5.4 2.17 2.17 0 0 0 0-.36 4.62 4.62 0 0 0-4.18-4.6 4.61 4.61 0 0 0-2.61-5.49 4.62 4.62 0 0 0 .8-2.6 1.69 1.69 0 0 0 0-.23 18.16 18.16 0 0 0 8.05-8.34zm7.49 28.06c.49-4.33 2.92-7.73 5.75-7.73s5.26 3.4 5.75 7.73a14.39 14.39 0 0 1 .08 2c-.14 4.87-2.75 8.9-5.83 8.9s-5.69-4-5.83-8.9a12 12 0 0 1 .08-2zm-6.49 0a2.62 2.62 0 1 1 .91-2 2.62 2.62 0 0 1-.91 1.96zM12.81 30.72c.67-.67.71-.31 1.74-.78a2.62 2.62 0 0 1 2.11 4.32 4.1 4.1 0 0 0-1.12.76 2.45 2.45 0 0 1-.86.15 2.62 2.62 0 0 1-1.87-4.45zm3.88 6A4.21 4.21 0 0 0 17.8 36a2.43 2.43 0 0 1 .88-.16 2.62 2.62 0 1 1-2 .92zm-4.75-13.5a2.63 2.63 0 0 1 3.37 2.51 2.58 2.58 0 0 1-1.2 2.19.29.29 0 0 1-.11.08 2.58 2.58 0 0 1-1.82.3 2.62 2.62 0 0 1-.24-5.09zM3.23 36.3l-1-5.9a2.41 2.41 0 0 1 2.38-2.81h3.85A4.65 4.65 0 0 0 10.85 30a4.63 4.63 0 0 0 3.39 7.2A4.61 4.61 0 0 0 20 42.83a2.17 2.17 0 0 0 0 .36A4.62 4.62 0 0 0 28.28 46c.79.3 1.6.56 2.44.79 0 6.24 3.52 11.32 7.84 11.32s7.84-5.08 7.84-11.32a25.23 25.23 0 0 0 2.46-.8 4.62 4.62 0 0 0 8.3-2.78 2.17 2.17 0 0 0 0-.36 4.62 4.62 0 0 0 5.77-5.67A4.62 4.62 0 0 0 66.29 30a4.72 4.72 0 0 0 2.4-2.38h3.81a2.41 2.41 0 0 1 2.38 2.81c-.95 5.66-1.28 8.62-2.82 12.77l-15.91 4.55-.25.12a.93.93 0 0 0-.45.7c-.1.71.07 14.31 0 14.31l-14.32 8.24a5.18 5.18 0 0 1-5.14 0L21.7 62.88A37.76 37.76 0 0 1 3.23 36.3zm8.92 43.8 2.33-19.89c3.94 3.39 6.2 4.4 20.51 12.64a7.14 7.14 0 0 0 7.14 0l13.3-7.66v2.26A25.42 25.42 0 0 0 58.5 80.1zm50.16 2a22.59 22.59 0 0 1-4.88-14.65V50.72l2.88 2.16v14.57C60.31 79.93 69 85 74.61 88v3.26c-4.61-2.49-8.86-4.87-12.3-9.16zm14.5 9-.2.1V88c5.28-2.79 14.3-7.93 14.3-20.53V52.88l2.89-2.16v16.73c0 14.8-11.05 20.55-16.99 23.68z" fill="#b996f2" opacity="1" data-original="#000000"></path><path d="M86.72 58.79a3 3 0 0 0-5.23-1.72l-8.6 10-3.59-2.81A3 3 0 0 0 65.64 69l5.82 4.54a3 3 0 0 0 4.09-.4L86 61a3 3 0 0 0 .72-2.21zm-2.23.86L74 71.78a1 1 0 0 1-.74.34c-.47 0-.14.15-6.42-4.74a1 1 0 0 1 .61-1.75c.46 0 .26 0 4.93 3.59a1 1 0 0 0 1.37-.14L83 58.37a1 1 0 0 1 1.48 1.28z" fill="#b996f2" opacity="1" data-original="#000000"></path></g></svg>