<svg xmlns="http://www.w3.org/2000/svg" version="1.1" xmlns:xlink="http://www.w3.org/1999/xlink" width="512" height="512" x="0" y="0" viewBox="0 0 64 64" style="enable-background:new 0 0 512 512" xml:space="preserve" class=""><g><g data-name="22 Jewelry making"><path d="M24.766 26.766a3 3 0 0 0 4.242 4.244 3 3 0 1 0-4.243-4.243zm2.828 2.834a1 1 0 1 1-.706-1.707 1 1 0 0 1 .706 1.707z" fill="#b996f2" opacity="1" data-original="#000000"></path><path d="M60.828 41.615 59.414 40.2a35.741 35.741 0 0 0-21.575-10.261l-6-6-6.364-6.365a.959.959 0 0 0-.134-.112l-4.041-2.83a1 1 0 0 0-1.146 1.639l3.97 2.778 2.843 2.851a7.037 7.037 0 0 0-2.424.406l-1.191-1.192a3.078 3.078 0 0 0-3.4-.568L15.914 16.5l.793-.793a10.911 10.911 0 0 0 0-15.414 1 1 0 0 0-1.414 1.414 8.911 8.911 0 0 1 0 12.586l-.793.793L9.917 10.5l.821-.821 2.827 1.979a1 1 0 0 0 1.148-1.639L11.2 7.562a1 1 0 0 0-1.281.112L7.8 9.8l-2.126 2.117a1 1 0 0 0-.112 1.28l4.458 6.369-7.727 7.727a1 1 0 1 0 1.414 1.414l7.478-7.478 4.276 6.11a.966.966 0 0 0 .113.134l6.363 6.364a6.991 6.991 0 0 0 9.136.65l2.687 2.687.045.759a29.637 29.637 0 0 0 8.639 19.239l1.414 1.414a2 2 0 0 1 0 2.828 2.048 2.048 0 0 1-2.829 0L39.615 60A33.729 33.729 0 0 1 29.9 39.294a1 1 0 1 0-1.991.184A35.725 35.725 0 0 0 38.2 61.414l1.414 1.414a4 4 0 0 0 5.657-5.656l-1.414-1.414A27.647 27.647 0 0 1 35.8 37.815V37.8h.016a27.648 27.648 0 0 1 17.941 8.056l1.415 1.415a4 4 0 1 0 5.656-5.657zM21.937 22.523l.764.764a6.3 6.3 0 0 0-1.414 1.413l-.764-.763a1 1 0 0 1 0-1.414 1.022 1.022 0 0 1 1.414 0zm-4.887 3.6L7.682 12.738l.82-.821 10.021 10.021a3 3 0 0 0 .586 3.414l1.191 1.191a7.027 7.027 0 0 0-.407 2.422zm6.3 6.3a5 5 0 1 1 7.071 0 5.006 5.006 0 0 1-7.069 0zm36.064 13.435a2 2 0 0 1-2.828 0l-1.415-1.415a29.638 29.638 0 0 0-19.237-8.638l-.76-.045-2.686-2.686a6.934 6.934 0 0 0 1.4-4.186v-.076l2.8 2.795a1 1 0 0 0 .615.289A33.731 33.731 0 0 1 58 41.615l1.414 1.414a2 2 0 0 1 0 2.829zM11 50.1V47a1 1 0 0 0-2 0v3.1a5 5 0 1 0 2 0zM10 58a3 3 0 1 1 3-3 3 3 0 0 1-3 3z" fill="#b996f2" opacity="1" data-original="#000000"></path><path d="M23 50.1V47a1 1 0 0 0-2 0v3.1a5 5 0 1 0 2 0zM22 58a3 3 0 1 1 3-3 3 3 0 0 1-3 3zM37 20a8 8 0 1 0 10.1-7.71l3.535-3.59a1 1 0 0 0 .13-1.241l-1.923-3A1 1 0 0 0 48 4h-6a1 1 0 0 0-.842.46l-1.923 3a1 1 0 0 0 .13 1.241L42.9 12.29A8.006 8.006 0 0 0 37 20zm5.547-14h4.906l1.2 1.867L45 11.574l-3.65-3.707zM45 14a6 6 0 1 1-6 6 6.006 6.006 0 0 1 6-6zM6.754 41.945l7.017.055h.007a1 1 0 0 0 1-1.008l-.054-7.016a1 1 0 0 0-.787-.969l-3.48-.762a.993.993 0 0 0-.921.27l-4.243 4.243a1 1 0 0 0-.27.921l.762 3.48a1 1 0 0 0 .969.786zm3.809-7.63 2.167.475.041 5.2-5.2-.041-.474-2.166z" fill="#b996f2" opacity="1" data-original="#000000"></path></g></g></svg>