<svg xmlns="http://www.w3.org/2000/svg" version="1.1" xmlns:xlink="http://www.w3.org/1999/xlink" width="512" height="512" x="0" y="0" viewBox="0 0 518.87 518.87" style="enable-background:new 0 0 512 512" xml:space="preserve" class=""><g><path d="M483.302 378.912h-.956a8.37 8.37 0 0 1 0-16.738h.956c10.394-.014 18.816-8.436 18.83-18.83V35.568c-.013-10.394-8.436-18.817-18.83-18.83H35.568c-10.394.013-18.817 8.436-18.83 18.83v307.776c.014 10.394 8.436 18.816 18.83 18.83h107.757a8.37 8.37 0 0 1 0 16.738H35.568C15.933 378.891.02 362.979 0 343.344V35.568C.022 15.933 15.933.022 35.568 0h447.734c19.634.022 35.546 15.933 35.568 35.568v307.776c-.021 19.635-15.933 35.547-35.568 35.568z" fill="#b996f2" opacity="1" data-original="#000000" class=""></path><path d="M218.931 88.919H108.795a8.37 8.37 0 0 1 0-16.738h110.136a8.37 8.37 0 0 1 0 16.738zM410.074 88.919H299.939a8.37 8.37 0 0 1 0-16.738h110.136a8.37 8.37 0 1 1-.001 16.738zM163.863 150.934h-55.068a8.37 8.37 0 0 1 0-16.738h55.068a8.37 8.37 0 0 1 0 16.738zM356.347 150.934h-55.068a8.37 8.37 0 0 1 0-16.738h55.068a8.37 8.37 0 0 1 0 16.738zM315.696 277.21c-7.64.049-15.266-.674-22.761-2.158a8.37 8.37 0 0 1-6.555-8.169c.047-43.008 34.951-77.836 77.959-77.788 42.942.047 77.741 34.847 77.788 77.788a8.366 8.366 0 0 1-8.279 8.365c-.155.008-.311.008-.466.008a61.658 61.658 0 0 1-49.853-25.883 87.15 87.15 0 0 1-67.833 27.837zm-12.169-17.407c16.019 1.851 55.117 2.497 74.159-31.183a8.364 8.364 0 0 1 15.291 1.696 39.734 39.734 0 0 0 31.686 27.117c-5.25-33.361-36.55-56.15-69.911-50.9-27.088 4.263-48.026 26.036-51.225 53.27zM130.943 350.07a8.38 8.38 0 0 1-7.715-5.124l-24.134-57.462c-7.763-18.209.705-39.263 18.914-47.026s39.263.705 47.026 18.914l.063.149 23.595 56.306a8.365 8.365 0 0 1-4.266 10.862l-50.033 22.638a8.327 8.327 0 0 1-3.45.743zm1.055-95.719c-10.518.014-19.032 8.552-19.018 19.07v.005c.005 2.6.53 5.174 1.545 7.568l20.808 49.535 34.783-15.741-20.432-48.763a19.254 19.254 0 0 0-17.686-11.674z" fill="#b996f2" opacity="1" data-original="#000000" class=""></path><path d="M483.841 518.87H262.124c-10.882-.012-19.7-8.831-19.713-19.713v-89.156h-64.254a40.903 40.903 0 0 1-37.725-24.984l-17.179-40.014a8.371 8.371 0 0 1 4.242-10.927l50.033-22.638a8.37 8.37 0 0 1 11.075 4.177l.04.089 8.679 19.794a4.438 4.438 0 0 0 4.103 2.778h130.322a8.37 8.37 0 0 1 0 16.738H201.425a21.116 21.116 0 0 1-19.476-12.888l-5.239-11.948-34.84 15.765 13.959 32.503a24.202 24.202 0 0 0 22.328 14.817h72.623a8.364 8.364 0 0 1 8.369 8.359v97.534a2.976 2.976 0 0 0 2.975 2.975h221.718a2.975 2.975 0 0 0 2.975-2.975v-90.995c-.032-29.339-23.808-53.115-53.147-53.147h-36.826a8.37 8.37 0 0 1 0-16.738h36.826c38.578.044 69.841 31.307 69.885 69.885v90.995c-.013 10.883-8.832 19.702-19.714 19.714z" fill="#b996f2" opacity="1" data-original="#000000" class=""></path><path d="M435.205 518.87a8.364 8.364 0 0 1-8.369-8.359V403.397a8.37 8.37 0 0 1 16.738 0V510.5a8.364 8.364 0 0 1-8.359 8.369l-.01.001zM108.787 350.07a8.366 8.366 0 0 1-7.527-12.014l96.242-199.132a8.369 8.369 0 1 1 15.106 7.208l-.036.074-96.242 199.14a8.373 8.373 0 0 1-7.543 4.724zM364.299 372.921a46.679 46.679 0 0 1-39.63-21.805 8.356 8.356 0 0 1-1.299-4.479v-13.485a77.821 77.821 0 0 1-36.99-66.268 8.383 8.383 0 0 1 10.167-8.172c2.329.503 57.364 11.953 81.139-30.092a8.364 8.364 0 0 1 15.291 1.696c8.508 28.114 40.112 28.073 40.692 28.2a9.012 9.012 0 0 1 5.974 2.419 8.356 8.356 0 0 1 2.485 5.95 77.892 77.892 0 0 1-36.908 66.26v13.493c0 1.586-.45 3.139-1.299 4.479a46.67 46.67 0 0 1-39.613 21.805h-.009zm-24.191-28.874c9.963 13.36 28.87 16.114 42.229 6.151a30.14 30.14 0 0 0 6.145-6.143v-15.741a8.367 8.367 0 0 1 4.421-7.38 61.263 61.263 0 0 0 32.004-46.372 60.187 60.187 0 0 1-41.378-25.188c-24.208 28.343-61.271 29.005-79.627 27.281a61.215 61.215 0 0 0 31.767 44.271 8.378 8.378 0 0 1 4.438 7.388z" fill="#b996f2" opacity="1" data-original="#000000" class=""></path></g></svg>